<svg xmlns="http://www.w3.org/2000/svg" xml:space="preserve" id="Layer_1" x="0" y="0" viewBox="0 0 1200 700"><path fill="#ff97eb" d="M631.2 233.2c-20.6-14-40.7-30.2-65.9-34.5-20.7-3.5-44.2 2.8-55.9 20.2-8.1 12.1-10 28.2-20.4 38.4-18.5 17.9-52.5 7.2-71.7 24.2-10.1 8.9-13.5 23.5-22.8 33.3-18.3 19.6-55.5 17.1-67.4 41.1-5.1 10.3-3.5 23 1.5 33.3s13.2 18.8 21.4 26.9c19.6 19.2 41 37.3 66 48.6s54.3 15.2 80.1 5.9c18.8-6.8 34.6-20.1 48.1-34.7 2.2-2.4 4.5-4.9 7.6-5.9 7.7-2.6 14.7 5 19.3 11.8 17.3 25.3 39.9 52.8 70.6 53.1 21 .2 40.1-13.1 53.3-29.5 5.7-7 10.7-14.9 18.4-19.7 11.7-7.3 26.6-6 40.2-8.3 27.1-4.6 50.5-26 57.5-52.6s-2.8-56.8-24.1-74.1c15.5-9.6 19.2-31.9 11.8-48.6-7.3-16.6-23.1-28.1-39.6-35.7-21-9.6-44.3-14.3-67.3-13.4-10.3.4-62.7 5.3-60.7 20.2"/><path fill="#3e00ff" d="M497.8 285.6c-12.4 13.5-24.7 27-37.1 40.4-6 6.5-12.6 12.8-18.1 19.8-5.2 6.6-1.7 12.3 3.4 17.6 10.5 10.8 24.2 17.6 36.7 25.7 13.4 8.8 25.4 19.5 35.9 31.6 5.1 5.9 13.5-2.7 8.5-8.5-9.3-10.8-19.8-20.3-31.3-28.7-11.2-8.1-23.9-14.1-34.7-22.7q-3.75-3-7.2-6.6c-.7-.8-1.4-1.5-2.1-2.3.1.4.1.8.2 1.2.4-1.4 2.9-3.2 4-4.3 5.7-6.3 11.5-12.5 17.2-18.8 11-12 22.1-24.1 33.1-36.1 5.2-5.5-3.3-14-8.5-8.3"/><path fill="#3e00ff" d="M563.6 332.4c-11.1-8.8-26.8-10.7-38.8-2.4-10.8 7.5-20.3 22.7-15.4 36.1 5.3 14.5 22.5 16.4 32.9 5.8 5-5.1 7.8-12 10.3-18.5 2.9-7.5 5-15.3 6.5-23.3 3.5-18.3 4-37 3.7-55.5-.1-6.5-10.8-8.5-11.8-1.6-3.5 24.9-5.3 50-5.1 75.1.1 8.6 1 20.3 10.7 23.5 7.6 2.5 17.7-2.3 17.1-11.2C573.2 352.7 561.2 352.7 561.7 360.4c0 .1 1 0-.2-.2-1-.2-.9.1-1.8-.7-1.9-1.6-1.7-5.8-1.8-8.1-.3-8.2 0-16.5.2-24.8.6-16.9 2.1-33.8 4.4-50.6-3.9-.5-7.9-1.1-11.8-1.6.2 14.8.1 29.6-2 44.3-1.9 13.6-4.9 29.1-12.3 40.9-2.6 4.2-9 10.3-13.9 5.5-4.4-4.3-2.2-11.4.4-16 6.5-11.2 20.8-17.3 32-8.4 6.1 4.9 14.7-3.5 8.7-8.3M592.9 331.6c-2.3 12.4-4.6 24.8-7 37.1-1.4 7.5 10.1 10.8 11.6 3.2 2.3-12.4 4.6-24.8 7-37.1 1.4-7.6-10.2-10.8-11.6-3.2M587.6 304.4v1.7c0 1.5.7 3.2 1.8 4.2 1 1 2.7 1.8 4.2 1.8 1.6-.1 3.2-.6 4.2-1.8 1.1-1.2 1.8-2.6 1.8-4.2v-1.7c0-1.5-.7-3.2-1.8-4.2-1-1-2.7-1.8-4.2-1.8-1.6.1-3.2.6-4.2 1.8-1.1 1.1-1.8 2.6-1.8 4.2M617.8 324.7c.5 20.6 5.4 40.6 14.6 59.1 2 4 8.3 3.8 10.4 0 9.8-18.6 19.7-37.1 29.5-55.7 3.6-6.8-6.7-12.9-10.4-6.1-9.8 18.6-19.7 37.1-29.5 55.7h10.4c-8.2-16.6-12.6-34.6-13-53.1-.2-7.6-12.2-7.6-12 .1M680.9 279.7c4.5 11.2 11.9 20.4 20.5 28.9 8.3 8.2 18.9 15.9 25.4 25.8 2 3.1-.7 5.9-2.2 8.9-1.8 3.5-3.6 7.1-5.4 10.6-3.6 7.1-7.2 14.1-10.9 21.2-3.6 7.1-7.2 14.1-10.9 21.2-3.7 7.3-6.9 15.6-11.6 22.2 1.2-.9 2.4-1.8 3.6-2.8-.4.1-.7.3-1.1.4 2.3.9 4.5 1.8 6.8 2.8-.1-.2-.3-.4-.4-.5.2 1.5.4 3.1.6 4.6.1-.2.2-.4.2-.7-1.9 1.5-3.9 2.9-5.8 4.4.2 0 .3 0 .5.1 7.7.8 7.6-11.2 0-12-.2 0-.3 0-.5-.1-2.7-.3-5 2.1-5.8 4.4-.7 2-.5 4.1.7 5.8 1.5 2.1 4.1 3.7 6.8 2.8 4.1-1.4 5.3-4.1 7.2-7.7l6.3-12.3c3.9-7.6 7.8-15.3 11.8-22.9 4.1-7.9 8.2-15.9 12.2-23.8 2-3.8 3.9-7.6 5.9-11.5 1.8-3.4 4.1-7.1 4.9-10.9 1.3-6.8-4.1-12.3-8.2-17-4.6-5.2-9.7-9.9-14.7-14.7-9.4-8.8-19.4-18-24.3-30.3-2.9-7.1-14.5-4-11.6 3.1"/><path fill="#dd26b6" d="m216.7 192.8-1-1c-.8-.8-2-1.3-3.2-1.3-1.1 0-2.4.5-3.2 1.3-.8.9-1.4 2-1.3 3.2s.5 2.3 1.3 3.2l1 1c.8.8 2 1.3 3.2 1.3 1.1 0 2.4-.5 3.2-1.3.8-.9 1.4-2 1.3-3.2s-.5-2.3-1.3-3.2M231.3 148c-.9 14.7.2 29.3 3.2 43.8 1.1 5.1 8.7 3.7 8.8-1.2.2-4.6.2-9.6 2.2-13.8.7-1.6 2-3.7 3.6-4.6 3.1-1.7 4.5.9 5.4 3.7 2.6 8.3-3.8 17.8-12.9 14.2-5.4-2.1-7.7 6.6-2.4 8.7 7.1 2.8 15.4.3 20.3-5.4 5.7-6.6 5.8-16.2 2.2-23.8-4-8.2-12.3-9.6-19.1-3.6-7.1 6.2-8 15.8-8.3 24.7 2.9-.4 5.9-.8 8.8-1.2-2.8-13.6-3.8-27.5-2.9-41.4.5-5.9-8.5-5.9-8.9-.1M300.2 166.9c-4-5.8-11.6-12.3-18.4-6.2-6.3 5.7-9 17.7-9.4 25.8-.4 8.4 6.3 12.3 13.1 6.8 6.9-5.5 10.6-13.3 11.7-21.9-2.9.4-5.9.8-8.8 1.2q4.65 21.75 6.9 43.8c.4 4.3 2.7 13.3-.8 16.8-2.3 2.4-5.9.3-7.6-1.9-1.9-2.6-2.5-6.3-2.9-9.4C283.4 216.2 274.3 216.1 275 221.9c.9 8.1 3.3 16.9 11.6 20.2 7.7 3.1 15.6-1 17.7-9 2.4-9.1-.3-20.1-1.6-29.3-1.5-11.3-3.4-22.5-5.8-33.7-1.1-5.4-8.2-3.4-8.8 1.2-.5 3.8-2 7.4-4.2 10.5-.9 1.3-3.4 2.9-4 4.3-1.4.8-.9 1.5 1.3 2.1 0-.9 0-1.8.2-2.7.4-4.5 1.7-9 3.5-13.1.5-1.1 1.2-3.7 2.2-4.3 2.5-1.5 4 1.5 5.2 3.3 3.3 4.8 11.1.3 7.9-4.5M318.7 175.4c5.7-2.3 11.4-4.5 17.1-6.8 5.3-2.1 3-10.8-2.4-8.7-5.7 2.3-11.4 4.5-17.1 6.8-5.3 2.1-3 10.8 2.4 8.7M353.9 165c.5 15.7 2.2 31.4 5.1 46.8l8.7-2.4c-4.6-15.5-9.8-35.2-4.8-51.2 1-3.1 2.7-7.2 5.5-9.2 2.1-1.5 2.1-.9 2.9 1.4.5 1.6.7 3.3.9 5 .4 3.6.5 7.4-.3 11-.4 1.9-1 3.7-2.1 5.3-1.2 2-3.1 2.7-2.9 5.1-.6-5.7-9.6-5.8-9 0 .7 6.2 6.6 9.6 12.3 6.7 5-2.6 8.4-8.1 9.9-13.4 2.4-8.2 3.2-29.5-8.6-31.5-6-1-10.8 4.6-13.7 9.1-3.3 5.2-4.8 11.4-5.4 17.5-1.5 15.4 2.3 31.8 6.6 46.4 1.7 5.6 9.7 3.2 8.7-2.4q-4.05-22.05-4.8-44.4c-.2-5.6-9.2-5.6-9 .2"/><path fill="#dd26b6" d="M382 161v12c0 5.8 9 5.8 9 0v-12c0-5.8-9-5.8-9 0M392.8 141.8c-.3-1-.7-2-1-3-.4-1.1-1-2.1-2.1-2.7-1-.6-2.4-.8-3.5-.5-2.2.7-3.9 3.1-3.1 5.5.3 1 .7 2 1 3 .4 1.1 1 2.1 2.1 2.7 1 .6 2.4.8 3.5.5 2.2-.7 3.9-3.1 3.1-5.5M399.1 150c-.7 7.4 0 14.8 2 22 1.3 4.7 9.3 4 8.8-1.2-.5-5.8-.2-11.6 1.3-17.3.7-2.5 1.5-5.1 2.5-7.5.5-1.2 1.7-2.7 2-4 .3-.5.6-1 .8-1.5-2.2 0-2.8.6-1.9 1.8 0 2.2 3 5.8 4.1 7.9l4.5 8.7c3 5.8 6 11.7 9 17.5 2.7 5.1 10.4.6 7.8-4.5-4.2-8.2-8.4-16.3-12.6-24.5-2.5-4.9-5.8-16.1-12.9-15.4-6.4.6-9.4 10.8-11.1 15.9-2.4 7.4-3.2 15.2-2.5 22.9 2.9-.4 5.9-.8 8.8-1.2-1.8-6.5-2.3-12.9-1.6-19.6.6-5.7-8.4-5.7-9 0M443.5 109c1.6 21.4 4 42.8 7 64.1.8 5.7 9.5 3.3 8.7-2.4-3-20.5-5.2-41.1-6.7-61.7-.4-5.7-9.4-5.8-9 0"/><path fill="#dd26b6" d="M466.2 129.8c-1.2 5.7-4.1 8.9-8 12.9-3.3 3.3-3 7-1.3 11.1 3.8 9 10.4 16.2 18.8 21.1 5 2.9 9.5-4.8 4.5-7.8-3.6-2.1-6.9-4.7-9.6-7.9-1.7-2-6.1-7.1-5.8-9.7.2-1.5 4.3-4.7 5.6-6.5 2.3-3.2 3.8-6.9 4.6-10.8 1.1-5.6-7.6-8-8.8-2.4"/><path fill="#37cae2" d="M869.9 130.9c-.7.2-1.5.3-2.2.5-1.1.2-2.1 1.1-2.7 2.1s-.8 2.4-.5 3.5c.8 2.4 3.1 3.7 5.5 3.1.7-.2 1.5-.3 2.2-.5 1.1-.2 2.1-1.1 2.7-2.1s.8-2.4.5-3.5c-.8-2.4-3.1-3.6-5.5-3.1M894 146.4c3.6-7.5 9.9-12.4 18-14l-5.5-5.5c-1.5 6.5-3.4 12.9-5.4 19.2-1.3 4.1 3.3 6.6 6.6 5.1 7.9-3.6 15.8-7.3 23.7-10.9l-6.6-5.1c-1.6 6.9-3.6 13.7-5.9 20.4-1.9 5.5 6.8 7.8 8.7 2.4 2.3-6.7 4.3-13.5 5.9-20.4.9-4.1-3.1-6.7-6.6-5.1-7.9 3.6-15.8 7.3-23.7 10.9l6.6 5.1q3.15-9.45 5.4-19.2c.8-3.5-2.2-6.2-5.5-5.5-10.2 2.1-18.9 8.8-23.4 18.2-2.6 5 5.1 9.6 7.7 4.4M957.9 113.5c-8.3 17.9-16.7 35.8-25 53.7 2.7 1.2 5.5 2.3 8.2 3.5 1.9-5.7 5.6-10.2 10.2-14 2-1.7 4.4-3.5 6.8-4.6 2-.9 3.9-2.2 5 .2.5 1.2-.4 3.3-.9 4.4-2.1 5.1-6 9.7-10.7 12.6-2.1 1.3-4.5 2.3-7 2.7-.9.1-8.6-.7-7.4-1.7 4.5-3.6-1.9-9.9-6.4-6.4-3.8 3-3.9 8.6-1 12.2 3.3 4.2 9.5 5.3 14.6 4.9 11.2-1 21-9.6 25.6-19.6 2.2-4.8 3.3-10.3.3-15-3.1-4.9-8.8-5.7-13.8-3.6-10.8 4.5-20.5 14.3-24.1 25.5-1.6 4.8 6.1 8.1 8.2 3.5 8.3-17.9 16.7-35.8 25-53.7 2.6-5.3-5.2-9.9-7.6-4.6M978.5 173.8c5.6 4.4 11.5 8.2 17.9 11.2 5.2 2.5 9.8-5.3 4.5-7.8-5.7-2.7-11.1-5.9-16.1-9.8-4.4-3.5-10.8 2.8-6.3 6.4M1030.9 172.1c4-1.2 8.1-2.5 12.1-3.7l-5.1-6.6c-8.6 17.7-19.1 34.4-31.4 49.7 2.5 1.5 5 2.9 7.5 4.4.2-.6.4-1.3.6-1.9 1.8-5.5-6.9-7.9-8.7-2.4-.2.6-.4 1.3-.6 1.9-1.3 4.1 4.7 7.9 7.5 4.4 12.9-15.9 23.9-33.1 32.8-51.6 1.6-3.3-1.1-7.8-5.1-6.6s-8.1 2.5-12.1 3.7c-5.4 1.8-3.1 10.5 2.5 8.7"/><path fill="#37cae2" d="M995.5 209.3c4.5 3.1 8.9 6.5 13 10.1 1.8 1.5 3.5 3.1 5.2 4.7 1.1 1 2.1 2 3.1 3.1.6.6 1.7 2.5 1.5 1.5.4-1.5.8-2.9 1.2-4.4l-.6.6c1.8-.2 3.6-.5 5.5-.7-.2-.1-.4-.2-.7-.3-5.3-2.3-9.8 5.5-4.5 7.8.2.1.4.2.7.3 1.9.8 3.9.8 5.5-.7 5.5-5.4-2.7-11.3-6.4-14.7-5.9-5.5-12.2-10.4-18.7-15-5-3.4-9.6 4.4-4.8 7.7"/><path fill="#3e00ff" d="M60.1 526.3c.3-1 .7-2 1-3 .4-1.1.1-2.5-.5-3.5-.5-.9-1.6-1.8-2.7-2.1-2.5-.6-4.7.8-5.5 3.1-.3 1-.7 2-1 3-.4 1.1-.1 2.5.5 3.5.5.9 1.6 1.8 2.7 2.1 2.5.6 4.7-.7 5.5-3.1M110.9 458.3c-10.6 15.8-21.5 33.9-26 52.5-1.7 7-3.3 17.2 1.9 23.1 4.8 5.5 12.8 4.5 19.2 2.8 5.6-1.6 3.2-10.3-2.4-8.7-2.4.7-5.4 1.6-7.9 1-3.4-.8-3.3-4.4-3.2-7.4.1-7.2 2.6-14.1 5.4-20.6 5.7-13.4 12.8-26.1 20.9-38.2 3.1-4.8-4.7-9.3-7.9-4.5"/><path fill="#3e00ff" d="M97.3 498.6c7.3-2.7 14.7-4.1 22.5-4.2 5.8-.1 5.8-9.1 0-9q-12.75.15-24.9 4.5c-5.3 1.9-3 10.6 2.4 8.7M118.8 522.1c10.3-1.8 28.3-4.8 30-17.8.6-4.8-1.3-9.7-5.8-11.9-5.7-2.8-11.8.6-15.9 4.6-8.6 8.2-16.3 22.3-7.8 33.2 8.4 10.9 23.1 8.2 34.2 4 5.4-2 3-10.7-2.4-8.7-6.6 2.5-14.5 5.4-21.3 1.9-7.7-4-5.3-12.9-1.1-18.7 2-2.7 4.7-6.2 7.8-7.7 4.9-2.4 3.8 3.3 1.6 5.4-5.1 4.8-15.1 5.9-21.6 7.1-5.8.9-3.4 9.6 2.3 8.6"/><path fill="#3e00ff" d="M182.1 509.3c-5.8-.7-9.8 3.7-13.5 7.6-5.2 5.5-10.5 11.1-15.7 16.6-4 4.2 2.4 10.6 6.4 6.4 3.9-4.1 7.7-8.2 11.6-12.3 2.6-2.7 7.1-9.8 11.2-9.3 5.7.7 5.7-8.3 0-9"/><path fill="#3e00ff" d="M160.3 503.1c-.3 16.8 7.6 32.2 20.9 42.3 4.6 3.5 9.1-4.3 4.5-7.8-10.8-8.1-16.7-21.1-16.5-34.5.2-5.7-8.8-5.7-8.9 0M208.7 479.7c-3.4 9.1-6.7 18.3-10.1 27.4-3.2 8.7-7.4 17.6-9.2 26.7-1.5 7.3-1.1 15 4 20.9 4.2 5 10.6 7.5 17 5.6 5.5-1.7 3.2-10.4-2.4-8.7-5.9 1.8-10.1-4.4-10.4-9.6-.4-6.8 2.7-13.5 5-19.7 4.9-13.4 9.8-26.8 14.8-40.2 2-5.4-6.7-7.8-8.7-2.4"/><path fill="#3e00ff" d="M201 527.9c6-1.2 12.1-2.4 18.1-3.6 5.7-1.1 3.3-9.8-2.4-8.7-6 1.2-12.1 2.4-18.1 3.6-5.7 1.1-3.3 9.8 2.4 8.7M231.5 548.8c4.6-1.1 9.2-2.1 13.8-3.2 5.6-1.3 3.3-10-2.4-8.7-4.6 1.1-9.2 2.1-13.8 3.2-5.6 1.4-3.2 10 2.4 8.7M276.7 504.5c-7.1 21.3-14.3 42.7-21.4 64-1.7 4.9 5.6 7.7 8.2 3.5 6.3-10.3 13.7-22.9 26.5-25.5 1-.2 2-.5 2.2 0s-2 3.9-2.2 4.4c-1.5 2.7-3.1 5.5-5 8s-4.1 4.8-6.8 6.4c-1.4.9-2.9 1.6-4.5 2-.9.2-3.7-.1-3.4 1.2-.2 1.2-.3 2.3-.5 3.5.1-.3.3-.5.4-.8 2.7-5.1-5.1-9.7-7.8-4.5-2.1 4 0 8.1 4.2 9.5 4.7 1.6 10.5-.1 14.7-2.3 5-2.6 8.8-6.7 12-11.3 3-4.3 7.1-10.2 7.8-15.6 1.8-13.3-15-9.6-21.9-5.9-10.7 5.8-17.4 16.4-23.6 26.5 2.7 1.2 5.5 2.3 8.2 3.5 7.1-21.3 14.3-42.7 21.4-64 2-5.7-6.6-8.1-8.5-2.6"/><path fill="#3e00ff" d="M294.6 576c23.3-17.5 39.3-43.4 43.6-72.3.6-3.8-4.4-8.4-7.5-4.4-11.8 15.3-19.4 33.2-22.2 52.3-1.2 8.4-3 19-.3 27.2 2.3 7 10.9 10.8 16.6 5.2 4.1-4.1-2.2-10.4-6.4-6.4-1.5 1.5-2.2-6.9-2.2-7.6 0-3.3.1-6.6.4-9.9.5-6.5 1.6-12.9 3.3-19.1 3.4-12.8 9.1-24.9 17.3-35.4-2.5-1.5-5-2.9-7.5-4.4-4 26.5-18 50.8-39.5 67-4.7 3.5-.2 11.3 4.4 7.8"/><path fill="#3e00ff" d="M332.4 557c-3.2 5.4-5.1 11.4-5.5 17.7-.4 5.3 0 12.6 4.2 16.5 9.8 9 23.2-8.9 27.8-16.2l-7.8-4.5c-3.8 6.3-6.3 14.8-3.9 22.1 2 6 8.7 9.5 14.4 6 4.9-3 .4-10.8-4.5-7.8-2.1 1.3-1.6-7-1.5-7.4.5-3 1.7-5.7 3.3-8.3 3-5-4.7-9.4-7.8-4.5-2 3.1-4.1 6-6.7 8.6-1.4 1.4-2.9 2.9-4.6 4s-2.2 1.9-3.3-.2c-1.4-2.6-.8-7.5-.3-10.3.6-4 2.1-7.6 4.1-11.1 2.8-5-5-9.6-7.9-4.6"/><path fill="#3e00ff" d="M373.6 590.8c7.2 1.8 15.5 1.3 21.8-3 4.8-3.3 8.2-9.5 5.3-15.2-6.3-12.2-23.4-5-29.8 2.9-8 9.9-8.7 25 .5 34.4 12 12.2 29.4 5.4 42.2-1.2 5.1-2.7.6-10.4-4.5-7.8-7.9 4.1-17.8 9.4-26.9 5.7-7.4-3.1-10-11.7-7.8-18.9 1.8-5.8 6.8-11.9 13.3-12.5 1.2-.1 3.8-.1 4.6 1 1.4 1.9-1.3 3.7-2.7 4.6-4 2.4-9.2 2.5-13.6 1.4-5.6-1.5-8 7.2-2.4 8.6"/><path fill="#ff1d58" d="M734.2 585.9c-.4-.6-.8-1.3-1.2-1.9-.6-1-1.6-1.8-2.7-2.1s-2.5-.2-3.5.5c-1 .6-1.8 1.5-2.1 2.7s-.2 2.4.5 3.5c.4.6.8 1.3 1.2 1.9.6 1 1.6 1.8 2.7 2.1s2.5.2 3.5-.5c1-.6 1.8-1.5 2.1-2.7.2-1.2.1-2.4-.5-3.5M734.1 523c2.1 21.5 5.8 42.7 11.4 63.6 1.4 5.1 8.5 3.7 8.8-1.2.7-9.5 1.5-19.1 6.1-27.6-2.4.3-4.7.6-7.1.9 5.7 4.9 7.3 12.4 10.4 19 2.2 4.6 8.3 11.8 13.4 5.8 3.7-4.4-2.6-10.8-6.4-6.4-.2.2-.4.5-.6.7 1.1-.4 2.1-.9 3.2-1.3-1.3.1-5.1-11.4-5.8-12.9-1.9-4.3-4.3-8.2-7.9-11.3-2.1-1.8-5.6-1.8-7.1.9-5.4 10-6.5 21-7.4 32.2 2.9-.4 5.9-.8 8.8-1.2-5.3-20.1-9-40.5-11-61.2-.4-5.7-9.4-5.7-8.8 0M788.5 544.5c-.8-.5-1.7-1-2.5-1.5-2.4-1.4-6-.2-6.6 2.7-1.9 9.5-1.4 19.3 2.3 28.2 3.1 7.3 10.4 10.6 16.4 4.1 12.1-13.2 5.6-33.3-10.4-39.4-5.4-2.1-7.8 6.6-2.4 8.7 8.9 3.4 12.8 13.9 8 22.2-.4.7-1.3 2.5-2.1 2.7-.3.1.3.5-.7-.6-1.3-1.5-1.8-4.9-2.3-6.7-1.3-5.5-1.3-11.2-.1-16.8l-6.6 2.7c.8.5 1.7 1 2.5 1.5 5 2.9 9.5-4.9 4.5-7.8M801.3 541.9c3.9 10.1 9.6 19.1 17.3 26.8 2.3 2.3 6.9 1.4 7.5-2 2.8-14.4 4.2-29 4-43.8-.1-5.8-9.1-5.8-9 0 .2 13.9-1 27.7-3.7 41.4 2.5-.7 5-1.3 7.5-2-6.5-6.6-11.6-14.2-15-22.8-2-5.3-10.7-3-8.6 2.4M838.1 546.5c9.1-3.2 18.1-12.8 16.5-23.2-.7-4.5-4.6-7.9-9.3-6.6-5.4 1.5-7.9 7.8-9.3 12.6-3.1 10.5-.5 23.1 9.4 29.2 8.7 5.4 21 2.7 25.6-6.8 2.5-5.2-5.2-9.7-7.8-4.5-2.2 4.5-7.4 6.4-12.1 4.3-5-2.4-7.5-8.1-7.5-13.4 0-3 .7-6 1.8-8.7.2-.5 2-3.2 1.9-3.5-1.2-4.4-1.8.4-1.8.8-.9 5.3-4.9 9.6-9.9 11.3-5.3 1.8-2.9 10.5 2.5 8.5M867.7 521.1c.6 9.8 2.5 19.3 5.8 28.5 2.7-1.2 5.5-2.3 8.2-3.5-6.7-12-4-27.3 6.1-36.4 4.3-3.9-2.1-10.3-6.4-6.4-13.1 11.9-16.1 32-7.5 47.3 2.4 4.3 10 1.4 8.2-3.5-3.1-8.5-5-17.1-5.5-26.1-.3-5.6-9.3-5.7-8.9.1M904.3 504.7c-.7-.6-1.4-1.2-2.2-1.8-.9-.8-1.9-1.3-3.2-1.3-1.1 0-2.4.5-3.2 1.3-.8.9-1.4 2-1.3 3.2.1 1.1.4 2.4 1.3 3.2.7.6 1.4 1.2 2.2 1.8.9.8 1.9 1.3 3.2 1.3 1.1 0 2.4-.5 3.2-1.3.8-.9 1.4-2 1.3-3.2 0-1.2-.4-2.5-1.3-3.2M907.7 530c-.7-.3-1.4-.6-2.1-.8-1-.4-2.6-.1-3.5.5-.9.5-1.8 1.6-2.1 2.7-.3 1.2-.2 2.4.5 3.5.2.3.5.6.7.9.6.6 1.2.9 2 1.2.7.3 1.4.6 2.1.8 1 .4 2.6.1 3.5-.5.9-.5 1.8-1.6 2.1-2.7.3-1.2.2-2.4-.5-3.5-.2-.3-.5-.6-.7-.9-.6-.6-1.2-1-2-1.2M916.8 463c4 19.3 8.1 38.6 12.1 57.9 1.2 5.7 9.9 3.3 8.7-2.4-1.2-5.6-1.3-11.3-.1-16.9.5-2.5 3.5-14.7 7-10.8 3.1 3.5 4.7 11.4 5 15.8.2 2.7.2 6.2-1.3 8.7-.8 1.3-3.7 3.7-4.4 1.1-1.4-5.6-10.1-3.2-8.7 2.4 2.3 9.5 14.4 9.7 19.7 2.7 6.9-9.2 3.1-23.4-1.4-32.8-4.3-9-14.4-11.3-20-2-6.1 10.1-7.1 23-4.7 34.3l8.7-2.4c-4-19.3-8.1-38.6-12.1-57.9-1-5.8-9.7-3.4-8.5 2.3M984 488.8c-1.2-6.8-6-15.4-14.3-12.4-8.5 3.1-9.2 16.1-9.4 23.6-.2 6.3 1.4 20.6 11.5 16.6 8.1-3.2 10.3-17.4 10.9-24.9-2.8.8-5.6 1.5-8.4 2.3 4.7 9.8 8 20.3 9.2 31.1.6 4.9.7 9.9.5 14.8 0 .8-.7 3.6-.3 4.4.2-.3.4-.7.6-1-.3-.5-.7-1-1-1.5-1.1-2.6-2.3-4.8-2.9-7.6-1.3-5.6-10-3.3-8.7 2.4 1.4 6 4.7 14.8 11.7 16.3 8.7 1.9 9.5-7.9 9.7-13.9.5-17.2-3.5-34.2-11-49.7-2.1-4.3-8.1-1.8-8.4 2.3-.4 4.8-1.5 9.7-3.7 14-.4.9-.9 1.8-1.6 2.6 1.5 0 1.8-.6 1.1-1.8.5-1.8-.2-4.6-.2-6.5.1-4.1.2-9.2 2-13.1 2.2-4.8 3.5 2 3.9 4.3 1.1 5.8 9.8 3.4 8.8-2.3M1002.4 493.9c4.8-1.8 9.5-3.5 14.3-5.3 5.4-2 3.1-10.7-2.4-8.7-4.8 1.8-9.5 3.5-14.3 5.3-5.4 2.1-3.1 10.8 2.4 8.7M1040.3 488.3c-3.2-10.5-5.7-21.2-7.3-32-.6-4.5-1.3-9.3 3.4-11.9 4.8-2.6 11.2-3.5 16.5-3.9 5.7-.4 5.8-9.4 0-9-11.4.8-27.6 3.5-29.2 17.3-.7 6.3 1 13 2.2 19.1q2.25 11.55 5.7 22.8c1.7 5.5 10.4 3.2 8.7-2.4"/><path fill="#ff1d58" d="M1056.3 468.8c9.8-3.7 16.7-12.6 17-23.2.1-4.1-.7-9.5-4.9-11.5-4.7-2.2-9.7.5-11.9 4.8-2.7 5.1-3.3 12.5-3 18.1s1.9 11.1 5.6 15.4c8.7 10.4 21.4 6.7 31.9 1.5 5.2-2.6.6-10.4-4.5-7.8-5.7 2.8-13.3 6.7-19 2-4.9-4.1-5.3-11.2-4.6-17.1.2-1.7.4-3.4.8-5 .3-1.2.4-3.1.6-3.9-.5-.9-.5-.7-.1.5.1.5.1 1 .2 1.5.1 1.4-.1 2.8-.4 4.2-1.2 5.2-5 9.8-10 11.6-5.4 2.2-3.1 10.9 2.3 8.9"/><path fill="#ff1d58" d="M1101.4 448.9c-2.9-4.5-8.1-6.2-13.2-4.6-5.7 1.9-9.1 8.1-10.3 13.6-1.3 5.4-.7 11.8 4.2 15.3 4.2 3 10 2.8 14.4.3 11.6-6.5 11.9-25.4 11.8-36.9-.1-8-.8-16.1-1.7-24-.7-6.6-1.6-13-5.1-18.7-2.5-4-7.9-2-8.4 2.3-1.6 14.7-.3 29.7 4.1 43.9 2.8 9 8.8 28.7 22 24.4 5.5-1.8 3.1-10.5-2.4-8.7-6.7 2.2-12.2-22.2-13.2-26.6-2.4-10.8-2.8-21.9-1.5-33-2.8.8-5.6 1.5-8.4 2.3 4.2 6.8 4.1 15.7 4.8 23.4.7 8.3 1.2 16.6.4 24.9-.5 5.4-1.5 18.7-8.8 19.6-10 1.2.5-17.7 3.6-13 3 4.9 10.8.4 7.7-4.5M75.1 367.4l-.9-.9c-.8-.8-2-1.3-3.2-1.3-1.1 0-2.4.5-3.2 1.3-.8.9-1.4 2-1.3 3.2s.5 2.3 1.3 3.2l.9.9c.8.8 2 1.3 3.2 1.3 1.1 0 2.4-.5 3.2-1.3.8-.9 1.4-2 1.3-3.2s-.5-2.4-1.3-3.2M85 344.8c2.7 16.2 5.9 32.4 9.6 48.4l8.7-2.4c-2-8.2-3.7-16.4-5-24.7-1.1-6.9-2.6-14.5-1.4-21.5.5-2.9 1.9-4.7 3.2-7.2 1.6-1.1 1.5-1.3-.4-.6.4.6.6 1.2.8 1.8.6 1.5.9 3 1 4.6.5 6-2.2 11.4-6.8 15.1 2.4.3 4.7.6 7.1.9q-1.65-1.35-.9-3.3C101.5 350.2 92.5 350.2 91.9 355.9c-.3 2.9.4 5.5 2.1 7.9 1.9 2.5 4.6 2.9 7.1.9 7-5.5 10.3-14.6 9.3-23.3-1-8-7-18.6-15.7-11.1-6.8 5.9-7.6 15.8-6.8 24.2 1.2 13.1 3.7 26.1 6.8 38.8 1.4 5.6 10 3.2 8.7-2.4-3.7-16-6.9-32.2-9.6-48.4-1.1-5.8-9.7-3.4-8.8 2.3M131.4 326.1c-1.5 6-3 11.9-4.6 17.9-.8 2.8-1.5 5.6-2.3 8.4-.3 1.2-.7 2.5-1.1 3.7-.1.2-1.9 4.6-.3 3.7 1.8.2 3.6.5 5.5.7l-.2-.2c.4 1.5.8 2.9 1.2 4.4 0-.1.1-.2.1-.3-1.8 1-3.7 2.1-5.5 3.1h.2c5.7 1 8.1-7.7 2.4-8.7h-.2c-2.5-.5-4.7.7-5.5 3.1-.6 1.9 0 3.5 1.2 4.9 1.3 1.6 3.8 1.6 5.5.7 2.2-1.2 2.7-3.1 3.3-5.4 1.1-3.7 2.1-7.5 3.2-11.2 2.1-7.5 4-15 5.9-22.6 1.3-5.5-7.4-7.9-8.8-2.2"/><path fill="#ff1d58" d="M113.8 330.9c-6.6 6.7 4 13.6 8.5 17.4 7.9 6.8 15.7 13.5 23.6 20.3 4.4 3.8 10.8-2.6 6.4-6.4-5.4-4.6-10.8-9.3-16.2-13.9-2.5-2.1-4.9-4.2-7.4-6.3-1.3-1.1-8-5.5-7.8-7.2-.4 1.1-.9 2.1-1.3 3.2l.7-.7c3.9-4.2-2.5-10.6-6.5-6.4M161.1 344.2c3.6-1.9 7.4-2.9 11.5-2.9 5.8-.1 5.8-9.1 0-9-5.7.1-11 1.5-16.1 4.2s-.5 10.4 4.6 7.7M193.5 312.4c0-.9-.1-1.8.2-2.7.4-1.2 1.9-2 2.2-2.9.9-.3.8-.6-.1-1-.8-.8-1-.7-.5.3-.1.8.8 2.6 1 3.4 1.3 5.3 1.5 10.7 1 16.1-.9 10.6-4.4 20.8-8 30.7-1.4 3.9 3.4 6.8 6.6 5.1 6.5-3.6 13.5-5.4 20.9-5.4 5.8 0 5.8-9 0-9-9 0-17.6 2.3-25.5 6.6l6.6 5.1c5.9-15.8 10.9-32.9 7.4-49.8-1.2-5.8-3.6-13.5-11.1-11.2-6.3 1.9-10.1 8.6-9.8 14.9.4 5.5 9.4 5.6 9.1-.2M222.1 333.4c4.5.1 9-.6 13.3-1.9 5.5-1.8 3.1-10.4-2.4-8.7-3.6 1.1-7.2 1.7-11 1.6-5.7-.1-5.7 8.9.1 9M245.4 293.8c-1.7 5.3-6 9.5-4.9 15.5 1.1 5.8 5.8 8 11.2 8.5 6 .6 13.8 1.6 15.6 8.6 2.2 8.4-11.7 10.7-11.1 5.9.7-5.7-8.3-5.7-9 0-1 8.9 8.4 13.1 15.9 11.5 7.8-1.7 14-8.3 13.4-16.5-.6-8.4-7.2-14.5-14.9-17-2.1-.7-4.3-1-6.5-1.2-1.3-.1-4.7.3-5.7-.8-1.6-1.8 3.9-10.1 4.5-12.1 1.9-5.6-6.8-8-8.5-2.4"/><path fill="#ff1d58" d="M249 297.7c7.3.2 14.5.2 21.7-.2 5.8-.3 5.8-9.3 0-9-7.2.4-14.5.4-21.7.2-5.8-.2-5.8 8.8 0 9"/><path fill="#dd26b6" d="M869.7 329.1c-.1-.3-.2-.6-.3-1-.3-1.1-1.1-2.1-2.1-2.7s-2.4-.8-3.5-.5c-2.3.7-3.8 3.1-3.1 5.5.1.3.2.6.3 1 .3 1.1 1.1 2.1 2.1 2.7s2.4.8 3.5.5c2.2-.7 3.8-3.1 3.1-5.5M905.1 285.5c-1.6-2.9-1.1-6.4-2.8-9.3-1.3-2.3-3.8-4.4-6.5-5-8.2-1.6-9.2 7.6-10.1 13.3-2.6 17.9-5.2 35.9-7.8 53.8h8.7c-.2-.9-.3-1.7-.5-2.6-1.1-5.7-9.7-3.3-8.7 2.4.2.9.3 1.7.5 2.6.8 4.2 8 4.4 8.7 0 1.9-12.8 3.7-25.6 5.6-38.4.9-6.1 1.8-12.2 2.6-18.3.1-.4.4-4.3.7-4.3-1.7.2-.7 2.3-.5 3.1.5 2.6.9 4.8 2.3 7.1 2.8 5.3 10.6.7 7.8-4.4"/><path fill="#dd26b6" d="M885 326.2c5.5-1.5 10.9-3.1 16.4-4.6 5.6-1.6 3.2-10.3-2.4-8.7-5.5 1.5-10.9 3.1-16.4 4.6-5.6 1.7-3.2 10.3 2.4 8.7"/><path fill="#dd26b6" d="M909.2 339.6c17.1-19.7 23.9-46.5 18-71.9-.7-3.2-5.3-4.4-7.5-2-5.8 6.3-7.1 14.4-8.1 22.6-1.2 9.8-1.5 19.6-.8 29.4.8 12.1 2.6 37.7 21.3 32.8 13.2-3.4 25.3-22.1 24.2-35.6-.6-7-7.6-10.8-13.9-7.5-6.7 3.6-7.5 12.9-7.8 19.6-.4 8.4 2.7 17.6 10.9 21.1 8.6 3.8 17.8-.9 25.1-5.5 4.9-3.1.4-10.9-4.5-7.8-4.8 3-12.4 8.1-18.1 4.4-5.8-3.9-4.7-13-3.6-18.8.3-1.4 2.4-7.7 2.9-3.6.3 2.4-1.3 6-2.2 8.1-2.3 5.7-6.3 11.5-11.5 15-14 9.3-13.8-19.7-14.1-27-.3-7 0-14 .7-20.9.7-6.7 1.1-14.9 5.9-20-2.5-.7-5-1.3-7.5-2 5.1 22.2-.8 46-15.7 63.2-3.9 4.4 2.5 10.8 6.3 6.4M998.1 305.5c-7.5 15.5-14.9 31-22.4 46.5-2.5 5.2 5.3 9.8 7.8 4.5 7.5-15.5 14.9-31 22.4-46.5 2.5-5.2-5.3-9.8-7.8-4.5"/><path fill="#dd26b6" d="M977 313.2c8.9 18.3 22.2 33.8 35.5 49 3.8 4.4 10.2-2 6.4-6.4-12.8-14.7-25.6-29.5-34.1-47.1-2.5-5.2-10.3-.7-7.8 4.5"/><path fill="#3e00ff" d="M581.5 166c-1.2-1.3-3.2-1.8-4.9-1.3-1.2.3-2.1 1-2.9 2q-1.2 1.5-1.2 3.3c-.1 1.8 1 3.4 2.5 4.3 1 .6 2.4.8 3.5.5 1-.3 2.2-1.1 2.7-2.1 1.2-2.2.5-4.9-1.6-6.2h-.1c.3.2.6.5.9.7l-.1-.1c.2.3.5.6.7.9v-.1c.2.4.3.7.5 1.1v-.1c.1.4.1.8.2 1.2v-.2c-.1.4-.1.8-.2 1.2 0-.1 0-.2.1-.2-.2.4-.3.7-.5 1.1 0-.1.1-.2.2-.3-.2.3-.5.6-.7.9l.2-.2c-.3.2-.6.5-.9.7.1-.1.1-.1.2-.1-.4.2-.7.3-1.1.5h.1c-.4.1-.8.1-1.2.2h.1c-.4-.1-.8-.1-1.2-.2h.1c-.4-.2-.7-.3-1.1-.5h.1c-.3-.2-.6-.5-.9-.7l.1.1C576.7 174.1 579.9 174.1 581.5 172.4c1.7-1.9 1.7-4.6 0-6.4M590.2 142.2c1.3 6.9 3.2 13.6 5.8 20.1 2.1 5.3 10.8 3 8.7-2.4-2.6-6.5-4.5-13.2-5.8-20.1-1.1-5.7-9.7-3.3-8.7 2.4M590 120v-1c0-1.2-.5-2.4-1.3-3.2s-2.1-1.4-3.2-1.3c-1.2.1-2.4.4-3.2 1.3s-1.3 2-1.3 3.2v1c0 1.2.5 2.4 1.3 3.2s2.1 1.4 3.2 1.3c1.2-.1 2.4-.4 3.2-1.3s1.3-2 1.3-3.2M590.2 107.1c5.7 16.7 12.5 33.3 21.1 48.6 3.1 5.5 8 9.9 14.8 8.3 5.8-1.4 9.8-6.2 10.2-12.1.3-5.8-8.7-5.8-9 0-.1 1.6-1.5 2.9-3 3.3-2.5.5-3.6-1.5-4.8-3.4-3-4.8-5.3-10.1-7.7-15.2-4.9-10.4-9.2-21.1-12.9-31.9-1.9-5.4-10.6-3.1-8.7 2.4"/><path fill="#3e00ff" d="M612.8 134.9c4.4-1.9 8.3-4.5 11.9-7.7 4.3-3.9-2.1-10.2-6.4-6.4-3 2.7-6.4 4.7-10.1 6.3-2.2 1-2.7 4.2-1.6 6.2 1.4 2.3 3.9 2.5 6.2 1.6M636.7 141.2c6.5-5.2 16.9-18.6 10.9-27.3-2.5-3.7-7.6-4.9-11.2-2-3.8 3-4.4 9.2-4.7 13.7-.7 9.6 3.5 19.9 12.8 23.9 8.7 3.7 18.6-.6 21.8-9.4 2-5.5-6.7-7.8-8.7-2.4-1.4 3.9-6.1 5.1-9.6 3.5-4.1-1.8-6.4-6-7.1-10.2-.4-2.4-.3-5.1.1-7.5 0-.3.8-3.2.7-3.2-1-.6-2 2.2-2.3 2.7-2.3 4.8-4.7 8.5-9 11.9-4.6 3.5 1.8 9.9 6.3 6.3"/><path fill="#3e00ff" d="M670.2 135.7c-2.3-6-4-12.2-4.2-18.6q-.15-1.2 0-2.4c.2-.9-.1-.8-1 .2.2.7 1.3 1.8 1.7 2.4 1.4 2.2 2.4 4.5 3.9 6.6 2.3 3.2 5.7 6.7 10 5.2 1.7-.6 2.9-1.9 3.5-3.5.3-.8.5-1.8.5-2.7 0-.8.5-2.3.5-2.8.6 5.7 9.6 5.8 9 0-.7-7.3-8.8-12.2-15-6.8-1.2 1.1-2.2 2.4-2.8 3.9-.7 1.9-2.1 5.6 1 3.8 2.3-1.3 1.5-1 .3-2.7-.5-.8-1-1.6-1.4-2.4-1-1.8-2-3.6-3.3-5.3-4-5.4-11.7-8-15-.3-3.4 8.1.6 20.4 3.6 28 2.1 5.1 10.8 2.8 8.7-2.6M701.9 82.5c-6.3 5.6-11 16.2-1.2 21.2 3.5 1.8 7.7 2.1 11.3 3.7 2.2 1 3.9 2.1 4 4.7 0 .9-.2 2.1-.6 3 .1-.2-2.9 4.3-2.6 2.1.7-5.7-8.3-5.7-9 0-.7 5.9 5.1 10.4 10.6 9.6 6.3-.9 9.9-7.4 10.4-13.3.5-6.2-2.7-11.2-8.2-13.8-2.7-1.3-5.7-2.1-8.5-2.9-1.5-.4-4.2-.7-4.1-3.1.1-1.8 3-3.8 4.2-4.8 4.4-3.9-2-10.2-6.3-6.4M736 106.2c3.6-1.8 7.2-3.6 10.8-5.3 2.2-1.1 2.8-4.2 1.6-6.2-1.3-2.2-4-2.7-6.2-1.6-3.6 1.8-7.2 3.6-10.8 5.3-2.2 1.1-2.8 4.2-1.6 6.2 1.3 2.3 4 2.7 6.2 1.6M780.3 74.8c-.4-3.1-3.3-5.3-6.5-5.1-3.4.3-5.5 3-6.8 5.8-3.1 6.5-3.8 14.4-.7 21 5.2 11.5 23.1 14.5 29.7 2.6 2.8-5.1-4.9-9.6-7.8-4.5-2.4 4.3-8.8 4.1-12 .8-2.1-2.2-2.9-5.4-2.9-8.3q0-2.1.6-4.2c.2-.8 1.7-4 1.1-4.1-1.1-.4-2.1-.9-3.2-1.3-.1-.1-.1-.2-.2-.3.8 5.7 9.5 3.3 8.7-2.4"/><path fill="#3e00ff" d="M802.8 86.3c4.8-6 12.1-21.2 4.2-27.6-9.4-7.5-16.1 6.6-17 13.9-1.2 9.4 2.8 19.5 12 23.3 8.7 3.5 19.2-1.3 21.2-10.7 1.2-5.6-7.4-8.1-8.7-2.4-.9 4-4.9 6.3-8.9 4.9-4.3-1.5-6.6-6.2-6.9-10.5-.2-2.3.2-4.6.9-6.8.3-1.1.8-2.2 1.3-3.3.3-.7.1-2.2.2-.7.4 4.7-1.7 9.8-4.6 13.5-3.6 4.6 2.7 11 6.3 6.4M821.1 62c.7 6.4 1.9 12.6 3.9 18.7 1.8 5.5 10.3 3.2 8.7-2.4s-2.2-11.5-1.3-17.3c.1-.7 1-3 .7-3.5-.9-.4-1.8-.8-2.7-1.3.4.8.7 1.6 1 2.4 1.1 2.5 2.1 5 3.1 7.6 1.5 3.6 2.5 8.4 5.8 10.7 3.1 2.2 6.7 1.7 8.7-1.5 3.1-4.9-4.7-9.5-7.8-4.5-.1.2-.3.4-.4.7 1.3-.7 2.6-1.5 3.9-2.2 1-.1-2.2-7.1-2.6-8-1.2-2.9-2.2-5.9-3.6-8.6-1.8-3.7-5.7-6.1-9.7-3.9-4.5 2.4-5.2 8.3-5.7 12.9-.8 6.4 0 12.9 1.7 19.1l8.7-2.4c-1.7-5.3-3-10.7-3.6-16.3-.4-5.9-9.5-6-8.8-.2M843.5 33c8.1 9.1 8.1 22.6 13.7 33.1 2.5 4.8 6.3 9.6 11.8 11 5.3 1.4 11.2-.9 13.5-5.9 2.4-5.2-5.3-9.8-7.8-4.5-2.7 5.7-8.4-2.5-9.8-5.1-2-3.9-3.2-8.2-4.5-12.5-2.4-8.1-4.9-16-10.6-22.5-3.8-4.3-10.1 2.1-6.3 6.4"/><path fill="#3e00ff" d="M858.7 58.8c4.7-2.3 9.3-4.6 14-7 5.2-2.6.6-10.3-4.5-7.8-4.7 2.3-9.3 4.6-14 7-5.2 2.6-.6 10.4 4.5 7.8M881.9 59.9c9.6-2.9 21.4-8.6 19.9-20.7-.5-4.4-3.7-9.3-8.6-9.1-5.2.3-8 5.5-9.7 9.8-3.9 9.7-2.6 22.3 6.9 28.4 8.7 5.6 20.2 1.7 23.6-8 1.9-5.5-6.8-7.8-8.7-2.4-1.4 4-6.4 5-9.7 3-4.4-2.6-5.7-8-5-12.7.4-2.4 1.2-4.8 2.3-7C893 41 893.9 38.1 893.1 41.2c-.2 1-.3 1.9-.8 2.8-2.2 4.5-8.2 6-12.7 7.3-5.6 1.6-3.3 10.3 2.3 8.6M911.3 39.2c1.3 7.3 3.4 14.1 6.4 20.9 2 4.7 9.9 1.3 8.2-3.5-2.8-8.2-6.3-23 4.9-26.6 5.5-1.8 3.1-10.4-2.4-8.7-16.6 5.3-15.8 24.1-11.2 37.6 2.7-1.2 5.5-2.3 8.2-3.5-2.6-6-4.3-12.3-5.5-18.7-.9-5.6-9.5-3.2-8.6 2.5"/><path fill="#37cae2" d="M653.5 631c5.2.8 10.4 1.7 15.7 2.5 2.4.4 4.8-.6 5.5-3.1.6-2.1-.7-5.2-3.1-5.5-5.2-.8-10.4-1.7-15.7-2.5-2.4-.4-4.8.6-5.5 3.1-.7 2.1.7 5.2 3.1 5.5M447 538.7c1.3-.1 2.6-.5 3.5-1.4.7-.7 1.2-1.5 1.4-2.4.6-2.1-.3-4.7-2.2-5.8-2-1.1-4.6-.9-6.2.7-.7.7-1.2 1.5-1.4 2.4-.3 1.4-.1 2.6.5 3.9.5 1 1.7 1.8 2.7 2.1 1.1.3 2.5.2 3.5-.5 1-.6 1.8-1.5 2.1-2.7s.1-2.3-.5-3.5v-.1c.2.4.3.7.5 1.1v-.1c.1.4.1.8.2 1.2v-.1c-.1.4-.1.8-.2 1.2v-.2c-.2.4-.3.7-.5 1.1 0-.1.1-.1.1-.2-.2.3-.5.6-.7.9 0-.1.1-.1.2-.2-.3.2-.6.5-.9.7.1 0 .1-.1.2-.1-.4.2-.7.3-1.1.5.1 0 .1 0 .2-.1-.4.1-.8.1-1.2.2h.1c-.4-.1-.8-.1-1.2-.2h.1c-.4-.2-.7-.3-1.1-.5.1 0 .1.1.2.1-.3-.2-.6-.5-.9-.7l.1.1c-.2-.3-.5-.6-.7-.9 0 0 .1.1.1.2-.2-.4-.3-.7-.5-1.1v.2c-.1-.4-.1-.8-.2-1.2v.2c.1-.4.1-.8.2-1.2 0 .1 0 .1-.1.2.2-.4.3-.7.5-1.1 0 .1-.1.1-.1.2.2-.3.5-.6.7-.9 0 .1-.1.1-.1.1.3-.2.6-.5.9-.7 0 0-.1.1-.2.1.4-.2.7-.3 1.1-.5h-.1c.4-.1.8-.1 1.2-.2h-.1c-1.2.1-2.3.4-3.2 1.3-.8.8-1.4 2.1-1.3 3.2.1 1.2.4 2.4 1.3 3.2.8.9 2 1.5 3.1 1.5M480.7 505.3c-6.8 11.3-13.6 22.7-20.4 34-2.7 4.5 3.3 8.8 7.1 5.5 2-1.8 4.1-3.6 6.2-5.3 1.1-.9 2.3-1.8 3.4-2.6.2-.2 2.8-1.6 2.8-1.6-.6-.2-1.3-.4-1.9-.5-.2.5-.3 1-.5 1.5-.6.9-.8 2.3-1.3 3.3-.7 1.4-1.5 2.9-3 3.5-.4.2-3.5 1-3.3-.4.9-5.7-7.7-8.1-8.7-2.4-1.1 6.7 3.5 12.8 10.6 12.5 7.5-.3 11.9-7 14.1-13.4 1.9-5.5 1.6-13.3-6.1-13.1-7 .2-13.9 7.9-18.7 12.2 2.4 1.8 4.7 3.6 7.1 5.5 6.8-11.3 13.6-22.7 20.4-34 3-5.1-4.8-9.6-7.8-4.7M512.1 536.7c-11.6-15.2-35.3 11.8-22.2 22.8 13.3 11.1 33.6-13.2 20.6-24-4.4-3.7-10.8 2.7-6.4 6.4 4.1 3.4-2.3 12.1-6.8 11.4-7.5-1.1 5-14.6 7-12 3.5 4.5 11.4 0 7.8-4.6"/><path fill="#37cae2" d="M515.6 569.7c3-6.7 9.8-18.5 18.7-12.7 4.9 3.2 9.4-4.6 4.5-7.8-13.5-8.8-25.8 4.5-31 15.9-2.3 5.3 5.4 9.8 7.8 4.6"/><path fill="#37cae2" d="M551.5 568.1c2.4-3.7 1-8.4-2.6-10.8-4.4-3-9.5-.6-13.1 2.5s-7.2 7.3-7.4 12.3c-.2 4.7 2.4 9.2 7.1 10.4 10.3 2.5 20.3-10.8 25.8-17.7 7.3-9.3 12.8-19.6 16.5-30.8 1.4-4.2-4.5-7.7-7.5-4.4-9.4 10.4-16.5 22.6-20.5 36.1-2.8 9.7-7.3 29.5 7.6 31.7 5.7.9 8.1-7.8 2.4-8.7-9-1.4-1.2-21.8.8-26.9 3.6-9.6 9.2-18.3 16.1-25.9-2.5-1.5-5-2.9-7.5-4.4-3.4 10.2-8.5 19.8-15.3 28.1-3.1 3.8-6.5 7.5-10.2 10.7-1.4 1.2-7.3 5.6-5.9.7.3-1 1.4-2 2.1-2.7 1.7-1.8 2.4-2.6 3.8-4.8-3.1 4.9 4.7 9.4 7.8 4.6"/><path fill="#37cae2" d="M569.7 591.9c8-2.4 20.9-4.1 20.4-15.4-.2-3.9-2.7-7.9-6.5-9.1-4.7-1.5-9.3 1.4-12.7 4.3-7.1 5.9-11.5 15.9-8.4 24.9s11.7 14.2 21 12.9c5.7-.8 3.3-9.5-2.4-8.7-10.2 1.5-12.3-11.7-8.1-18.2 1.2-1.8 2.7-3.4 4.4-4.6 1.6-1.2 5.1-2.5 3 .6-2.3 3.4-9.4 3.6-13 4.7-5.6 1.5-3.3 10.2 2.3 8.6"/><path fill="#37cae2" d="M592.2 592c-2.1 4.7-4.1 9.3-6.2 14 2.7 1.2 5.5 2.3 8.2 3.5 2-6.1 7.4-17.7 15.7-13 5 2.9 9.6-4.9 4.5-7.8-5.6-3.2-12.4-2.6-17.7.9-6.1 4-9.1 10.8-11.2 17.5-1.5 4.8 6.1 8.2 8.2 3.5s4.1-9.3 6.2-14c2.4-5.3-5.4-9.9-7.7-4.6M616.7 617.1q6.6 1.5 13.2-.3c5.6-1.5 3.2-10.2-2.4-8.7q-4.2 1.2-8.4.3c-5.6-1.2-8 7.4-2.4 8.7M659.9 593.8c-2.8 8.2-6.4 16-10.6 23.6-3.5 6.2-7.1 12.6-7.4 19.9-.5 11.8 12.1 24.7 23.6 16 4.6-3.5.1-11.3-4.5-7.8-4.1 3.1-8.6.1-9.7-4.4-1.3-5.3 1.2-10.8 3.7-15.3 5.2-9.6 10.1-19.1 13.7-29.6 1.7-5.5-7-7.9-8.8-2.4M682.1 649.9c4.9 3 10.2 4.6 15.8 5.2 2.4.3 4.5-2.3 4.5-4.5 0-2.6-2.1-4.2-4.5-4.5-4.1-.4-7.8-1.9-11.3-4-4.9-3-9.4 4.7-4.5 7.8M721.9 646.3c2.3-1.8 4.9-3.2 7.8-3.8 1.1-.2 3.4.2 4.2-.3 1.3.2 1-.2-.7-1.3-.1.5-.3.9-.4 1.4-1.3 1.6-2 5-3 7-1.1 2.1-2.4 4.2-3.8 6.2-5.7 8.2-13.9 14.7-23.2 18.5 1.5 2.5 2.9 5 4.4 7.5 1.1-1.2 7.9 4.5 9.2 5.3 3.4 2 7 3.6 10.7 4.9 5.5 1.9 7.8-6.7 2.4-8.7-6.3-2.3-10.8-6.5-16.5-9.5-4.1-2.2-8.9-1.9-12.1 1.6-2.8 3-.1 9.3 4.4 7.5 14.6-6 26.9-17 33.6-31.5 2.4-5.1 6.7-14.3-.9-17.2-7.4-2.9-16.7 1.4-22.4 6-4.5 3.7 1.9 10 6.3 6.4"/><path fill="#3e00ff" d="M729.4 427.8c6.5 6.5 13.1 12.9 19.6 19.4 2.7 2.7 7-1.5 4.2-4.2-6.5-6.5-13.1-12.9-19.6-19.4-2.7-2.7-7 1.5-4.2 4.2M768 119.9c2.3 9.3 3.5 18.8 3.3 28.4-.2 8.1-.6 17.6-4.7 24.9-3.1 5.4-12 11.2-17.5 5.2-6.7-7.1 4.2-16.6 10.5-18.7 14.9-5.1 29.7 4.2 35.6 17.9 6.6 15.4 3 32.5-4 47.1-4.2 8.8-9.5 17.1-15.1 25.1-2.9 4.2-6 8.2-9.2 12.1-1.1 1.3-8.9 9.2-8.3 10.2-1.9-3.4-7.1-.3-5.2 3 5.1 9 15.5-6.2 18.3-9.7 7.6-9.4 14.7-19.4 20.6-29.9 10.6-18.7 17.4-41.4 7.7-62-7.9-16.8-28.2-26.7-45.7-18.1-7.9 3.9-14.9 12.8-12.3 22 2.3 8.1 11.5 10.7 18.8 8.4 10.4-3.2 14.2-14.7 15.6-24.4 2.1-14.4 1.1-29-2.5-43.1-1.1-3.7-6.9-2.1-5.9 1.6"/><path fill="#3e00ff" d="M761.2 240.8c-3.4 12-6.9 24-10.3 36-.4 1.5.5 3.4 2.1 3.7 8.6 1.7 17.3 2.2 26 1.3 3.8-.4 3.8-6.4 0-6-8.2.8-16.3.4-24.4-1.1.7 1.2 1.4 2.5 2.1 3.7 3.4-12 6.9-24 10.3-36 1.1-3.7-4.7-5.3-5.8-1.6M410.2 197.7c-4.4 23.4-9.3 48.7-1.7 72 5.7 17.6 18.2 33.3 36.3 38.9 3.7 1.1 5.3-4.6 1.6-5.8-17-5.3-28.3-20.8-33-37.5-6.1-21.6-1.6-44.5 2.5-66 .8-3.8-5-5.4-5.7-1.6"/><path fill="#3e00ff" d="M437.5 271.8c-1.8 11.9 0 23.4 5.3 34.2.6-1.5 1.2-2.9 1.8-4.4-11.9 2.3-23.3 5.9-34.4 10.8-3.5 1.5-.5 6.7 3 5.2 10.6-4.6 21.6-8 32.9-10.2 2-.4 2.6-2.8 1.8-4.4-4.6-9.2-6.2-19.4-4.7-29.6.7-3.7-5.1-5.4-5.7-1.6M909.7 177.6c-11.4 4.2-15 21.2-4.8 28.8 3.3 2.4 7.9 3.3 10 7.1 1.9 3.5 1.2 8-.4 11.5-4.3 9.2-14.9 11.2-24.1 11.6-16 .6-36.2-1.8-45.7 14.5-8 13.8-2.5 33.7-15 45-6.7 6-16 7.9-24.4 10.3-8.1 2.3-15.9 5.1-22.5 10.4-3 2.4 1.3 6.7 4.2 4.2 12-9.8 28.9-9.1 41.8-17 14.5-8.8 14.4-24.5 17.4-39.3 1.8-8.9 5.8-16.5 14.8-19.7 8.9-3.2 18.4-2.2 27.7-2.4 14.7-.3 32.2-5.6 33.3-23 .6-8.5-4.3-12.9-11.2-16.6-4-2.2-6.3-5.4-5.9-10.1.3-4 2.5-8 6.4-9.4 3.5-1.4 2-7.2-1.6-5.9"/><path fill="#3e00ff" d="M794.4 294.9c-6.1 9.4-12.3 18.8-18.4 28.2-1 1.6 0 4 1.8 4.4 10 2.4 20 2.3 29.9-.5 3.7-1.1 2.1-6.8-1.6-5.8-8.9 2.5-17.7 2.7-26.7.5.6 1.5 1.2 2.9 1.8 4.4 6.1-9.4 12.3-18.8 18.4-28.2 2.1-3.2-3-6.2-5.2-3M232.1 363.1c-6 16 1.5 32.8 12.9 44.4 6 6.1 13.1 11 20.2 15.8C273 428.6 281 435 282 445c.8 8.2-3.7 20.9-13.4 21.5-11 .7-11.2-14.6-7.6-21.2 4.4-8.1 13.7-12.4 22-15.4 9.1-3.2 18.6-5.5 28.1-7.4 20.7-4.3 41.6-7.5 61-16.1 3.5-1.6.5-6.7-3-5.2-21.1 9.4-44.2 12-66.5 17-17 3.9-41.9 9.2-48.5 28-2.5 7.2-1.8 16.1 3.7 21.8 6.6 6.8 16.1 5.3 22.5-.9 6.1-6 8.7-15.1 7.6-23.4-1.2-9-6.8-15.8-13.7-21.2-9.4-7.3-19.8-13-27.7-22.1-8.5-9.8-13.2-22.9-8.5-35.5 1.2-3.8-4.6-5.4-5.9-1.8"/><path fill="#3e00ff" d="M348.3 397.3c7.8 4.2 16.3 6.1 25.2 5.4-.9-1.5-1.7-3-2.6-4.5-2.6 5.9-5.2 11.8-7.8 17.6-1.6 3.5 3.6 6.6 5.2 3 2.6-5.9 5.2-11.8 7.8-17.6.8-1.9-.1-4.7-2.6-4.5-7.8.6-15.2-.8-22.2-4.6-3.4-1.8-6.4 3.4-3 5.2M401.2 512.6c-5-25.8 2.8-53 20.6-72.3 2.6-2.8-1.6-7.1-4.2-4.2-19.4 20.9-27.6 50.2-22.2 78.2.7 3.7 6.5 2.1 5.8-1.7"/><path fill="#3e00ff" d="M405.2 451.7c4.9-4.3 10.1-8 15.8-11.3-1.5-.9-3-1.7-4.5-2.6-.6 5.5.2 10.9 2.3 16.1 1.4 3.5 7.2 2 5.8-1.6-1.9-4.7-2.6-9.4-2.1-14.5.3-2.3-2.7-3.6-4.5-2.6-6.1 3.5-11.7 7.6-17 12.2-3 2.6 1.3 6.8 4.2 4.3M601.9 555.7c34.8-22.4 49-67 32.9-105.3-.9-2.1-4.3-3.3-5.5-.7-2.8 6-5.5 12-8.3 18-1.6 3.5 3.6 6.5 5.2 3 2.8-6 5.5-12 8.3-18-1.8-.2-3.7-.5-5.5-.7 15.1 35.8 2.6 77.5-30.1 98.5-3.3 2.1-.3 7.3 3 5.2"/><path fill="#3e00ff" d="M628.4 453.3c1.9 6.2 6.2 11.7 12.3 14.3 4.2 1.8 11.1 1.3 11.9-4.2.6-3.8-5.2-5.4-5.8-1.6-.4 2.6-6.1-1-7.1-1.7-2.7-2.2-4.6-5.1-5.6-8.4-1-3.7-6.8-2.1-5.7 1.6M848.1 487.5c-15.9 3-34.2-.6-46.6-11.5-6.2-5.4-10.7-13.6-6.6-21.6 3.2-6.2 10.1-10.3 16.3-12.7 2.4-1 3.8-1.5 6.4-.8 3 .8 3.7 2.8 3.8 5.8.2 4.4-1.8 8.7-4.7 11.9-5.4 6-13.9 8.4-21.5 10.4-14.3 3.8-31.3 7.3-45.4.6-14.8-7.1-21.1-25.9-13.7-40.6 1.7-3.4-3.5-6.5-5.2-3-8.1 16.2-3 37.2 12.6 47 17.5 10.9 41 5.9 59.3.1 9.5-3 18.9-8 22.8-17.7 2.8-6.9 2.3-19.7-7.1-21.2-7.7-1.2-18.2 5.5-23.6 10.5-6.7 6.2-9.8 15.2-6.4 24 4 10.3 14.4 17.1 24.2 21.2 11.7 4.8 24.4 5.9 36.7 3.5 4.1-.9 2.5-6.6-1.3-5.9"/><path fill="#3e00ff" d="M728 424c-9.3 8.8-17.3 18.7-23.8 29.7-2 3.3 3.2 6.3 5.2 3 6.3-10.5 14-20 22.9-28.5 2.8-2.6-1.4-6.8-4.3-4.2M902.1 364.9c-15.9 9-33.1 15.5-51 19.2-16.2 3.4-37.9 7.6-52.7-2-.8 1.8-1.5 3.7-2.3 5.5 12 3 24 .3 33.8-7.3 3-2.4-1.2-6.6-4.2-4.2-8 6.2-18.2 8.2-27.9 5.8-3.3-.8-5.2 3.6-2.3 5.5 15.4 10 36.8 6.5 53.8 3.3 19.6-3.7 38.5-10.8 55.9-20.5 3.3-2 .3-7.2-3.1-5.3"/><path fill="#3e00ff" d="M794.6 385.1q5.4 16.05 15.3 30c2.2 3.1 7.4.1 5.2-3q-9.45-13.2-14.7-28.5c-1.3-3.7-7.1-2.2-5.8 1.5"/></svg>