<svg xmlns="http://www.w3.org/2000/svg" xml:space="preserve" viewBox="0 0 900 465"><style>.st1{fill:#62d3d3}.st2{fill:none;stroke:#666;stroke-miterlimit:10}.st3{fill:#fff}</style><path id="Layer_1" d="M.5 0h900v465H.5Z" style="fill:#212121"/><g id="Layer_2"><path d="M192.5 186.5h-88c-1.1 0-2-.9-2-2v-44c0-1.1.9-2 2-2h88c1.1 0 2 .9 2 2v44c0 1.1-.9 2-2 2M300.5 186.5h-88c-1.1 0-2-.9-2-2v-44c0-1.1.9-2 2-2h88c1.1 0 2 .9 2 2v44c0 1.1-.9 2-2 2M408.5 186.5h-88c-1.1 0-2-.9-2-2v-44c0-1.1.9-2 2-2h88c1.1 0 2 .9 2 2v44c0 1.1-.9 2-2 2M192.5 250.5h-88c-1.1 0-2-.9-2-2v-44c0-1.1.9-2 2-2h88c1.1 0 2 .9 2 2v44c0 1.1-.9 2-2 2M300.5 250.5h-88c-1.1 0-2-.9-2-2v-44c0-1.1.9-2 2-2h88c1.1 0 2 .9 2 2v44c0 1.1-.9 2-2 2M408.5 250.5h-88c-1.1 0-2-.9-2-2v-44c0-1.1.9-2 2-2h88c1.1 0 2 .9 2 2v44c0 1.1-.9 2-2 2M192.5 314.5h-88c-1.1 0-2-.9-2-2v-44c0-1.1.9-2 2-2h88c1.1 0 2 .9 2 2v44c0 1.1-.9 2-2 2M300.5 314.5h-88c-1.1 0-2-.9-2-2v-44c0-1.1.9-2 2-2h88c1.1 0 2 .9 2 2v44c0 1.1-.9 2-2 2M408.5 314.5h-88c-1.1 0-2-.9-2-2v-44c0-1.1.9-2 2-2h88c1.1 0 2 .9 2 2v44c0 1.1-.9 2-2 2M408.5 378.5h-304c-1.1 0-2-.9-2-2v-44c0-1.1.9-2 2-2h304c1.1 0 2 .9 2 2v44c0 1.1-.9 2-2 2" class="st1"/><path d="M82 118.3h349v280.5H82Z" class="st2"/><path d="M255.7 44.1h5.2l18.2 42.5h-6.7l-4.3-10.5h-20.2l-4.2 10.5H237ZM266 71l-7.9-19.5h-.1L250 71Z" class="st3"/><path d="M579.8 187.2h-88c-1.1 0-2-.9-2-2v-44c0-1.1.9-2 2-2h88c1.1 0 2 .9 2 2v44c0 1.1-.9 2-2 2M687.8 187.2h-88c-1.1 0-2-.9-2-2v-44c0-1.1.9-2 2-2h88c1.1 0 2 .9 2 2v44c0 1.1-.9 2-2 2M795.8 187.2h-88c-1.1 0-2-.9-2-2v-44c0-1.1.9-2 2-2h88c1.1 0 2 .9 2 2v44c0 1.1-.9 2-2 2M579.8 251.2h-88c-1.1 0-2-.9-2-2v-44c0-1.1.9-2 2-2h88c1.1 0 2 .9 2 2v44c0 1.1-.9 2-2 2M687.8 251.2h-88c-1.1 0-2-.9-2-2v-44c0-1.1.9-2 2-2h88c1.1 0 2 .9 2 2v44c0 1.1-.9 2-2 2M795.8 251.2h-88c-1.1 0-2-.9-2-2v-44c0-1.1.9-2 2-2h88c1.1 0 2 .9 2 2v44c0 1.1-.9 2-2 2M579.8 315.2h-88c-1.1 0-2-.9-2-2v-44c0-1.1.9-2 2-2h88c1.1 0 2 .9 2 2v44c0 1.1-.9 2-2 2M687.8 315.2h-88c-1.1 0-2-.9-2-2v-44c0-1.1.9-2 2-2h88c1.1 0 2 .9 2 2v44c0 1.1-.9 2-2 2M795.8 315.2h-88c-1.1 0-2-.9-2-2v-44c0-1.1.9-2 2-2h88c1.1 0 2 .9 2 2v44c0 1.1-.9 2-2 2M633.8 379.2h-88c-1.1 0-2-.9-2-2v-44c0-1.1.9-2 2-2h88c1.1 0 2 .9 2 2v44c0 1.1-.9 2-2 2M741.8 379.2h-88c-1.1 0-2-.9-2-2v-44c0-1.1.9-2 2-2h88c1.1 0 2 .9 2 2v44c0 1.1-.9 2-2 2" class="st1"/><path d="M469 118.3h349v280.5H469Z" class="st2"/><path d="M629.6 44.1h14.8c1.8 0 3.5.2 5.1.7 1.6.4 2.9 1.1 4.1 1.9 1.1.9 2 2 2.7 3.3s1 2.9 1 4.7c0 2.4-.7 4.4-2 6-1.4 1.5-3.1 2.7-5.3 3.4v.1c1.3.1 2.5.4 3.6 1s2.1 1.3 2.9 2.3c.8.9 1.5 2 2 3.3.5 1.2.7 2.6.7 4q0 2.85-1.2 5.1c-.8 1.5-1.9 2.7-3.2 3.7-1.4 1-2.9 1.8-4.7 2.3s-3.7.8-5.8.8h-14.6V44.1Zm5.8 17.6h7.9c1.1 0 2.1-.1 3.1-.3s1.8-.6 2.5-1.1 1.3-1.2 1.7-2 .6-1.8.6-2.9c0-1.7-.5-3.1-1.6-4.4-1.1-1.2-2.8-1.9-5.1-1.9h-9.1Zm0 19.8h8.5c.9 0 1.8-.1 2.9-.3s2-.5 3-1.1c.9-.5 1.7-1.3 2.3-2.2s1-2.1 1-3.7c0-2.5-.8-4.4-2.5-5.7-1.6-1.3-3.9-1.9-6.7-1.9h-8.5Z" class="st3"/></g></svg>