<svg xmlns="http://www.w3.org/2000/svg" xml:space="preserve" viewBox="0 0 1600 900"><path fill="#fff" d="M0 0h1600v900H0Z"/><linearGradient id="a" x1="66.306" x2="800" y1="157.118" y2="157.118" gradientUnits="userSpaceOnUse"><stop offset="0" stop-color="#4169ff"/><stop offset="1" stop-color="pink"/></linearGradient><path fill="url(#a)" d="M66.3 93.2H800V221H66.3Z"/><path fill="pink" d="M975.1 745.7H601.6c-8.6 0-15.7-7-15.7-15.7V356.6c0-8.6 7-15.7 15.7-15.7h373.5c8.6 0 15.7 7 15.7 15.7v373.5c0 8.6-7 15.6-15.7 15.6"/><path d="M654.2 547.9c.6-.3 1.3-.6 2-1.1l2.3 3.3c-.8.7-1.8 1.3-2.9 1.7q-1.65.6-3.6.6c-1.8 0-3.5-.4-4.8-1.1s-2.4-1.8-3.1-3.2-1.1-3-1.1-4.8.4-3.4 1.1-4.9c.7-1.4 1.8-2.5 3.2-3.3q2.1-1.2 4.8-1.2c1.3 0 2.5.2 3.5.5 1 .4 2 .9 2.9 1.6l-2.2 3.1c-1.3-.9-2.6-1.3-3.9-1.3-1.2 0-2.2.4-2.9 1.3s-1 2.2-1 4.1c0 1.8.3 3.1 1 3.9s1.6 1.2 2.8 1.2c.6 0 1.2-.1 1.9-.4m20.6-12.9c1.3.8 2.2 1.8 2.9 3.2s1 3 1 4.9-.3 3.6-1 5-1.6 2.5-2.9 3.2-2.8 1.1-4.5 1.1c-1.8 0-3.3-.4-4.6-1.1s-2.2-1.8-2.9-3.2-1-3.1-1-5c0-1.8.3-3.5 1-4.9s1.6-2.5 2.9-3.2q1.95-1.2 4.5-1.2c1.8 0 3.3.4 4.6 1.2m-6.9 4c-.5.9-.8 2.3-.8 4.1 0 1.9.3 3.3.8 4.2s1.3 1.3 2.4 1.3 1.9-.4 2.4-1.3.8-2.3.8-4.2-.3-3.2-.8-4.1-1.3-1.3-2.4-1.3c-1.1-.1-1.9.4-2.4 1.3m23.6 7.3q0 1.05.6 1.5c.6.45.9.5 1.7.5s1.6-.2 2.5-.5l1.2 3.5c-1.5.8-3.1 1.1-5 1.1-2 0-3.6-.6-4.6-1.8s-1.5-2.8-1.5-4.9V531h-5.1v-3.5h10.3v18.8Zm22.7-11.3c1.3.8 2.2 1.8 2.9 3.2s1 3 1 4.9-.3 3.6-1 5-1.6 2.5-2.9 3.2-2.8 1.1-4.5 1.1c-1.8 0-3.3-.4-4.6-1.1s-2.2-1.8-2.9-3.2-1-3.1-1-5c0-1.8.3-3.5 1-4.9s1.6-2.5 2.9-3.2q1.95-1.2 4.5-1.2c1.8 0 3.3.4 4.6 1.2m-6.9 4c-.5.9-.8 2.3-.8 4.1 0 1.9.3 3.3.8 4.2s1.3 1.3 2.4 1.3 1.9-.4 2.4-1.3.8-2.3.8-4.2-.3-3.2-.8-4.1-1.3-1.3-2.4-1.3c-1.1-.1-1.9.4-2.4 1.3m30.6-4.6-1 7.3h-3.2v-3.2c-1 .2-1.8.7-2.6 1.6q-1.05 1.35-1.8 3.3v5h3.4v3.5h-10.9v-3.5h2.3v-10.5h-2.3v-3.4h6.3l1 3.9q.9-2.25 2.4-3.3c1-.7 2.2-1.1 3.6-1.1 1-.1 2 0 2.8.4m18.8 14.5c-.7 1.1-1.8 1.9-3.2 2.5s-3 .9-4.9.9q-5.7 0-9-3.3l2.7-3c1.7 1.5 3.8 2.3 6.1 2.3 1.1 0 2.1-.2 2.8-.7s1-1.2 1-2.1c0-.6-.1-1-.4-1.4s-.7-.7-1.3-1-1.4-.6-2.5-1c-1.8-.5-3.2-1.1-4.3-1.8s-1.9-1.4-2.3-2.3c-.5-.9-.7-1.9-.7-3 0-1.3.4-2.5 1.1-3.5.8-1 1.8-1.8 3.1-2.3s2.7-.8 4.3-.8c3.4 0 6.1 1 8.2 2.9l-2.5 2.9c-.8-.6-1.6-1.1-2.5-1.4s-1.8-.5-2.7-.5c-1.1 0-1.9.2-2.5.6s-.9.9-.9 1.6c0 .5.1.9.4 1.2s.7.6 1.4.9c.6.3 1.6.6 2.9 1 1.5.5 2.8 1 3.8 1.6s1.7 1.4 2.3 2.3c.5.9.8 2.1.8 3.4-.1 1.7-.5 2.9-1.2 4m15.6-1c.6-.3 1.3-.6 2-1.1l2.3 3.3c-.8.7-1.8 1.3-2.9 1.7q-1.65.6-3.6.6c-1.8 0-3.5-.4-4.8-1.1s-2.4-1.8-3.1-3.2-1.1-3-1.1-4.8.4-3.4 1.1-4.9c.7-1.4 1.8-2.5 3.2-3.3q2.1-1.2 4.8-1.2c1.3 0 2.5.2 3.5.5 1 .4 2 .9 2.9 1.6l-2.2 3.1c-1.3-.9-2.6-1.3-3.9-1.3-1.2 0-2.2.4-2.9 1.3s-1 2.2-1 4.1c0 1.8.3 3.1 1 3.9s1.6 1.2 2.8 1.2c.7 0 1.3-.1 1.9-.4m23.5.3c.2.3.5.5.9.7l-1.1 3.4c-1.1-.1-1.9-.3-2.6-.7s-1.2-.9-1.6-1.6c-.6.8-1.5 1.4-2.5 1.8s-2.1.6-3.2.6c-1.2 0-2.2-.2-3.1-.7s-1.6-1.1-2.1-1.9-.7-1.8-.7-2.8c0-1.2.3-2.3 1-3.2s1.6-1.6 2.9-2 2.8-.7 4.6-.7h2.3v-.7c0-1.8-1.1-2.7-3.4-2.7-.6 0-1.3.1-2.2.2-.9.2-1.7.4-2.6.7l-1.2-3.4c1.1-.4 2.2-.7 3.5-1q1.8-.3 3.3-.3c2.6 0 4.5.5 5.7 1.6 1.3 1 1.9 2.6 1.9 4.6v6.8c-.1.5 0 1 .2 1.3m-6.6 0c.6-.3 1.1-.8 1.4-1.4V544h-1.3c-1.4 0-2.5.2-3.2.7-.7.4-1 1.1-1 2 0 .7.2 1.2.6 1.6s1 .6 1.7.6c.6-.2 1.2-.4 1.8-.7m20.4-1.9q0 1.05.6 1.5c.4.3.9.5 1.7.5s1.6-.2 2.5-.5l1.2 3.5c-1.5.8-3.1 1.1-5 1.1-2 0-3.6-.6-4.6-1.8s-1.5-2.8-1.5-4.9V531h-5.1v-3.5h10.3v18.8Zm16.5 1.3c.7.6 1.7 1 2.8 1 1.5 0 3-.5 4.5-1.4l2.1 2.8c-.9.7-1.9 1.3-3.1 1.8q-1.8.6-3.9.6c-1.9 0-3.6-.4-5-1.2s-2.4-1.9-3.1-3.3-1-3-1-4.8c0-1.7.3-3.3 1-4.7s1.6-2.5 2.9-3.3 2.8-1.2 4.6-1.2c1.7 0 3.1.4 4.3 1.1s2.2 1.7 2.8 3.1c.7 1.3 1 2.9 1 4.8 0 .7 0 1.3-.1 1.9h-11.3c.3 1.2.7 2.2 1.5 2.8m-.4-9.3c-.6.7-.9 1.7-1 3.2h6.4c0-2.8-1.1-4.2-3.1-4.2-1 0-1.8.3-2.3 1m21 7c.4 1.4 1 2.9 1.9 4.3s2.1 3 3.7 4.7l-3 2.7c-1.8-1.6-3.3-3.2-4.6-4.8-1.2-1.7-2.2-3.5-2.9-5.4s-1-4.1-1-6.4.3-4.5 1-6.4c.7-2 1.6-3.8 2.9-5.4 1.2-1.7 2.8-3.3 4.6-4.8l3 2.7c-1.5 1.6-2.7 3.2-3.6 4.6s-1.6 2.9-2 4.4-.6 3.1-.6 4.9c.1 1.8.3 3.4.6 4.9m28.7 2.6v3.9h-14.8v-3.9h5.5v-13.7l-4.7 2.9-2.2-3.6 7.3-4.5h4.6v18.8h4.3Zm16-18c1.2.9 2.1 2.3 2.8 4.1.6 1.8.9 3.9.9 6.4s-.3 4.7-.9 6.5-1.5 3.2-2.8 4.1c-1.2.9-2.7 1.4-4.5 1.4s-3.3-.5-4.5-1.4-2.2-2.3-2.8-4.1-.9-3.9-.9-6.5c0-2.5.3-4.6.9-6.4s1.5-3.1 2.8-4.1 2.7-1.4 4.5-1.4c1.7 0 3.3.5 4.5 1.4m-6.5 3.2c-.5.5-.8 1.4-1.1 2.6s-.4 2.8-.4 4.7.1 3.4.2 4.6l5.5-11.6c-.3-.4-.6-.7-1-.9s-.9-.2-1.4-.2c-.6 0-1.3.2-1.8.8m3.9 14.7c.5-.5.8-1.4 1.1-2.6q.3-1.8.3-4.8c0-1.1 0-2.2-.1-3.2l-5.2 10.8c.2.2.5.4.8.5s.7.1 1.2.1c.7 0 1.4-.2 1.9-.8m22.3-17.9c1.2.9 2.1 2.3 2.8 4.1.6 1.8.9 3.9.9 6.4s-.3 4.7-.9 6.5-1.5 3.2-2.8 4.1-2.7 1.4-4.5 1.4-3.3-.5-4.5-1.4-2.2-2.3-2.8-4.1-.9-3.9-.9-6.5c0-2.5.3-4.6.9-6.4s1.5-3.1 2.8-4.1c1.2-.9 2.7-1.4 4.5-1.4 1.7 0 3.2.5 4.5 1.4m-6.5 3.2c-.5.5-.8 1.4-1.1 2.6s-.4 2.8-.4 4.7.1 3.4.2 4.6l5.5-11.6c-.3-.4-.6-.7-1-.9s-.9-.2-1.4-.2c-.6 0-1.3.2-1.8.8m3.8 14.7c.5-.5.8-1.4 1.1-2.6q.3-1.8.3-4.8c0-1.1 0-2.2-.1-3.2l-5.2 10.8c.2.2.5.4.8.5s.7.1 1.2.1c.8 0 1.5-.2 1.9-.8m18.5-12.4c-.4-1.5-1.1-3-2-4.4s-2.1-3-3.6-4.6l3-2.7c1.8 1.6 3.3 3.2 4.6 4.8 1.2 1.7 2.2 3.5 2.9 5.4.7 2 1 4.1 1 6.4s-.3 4.5-1 6.4-1.6 3.8-2.9 5.4c-1.2 1.7-2.8 3.3-4.6 4.8l-3-2.7c1.6-1.7 2.8-3.3 3.7-4.7s1.5-2.8 1.9-4.3c.4-1.4.6-3.1.6-4.9s-.2-3.4-.6-4.9"/><path fill="#ffffb5" d="M1490.8 745.7h-373.5c-8.6 0-15.7-7-15.7-15.7V356.6c0-8.6 7-15.7 15.7-15.7h373.5c8.6 0 15.7 7 15.7 15.7v373.5c-.1 8.6-7.1 15.6-15.7 15.6"/><path d="M1169.8 547.9c.6-.3 1.3-.6 2-1.1l2.3 3.3c-.8.7-1.8 1.3-2.9 1.7q-1.65.6-3.6.6c-1.8 0-3.5-.4-4.8-1.1s-2.4-1.8-3.1-3.2-1.1-3-1.1-4.8.4-3.4 1.1-4.9c.7-1.4 1.8-2.5 3.2-3.3s3-1.2 4.8-1.2c1.3 0 2.5.2 3.5.5 1 .4 2 .9 2.9 1.6l-2.2 3.1c-1.3-.9-2.6-1.3-3.9-1.3-1.2 0-2.2.4-2.9 1.3s-1 2.2-1 4.1c0 1.8.3 3.1 1 3.9s1.6 1.2 2.8 1.2c.6 0 1.3-.1 1.9-.4m20.6-12.9c1.3.8 2.2 1.8 2.9 3.2s1 3 1 4.9-.3 3.6-1 5-1.6 2.5-2.9 3.2-2.8 1.1-4.5 1.1c-1.8 0-3.3-.4-4.6-1.1s-2.2-1.8-2.9-3.2-1-3.1-1-5c0-1.8.3-3.5 1-4.9s1.6-2.5 2.9-3.2q1.95-1.2 4.5-1.2c1.8 0 3.4.4 4.6 1.2m-6.9 4c-.5.9-.8 2.3-.8 4.1 0 1.9.3 3.3.8 4.2s1.3 1.3 2.4 1.3 1.9-.4 2.4-1.3.8-2.3.8-4.2-.3-3.2-.8-4.1-1.3-1.3-2.4-1.3c-1.1-.1-1.9.4-2.4 1.3m23.6 7.3q0 1.05.6 1.5c.4.3.9.5 1.7.5s1.6-.2 2.5-.5l1.2 3.5c-1.5.8-3.1 1.1-5 1.1-2 0-3.6-.6-4.6-1.8s-1.5-2.8-1.5-4.9V531h-5.1v-3.5h10.3v18.8Zm22.7-11.3c1.3.8 2.2 1.8 2.9 3.2s1 3 1 4.9-.3 3.6-1 5-1.6 2.5-2.9 3.2-2.8 1.1-4.5 1.1c-1.8 0-3.3-.4-4.6-1.1s-2.2-1.8-2.9-3.2-1-3.1-1-5c0-1.8.3-3.5 1-4.9s1.6-2.5 2.9-3.2q1.95-1.2 4.5-1.2c1.8 0 3.3.4 4.6 1.2m-6.9 4c-.5.9-.8 2.3-.8 4.1 0 1.9.3 3.3.8 4.2s1.3 1.3 2.4 1.3 1.9-.4 2.4-1.3.8-2.3.8-4.2-.3-3.2-.8-4.1-1.3-1.3-2.4-1.3c-1.1-.1-1.9.4-2.4 1.3m30.7-4.6-1 7.3h-3.2v-3.2c-1 .2-1.8.7-2.6 1.6s-1.3 2-1.8 3.3v5h3.4v3.5h-10.9v-3.5h2.3v-10.5h-2.3v-3.4h6.3l1 3.9q.9-2.25 2.4-3.3c1-.7 2.2-1.1 3.6-1.1 1-.1 1.9 0 2.8.4m18.7 14.5c-.7 1.1-1.8 1.9-3.2 2.5s-3 .9-4.9.9q-5.7 0-9-3.3l2.7-3c1.7 1.5 3.8 2.3 6.1 2.3 1.1 0 2.1-.2 2.8-.7s1-1.2 1-2.1c0-.6-.1-1-.4-1.4s-.7-.7-1.3-1-1.4-.6-2.5-1c-1.8-.5-3.2-1.1-4.3-1.8s-1.9-1.4-2.3-2.3c-.5-.9-.7-1.9-.7-3 0-1.3.4-2.5 1.1-3.5.8-1 1.8-1.8 3.1-2.3s2.7-.8 4.3-.8c3.4 0 6.1 1 8.2 2.9l-2.5 2.9c-.8-.6-1.6-1.1-2.5-1.4s-1.8-.5-2.7-.5c-1 0-1.9.2-2.5.6s-.9.9-.9 1.6c0 .5.1.9.4 1.2s.7.6 1.4.9c.6.3 1.6.6 2.9 1 1.5.5 2.8 1 3.8 1.6s1.7 1.4 2.3 2.3c.5.9.8 2.1.8 3.4-.1 1.7-.4 2.9-1.2 4m15.7-1c.6-.3 1.3-.6 2-1.1l2.3 3.3c-.8.7-1.8 1.3-2.9 1.7q-1.65.6-3.6.6c-1.8 0-3.5-.4-4.8-1.1s-2.4-1.8-3.1-3.2-1.1-3-1.1-4.8.4-3.4 1.1-4.9c.7-1.4 1.8-2.5 3.2-3.3s3-1.2 4.8-1.2c1.3 0 2.5.2 3.5.5 1 .4 2 .9 2.9 1.6l-2.2 3.1c-1.3-.9-2.6-1.3-3.9-1.3-1.2 0-2.2.4-2.9 1.3s-1 2.2-1 4.1c0 1.8.3 3.1 1 3.9s1.6 1.2 2.8 1.2c.6 0 1.2-.1 1.9-.4m23.4.3c.2.3.5.5.9.7l-1.1 3.4c-1.1-.1-1.9-.3-2.6-.7s-1.2-.9-1.6-1.6c-.6.8-1.5 1.4-2.5 1.8s-2.1.6-3.2.6c-1.2 0-2.2-.2-3.1-.7s-1.6-1.1-2.1-1.9-.7-1.8-.7-2.8c0-1.2.3-2.3 1-3.2s1.6-1.6 2.9-2c1.3-.5 2.8-.7 4.6-.7h2.3v-.7c0-1.8-1.1-2.7-3.4-2.7-.6 0-1.3.1-2.2.2s-1.7.4-2.6.7l-1.2-3.4c1.1-.4 2.2-.7 3.5-1q1.8-.3 3.3-.3c2.6 0 4.5.5 5.7 1.6 1.3 1 1.9 2.6 1.9 4.6v6.8c0 .5 0 1 .2 1.3m-6.6 0c.6-.3 1.1-.8 1.4-1.4V544h-1.3c-1.4 0-2.5.2-3.2.7-.7.4-1 1.1-1 2 0 .7.2 1.2.6 1.6s1 .6 1.7.6c.6-.2 1.2-.4 1.8-.7m20.5-1.9q0 1.05.6 1.5c.4.3.9.5 1.7.5s1.6-.2 2.5-.5l1.2 3.5c-1.5.8-3.1 1.1-5 1.1-2 0-3.6-.6-4.6-1.8s-1.5-2.8-1.5-4.9V531h-5.1v-3.5h10.3v18.8Zm16.4 1.3c.7.6 1.7 1 2.8 1 1.5 0 3-.5 4.5-1.4l2.1 2.8c-.9.7-1.9 1.3-3.1 1.8s-2.5.6-3.9.6c-1.9 0-3.6-.4-5-1.2s-2.4-1.9-3.1-3.3-1-3-1-4.8c0-1.7.3-3.3 1-4.7s1.6-2.5 2.9-3.3 2.8-1.2 4.6-1.2c1.7 0 3.1.4 4.3 1.1s2.2 1.7 2.8 3.1 1 2.9 1 4.8c0 .7 0 1.3-.1 1.9h-11.3c.3 1.2.8 2.2 1.5 2.8m-.4-9.3c-.6.7-.9 1.7-1 3.2h6.4c0-2.8-1.1-4.2-3.1-4.2-1 0-1.7.3-2.3 1m21.1 7c.4 1.4 1 2.9 1.9 4.3s2.1 3 3.7 4.7l-3 2.7c-1.8-1.6-3.3-3.2-4.6-4.8-1.2-1.7-2.2-3.5-2.9-5.4s-1-4.1-1-6.4.3-4.5 1-6.4c.7-2 1.6-3.8 2.9-5.4 1.2-1.7 2.8-3.3 4.6-4.8l3 2.7c-1.5 1.6-2.7 3.2-3.6 4.6s-1.6 2.9-2 4.4-.6 3.1-.6 4.9.2 3.4.6 4.9m23.9-15.9q1.8.9 2.7 2.4t.9 3.3-.9 3.6c-.6 1.2-1.5 2.5-2.8 3.9s-3.1 3.2-5.5 5.3h9.7l-.6 4h-15.1v-3.7c2.7-2.6 4.7-4.6 6-6.1 1.4-1.5 2.3-2.7 2.9-3.7s.9-2 .9-2.9-.3-1.7-.8-2.2-1.3-.8-2.2-.8-1.6.2-2.2.5c-.6.4-1.3.9-1.8 1.8l-3.2-2.4c.9-1.2 2-2.2 3.2-2.9 1.3-.7 2.8-1 4.5-1s3.1.3 4.3.9m20.7.5c1.2.9 2.1 2.3 2.8 4.1.6 1.8.9 3.9.9 6.4s-.3 4.7-.9 6.5-1.5 3.2-2.8 4.1-2.7 1.4-4.5 1.4-3.3-.5-4.5-1.4-2.2-2.3-2.8-4.1-.9-3.9-.9-6.5c0-2.5.3-4.6.9-6.4s1.5-3.1 2.8-4.1c1.2-.9 2.7-1.4 4.5-1.4s3.3.5 4.5 1.4m-6.4 3.2c-.5.5-.8 1.4-1.1 2.6s-.4 2.8-.4 4.7.1 3.4.2 4.6l5.5-11.6c-.3-.4-.6-.7-1-.9s-.9-.2-1.4-.2c-.7 0-1.3.2-1.8.8m3.8 14.7c.5-.5.8-1.4 1.1-2.6q.3-1.8.3-4.8c0-1.1 0-2.2-.1-3.2l-5.2 10.8c.2.2.5.4.8.5s.7.1 1.2.1c.8 0 1.4-.2 1.9-.8m22.3-17.9c1.2.9 2.1 2.3 2.8 4.1.6 1.8.9 3.9.9 6.4s-.3 4.7-.9 6.5-1.5 3.2-2.8 4.1c-1.2.9-2.7 1.4-4.5 1.4s-3.3-.5-4.5-1.4-2.2-2.3-2.8-4.1-.9-3.9-.9-6.5c0-2.5.3-4.6.9-6.4s1.5-3.1 2.8-4.1 2.7-1.4 4.5-1.4 3.3.5 4.5 1.4m-6.4 3.2c-.5.5-.8 1.4-1.1 2.6s-.4 2.8-.4 4.7.1 3.4.2 4.6l5.5-11.6c-.3-.4-.6-.7-1-.9s-.9-.2-1.4-.2c-.7 0-1.3.2-1.8.8m3.8 14.7c.5-.5.8-1.4 1.1-2.6q.3-1.8.3-4.8c0-1.1 0-2.2-.1-3.2l-5.2 10.8c.2.2.5.4.8.5s.7.1 1.2.1c.8 0 1.4-.2 1.9-.8m18.4-12.4c-.4-1.5-1.1-3-2-4.4s-2.1-3-3.6-4.6l3-2.7c1.8 1.6 3.3 3.2 4.6 4.8 1.2 1.7 2.2 3.5 2.9 5.4.7 2 1 4.1 1 6.4s-.3 4.5-1 6.4-1.6 3.8-2.9 5.4c-1.2 1.7-2.8 3.3-4.6 4.8l-3-2.7c1.6-1.7 2.8-3.3 3.7-4.7s1.5-2.8 1.9-4.3c.4-1.4.6-3.1.6-4.9.1-1.8-.1-3.4-.6-4.9"/><path fill="#4169ff" d="M455.5 745.7H82c-8.6 0-15.7-7-15.7-15.7V356.6c0-8.6 7-15.7 15.7-15.7h373.5c8.6 0 15.7 7 15.7 15.7v373.5c-.1 8.6-7.1 15.6-15.7 15.6"/><path fill="#fff" d="M154.2 547.9c.6-.3 1.3-.6 2-1.1l2.3 3.3c-.8.7-1.8 1.3-2.9 1.7q-1.65.6-3.6.6c-1.8 0-3.5-.4-4.8-1.1s-2.4-1.8-3.1-3.2-1.1-3-1.1-4.8.4-3.4 1.1-4.9c.7-1.4 1.8-2.5 3.2-3.3q2.1-1.2 4.8-1.2c1.3 0 2.5.2 3.5.5 1 .4 2 .9 2.9 1.6l-2.2 3.1c-1.3-.9-2.6-1.3-3.9-1.3-1.2 0-2.2.4-2.9 1.3s-1 2.2-1 4.1c0 1.8.3 3.1 1 3.9s1.6 1.2 2.8 1.2c.6 0 1.3-.1 1.9-.4m20.6-12.9c1.3.8 2.2 1.8 2.9 3.2s1 3 1 4.9-.3 3.6-1 5-1.6 2.5-2.9 3.2-2.8 1.1-4.5 1.1c-1.8 0-3.3-.4-4.6-1.1s-2.2-1.8-2.9-3.2-1-3.1-1-5c0-1.8.3-3.5 1-4.9s1.6-2.5 2.9-3.2q1.95-1.2 4.5-1.2c1.8 0 3.3.4 4.6 1.2m-6.9 4c-.5.9-.8 2.3-.8 4.1 0 1.9.3 3.3.8 4.2s1.3 1.3 2.4 1.3 1.9-.4 2.4-1.3.8-2.3.8-4.2-.3-3.2-.8-4.1-1.3-1.3-2.4-1.3c-1.1-.1-1.9.4-2.4 1.3m23.6 7.3q0 1.05.6 1.5c.6.45.9.5 1.7.5s1.6-.2 2.5-.5l1.2 3.5c-1.5.8-3.1 1.1-5 1.1-2 0-3.6-.6-4.6-1.8s-1.5-2.8-1.5-4.9V531h-5.1v-3.5h10.3v18.8Zm22.7-11.3c1.3.8 2.2 1.8 2.9 3.2s1 3 1 4.9-.3 3.6-1 5-1.6 2.5-2.9 3.2-2.8 1.1-4.5 1.1c-1.8 0-3.3-.4-4.6-1.1s-2.2-1.8-2.9-3.2-1-3.1-1-5c0-1.8.3-3.5 1-4.9s1.6-2.5 2.9-3.2q1.95-1.2 4.5-1.2c1.8 0 3.3.4 4.6 1.2m-6.9 4c-.5.9-.8 2.3-.8 4.1 0 1.9.3 3.3.8 4.2s1.3 1.3 2.4 1.3 1.9-.4 2.4-1.3.8-2.3.8-4.2-.3-3.2-.8-4.1-1.3-1.3-2.4-1.3c-1.1-.1-1.9.4-2.4 1.3m30.7-4.6-1 7.3h-3.2v-3.2c-1 .2-1.8.7-2.6 1.6q-1.05 1.35-1.8 3.3v5h3.4v3.5h-10.9v-3.5h2.3v-10.5h-2.3v-3.4h6.3l1 3.9q.9-2.25 2.4-3.3c1-.7 2.2-1.1 3.6-1.1.9-.1 1.9 0 2.8.4m18.7 14.5c-.7 1.1-1.8 1.9-3.2 2.5s-3 .9-4.9.9q-5.7 0-9-3.3l2.7-3c1.7 1.5 3.8 2.3 6.1 2.3 1.1 0 2.1-.2 2.8-.7s1-1.2 1-2.1c0-.6-.1-1-.4-1.4s-.7-.7-1.3-1-1.4-.6-2.5-1c-1.8-.5-3.2-1.1-4.3-1.8s-1.9-1.4-2.3-2.3c-.5-.9-.7-1.9-.7-3 0-1.3.4-2.5 1.1-3.5.8-1 1.8-1.8 3.1-2.3s2.7-.8 4.3-.8c3.4 0 6.1 1 8.2 2.9l-2.5 2.9c-.8-.6-1.6-1.1-2.5-1.4s-1.8-.5-2.7-.5c-1.1 0-1.9.2-2.5.6s-.9.9-.9 1.6c0 .5.1.9.4 1.2s.7.6 1.4.9c.6.3 1.6.6 2.9 1 1.5.5 2.8 1 3.8 1.6s1.7 1.4 2.3 2.3c.5.9.8 2.1.8 3.4-.1 1.7-.5 2.9-1.2 4m15.6-1c.6-.3 1.3-.6 2-1.1l2.3 3.3c-.8.7-1.8 1.3-2.9 1.7q-1.65.6-3.6.6c-1.8 0-3.5-.4-4.8-1.1s-2.4-1.8-3.1-3.2-1.1-3-1.1-4.8.4-3.4 1.1-4.9c.7-1.4 1.8-2.5 3.2-3.3q2.1-1.2 4.8-1.2c1.3 0 2.5.2 3.5.5 1 .4 2 .9 2.9 1.6l-2.2 3.1c-1.3-.9-2.6-1.3-3.9-1.3-1.2 0-2.2.4-2.9 1.3s-1 2.2-1 4.1c0 1.8.3 3.1 1 3.9s1.6 1.2 2.8 1.2c.7 0 1.3-.1 1.9-.4m23.5.3c.2.3.5.5.9.7l-1.1 3.4c-1.1-.1-1.9-.3-2.6-.7s-1.2-.9-1.6-1.6c-.6.8-1.5 1.4-2.5 1.8s-2.1.6-3.2.6c-1.2 0-2.2-.2-3.1-.7s-1.6-1.1-2.1-1.9-.7-1.8-.7-2.8c0-1.2.3-2.3 1-3.2s1.6-1.6 2.9-2 2.8-.7 4.6-.7h2.3v-.7c0-1.8-1.1-2.7-3.4-2.7-.6 0-1.3.1-2.2.2-.9.2-1.7.4-2.6.7l-1.2-3.4c1.1-.4 2.2-.7 3.5-1q1.8-.3 3.3-.3c2.6 0 4.5.5 5.7 1.6 1.3 1 1.9 2.6 1.9 4.6v6.8c-.1.5 0 1 .2 1.3m-6.6 0c.6-.3 1.1-.8 1.4-1.4V544h-1.3c-1.4 0-2.5.2-3.2.7-.7.4-1 1.1-1 2 0 .7.2 1.2.6 1.6s1 .6 1.7.6c.6-.2 1.2-.4 1.8-.7m20.4-1.9q0 1.05.6 1.5c.6.45.9.5 1.7.5s1.6-.2 2.5-.5l1.2 3.5c-1.5.8-3.1 1.1-5 1.1-2 0-3.6-.6-4.6-1.8s-1.5-2.8-1.5-4.9V531h-5.1v-3.5h10.3v18.8Zm16.5 1.3c.7.6 1.7 1 2.8 1 1.5 0 3-.5 4.5-1.4l2.1 2.8c-.9.7-1.9 1.3-3.1 1.8q-1.8.6-3.9.6c-1.9 0-3.6-.4-5-1.2s-2.4-1.9-3.1-3.3-1-3-1-4.8c0-1.7.3-3.3 1-4.7s1.6-2.5 2.9-3.3 2.8-1.2 4.6-1.2c1.7 0 3.1.4 4.3 1.1s2.2 1.7 2.8 3.1c.7 1.3 1 2.9 1 4.8 0 .7 0 1.3-.1 1.9h-11.3c.3 1.2.7 2.2 1.5 2.8m-.4-9.3c-.6.7-.9 1.7-1 3.2h6.4c0-2.8-1.1-4.2-3.1-4.2-1 0-1.8.3-2.3 1m21.1 7c.4 1.4 1 2.9 1.9 4.3s2.1 3 3.7 4.7l-3 2.7c-1.8-1.6-3.3-3.2-4.6-4.8-1.2-1.7-2.2-3.5-2.9-5.4s-1-4.1-1-6.4.3-4.5 1-6.4c.7-2 1.6-3.8 2.9-5.4 1.2-1.7 2.8-3.3 4.6-4.8l3 2.7c-1.5 1.6-2.7 3.2-3.6 4.6s-1.6 2.9-2 4.4-.6 3.1-.6 4.9.2 3.4.6 4.9m24.9-15.4c1.2.9 2.1 2.3 2.8 4.1.6 1.8.9 3.9.9 6.4s-.3 4.7-.9 6.5-1.5 3.2-2.8 4.1c-1.2.9-2.7 1.4-4.5 1.4s-3.3-.5-4.5-1.4-2.2-2.3-2.8-4.1-.9-3.9-.9-6.5c0-2.5.3-4.6.9-6.4s1.5-3.1 2.8-4.1c1.2-.9 2.7-1.4 4.5-1.4s3.3.5 4.5 1.4m-6.4 3.2c-.5.5-.8 1.4-1.1 2.6s-.4 2.8-.4 4.7.1 3.4.2 4.6l5.5-11.6c-.3-.4-.6-.7-1-.9s-.9-.2-1.4-.2c-.7 0-1.4.2-1.8.8m3.8 14.7c.5-.5.8-1.4 1.1-2.6q.3-1.8.3-4.8c0-1.1 0-2.2-.1-3.2l-5.2 10.8c.2.2.5.4.8.5s.7.1 1.2.1c.8 0 1.4-.2 1.9-.8m18.4-12.4c-.4-1.5-1.1-3-2-4.4s-2.1-3-3.6-4.6l3-2.7c1.8 1.6 3.3 3.2 4.6 4.8 1.2 1.7 2.2 3.5 2.9 5.4.7 2 1 4.1 1 6.4s-.3 4.5-1 6.4-1.6 3.8-2.9 5.4c-1.2 1.7-2.8 3.3-4.6 4.8l-3-2.7c1.6-1.7 2.8-3.3 3.7-4.7s1.5-2.8 1.9-4.3c.4-1.4.6-3.1.6-4.9.1-1.8-.2-3.4-.6-4.9"/><path d="M70.8 247c1.2.9 2.1 2.3 2.8 4.1.6 1.8.9 3.9.9 6.4s-.3 4.7-.9 6.5-1.5 3.2-2.8 4.1c-1.2.9-2.7 1.4-4.5 1.4s-3.3-.5-4.5-1.4-2.2-2.3-2.8-4.1-.9-3.9-.9-6.5c0-2.5.3-4.6.9-6.4s1.5-3.1 2.8-4.1c1.2-.9 2.7-1.4 4.5-1.4s3.3.5 4.5 1.4m-6.4 3.2c-.5.5-.8 1.4-1.1 2.6s-.4 2.8-.4 4.7.1 3.4.2 4.6l5.5-11.6c-.3-.4-.6-.7-1-.9s-.9-.2-1.4-.2c-.7 0-1.3.3-1.8.8m3.8 14.8c.5-.5.8-1.4 1.1-2.6q.3-1.8.3-4.8c0-1.1 0-2.2-.1-3.2l-5.2 10.8c.2.2.5.4.8.5s.7.1 1.2.1c.8 0 1.4-.3 1.9-.8m1422-18.5q1.8.9 2.7 2.4t.9 3.3-.9 3.6c-.6 1.2-1.5 2.5-2.8 3.9s-3.1 3.2-5.5 5.3h9.7l-.6 4h-15.1v-3.7c2.7-2.6 4.7-4.6 6-6.1 1.4-1.5 2.3-2.7 2.9-3.7s.9-2 .9-2.9-.3-1.7-.8-2.2-1.3-.8-2.2-.8-1.6.2-2.2.5c-.6.4-1.3.9-1.8 1.8l-3.2-2.4c.9-1.2 2-2.2 3.2-2.9 1.3-.7 2.8-1 4.5-1s3.1.3 4.3.9m20.8.5c1.2.9 2.1 2.3 2.8 4.1.6 1.8.9 3.9.9 6.4s-.3 4.7-.9 6.5-1.5 3.2-2.8 4.1c-1.2.9-2.7 1.4-4.5 1.4s-3.3-.5-4.5-1.4-2.2-2.3-2.8-4.1-.9-3.9-.9-6.5c0-2.5.3-4.6.9-6.4s1.5-3.1 2.8-4.1c1.2-.9 2.7-1.4 4.5-1.4 1.7 0 3.2.5 4.5 1.4m-6.5 3.2c-.5.5-.8 1.4-1.1 2.6s-.4 2.8-.4 4.7.1 3.4.2 4.6l5.5-11.6c-.3-.4-.6-.7-1-.9s-.9-.2-1.4-.2c-.7 0-1.3.3-1.8.8m3.8 14.8c.5-.5.8-1.4 1.1-2.6q.3-1.8.3-4.8c0-1.1 0-2.2-.1-3.2l-5.2 10.8c.2.2.5.4.8.5s.7.1 1.2.1c.8 0 1.5-.3 1.9-.8m22.4-18c1.2.9 2.1 2.3 2.8 4.1s.9 3.9.9 6.4-.3 4.7-.9 6.5-1.5 3.2-2.8 4.1c-1.2.9-2.7 1.4-4.5 1.4s-3.3-.5-4.5-1.4-2.2-2.3-2.8-4.1-.9-3.9-.9-6.5c0-2.5.3-4.6.9-6.4s1.5-3.1 2.8-4.1c1.2-.9 2.7-1.4 4.5-1.4 1.7 0 3.2.5 4.5 1.4m-6.5 3.2c-.5.5-.8 1.4-1.1 2.6s-.4 2.8-.4 4.7.1 3.4.2 4.6l5.5-11.6c-.3-.4-.6-.7-1-.9s-.9-.2-1.4-.2c-.7 0-1.3.3-1.8.8m3.8 14.8c.5-.5.8-1.4 1.1-2.6q.3-1.8.3-4.8c0-1.1 0-2.2-.1-3.2l-5.2 10.8c.2.2.5.4.8.5s.7.1 1.2.1c.8 0 1.4-.3 1.9-.8m-367 544.8c-1.3 0-2.6-.3-3.7-.8s-2.2-1.3-3.1-2.2-1.6-2-2.1-3.2-.8-2.5-.8-3.9.3-2.7.8-3.9 1.2-2.3 2.1-3.2 1.9-1.7 3.1-2.2 2.4-.8 3.7-.8 2.6.3 3.8.8 2.2 1.3 3.1 2.2 1.6 2 2.1 3.2.7 2.5.7 3.9-.2 2.7-.7 3.9-1.2 2.3-2.1 3.2-1.9 1.7-3.1 2.2c-1.2.6-2.5.8-3.8.8m0-3.4c.9 0 1.7-.2 2.4-.5s1.4-.8 2-1.5 1-1.3 1.3-2.1.5-1.7.5-2.6-.2-1.8-.5-2.6-.8-1.5-1.4-2.1-1.2-1.1-2-1.5-1.6-.5-2.4-.5c-.9 0-1.7.2-2.4.5-.8.4-1.4.8-2 1.5-.6.6-1 1.3-1.3 2.1s-.5 1.7-.5 2.6.2 1.8.5 2.6.8 1.5 1.4 2.1 1.2 1.1 2 1.5c.7.3 1.5.5 2.4.5m11.5-2.1v-8.8h3.4v7.9c0 .6.1 1.1.4 1.5.3.5.6.8 1.1 1.1s.9.4 1.5.4 1.1-.1 1.5-.4.8-.6 1.1-1.1.4-1 .4-1.5v-7.9h3.4v14h-3.4v-1.3c-.5.5-1.1.9-1.7 1.2s-1.4.4-2.1.4c-1 0-1.9-.2-2.8-.7s-1.5-1.2-2-2c-.6-.9-.8-1.8-.8-2.8m23.1-5.4h-2.7v10.6h-3.4v-10.6h-2.1v-3.4h2.1v-4.4h3.4v4.4h2.7Zm6.4 10.8c-.7 0-1.4-.2-2.1-.4s-1.3-.6-1.8-1-.9-.9-1.2-1.5l2.9-1.2c.1.2.3.4.5.6s.6.4.9.5.7.2 1.2.2c.4 0 .7 0 1-.1s.6-.2.8-.5c.2-.2.3-.5.3-.8s-.1-.6-.4-.8c-.2-.2-.5-.3-.9-.4s-.7-.2-1-.3c-.9-.2-1.7-.5-2.5-.8-.8-.4-1.4-.9-1.8-1.4-.5-.6-.7-1.3-.7-2.1 0-.9.2-1.7.7-2.4s1.1-1.2 1.9-1.6 1.6-.5 2.6-.5c1.1 0 2.1.2 3.1.7s1.7 1.1 2.2 2l-2.7 1.6c-.1-.2-.3-.4-.5-.6s-.5-.3-.8-.5-.6-.2-.9-.2c-.4 0-.8 0-1.1.1s-.6.3-.8.5-.3.5-.3.9.1.6.4.8.6.3 1 .4.8.2 1.1.3c.8.3 1.6.6 2.3 1s1.3.9 1.7 1.4c.4.6.6 1.3.6 2 0 .9-.3 1.7-.8 2.4s-1.2 1.2-2.1 1.5c-.9.2-1.8.3-2.8.2m9.5-16c-.5 0-.9-.2-1.3-.5-.3-.3-.5-.7-.5-1.3 0-.5.2-.9.5-1.2s.8-.5 1.3-.5.9.2 1.3.5c.3.3.5.8.5 1.2 0 .5-.2.9-.5 1.3s-.8.5-1.3.5m-1.7 1.8h3.4v14h-3.4Zm17-7h3.4v21h-3.4v-1.8c-.4.6-1 1.1-1.7 1.5q-1.05.6-2.4.6c-1 0-2-.2-2.9-.6s-1.7-.9-2.3-1.6-1.2-1.5-1.6-2.3-.6-1.8-.6-2.9.2-2 .6-2.9.9-1.7 1.6-2.3 1.5-1.2 2.3-1.6 1.8-.6 2.9-.6q1.35 0 2.4.6c.7.4 1.2.9 1.7 1.5Zm-4 18c.7 0 1.4-.2 1.9-.5.6-.4 1-.9 1.3-1.5s.5-1.3.5-2.1-.2-1.4-.5-2.1c-.3-.6-.8-1.1-1.3-1.5s-1.2-.5-1.9-.5-1.4.2-2 .6-1.1.9-1.4 1.5c-.4.6-.5 1.3-.5 2.1s.2 1.4.5 2.1c.4.6.8 1.1 1.4 1.5.6.3 1.3.4 2 .4m16.7 3.3c-1.3 0-2.5-.3-3.5-1-1.1-.7-1.9-1.6-2.5-2.7s-.9-2.4-.9-3.7c0-1 .2-2 .5-2.9q.6-1.35 1.5-2.4c.9-1.05 1.4-1.2 2.2-1.6s1.8-.6 2.7-.6c1.1 0 2.1.2 3 .7s1.7 1.1 2.3 1.9 1.1 1.7 1.4 2.7.4 2.1.2 3.2h-10.2c.1.5.3 1 .6 1.4s.7.7 1.1 1c.5.2 1 .4 1.6.4s1.1-.1 1.6-.4q.75-.45 1.2-1.2l3.5.8c-.6 1.2-1.4 2.3-2.5 3-1.1 1-2.4 1.4-3.8 1.4m-3.4-8.7h6.9c-.1-.6-.3-1.1-.7-1.5s-.7-.8-1.2-1.1-1-.4-1.6-.4-1.1.1-1.6.4-.9.6-1.2 1.1q-.45.6-.6 1.5m25.8 8.7c-1.3 0-2.5-.3-3.5-1-1.1-.7-1.9-1.6-2.5-2.7s-.9-2.3-.9-3.7c0-1 .2-2 .5-2.9q.6-1.35 1.5-2.4c.9-1.05 1.4-1.2 2.2-1.6s1.8-.6 2.7-.6c1.3 0 2.5.3 3.5 1 1.1.7 1.9 1.6 2.5 2.7s.9 2.4.9 3.7c0 1-.2 2-.5 2.9s-.9 1.7-1.5 2.3c-.6.7-1.4 1.2-2.2 1.6-.8.5-1.7.7-2.7.7m0-3.4c.7 0 1.3-.2 1.8-.5.5-.4 1-.8 1.3-1.4s.5-1.3.5-2-.2-1.4-.5-2-.8-1.1-1.3-1.4-1.1-.5-1.8-.5-1.3.2-1.8.5c-.5.4-1 .8-1.3 1.5-.3.6-.5 1.3-.5 2s.2 1.4.5 2 .8 1.1 1.3 1.4c.6.2 1.2.4 1.8.4m13.5-13.9v2.9h3.8v3.4h-3.8v10.6h-3.4v-10.6h-1.5v-3.4h1.5v-2.9c0-.8.2-1.5.6-2.2s.9-1.2 1.6-1.6 1.4-.6 2.2-.6c.6 0 1.2.1 1.8.4.6.2 1.1.6 1.5 1.1l-2.5 2.4c-.1-.2-.2-.3-.4-.4s-.3-.1-.5-.1c-.3 0-.5.1-.7.3-.1.2-.2.5-.2.7m19.1 17.3c-1.3 0-2.5-.3-3.5-1-1.1-.7-1.9-1.6-2.5-2.7s-.9-2.4-.9-3.7c0-1 .2-2 .5-2.9q.6-1.35 1.5-2.4c.9-1.05 1.4-1.2 2.2-1.6s1.8-.6 2.7-.6c1.1 0 2.1.2 3 .7s1.7 1.1 2.3 1.9 1.1 1.7 1.4 2.7.4 2.1.2 3.2h-10.2c.1.5.3 1 .6 1.4s.7.7 1.1 1c.5.2 1 .4 1.6.4s1.1-.1 1.6-.4q.75-.45 1.2-1.2l3.5.8c-.6 1.2-1.4 2.3-2.5 3-1.1 1-2.4 1.4-3.8 1.4m-3.4-8.7h6.9c-.1-.6-.3-1.1-.7-1.5s-.7-.8-1.2-1.1-1-.4-1.6-.4-1.1.1-1.6.4-.9.6-1.2 1.1q-.45.6-.6 1.5m10.9 8.4 5.1-7-5.1-7h4.2l3 4.1 3-4.1h4.2l-5.1 7 5.1 7h-4.2l-3-4.1-3 4.1Zm20 7h-3.4v-21h3.4v1.8c.5-.6 1-1.2 1.7-1.5.7-.4 1.4-.6 2.3-.6 1 0 2 .2 2.9.6s1.7.9 2.3 1.6 1.2 1.5 1.6 2.3c.4.9.6 1.8.6 2.9s-.2 2-.6 2.9-.9 1.7-1.6 2.4-1.5 1.2-2.3 1.6c-.9.4-1.8.6-2.9.6-.9 0-1.7-.2-2.3-.6-.7-.4-1.2-.9-1.7-1.5Zm4-18.1c-.7 0-1.3.2-1.9.6s-1 .9-1.3 1.5-.5 1.3-.5 2 .2 1.4.5 2.1c.3.6.8 1.1 1.3 1.5.6.4 1.2.6 1.9.6s1.4-.2 2-.5c.6-.4 1.1-.9 1.4-1.5.4-.6.5-1.3.5-2.1 0-.7-.2-1.4-.5-2-.4-.6-.8-1.1-1.4-1.5-.6-.5-1.3-.7-2-.7m15.8 11.4c-1.3 0-2.5-.3-3.5-1-1.1-.7-1.9-1.6-2.5-2.7s-.9-2.4-.9-3.7c0-1 .2-2 .5-2.9q.6-1.35 1.5-2.4c.9-1.05 1.4-1.2 2.2-1.6s1.8-.6 2.7-.6c1.1 0 2.1.2 3 .7s1.7 1.1 2.3 1.9 1.1 1.7 1.4 2.7.4 2.1.2 3.2h-10.2c.1.5.3 1 .6 1.4s.7.7 1.1 1c.5.2 1 .4 1.6.4s1.1-.1 1.6-.4q.75-.45 1.2-1.2l3.5.8c-.6 1.2-1.4 2.3-2.5 3-1.1 1-2.4 1.4-3.8 1.4m-3.4-8.7h6.9c-.1-.6-.3-1.1-.7-1.5s-.7-.8-1.2-1.1-1-.4-1.6-.4-1.1.1-1.6.4-.9.6-1.2 1.1q-.45.6-.6 1.5m21.3 4.2 3.1 1.7c-.6.9-1.5 1.6-2.4 2.1-1 .5-2 .8-3.2.8-1.3 0-2.5-.3-3.5-1-1.1-.7-1.9-1.6-2.5-2.7s-.9-2.3-.9-3.7c0-1 .2-2 .5-2.9q.6-1.35 1.5-2.4c.9-1.05 1.4-1.2 2.2-1.6s1.8-.6 2.7-.6c1.1 0 2.2.3 3.2.8s1.8 1.2 2.4 2.1l-3.1 1.7q-.45-.6-1.2-.9c-.75-.3-.9-.3-1.4-.3q-1.05 0-1.8.6c-.5.4-1 .9-1.3 1.5s-.5 1.3-.5 2 .2 1.4.5 2 .7 1.1 1.3 1.4c.5.4 1.1.5 1.8.5.5 0 .9-.1 1.4-.3s.9-.5 1.2-.8m13.1-6.4h-2.7v10.6h-3.4v-10.6h-2.1v-3.4h2.1v-4.4h3.4v4.4h2.7Zm8.4 10.9c-1.3 0-2.5-.3-3.5-1-1.1-.7-1.9-1.6-2.5-2.7s-.9-2.4-.9-3.7c0-1 .2-2 .5-2.9q.6-1.35 1.5-2.4c.9-1.05 1.4-1.2 2.2-1.6s1.8-.6 2.7-.6c1.1 0 2.1.2 3 .7s1.7 1.1 2.3 1.9 1.1 1.7 1.4 2.7.4 2.1.2 3.2h-10.2c.1.5.3 1 .6 1.4s.7.7 1.1 1c.5.2 1 .4 1.6.4s1.1-.1 1.6-.4q.75-.45 1.2-1.2l3.5.8c-.6 1.2-1.4 2.3-2.5 3-1.2 1-2.4 1.4-3.8 1.4m-3.5-8.7h6.9c-.1-.6-.3-1.1-.7-1.5s-.7-.8-1.2-1.1-1-.4-1.6-.4-1.1.1-1.6.4-.9.6-1.2 1.1q-.3.6-.6 1.5m23.3-12.6h3.4v21h-3.4v-1.8c-.4.6-1 1.1-1.7 1.5q-1.05.6-2.4.6c-1 0-2-.2-2.9-.6s-1.7-.9-2.3-1.6-1.2-1.5-1.6-2.3-.6-1.8-.6-2.9.2-2 .6-2.9.9-1.7 1.6-2.3 1.5-1.2 2.3-1.6 1.8-.6 2.9-.6q1.35 0 2.4.6c.7.4 1.2.9 1.7 1.5Zm-4 18c.7 0 1.4-.2 1.9-.5.6-.4 1-.9 1.3-1.5s.5-1.3.5-2.1-.2-1.4-.5-2.1c-.3-.6-.8-1.1-1.3-1.5s-1.2-.5-1.9-.5-1.4.2-2 .6-1.1.9-1.4 1.5c-.4.6-.5 1.3-.5 2.1s.2 1.4.5 2.1c.4.6.8 1.1 1.4 1.5.6.3 1.3.4 2 .4m17.5 3v-14h3.4v1.2c.5-.5 1-.9 1.7-1.2s1.4-.4 2.1-.4c.5 0 1 .1 1.5.2l-1.3 3.4c-.4-.1-.7-.2-1.1-.2-.6 0-1.1.1-1.5.4-.5.3-.8.6-1.1 1.1s-.4 1-.4 1.5v8Zm20.3-14h3.4v14h-3.4l-.2-1.7q-.6.9-1.5 1.5c-.6.4-1.4.6-2.2.6-1 0-2-.2-2.9-.6s-1.7-.9-2.4-1.6-1.2-1.5-1.6-2.4-.6-1.9-.6-2.9.2-1.9.6-2.8.9-1.6 1.5-2.3c.7-.7 1.4-1.2 2.3-1.6s1.8-.6 2.8-.6c.9 0 1.8.2 2.5.6s1.4.9 1.9 1.6Zm-4 11c.7 0 1.4-.2 1.9-.5.6-.4 1-.9 1.3-1.5s.5-1.3.5-2.1-.2-1.4-.5-2.1c-.3-.6-.8-1.1-1.3-1.5s-1.2-.5-1.9-.5-1.4.2-2 .6-1.1.9-1.4 1.5c-.4.6-.5 1.3-.5 2.1s.2 1.4.5 2.1c.4.6.8 1.1 1.4 1.5.6.3 1.3.4 2 .4m23-5.9v8.8h-3.4v-8c0-.6-.1-1.1-.4-1.5-.3-.5-.6-.8-1.1-1.1s-1-.4-1.5-.4-1.1.1-1.5.4c-.5.3-.8.6-1.1 1.1s-.4 1-.4 1.5v8h-3.4v-14h3.4v1.2c.5-.5 1-.9 1.7-1.2s1.4-.4 2.1-.4c1 0 1.9.2 2.8.7.8.5 1.5 1.2 2 2 .6 1 .8 1.9.8 2.9m12.9-5.1h3.4v14.3c0 1-.2 1.9-.6 2.8-.4.8-1 1.5-1.7 2.1s-1.5 1.1-2.4 1.4-1.9.5-2.9.5-1.9-.2-2.8-.6-1.7-1-2.4-1.6-1.2-1.5-1.6-2.4l3.1-1.4c.2.5.5 1 .8 1.4.4.4.8.7 1.3.9q.75.3 1.5.3c.75 0 1.1-.1 1.6-.2s1-.4 1.4-.7.7-.6.9-1 .3-.9.3-1.4v-2c-.4.6-1 1.1-1.7 1.5s-1.4.6-2.3.6c-1 0-2-.2-2.8-.6s-1.6-.9-2.3-1.6-1.2-1.5-1.6-2.3-.6-1.8-.6-2.9.2-2 .6-2.9.9-1.7 1.6-2.3c.7-.7 1.4-1.2 2.3-1.6s1.8-.6 2.8-.6c.9 0 1.6.2 2.3.6s1.2.9 1.7 1.5v-1.8Zm-3.9 11c.7 0 1.4-.2 1.9-.6.6-.4 1-.9 1.3-1.5s.5-1.3.5-2-.2-1.4-.5-2-.8-1.1-1.3-1.5c-.6-.4-1.2-.6-1.9-.6s-1.3.2-1.9.6-1 .9-1.4 1.5c-.3.6-.5 1.3-.5 2.1s.2 1.4.5 2.1c.3.6.8 1.1 1.4 1.5.6.3 1.2.4 1.9.4m16.5 3.3c-1.3 0-2.5-.3-3.5-1-1.1-.7-1.9-1.6-2.5-2.7s-.9-2.4-.9-3.7c0-1 .2-2 .5-2.9q.6-1.35 1.5-2.4c.9-1.05 1.4-1.2 2.2-1.6s1.8-.6 2.7-.6c1.1 0 2.1.2 3 .7s1.7 1.1 2.3 1.9 1.1 1.7 1.4 2.7.4 2.1.2 3.2H1476c.1.5.3 1 .6 1.4s.7.7 1.1 1c.5.2 1 .4 1.6.4s1.1-.1 1.6-.4q.75-.45 1.2-1.2l3.5.8c-.6 1.2-1.4 2.3-2.5 3-1.1 1-2.4 1.4-3.8 1.4m-3.4-8.7h6.9c-.1-.6-.3-1.1-.7-1.5s-.7-.8-1.2-1.1-1-.4-1.6-.4-1.1.1-1.6.4-.9.6-1.2 1.1q-.45.6-.6 1.5m-355.5-19-17.4 30.1h34.8m-17.4-23.7 11.9 20.6h-23.8m10.3-14.3v6.3h3.2v-6.3m-3.2 9.5v3.2h3.2v-3.2"/><path fill="#eaeaea" d="M800 93.2h705V221H800Z"/><path d="M788.5 266.6v3.9h-14.8v-3.9h5.5v-13.7l-4.7 2.9-2.2-3.6 7.3-4.5h4.6v18.8h4.3Zm16-18c1.2.9 2.1 2.3 2.8 4.1s.9 3.9.9 6.4-.3 4.7-.9 6.5-1.5 3.2-2.8 4.1c-1.2.9-2.7 1.4-4.5 1.4s-3.3-.5-4.5-1.4-2.2-2.3-2.8-4.1-.9-3.9-.9-6.5c0-2.5.3-4.6.9-6.4s1.5-3.1 2.8-4.1c1.2-.9 2.7-1.4 4.5-1.4s3.3.5 4.5 1.4m-6.4 3.2c-.5.5-.8 1.4-1.1 2.6s-.4 2.8-.4 4.7.1 3.4.2 4.6l5.5-11.6c-.3-.4-.6-.7-1-.9s-.9-.2-1.4-.2c-.7 0-1.3.2-1.8.8m3.8 14.8c.5-.5.8-1.4 1.1-2.6q.3-1.8.3-4.8c0-1.1 0-2.2-.1-3.2l-5.2 10.8c.2.2.5.4.8.5s.7.1 1.2.1c.8 0 1.4-.3 1.9-.8m22.3-18c1.2.9 2.1 2.3 2.8 4.1.6 1.8.9 3.9.9 6.4s-.3 4.7-.9 6.5-1.5 3.2-2.8 4.1c-1.2.9-2.7 1.4-4.5 1.4s-3.3-.5-4.5-1.4-2.2-2.3-2.8-4.1-.9-3.9-.9-6.5c0-2.5.3-4.6.9-6.4s1.5-3.1 2.8-4.1c1.2-.9 2.7-1.4 4.5-1.4s3.3.5 4.5 1.4m-6.4 3.2c-.5.5-.8 1.4-1.1 2.6s-.4 2.8-.4 4.7.1 3.4.2 4.6l5.5-11.6c-.3-.4-.6-.7-1-.9s-.9-.2-1.4-.2c-.7 0-1.3.2-1.8.8m3.8 14.8c.5-.5.8-1.4 1.1-2.6q.3-1.8.3-4.8c0-1.1 0-2.2-.1-3.2l-5.2 10.8c.2.2.5.4.8.5s.7.1 1.2.1c.8 0 1.4-.3 1.9-.8"/></svg>