<?xml version="1.0" encoding="UTF-8"?> <svg xmlns="http://www.w3.org/2000/svg" fill="none" height="44" viewBox="0 0 44 44" width="44"><rect fill="#e4f6ff" height="44" rx="22" width="44"></rect><path clip-rule="evenodd" d="m22.0605 14.8017c1.2051-.8867 2.5982-1.5477 4.1559-1.5517 1.483-.0037 2.9703.5608 4.1028 1.6933.511.511.9458 1.0751 1.2441 1.7861.2975.7089.4355 1.5071.4342 2.4588-.0003 2.7424-1.881 5.3179-3.8512 7.3274-1.8705 1.9077-4.016 3.4956-5.3111 4.4541-.097.0717-.1893.14-.2763.2046-.3318.2465-.786.2465-1.1178 0-.087-.0646-.1793-.1328-.2763-.2046-1.2951-.9585-3.4406-2.5464-5.3111-4.4541-1.9668-2.006-3.8443-4.5761-3.8512-7.3131-.0452-1.5344.5184-3.0868 1.6908-4.2592 2.2109-2.211 6.086-2.2716 8.3672-.1416zm-1.4417 1.2282c-1.0133.976-1.933 2.0863-2.7081 3.022-.2298.2774-.4469.5395-.6499.7781-.3166.3722-.2943.925.0511 1.2704.4366.4366.8712.8715 1.3031 1.3082 1.0826 1.0943 2.8646 1.1425 3.9815.0402.33-.3256.6671-.6606 1.0024-.9961.8675-.8679 2.25-.8768 3.0923-.0375.4934.4918.9845.984 1.4584 1.459.1192.1195.2373.2379.3541.355-.3048.4168-.6444.8319-1.0113 1.2428l-1.7315-1.5984c-.3805-.3511-.9736-.3274-1.3248.053-.3512.3805-.3274.9736.053 1.3248l1.6955 1.565c-.4058.3867-.8195.7573-1.2296 1.109l-1.8504-1.708c-.3804-.3512-.9735-.3275-1.3247.053-.3512.3804-.3275.9736.053 1.3248l1.6562 1.5287c-.541.4238-1.0478.8033-1.4891 1.1309-1.3009-.9657-3.1718-2.3836-4.8074-4.0519-1.9284-1.9667-3.3151-4.0705-3.3151-6.0154 0-.01-.0002-.02-.0005-.03-.0334-1.0431.3473-2.0935 1.1421-2.8884 1.4483-1.4483 4.0369-1.5301 5.5997-.2392zm8.8904 5.5524c.3908-.8111.6133-1.6157.6133-2.3948v-.0013c.0011-.7668-.1097-1.306-.2882-1.7314-.1776-.4235-.4459-.7906-.841-1.1857-.7654-.7654-1.7676-1.1466-2.7722-1.1441-1.3645.0035-2.7056.784-4.0329 2.0025-1.0279.9437-1.9417 2.0459-2.7848 3.0629-.0533.0642-.1062.1281-.1589.1915.2347.2354.4694.4714.7035.7081.3761.3801.9722.3788 1.3315.0243.3268-.3226.6609-.6545.9933-.9871 1.5717-1.5725 4.1401-1.6364 5.7419-.0401.4947.493.9902.9897 1.4659 1.4665.0095.0096.0191.0191.0286.0287z" fill="#096bde" fill-rule="evenodd"></path></svg> 