<?xml version="1.0" encoding="UTF-8"?> <svg xmlns="http://www.w3.org/2000/svg" width="44" height="44" viewBox="0 0 44 44" fill="none"><rect width="44" height="44" rx="22" fill="#EEF0FC" style="fill:#EEF0FC;fill:color(display-p3 0.9319 0.9404 0.9881);fill-opacity:1;"></rect><path fill-rule="evenodd" clip-rule="evenodd" d="M32.25 20.5H24.77L28.47 16.8C28.96 16.31 28.96 15.52 28.47 15.03C27.98 14.54 27.19 14.54 26.7 15.03L23 18.73V11.25C23 10.56 22.44 10 21.75 10C21.06 10 20.5 10.56 20.5 11.25V18.73L16.8 15.03C16.31 14.54 15.52 14.54 15.03 15.03C14.54 15.52 14.54 16.31 15.03 16.8L18.73 20.5H11.25C10.56 20.5 10 21.06 10 21.75C10 22.44 10.56 23 11.25 23H18.73L15.03 26.7C14.54 27.19 14.54 27.98 15.03 28.47C15.52 28.96 16.31 28.96 16.8 28.47L20.5 24.77V32.25C20.5 32.94 21.06 33.5 21.75 33.5C22.44 33.5 23 32.94 23 32.25V24.77L26.7 28.47C27.19 28.96 27.98 28.96 28.47 28.47C28.96 27.98 28.96 27.19 28.47 26.7L24.77 23H32.25C32.94 23 33.5 22.44 33.5 21.75C33.5 21.06 32.94 20.5 32.25 20.5Z" fill="url(#paint0_linear_395_36917)" style=""></path><defs><linearGradient id="paint0_linear_395_36917" x1="8.19" y1="8.19" x2="37.46" y2="37.46" gradientUnits="userSpaceOnUse"><stop stop-color="#FF5934" style="stop-color:#FF5934;stop-color:color(display-p3 1.0000 0.3490 0.2039);stop-opacity:1;"></stop><stop offset="0.19" stop-color="#FF507A" style="stop-color:#FF507A;stop-color:color(display-p3 1.0000 0.3137 0.4784);stop-opacity:1;"></stop><stop offset="0.37" stop-color="#8250DF" style="stop-color:#8250DF;stop-color:color(display-p3 0.5098 0.3137 0.8745);stop-opacity:1;"></stop><stop offset="0.57" stop-color="#096BDE" style="stop-color:#096BDE;stop-color:color(display-p3 0.0353 0.4196 0.8706);stop-opacity:1;"></stop><stop offset="0.76" stop-color="#0DFF50" style="stop-color:#0DFF50;stop-color:color(display-p3 0.0510 1.0000 0.3137);stop-opacity:1;"></stop><stop offset="1" stop-color="white" style="stop-color:white;stop-color:white;stop-opacity:1;"></stop></linearGradient></defs></svg> 