<svg xmlns="http://www.w3.org/2000/svg" xml:space="preserve" viewBox="0 0 1200 600"><g id="Layer_2"><g fill="#c4e8f7"><path d="M406 267.3c-4.2-14.9-21.3-19-33-12.1-.9-.5-1.8-.9-2.8-1.2-12.7-4.1-27.8 4.1-30.6 17.3-1.8 8.5 1.3 16.7 7 22.2 1.2 8.4 6.3 16.7 13.1 20.8 8.3 4.9 19.4 4 26.1-3.2 2.7-2.9 4.6-6.7 5.4-10.6.3-1.6.5-3.3.7-4.9.3-.2.6-.4.8-.4 2.9-1.4 5.5-3 7.8-5.3 5.9-5.9 7.7-14.6 5.5-22.6M324.7 343.3c-1.5-1.1-3.6-1.5-5.9-.8-7 2.1-12 8.6-11.1 16.1.9 7.6 7.3 12.4 14.6 13 1.7.2 3.8-.7 5.2-2h.6c6.2.1 11.8-4.2 13.5-10.2 3-10.9-7.7-18.9-16.9-16.1M495.3 326c-1.6-4.5-5.8-6.8-10.3-7.4h-.1c.9-1.5 1.3-3.4.6-5.6-2.1-7.2-10.4-9.8-16.6-5.7-5.3 3.4-9.9 9.9-10.3 16.3-.4 6.1 3.1 12.3 9.1 14.2 2.6.8 5.3.6 7.8-.4 5 2.6 11.3 3.4 15.7.9 4.3-2.6 5.7-7.7 4.1-12.3M641.7 292.8c-3.2-3.4-8-5.1-12.6-4.9.1-2.1-.7-4.2-2.1-5.9-8.6-10.4-25.6-6.8-29.6 5.9-.9 2.8-.9 5.6-.3 8.1-1.8 1.9-3.2 4.2-4.1 6.8-3.6 10.3 1.3 26.3 12.7 29.7 8.5 2.5 18-3.7 20.5-12 3.1.3 6.2-.4 9-2.1 2.3-.8 4.5-2.1 6.2-3.9 5.5-5.7 6-15.8.3-21.7M899.2 228.9q-1.65-1.2-3.3-1.8c3.3-2.5 5.5-6.4 5.3-10.8-.3-5.5-3.6-8.7-7.6-9.7-2.8-2.3-6-2.8-8.9-2-3.6-2.8-8.4-3.9-12.9-1.4-6.7 3.7-8 13.5-2.7 18.7-3.5 1.7-6.5 4.9-7.6 8.5-2.4 7.3 1.8 15.6 9.5 17.5 5.1 1.3 10.2-.9 13.2-4.9.7.1 1.4.1 2.2.1.5 0 .9-.1 1.4-.2.5 0 .9-.1 1.4-.2 2.7.4 5.5.3 8.4-.1 7-1.1 6.1-10.3 1.6-13.7M772.2 304.6c.4-4.7-3.4-9.8-9.3-8.2-4.4 1.2-8 4.5-9.5 8.9-.6 1.8-.9 4.1-.6 6-.3.9-.4 1.8-.5 2.7-.2 4.9 3 9.2 7.8 10.3 5 1.2 10.2-1.6 12.7-6 2.5-4.3 1.7-9.6-.6-13.7"/></g><path fill="#ff7d9f" d="M408.4 422.2c9.7-13.4 16.5-29.1 19.2-45.4 1.1-6.6 1.9-14 1.2-20.9.3-6.3-.4-12.8-4.7-17.6-2.7-3-6.4-5-10.3-5.8-4-4.8-9.5-8.1-15.4-8.3-1.5-1.1-3.6-1.6-6.2-.9-23.7 5.8-38.9 33.3-30.6 56.4.8 2.1 2 3.5 3.5 4.4-.8 8 .4 16.1 2 24 1.5 7.4 3.9 15.9 2.9 23.8-9.5-1.9-19.6 2.3-26.9 9.7-10.9 11-14.8 27.2-16.8 42-2.3 17.2-3 34.6-4.4 51.9-1.4 18.3-2.9 36.7-4.3 55-.8 9.6 14.3 9.6 15 0 .6-7.9 1.2-15.9 1.8-23.8.6 4.5 1.3 9 2.2 13.4.9 5.1 7 6.5 11 4.5 5.4-2.7 7.1-8.3 8-13.9.3-2.1.6-4.2.8-6.2.8-.5 1.5-1 2.2-1.6.7 5 1.6 10.1 2.8 15.1 1.5 6.1 7.7 6.5 11.7 3.5 1.5 2.2 3.6 3.9 6.6 4.7 3.5 1 8.7-1.2 9.2-5.2.4-2.7.7-5.3.9-8 3.3-.5 6.1-2.9 5.7-7.1.6-.4 1.1-.9 1.6-1.5.1 2.2.2 4.4.3 6.5V587c0 9.7 14.7 9.6 15 0 .1-5.7.1-11.3 0-17-.1-24.9-.5-49.7-1.3-74.6-.5-14.7-1-29.5-4-43.9-1.8-8.5-5.4-17.1-12.6-21.2.3-2.6.6-5.1.8-7.7 3.1 3.5 9.5 4.6 13.1-.4m-6.3-25.9c-.1.6-.3 1.2-.4 1.7-.4-.4-.7-.8-.8-.9s-.1-.2-.2-.3c.5-.2 1-.3 1.4-.5m-8.4 64.6c0-1-.1-2-.1-3 .3 1.5.5 3 .7 4.5Zm-25.2-14.6c-1 .6-2 1.4-2.7 2.3-.4.5-.7 1-1.1 1.5-.8-1.3-1.8-2.4-3.1-3 0-.1-.1-.2-.2-.2 2.4-.9 5-1.5 7.1-.6"/><path fill="#98f4d1" d="M555.6 438.5c-.2 0-.4-.1-.5-.1-1.7-.9-3.6-1.7-5.5-2.4 0-.5-.1-1-.1-1.5-.1-1.2-.4-2.2-.8-3.1.8-1.4 1.5-2.8 2.3-4.2 2.1 4 4.9 7.5 8.8 10.1 2.7 1.8 5.5 2.9 8.5 3.4.7.2 1.5.3 2.3.3 5.2.3 10.4-1.3 14.6-4.9 2.9-2.5 3-8.1 0-10.6-2.9-2.5-5.5-5.4-7.6-8.5l-2.5-47.6c-.2-3.5-2-5.7-4.3-6.7-.4-3.7-1-7.3-1.9-10.9-1.4-5.9-4.4-12.1-10.5-14.2-3.3-1.1-6.5-.5-9.1 1.1l-1.2.3c-2.4-.7-4.9-.9-7.5-.5-5.5.9-9.7 4.2-13.3 8.1-1.3-4.6-6.1-8.2-10.7-4.6l-1.5 1.2-.1.1c-1 .8-2 1.7-3 2.6-9.1 2.5-15.1 10.6-15.2 19.5-6.1 10.8-6.9 24.5-1.1 36.3-.2.7-.4 1.4-.4 2.1-.2 5.8-.5 11.5-.7 17.3-1 3.4-2.5 6.7-4.4 9.8-3.3 5.3 1.2 10.6 6.5 11.3.3 0 .5.1.8.1 2 1.2 4.4 1.5 6.6.8 5.4.7 10.7 1.4 16.1 2.1.6.1 1.2 0 1.8-.1 0 .2 0 .4.1.6-2.1 2.4-3.9 5.2-5.2 8.2-2.1.6-3.9 2.2-4.7 5-2.6 8.3-3.8 16.9-4.4 25.7-1.4 10.2-2.3 20.5-2.8 30.7-1.4-4.3-6.9-5.4-10.8-3.3-3.3-8.1-6.6-16.3-9.9-24.4-.7-1.7-1.8-3.2-3.2-4.2-3.2-9.5-6.1-19.2-9-28.9-.5-1.6-1.3-2.9-2.4-3.7-.3-1.5-.6-2.9-.9-4.4 0-.1-.1-.2-.1-.3 0-.2.1-.5.1-.7q1.35-1.8 1.5-4.2c0-.4.1-.9.1-1.3 1.6-3.7 4.2-6.9 7.7-9.6 7-5.4-1.9-15.6-9.1-11.8-3.9 2.1-7.1 5.1-9.4 8.6-9-5.6-20.9-6.3-30.4-.6-8.3 5-.7 17.9 7.6 13 4.9-2.9 10.8-2.4 15.1.6-2.4 1.1-4.2 3.4-3.8 6.5.1.7.2 1.3.3 2v.1c.1.8.2 1.7.4 2.5 1.6.7 2.8 2.1 3 4.3 1.5 19.9 6.5 39.7 12 58.8 2.8 9.8 4.9 20.2 8.7 29.6 2.6 6.4 6.1 12.3 8.4 18.8 6 2.5 12.7 4 18.8 4.8 2.7.4 5.3-.4 7.1-1.9l-.3 17.7C506.4 593 521.2 592.9 521.5 583.3c.2-6.8.5-13.5.8-20.3 0 4.6.1 9.2.2 13.8.2 6.7 8 9.7 12.8 5.3 1.1-1 2-2 2.7-3.1 2.7-.3 5.1-2 5.6-5.3 0-.2 0-.3.1-.5 1-1.1 1.9-2.2 2.7-3.5 0 3.6-.1 7.2-.2 10.8-.3 7.5 9.9 9.7 13.6 4.4-.3 2.2-.7 4.4-1.1 6.7-1.5 9.3 12.3 13.6 14.5 4 3.6-16.5 7.3-33 10.9-49.5 3.1-14.2 6.6-28.4 7.8-43 2.1-27-7.6-56.8-36.3-64.6M527 417.7c-.3-.4-.7-.9-1-1.3l-1.5-2.4c.9.7 2 1.2 3.1 1.5-.2.8-.4 1.5-.6 2.2"/><path fill="#f9a870" d="M744.8 378c-.9-7.3-1.6-15.6-6.6-21.3-1.7-2.8-3.7-5.3-6.2-7.7-4.3-4.1-11.2-1.3-12.8 3.4-.6-8.5-2.2-17.7-6.5-24.2-3.4-5.1-9.7-8.3-15.6-8.1-5.1-1.7-11.1-1.1-16.7 1.5-4.2 1.9-8.4 5.2-11.6 9.2-9-2.4-19.7 2.6-24.5 11.7-7 13.3-3.9 29.5 4.8 41.2-2.5 13.1-3.1 26.4-1.4 39.7.6 5.1 4.3 8.1 9.5 7.2 2.2-.4 4.3-.8 6.5-1.3-.1 1.5-.2 3.1-.2 4.6C665.2 432.2 667.9 431.8 670.3 433.9c3.2 2.8 3.8 6.2 3.2 9.8 0 1.2-.3 2.4-1 3.4-1.8 4.6-5.3 9-8.1 11.8-.7.8-1.5 1.2-2.4 1.4-.4.8-.9 1.7-1.3 2.6-5.6 12.6-5.2 26.9-5.7 40.4-1.2 29.2-2.4 58.4-3.5 87.6C651.1 600.7 665.6 600.3 666.5 590.9c.9-9 1.5-18.1 2.1-27.2.7-.9 1.3-1.9 2-2.8 2.1-3.1 1.5-6.1-.4-8.2.3-2.3.5-4.7.8-7 1-.1 1.9-.3 2.8-.8-.3 7.8-.7 15.6-1 23.4-.4 8.4 13 10.3 14.7 2 1-4.6 1.8-9.3 2.5-14 .5-.5.8-1 1.1-1.6.3 1.4.5 2.8.7 4.2.5 3.8 3.9 5.5 7.3 5.3-.2 4.3-.5 8.6-.7 13C697.9 586.9 712.8 586.8 713.4 577.2c.3-4.3.5-8.7.8-13 3.7-.1 7.2-2.5 7-7.2-.3-9.2-.8-18.3-1.5-27.5-.3-6-.6-11.9-.9-17.9v-.3c.4-3 1.1-6 1.6-9.1 2.2-2.3 3.3-5.9 1.8-9.2-.1-.2-.2-.4-.3-.7.4-4.2.2-8.4-.9-12.4-1.9-6.8-6.2-12-12.2-14.7-1.6-3.3-3.2-6.7-4.8-10 1-1.2 1.8-2.7 2-4.7.1-.7.2-1.5.2-2.2 1.7 1.7 4.2 2.5 6.9 1.7 21.7-5.9 28.6-28.3 30.9-48.2 0-.2 0-.4.1-.6 1.6-7.4 1.7-15.4.7-23.2m-47.6 47.5c-.3 0-.6-.1-.8-.1-1.4-1.6-3.4-2.5-5.4-2.7v-.2c0-1.1-.3-2.1-.7-3 .4-.2.7-.3 1.1-.5 1.5-.7 2.4-1.8 3-3 .1 0 .2-.1.3-.1.2 2 .8 4.1 2 6.2.3.6.7 1.1 1.1 1.6q-.45 1.05-.6 1.8"/><path fill="#7da2ff" d="M886.2 536.9c-1-30.9-1.1-61.8-.5-92.7.1-4.7-3.4-7.1-7.1-7.2-1.2-19.6-3.6-39.1-7.3-58.3-.2-8.1-.8-15.9-6.1-22.6-1.2-1.5-2.6-2.2-4-2.4.1-1.6.1-3.1.2-4.7.1-4.2-2.6-6.6-5.7-7.1v-.6c2.8-1.8 4.5-6 3.5-9.5.6-.3 1.4-.8 1.6-1 2.2-1.1 4.4-2 6.4-3.4 4.2-2.9 7.6-6.5 10.4-10.8 4.3-6.7-3.9-13.5-10.3-10.3-.1 0-.2.1-.3.1-.8.3-1.6.7-2.3 1.2-4.7 2.4-9.2 5-13.7 7.7 1.6-2.2 1.5-4.9.3-7.1 2.4-9.7 1.4-20-.9-29.9-3.2-13.9-7.2-29-15.8-40.5-5-6.7-15.5-20.6-25-19.5-.8-.4-1.6-.8-2.4-1.1-5-2.1-9.1 3-9.5 7.2-.2 2.3-.2 4.7 0 7h-.5l-4.6-3.5c-6.3-4.8-13.6 4.3-10.3 10.3 1 1.8 2.2 3.4 3.5 5-1.2 1.2-2.3 2.5-3.2 4.1-4.1 7.1-2.8 15-4 22.6-.4 1.3-.6 2.6-.9 4 0 .1-.1.2-.1.3-.1.7-.2 1.3-.3 2-.5 3.8 1.9 6.2 4.8 6.9-.6 2.4-1.1 4.8-1.3 7.3-.5 4.8 3.4 7.3 7.4 7.2 0 1.4.3 2.9.8 4.1 2.2 5.1 5.4 9.5 9.3 13.4 2.2 2.1 5.3 2.4 8 1.5 1.1-.2 2.2-.6 3.1-1.2.9 1.7 1.9 3.4 2.8 5.1-.5 1-.7 2.1-.8 3.4 0 2.2 0 4.4-.1 6.7-1.6 1.4-2.6 3.5-2.9 5.8-.4 4-.4 8 .2 12-5.3-.7-10.7 4.5-10.8 10.3 0 2 .2 2.7-.4 4.7-.5 1.7-1.3 3.4-1.8 5.1-1.3 4-2.2 8.1-2.9 12.3-1.2 7.4-1.5 14.8-.8 22.2-1.9 1.2-3.4 3.2-3.6 6.1-2.5 35.2-5.1 70.5-7.6 105.7-.3 4.2 2.3 6.6 5.5 7.1-.1 7.4-.3 14.9-.4 22.3-1.2 5.5-1.9 11.1-2.2 16.7-.1 1.7.4 3.1 1.2 4.2-2.7 11.7-4.6 27.8 7 32.3 6.9 2.7 15.7-.3 22.8-1.4 2.4-.4 4.7-.7 7.1-1.1 6.5.5 12.7-.6 18.6-2.9.7-.1 1.3-.4 1.9-.8.7-.3 1.4-.6 2.1-1 6.9-3.4 3.3-13.9-3.8-14-1.4 0-2.5-.3-3.8-.6 0-.7-.1-1.3-.3-2 .9-1.2 1.8-2.4 2.6-3.6 1.6 1.9 4 2.6 6.4 2.3 2.3.9 5 .9 6.9-.3 1.2 2 2.7 4 4.3 5.9 2.2 2.5 6.2 2.7 9.1 1.2.6 1.1 1.2 2.2 1.9 3.3 3.1 5 12.6 4.9 13.7-1.8.2-1.1.4-2.2.5-3.3 2.5-1.3 4.4-3.8 4.2-6.7-.3-4.9-.6-9.9-.9-14.8.5-.7.9-1.6 1.1-2.7 1.2-5.7 1-11.1 0-16.2m-84.3 45.8c-1.2.2-2.3.3-3.5.5-.1 0-.1 0-.2.1-.4-1.6.1-4.1.2-5.6 0-.5.1-1 .1-1.5.5-.6 1-1.4 1.3-2.3.4 2.2.8 4.4 1.2 6.5.2.9.5 1.7 1 2.3Zm28.4-312c.6 3.9.7 7.8.6 11.7l-.5-.5c0-.3 0-.5-.1-.8.2-3.4.2-6.9 0-10.4m10.5 262.6c-.3.2-.6.3-.9.5l.9-3.9c.1 1.1 0 2.3 0 3.4m-.1-192.2c-.2 2.4-.4 4.9-.6 7.3l-.3-.3c-3.1-2.6-6.4-3.4-9.4-3-.3-7.9-.8-15.7-1.5-23.6.5-.1 1.1-.2 1.6-.3-.9 3.2.8 6.4 3.5 8.4 2.9 2.2 5.9 4.4 8.8 6.6-1.1 1.4-1.9 2.9-2.1 4.9m29.6 120.5c-.3-.2-.6-.3-1-.5.4-.3.7-.6 1-1Z"/><path fill="#c4e8f7" d="M784 111.7c-6.8-4.4-14.7-6.6-22.8-7.2-2.2-19.7-12-38.5-27.2-51.2-18.4-15.5-43.6-21.6-67.6-19.2-21.4 2.2-43.7 12.7-52.4 32.4-6-18.6-14.8-40-33.9-44.5-6.3-1.5-12.9-.8-19.3.3-19.5 3.1-40.6 11.2-49.8 28-5.5-4.7-12.3-8.3-19.8-10.7-11-5-23.8-6.2-35.3-2.9-2.6.4-5.2 1-7.6 1.7-27 8.3-42.8 32.8-44 59.3-2.9.9-5.7 2.1-8.3 3.5-4.5 1.5-8.6 3.9-12 8-2.4 2.9-4.3 5.9-6 9.1-.8 1.2-1.5 2.5-2.2 3.8-1.6 1.3-3.1 2.7-4.5 4.3-11 12.4-12.5 31.2-7.6 47 0 .1.1.2.1.3-.5 15.7 5.5 31.9 16.9 42.7 11 10.4 25.7 15.6 40.3 15.4l1.2 7.5c1.2 7.4 2.5 15.4 7.7 20.9 4.2 4.5 10.3 6.7 16.3 8 17.8 3.7 37 .2 52.4-9.7 1.3-.9 2.7-1.8 4.3-2 2.7-.2 4.9 1.7 7 3.4 16.8 14.2 40.5 19.8 61.9 14.5 21.4-5.2 39.8-21.2 48.1-41.6 17.2 27.8 52.3 41.2 84.8 37.7 8.5-.9 17.1-2.9 24.4-7.3 16.7-9.9 24-29.5 30.7-48.1 17.8-6.7 31.7-20.8 37.9-39 .9-2.6 1.6-5.3 2.1-8 2.8-6.6 4.9-13.3 4.9-20.6.1-14.6-8.6-27.9-20.7-35.8"/></g><g id="Layer_1"><path d="M807.2 317.9c.8 11.4 1.7 22.7 2.5 34.1.1 1.9 3.1 1.9 3 0-.8-11.4-1.7-22.7-2.5-34.1-.1-1.9-3.1-1.9-3 0"/><path fill="#250aff" d="M494.5 90c-.5 10.4-.9 20.8-1.4 31.2-.2 3.7 0 8.2 3.2 10.2 1.8 1.1 4.1 1 6.2.9 61.2-3.2 122.7-2.7 183.9 1.2-.3-14.9-1.6-29.8-3.8-44.6-.4-2.8-1.1-6-3.6-7.5-1.5-.9-3.3-.9-5-1-61-1.1-119.2 1.6-179.9 7.9"/><path fill="#250aff" d="M492 90c-.4 10.4-1.1 20.8-1.4 31.2-.1 6 1.1 12.4 8.1 13.5 4.4.7 9.3-.2 13.8-.4 5.3-.2 10.5-.4 15.8-.6 10.5-.4 21.1-.6 31.6-.8 42.2-.6 84.4.4 126.5 3.1 1.3.1 2.5-1.2 2.5-2.5-.2-8.4-.6-16.8-1.4-25.2-.7-7.3-1-15.3-2.9-22.4-1.3-4.8-4.3-7.4-9.2-7.8-8.2-.6-16.6-.3-24.8-.3-33.1-.1-66.2 1-99.2 3.2-19.1 1.3-38.1 2.9-57.2 4.9-3.2.3-3.2 5.3 0 5 38.8-4 77.7-6.7 116.7-7.7q29.1-.75 58.2-.3c2 0 4.2-.2 6.2.1 3.3.5 4.1 2.5 4.7 5.3 1 4.9 1.5 10 2 15 1.1 10 1.7 20 1.9 30.1l2.5-2.5c-38.2-2.4-76.4-3.6-114.7-3.3q-28.65.15-57.3 1.5c-4.4.2-9.1 1.1-13.5.6-6.3-.6-5.4-5.8-5.2-10.6.4-9.7.8-19.5 1.3-29.2.1-3.2-4.9-3.1-5 .1M497.1 153c1.5 27 .8 54.1-1.9 81 9.2-.1 18.5-.5 27.7-1.2 3.4-.3 7.5-1.1 8.7-4.3.6-1.6.3-3.4 0-5.1-4.6-24.9-6.1-50.5-4.4-75.8-11.2-.9-19.5 0-30.3 2.9"/><path fill="#250aff" d="M494.6 153c1.4 27 .8 54-1.9 81-.1 1.3 1.3 2.5 2.5 2.5 10.2-.1 21.7.6 31.6-1.8 9.5-2.3 7.4-10.2 6.2-17.7-3.8-22.9-4.8-46.2-3.3-69.3.1-1.4-1.2-2.4-2.5-2.5-10.6-.8-20.7.3-31 3-3.1.8-1.8 5.6 1.3 4.8 9.8-2.6 19.5-3.5 29.7-2.8l-2.5-2.5c-1.2 18.8-.7 37.7 1.5 56.5.5 4.1 1 8.2 1.7 12.3.4 2.3 1.5 5.4 1.3 7.7-.2 3.5-1 5.2-4.3 6-9.3 2-20.2 1.4-29.7 1.5l2.5 2.5c2.7-26.9 3.3-54 1.9-81-.2-3.4-5.2-3.4-5-.2"/><path fill="#fff" d="M555.7 160.3c1.2 12.7 1.3 22.6.1 35.3 42.1-4.2 84.5-5.1 126.8-2.7 1.9.1 4.2.1 5.2-1.5.6-1 .6-2.2.6-3.4-.4-9.5-.9-19.1-1.3-28.6-.1-1.4-.2-2.9-1.2-3.8-1.1-1-2.9-.9-4.4-.7-42.6 5-83.6 6.8-126.5 5.1M636 216.6c12.5-1.3 25.1-2.7 37.6-4-.5 16.4-.9 32.7-1.4 49.1-11.2 1.6-22.4 3.3-33.6 4.9.2-17.8.2-33.5-.5-51.3"/><path fill="#250aff" d="M556.5 154.4c1.1 11.8 1.2 23.5.1 35.3-.1 1.3 1.2 2.6 2.5 2.5 22-2.2 44.2-3.5 66.3-3.9 10.9-.2 21.8-.2 32.7.1 5.3.1 10.6.3 15.9.5 4.7.2 10.3 1.4 14.9.5 7.9-1.6 5-12 4.8-17.8-.2-4.8-.4-9.5-.6-14.3-.1-3.2.3-7.6-2.6-9.8-2.7-2-6.5-1-9.6-.6-5.5.6-11.1 1.2-16.6 1.7-10.6 1-21.3 1.8-32 2.4-24.6 1.3-49.3 1.5-74 .6-3.2-.1-3.2 4.9 0 5 37.6 1.4 75.3.2 112.8-3.6 2.3-.2 4.6-.5 6.8-.7 2-.2 4.9-1.2 6.9-.8 2.9.6 3.1 2.2 3.2 4.9.1 2.5.2 5.1.3 7.6.2 4.5.4 8.9.6 13.4.1 1.4.9 4.8.2 5.9-1.3 2.1-5.3 1.1-7.3 1-19.1-1-38.3-1.3-57.5-.9-21.8.4-43.6 1.7-65.3 3.9l2.5 2.5c1.1-11.8 1-23.5-.1-35.3-.2-3.3-5.2-3.3-4.9-.1"/><path fill="#fff" d="m441.8 116.1 27.1-.3c1.1 0 2.3 0 3 .7.9.8.9 2.1.9 3.2.2 16-.9 32.1-3.2 47.9-10.8-4.4-23.3-4.8-34.4-1.1 1.4-19 2.5-32 3.8-51"/><path fill="#250aff" d="M447.1 111.8c6.5-.1 12.9-.2 19.4-.2 2.5 0 6.7-1 8.5.6 1.6 1.5.7 7.2.7 9.4-.2 12.9-1.3 25.8-3.1 38.6 1-.6 2.1-1.2 3.1-1.7-11.5-4.5-23.9-4.8-35.7-1.1 1.1.8 2.1 1.6 3.2 2.4 1.2-17 2.6-34 3.8-51C447.2 105.6 442.2 105.6 442 108.8c-1.2 17-2.6 34-3.8 51-.1 1.6 1.7 2.9 3.2 2.4 11-3.5 22.3-3.1 33.1 1.1 1.2.4 2.9-.5 3.1-1.7 2.2-15.7 4.6-32.7 3.3-48.6-.4-5.5-3.4-6.5-8.4-6.4-8.4 0-16.8.2-25.2.3-3.4-.1-3.4 4.9-.2 4.9M641.2 211.5c12.5-1.3 25.1-2.7 37.6-4l-2.5-2.5c-.5 16.4-.9 32.7-1.4 49.1l1.8-2.4c-11.2 1.6-22.4 3.3-33.6 4.9 1.1.8 2.1 1.6 3.2 2.4.2-17.1.1-34.2-.4-51.3C645.8 204.5 640.8 204.5 640.9 207.7c.6 17.1.6 34.2.4 51.3 0 1.8 1.6 2.6 3.2 2.4 11.2-1.6 22.4-3.3 33.6-4.9 1.1-.2 1.8-1.4 1.8-2.4.5-16.4.9-32.7 1.4-49.1 0-1.2-1.2-2.6-2.5-2.5-12.5 1.3-25.1 2.7-37.6 4-3.2.3-3.2 5.3 0 5"/></g><g id="Layer_3"><path fill="#250aff" d="M330.7 579c-1-32.1-1.4-64.6 1.4-96.6 1-11.7 3.1-24.6 10.3-34.3 3.9-5.2 9.1-8.4 15-10.8 5-2 10.2-3.8 14.4-7.4 9.8-8.4 6.9-21.1 2.7-31.6-2.7-6.9-5.9-13.5-7.2-20.9-1.3-7.7-1.1-15.8 1-23.4 3.8-13.9 14.5-26.4 29.7-27.1 16.1-.8 25 12.7 28.7 26.7 4 15.1 3.6 32.6 1.7 48-.9 7.5-3.4 16.4-10.8 19.8-5.5 2.5-12.8 2.1-15.8-3.8C400.9 415.9 398.4 416.1 397.5 417.6c-7.1 11.6 2 22.6 8.1 32.2 8.4 13 8.5 30.4 10.3 45.3 3.9 31.9 6.9 63.8 9.1 95.8.2 3.2 5.2 3.2 5 0-2.1-30.7-5-61.4-8.6-91.9-1.6-13.5-2.1-28.2-6.4-41.1-2.1-6.3-5.7-11.4-9.3-16.9-4.1-6.1-8.2-13.8-3.8-20.9h-4.3c4.8 9.6 18 9.5 25.8 3.6 11.4-8.6 10.8-26.3 11.1-39.1.4-15.6-.4-32.2-8.2-46.1-6.9-12.3-19.1-18.7-33.2-16-14 2.7-24 14.2-28.5 27.2-5.6 16.4-2.1 32.1 4.3 47.6 2.9 7.2 7 16.1 3.6 23.8-3.3 7.3-11.7 9.4-18.4 12.3-11.9 5.1-19.1 14.8-22.9 27-5.2 16.8-4.8 35.3-5.3 52.7-.7 22-.6 43.9.1 65.9-.2 3.2 4.8 3.2 4.7 0"/><path fill="#250aff" d="M459.1 426.1c-9.5-6.8-26.3-8.6-34.5 1.4-3 3.7-3.4 9.6.4 13 2 1.8 4.3 1.9 6.9 1.7 4.9-.2 8.5.5 12.3 4.1 6.3 6 7.5 15.6 9.1 23.6 1.8 9.1 3.6 18.1 5.5 27.2 3.3 16.6 5.4 34.3 11.3 50.2 2.7 7.2 6.5 13.6 12 18.9 6.5 6.2 16.9 13.3 13.6 23.7-1 3.1 3.8 4.4 4.8 1.3 4.2-13.2-8-21.6-16-29.8-10.3-10.5-12.7-25.7-15.5-39.5-3.3-16.5-6.7-33-10-49.6-2.5-12.2-4.3-27.9-17-33.9-2.6-1.2-5.4-1.8-8.2-1.6-.8 0-1.8.4-2.5.3-1.9-.4-3.9-2.3-3.6-4.4.3-2.3 2.6-3.9 4.5-5 7.8-4.3 17.7-2.6 24.6 2.5 2.4 2.1 4.8-2.2 2.3-4.1"/><path fill="#250aff" d="M460.9 430.7c5.1-7.8 12.8-12.8 21.9-14.5l-2.4-.6c4 4.9-4.3 10.2-7.2 13-2.6 2.5-4.6 5.4-5.7 8.8-2.3 7.3-.5 15.4 2.2 22.4 3.3 8.7 8.1 16.9 12.4 25.1 5.3 10.3 10.7 20.5 16 30.8 1.2 2.2 4.7 1.2 4.7-1.3l-.9-39.6c-.1-6.5-.6-12.1 6.2-15.1 3.8-1.6 8.2-2.3 11.6-4.8 4.5-3.3 8.7-11.5 3.5-16-3.3-2.9-9.9-.1-13.8.4-6.2.7-12.4 1-18.6 1 .6 1.4 1.2 2.8 1.8 4.3 13.2-12.8 8.2-35.2 6.3-51.5-.7-5.6-1.4-11.3-1.7-17s-.8-12.9 1.5-18.3c3.3-7.7 17.4-20 25.1-11.1C524.7 347.8 526.4 347.5 527.3 346.7c8.1-7.2 20.9-5.1 28.6 1.7 8.6 7.6 11.7 19.6 12.9 30.6 1.2 11.7.5 23.5 2.3 35.1 1.3 8.4 4.2 18.1 13.3 20.7-.4-1.4-.7-2.8-1.1-4.2-3.4 3.6-7.5 6.2-12.4 7.2-3.9.8-7.9.3-11.8.8-5.2.8-10 4-9.1 9.9 1 6.8 7.9 8.9 13.5 10.6 7.9 2.3 13.3 7.2 17.1 14.4 7.8 14.9 8 33.8 8.5 50.2.6 21-1.1 42-4.9 62.7-.6 3.1 4.2 4.5 4.8 1.3 3.5-19.2 5.3-38.7 5.1-58.2-.1-16.2-.5-33.5-5.4-49.1-3.9-12.3-11.2-22.4-23.9-26.1-2.2-.6-4.6-1.1-6.6-2.3-2.8-1.7-5.1-6.1-.9-7.9 2.9-1.2 6.4-.7 9.4-.8 7.7-.4 14.6-3.6 20-9.2 1.3-1.4.7-3.6-1.1-4.2-6.2-1.8-8.2-8.8-9.3-14.5-1.3-7-1.5-14.2-1.7-21.3-.4-11.8-.8-23.9-5.4-34.9-3.8-9.1-10.3-16.8-19.7-20.3-8.8-3.2-18.6-2.2-25.7 4.2h3.5c-6.1-7.1-15.5-4.9-22.1.2-4 3.1-8 6.6-10.5 11-2.6 4.7-2.7 10.8-2.7 16-.1 13.1 2.3 26.3 3.5 39.3.9 10.8 2 23-6.5 31.2-1.6 1.5-.4 4.3 1.8 4.3 5.3 0 10.6-.2 15.8-.7 2.3-.2 12.5-2.8 13.9-.8 1.1 1.6-1.7 5.2-2.7 6.2-1.5 1.5-3.5 2.3-5.5 3-3.4 1.2-7.1 2.2-10.1 4.3-7.2 5.2-5.3 14.8-5.2 22.5.3 11.5.5 23.1.8 34.6 1.6-.4 3.1-.8 4.7-1.3-5.3-10.3-10.7-20.5-16-30.8-4.8-9.1-10.4-18.3-13.4-28.2-1.3-4.3-2.1-9-1.2-13.5 1-5 4.3-8 8-11.3 5.1-4.5 9.1-11.2 4.1-17.3-.6-.7-1.6-.8-2.4-.6-10.4 1.9-19.2 7.9-24.9 16.8-1.9 2.9 2.4 5.4 4.2 2.7M647.5 586c-.8-26.6.4-53.3 3.7-79.8 1.5-12.4 2.6-26 6.5-38 3.7-11.3 15.5-13.4 21.6-22.6 2.8-4.3 6.1-17.5-2.2-18.4-7-.8-21.1 9.9-26.4 2.3-4.3-6.1-3.6-17.2-3.2-24.2.3-4.4.8-9.1 2.3-13.2 1.5-4.2 5-7.6 6.1-12 1.2-4.8-1.4-8.9-4.2-12.6-3.9-5.1-7.7-10.6-8.8-17.1-1-6.2 1.5-10.4 6.5-14 4-2.9 9-5.2 14-4.5 1.4.2 2.4-1.3 2.5-2.5.3-4.9.3-8.7 5.2-11.1 5.8-2.8 12.8-4.6 19.3-4.3 11.4.5 23.7 9.8 20.5 22.5-.5 2 1.8 4.1 3.7 2.8 6.8-4.5 14.2.3 18 6.3 3.1 4.9 4.4 10.7 7.2 15.7 2.7 4.9 6.3 9.3 8.8 14.3 3.2 6.5 2.5 12.9.4 19.7-1.9 6-4.6 11.6-6.4 17.6-1.8 6.1-1.6 13.1-5.1 18.6-5.7 8.9-19.7 9.7-26.9 2.4-1.3-1.3-3.7-.7-4.2 1.1-2.9 10.6-5.7 22.6-1.2 33.2 2.2 5.1 6.5 8.7 9 13.6 3 6 2.7 13 2.3 19.5-1.5 28.8-3.4 57.7-5.1 86.5-.2 3.2 4.8 3.2 5 0 1.7-28.3 3.4-56.6 5-84.9.6-10.9.1-20.5-6.8-29.3-4.5-5.7-6.8-11.1-6.7-18.4.1-6.4 1.7-12.7 3.4-18.9-1.4.4-2.8.7-4.2 1.1 8 8.1 21.6 8.5 30.4 1.4 6-4.8 7.3-11.8 8.7-19 1.6-8.6 5.8-16.4 8.2-24.8 2-7 2.4-13.9-.7-20.6-3.4-7.3-9-13.3-11.9-20.9-2.5-6.5-5.2-13.4-11.2-17.6-5.5-3.9-12.7-4.7-18.4-1 1.2.9 2.4 1.9 3.7 2.8 3.8-15.1-9.5-27.5-23.7-28.7-8.2-.7-17.6 1.4-24.8 5.5-5.7 3.3-6 8.8-6.4 14.8l2.5-2.5c-8.7-1.1-19.2 5.1-23.7 12.4-6.5 10.7 2.4 23.4 8.6 31.9 2.3 3.2 3.7 6.1 1.8 9.9-1.3 2.7-3.2 5.1-4.4 7.8-2 4.6-2.7 10-3.1 14.9-.7 8.7-1 20.7 4 28.4 6.5 10.1 22.8.9 31.5-.3l-2.4-.6c9.4 10.5-14.4 21.1-19.1 27.7-3.5 4.8-4.6 10.8-5.7 16.5-1.4 7.3-2.6 14.7-3.6 22.1-4.1 29.2-5.7 58.7-4.8 88.2 0 3.5 5 3.5 4.9.3M782.6 581.9c4.8-49.2 7.8-98.6 8.9-148 .3-12.5.4-25 .5-37.6 0-9.2-.6-19.2 2.6-28 1.5-4 3.9-7.6 7.7-9.7 4-2.3 7.4-3 8.8-7.9 2.2-7.8 2.9-17.1 1.7-25-1.4-9.3-6.7-15.5-14.8-19.9-4-2.2-8.9-4-11.9-7.6-4.9-5.8-2.2-13.6 0-19.9.4-1.2-.5-2.9-1.7-3.1-5-.9-2.7-7.6-1.8-10.7 1.1-3.6 2.3-7.2 1-10.9-.5-1.5-1.7-2.7-2.4-4.2-1.4-3.3-.4-4.5 2.1-6.5 2.3-1.8 3.9-3.5 4.7-6.3.4-1.5.2-3.1.6-4.5 1-3.8 3.5-3.8 6.8-3.5 3.6.3 6.5-.3 9.5-2.4s5.6-5.6 9.5-6.2c5.4-.8 3.5 4.1 5.9 6.9 1.5 1.8 3.7 2 5.8 1.3 1.5-.5 2.9-2.3 4.6-1.4 1.1.6 2.3 5.2 2.8 6.3 4 9.5 7.9 19 10.6 28.9 5.1 18.4 5.9 38.5-3.4 55.7-1.2 2.2 1.2 4.7 3.4 3.4 5.1-2.9 10.2-5.7 15.2-8.6 2.2-1.2 4.3-2.5 6.5-3.7 1.5-.8 3-1.6 4.6-2 1.5-.5 3.1-.4 4.7.2.5 1.7 1 3.3 1.5 5-.3 1.1-5.1 3.1-6.2 3.9-1.2.9-2.5 1.8-3.6 2.9-2.9 2.7-5.2 6-6.9 9.5-3.1 6.5-4.2 14-2.6 21 2.1 9.1 10.5 14.6 13.1 23.4 1.5 4.9 1 10.2.8 15.3-.2 6.6-.3 13.1-.4 19.7-.1 11.8-.1 23.6.2 35.4.5 23.6 1.8 47.2 3.9 70.7 2.3 26.3 5.7 52.6 10 78.7.5 3.2 5.3 1.8 4.8-1.3-8.3-50.9-13-102.3-13.8-153.9-.2-12.8-.2-25.6.1-38.3.2-10.2 2.4-22.4-2.5-31.8-2.2-4.2-5.6-7.6-8.2-11.6-2.8-4.4-4.1-9.3-3.7-14.5.6-9.9 6.3-17.9 14.7-22.8 3.4-2 6.8-4.7 6-9.1-.6-3.9-4.2-6.8-8-7.4-4.8-.8-9.4 1.9-13.3 4.1-6.5 3.7-13 7.3-19.5 11l3.4 3.4c8.2-15.2 9.3-32.8 6.2-49.6-1.8-9.7-5-19.1-8.6-28.3-1.7-4.2-3.4-8.4-5.2-12.6-1.2-2.9-2.3-7.4-5.8-8.4C830.6 221.1 829.5 221.2 828.6 221.4c-1.1.2-2.7 1.8-3.7 1.8-1.4 0-2.2-5.1-4.1-6.5-4.4-3.5-10.6-1.1-14.5 1.9-1.8 1.4-3.4 3.1-5.4 4.2-2.4 1.3-4.7.9-7.3.7-3-.3-6-.1-8.2 2.4-1.9 2.2-1.8 5-2.3 7.6-.9 5-4.4 5.3-7.1 8.9-1.8 2.4-1.8 5.2-.5 7.9 1.2 2.5 3.2 4.2 3.3 7.2.1 2.8-1.5 5.6-2.2 8.2-1.5 5.4-.6 13.3 6 14.4-.6-1-1.2-2.1-1.7-3.1-2.8 8.2-5.1 17.7 1.3 24.8 5.6 6.2 14.7 7.5 20.4 13.7 6.8 7.4 5.8 19 4.4 28.2-.5 3.3-.6 6.8-3.7 9-1.5 1-3.5 1.4-5 2.4-3.1 2-5.5 4.8-7.2 8-3.7 6.9-4.4 15.1-4.5 22.8-.2 12.1-.1 24.1-.3 36.2-.4 25-1.3 50.1-2.7 75.1-1.5 28.3-3.7 56.6-6.5 84.8.1 3.1 5.1 3 5.5-.1"/><path fill="#250aff" d="M849 330.5c-3.9-1.9-7.7-3.8-11.6-5.8-2.4-1.2-6-3.8-8.8-3.4-5 .8-4.6 7.7-4.9 11.4q-.45 6-.3 12c.1 2.5-.3 5.8.9 8.1 2.7 5.4 12.8 3.8 17.4 3.3 1.4-.2 2.4-1 2.5-2.5.5-7.2.9-14.5 1.4-21.7C845.8 328.7 840.8 328.7 840.6 331.9c-.5 7.2-.9 14.5-1.4 21.7l2.5-2.5c-3.2.4-11.8 2-13.1-1.8s-.3-9.9-.1-13.8c.1-2.2.2-4.3.5-6.4-.4-2.4.4-3 2.6-1.7.8.4 1.7.8 2.5 1.2 4.1 2.1 8.3 4.1 12.4 6.2 2.8 1.5 5.4-2.9 2.5-4.3"/><path fill="#250aff" d="M843.4 317.5c-4.3-2.1-8.6-4.1-12.9-6.2-1.3-.6-2.5-.3-3.4.9-1.9 2.5-3.6 5.5-2.7 8.8.8 2.7 2.9 4.2 5.6 4.5 3.2.4 3.2-4.6 0-5-2.5-.3 1-5.2 1.5-5.8-1.1.3-2.3.6-3.4.9 4.3 2.1 8.6 4.1 12.9 6.2 2.8 1.4 5.3-2.9 2.4-4.3M816.7 294.5c7.1-.2 14.2 0 21.3.7 3.2.3 3.2-4.7 0-5-7.1-.7-14.2-1-21.3-.7-3.2.1-3.3 5.1 0 5M825.9 275.6c1.5-1 3-2.2 4.8-2.6 1.1-.3 4-.1 3.6 1.8-.6 3.1 4.2 4.5 4.8 1.3.7-3.6-1.4-6.7-4.8-7.9-4-1.3-7.8.9-10.9 3.1-2.6 1.8-.1 6.2 2.5 4.3M805.6 253.8c5.8 2.8 11.3 5.9 16.6 9.5 2.7 1.8 5.2-2.5 2.5-4.3-5.3-3.6-10.8-6.7-16.6-9.5-2.9-1.4-5.4 2.9-2.5 4.3M810 270.5c3.2 0 3.2-5 0-5s-3.2 5 0 5M840.9 258c.1-.3.3-.6.5-.8.2-.4-.2.2 0 0l.3-.3c.2-.2.1-.1-.1 0 .1-.1.3-.2.4-.3s.3-.2.4-.2c-.1 0-.2.1-.2.1.1 0 .2-.1.4-.1 1.2-.4 2.2-1.8 1.7-3.1-.4-1.3-1.7-2.2-3.1-1.7-2 .6-3.8 2-4.7 4-.5 1.2-.4 2.7.9 3.4 1.2.4 2.9.2 3.5-1M843.3 268.5h.7c1.3 0 2.6-1.1 2.5-2.5s-1.1-2.5-2.5-2.5h-.7c-1.3 0-2.6 1.1-2.5 2.5s1.1 2.5 2.5 2.5M674.7 384.7c-1.8 1.9-2.5 4.7-1.6 7.2.3.9 1.3 2 2.4 1.8 1.9-.2 3.3-1.2 4-3.1.6-1.6.2-3.3-1-4.6C677.6 385 675.9 385.1 675 386c-1 1-.9 2.5 0 3.5-.1-.2-.2-.6-.2-.2-.1-.2-.1-.4 0-.5 0 .1 0 .2-.1.3-.2.3.4-.5.1-.2l.1-.1c.2-.1.3-.1.5-.1l2.4 1.8c-.3-1-.3-1.7.3-2.4.9-1 1-2.5 0-3.5-.8-.8-2.5-.9-3.4.1M659.9 428.2c3.6-1.8 7.1-3.5 10.7-5.3 2.9-1.4.4-5.7-2.5-4.3-3.6 1.8-7.1 3.5-10.7 5.3-2.9 1.4-.3 5.7 2.5 4.3M649.6 406c2.4 5.2 8.6 7 13.6 4.8 2.9-1.3.4-5.6-2.5-4.3-2.7 1.2-5.7-.6-6.8-3-1.3-2.9-5.6-.4-4.3 2.5M524.7 416.6c6.3-1.4 12.6-2.7 18.9-4.1-1.1-.8-2.1-1.6-3.2-2.4-.4 4-2.2 8.5-6.5 9.7-4 1.2-7.9-2-6.2-6.2 1.2-3-3.6-4.3-4.8-1.3-2.7 6.5 3 13 9.6 12.8 8.1-.3 12.2-7.8 13-15 .2-1.7-1.7-2.7-3.2-2.4-6.3 1.4-12.6 2.7-18.9 4.1-3.2.6-1.9 5.4 1.3 4.8M528.2 393.4c1.7-5.1 8-3.6 8.7 1.2.4 3.2 5.2 1.8 4.8-1.3-.6-4.3-4.3-7.9-8.7-8.2-4.5-.3-8.3 2.8-9.7 7-.9 3.1 3.9 4.4 4.9 1.3M548.6 385.5c2-1.4 4.2-1.5 6.3-.2 2.7 1.7 5.2-2.6 2.5-4.3-3.4-2.2-8-2.1-11.3.2-2.7 1.8-.2 6.1 2.5 4.3M515.5 387.3c.2-.3.1-.2 0 0l.2-.2c-.3.2-.3.2-.1.1.3-.1.3-.1-.1.1.1-.1.3-.1.4-.2.3-.1.2-.1-.1 0h.4c-.4-.1-.4-.1-.1 0 1.3.3 2.8-.4 3.1-1.7s-.4-2.8-1.7-3.1c-2.4-.6-4.8.4-6.1 2.5-.7 1.1-.3 2.8.9 3.4 1 .6 2.4.2 3.2-.9M402.4 396c-1 5.9 3 11.2 8.9 12 1.4.2 2.5-1.3 2.5-2.5 0-1.5-1.2-2.3-2.5-2.5-2.5-.3-4.5-3.2-4.1-5.7.6-3.1-4.3-4.4-4.8-1.3M419 376.3c2.2 2.1 1.9 6.8-1.2 8.1-2.9 1.2-1.6 6 1.3 4.8 6.4-2.6 8.6-11.4 3.4-16.4-2.3-2.3-5.8 1.3-3.5 3.5M399 366c-.5 3.5-.1 6.7 1.4 9.9 1.1 2.3 4.6 1.1 4.7-1.3 0-2.6-.5-4.9-1.6-7.3-.6-1.2-2.3-1.5-3.4-.9-1.3.7-1.5 2.2-.9 3.4.7 1.5.9 3.1.9 4.7 1.6-.4 3.1-.8 4.7-1.3-.9-1.9-1.2-4-.9-6.1.2-1.3-.3-2.7-1.7-3.1-1.3-.1-3 .7-3.2 2M418.7 364.5c.9 1.3 1.4 2.6 1.4 4.2 0 3.2 5 3.2 5 0 0-2.4-.7-4.8-2.1-6.7-.8-1.1-2.2-1.6-3.4-.9-1.1.6-1.7 2.3-.9 3.4"/><path fill="#250aff" d="M809.3 270.9c1.1-.2 2.2-.4 3.3-.7 1.3-.3 2.1-1.9 1.7-3.1-.4-1.4-1.7-2-3.1-1.7-1.1.2-2.2.4-3.3.7-1.3.3-2.1 1.9-1.7 3.1.5 1.4 1.7 2 3.1 1.7M840.4 352.7c-3.1 20.5-5.6 41.1-7.2 61.8-.8 10.4-1.5 20.8-1.9 31.2-.4 9.8-.5 19.6 1.6 29.3.7 3.1 5.5 1.8 4.8-1.3-2.1-9.5-1.8-19.2-1.4-28.9.4-10.1 1.1-20.2 1.9-30.3 1.6-20.3 4-40.4 7.1-60.5.4-3.1-4.4-4.5-4.9-1.3"/><path fill="#250aff" d="M834.1 477.9c5.6 5.3 14 10.1 21.6 11.6 8.4 1.7 14.1-6.9 19-12.2 2.2-2.4-1.4-5.9-3.5-3.5-4.6 5-9.3 12.7-17 10-5.9-2.1-11.9-5.1-16.5-9.4-2.4-2.2-6 1.3-3.6 3.5M856.6 344.1c3.4 36.1 8.7 71.9 13.4 107.8C870.4 455 875.4 455.1 875 451.9c-4.7-35.9-10-71.8-13.4-107.8-.3-3.2-5.3-3.2-5 0"/></g></svg>