<svg xmlns="http://www.w3.org/2000/svg" xml:space="preserve" id="Layer_1" x="0" y="0" viewBox="0 0 1457 965"><style>.st0{fill:none;stroke:#5430d6;stroke-width:15px;stroke-miterlimit:10}.st1{fill:none;stroke:#dedaef;stroke-width:15px;stroke-miterlimit:10}.st2{fill-rule:evenodd;clip-rule:evenodd;fill:#5430d6}.st3{fill:#fff}.st6{fill-rule:evenodd;clip-rule:evenodd;fill:#e54ec8}.st8{fill:#e54ec8}.st9{fill:#5430d6}.st10{fill-rule:evenodd;clip-rule:evenodd;fill:#dedaef}.st11{fill:none;stroke:#e54ec8;stroke-width:15px;stroke-miterlimit:10}</style><path d="M64 535h567.5" class="st0"/><path d="M652.5 533.5h743" class="st1"/><circle cx="170" cy="534" r="53.5" class="st2"/><path d="M170 484c27.6 0 50 22.4 50 50s-22.4 50-50 50-50-22.4-50-50 22.4-50 50-50m0-7c-31.4 0-57 25.6-57 57s25.6 57 57 57 57-25.6 57-57-25.6-57-57-57" class="st3"/><circle cx="426" cy="535" r="53.5" class="st2"/><path d="M426 485c27.6 0 50 22.4 50 50s-22.4 50-50 50-50-22.4-50-50 22.4-50 50-50m0-7c-31.4 0-57 25.6-57 57s25.6 57 57 57 57-25.6 57-57-25.6-57-57-57" class="st3"/><circle cx="632" cy="534" r="53.5" class="st2"/><path d="M632 484c27.6 0 50 22.4 50 50s-22.4 50-50 50-50-22.4-50-50 22.4-50 50-50m0-7c-31.4 0-57 25.6-57 57s25.6 57 57 57 57-25.6 57-57-25.6-57-57-57" class="st3"/><path d="M64 615h251v50H64Z" style="fill-rule:evenodd;clip-rule:evenodd;fill:#5430d6;fill-opacity:.61"/><path d="M106.3 648.5h-.1l-.4 1.9h-3.3V625h4.2v6.6l-.2 3.1h.1c1.5-1.4 3.5-2.3 5.4-2.3 4.6 0 7.2 3.5 7.2 9 0 6.1-3.7 9.6-7.8 9.6-1.6-.1-3.5-1-5.1-2.5m8.7-7.2c0-3.5-1.2-5.6-4.1-5.6-1.3 0-2.8.6-4.2 2.1v7.9c1.3 1.2 2.8 1.6 3.9 1.6 2.5.1 4.4-2 4.4-6M125.9 632.7h3.4l.4 4h.1c1.8-2.9 4.5-4.5 7.5-4.5 1.4 0 2.4.2 3.4.7l-.9 3.5c-1.2-.4-1.9-.5-3.2-.5-2.4 0-4.8 1.2-6.6 4.7v9.7h-4.2v-17.6ZM145.3 645.7c0-4 3.5-5.9 12.2-6.6-.1-2-1.3-3.5-4.2-3.5-2 0-4 .9-5.8 1.9l-1.5-2.8c2.1-1.3 5-2.5 8.1-2.5 4.9 0 7.6 2.7 7.6 7.6v10.5h-3.4l-.3-2.2h-.1c-1.9 1.4-4.2 2.6-6.6 2.6-3.5.2-6-2-6-5m12.3-.3v-3.7c-6.4.4-8.2 1.7-8.2 3.6 0 1.6 1.4 2.2 3.1 2.2 1.8.1 3.4-.7 5.1-2.1M167.4 632.7h3.4l.3 2.7h.1c1.7-1.7 3.7-3.1 6.4-3.1 4.1 0 5.9 2.6 5.9 7.2v11h-4.2V640c0-2.8-.9-4.1-3.3-4.1-1.7 0-2.9.8-4.5 2.5v12.1h-4.2v-17.8ZM188.6 641.6c0-5.9 4.6-9.3 10-9.3 2.8 0 5.1 1.1 6.5 2.5l-2 2.6c-1.4-1.1-2.8-1.7-4.4-1.7-3.5 0-6 2.3-6 5.9 0 3.5 2.4 5.9 5.9 5.9 2 0 3.7-.9 5-1.9l1.7 2.7c-2 1.8-4.6 2.7-7.1 2.7-5.3-.1-9.6-3.5-9.6-9.4M210.6 625h4.2v6.6l-.2 3.8h.1c1.5-1.7 3.5-3 6.2-3 4.1 0 5.9 2.6 5.9 7.2v11h-4.2V640c0-2.8-.9-4.1-3.3-4.1-1.7 0-2.9.8-4.5 2.5v12.1h-4.2ZM232 637h16v3h-16ZM254 647h6.4v-15h-5.1v-2.6c2.9-.4 4.6-1 6.2-1.9h3.1V647h5.6v3.4H254Z" class="st3"/><path d="M1360 382H854c-19.3 0-35-15.7-35-35V99c0-19.3 15.7-35 35-35h506c19.3 0 35 15.7 35 35v248c0 19.3-15.7 35-35 35" style="fill-rule:evenodd;clip-rule:evenodd;fill:#d7f2ed;fill-opacity:.61"/><circle cx="889.5" cy="214.5" r="25" class="st6"/><path d="M1395 151V99c0-19.3-15.7-35-35-35H854c-19.3 0-35 15.7-35 35v52Z" style="fill-rule:evenodd;clip-rule:evenodd;fill:#20baa7;fill-opacity:.61"/><path d="m857.2 117.1 1.8-2.7c2.1 1.4 4.5 2.2 7.4 2.2 2.4 0 3.6-.9 3.6-2.1s-.8-1.8-4.9-2.7c-4.7-1-6.8-2.7-6.8-5.3 0-3.1 2.8-5.3 7.7-5.3 2.9 0 5.6 1.1 7.4 2.3l-1.9 2.6c-1.7-1.1-3.8-1.8-5.9-1.8-2.3 0-3.2.9-3.2 2 0 1.2 1.3 1.7 4.6 2.4 5.7 1.2 7.1 2.8 7.1 5.6 0 3-2.9 5.5-8.3 5.5-3.2.1-6.4-1.2-8.6-2.7M883.4 112.3V105h-4.7v-3.1l4.9-.2.5-5.5h3.4v5.5h8v3.3h-8v7.3c0 2.9 1.1 4.2 4.1 4.2 1.5 0 2.7-.3 3.8-.7l.8 3c-1.6.5-3.4 1-5.7 1-5.2.1-7.1-3-7.1-7.5M900.7 114.7c0-4 3.5-5.9 12.2-6.6-.1-2-1.3-3.5-4.2-3.5-2 0-4 .9-5.8 1.9l-1.5-2.8c2.1-1.3 5-2.5 8.1-2.5 4.9 0 7.6 2.7 7.6 7.6v10.5h-3.4l-.3-2.2h-.1c-1.9 1.4-4.2 2.6-6.6 2.6-3.5.2-6-2-6-5m12.3-.3v-3.7c-6.4.4-8.2 1.7-8.2 3.6 0 1.6 1.4 2.2 3.1 2.2 1.8.1 3.4-.7 5.1-2.1M922 117.1l1.8-2.7c2.1 1.4 4.5 2.2 7.4 2.2 2.4 0 3.6-.9 3.6-2.1s-.8-1.8-4.9-2.7c-4.7-1-6.8-2.7-6.8-5.3 0-3.1 2.8-5.3 7.7-5.3 2.9 0 5.6 1.1 7.4 2.3l-1.9 2.6c-1.7-1.1-3.8-1.8-5.9-1.8-2.3 0-3.2.9-3.2 2 0 1.2 1.3 1.7 4.6 2.4 5.7 1.2 7.1 2.8 7.1 5.6 0 3-2.9 5.5-8.3 5.5-3.2.1-6.4-1.2-8.6-2.7M944.4 94h4.2v6.6l-.2 3.8h.1c1.5-1.7 3.5-3 6.2-3 4.1 0 5.9 2.6 5.9 7.2v11h-4.2V109c0-2.8-.9-4.1-3.3-4.1-1.7 0-2.9.8-4.5 2.5v12.1h-4.2ZM992.7 113V97.3h-5.9V94h10.1v19.2c0 2.4 1.4 3.3 3.2 3.3.9 0 1.9-.2 3-.7l1 3.1c-1.7.6-2.9 1-5 1-4.2 0-6.4-2.6-6.4-6.9M1016.9 105h-7.6v-3.3h11.8v17.7h-4.2Zm-1.2-9.3c0-1.7 1.2-2.8 3-2.8s3 1.1 3 2.8-1.2 2.8-3 2.8-3-1.1-3-2.8M1030 117.1l1.8-2.7c2.1 1.4 4.5 2.2 7.4 2.2 2.4 0 3.6-.9 3.6-2.1s-.8-1.8-4.9-2.7c-4.7-1-6.8-2.7-6.8-5.3 0-3.1 2.8-5.3 7.7-5.3 2.9 0 5.6 1.1 7.4 2.3l-1.9 2.6c-1.7-1.1-3.8-1.8-5.9-1.8-2.3 0-3.2.9-3.2 2 0 1.2 1.3 1.7 4.6 2.4 5.7 1.2 7.1 2.8 7.1 5.6 0 3-2.9 5.5-8.3 5.5-3.2.1-6.4-1.2-8.6-2.7M1056.2 112.3V105h-4.7v-3.1l4.9-.2.5-5.5h3.4v5.5h8v3.3h-8v7.3c0 2.9 1.1 4.2 4.1 4.2 1.5 0 2.7-.3 3.8-.7l.8 3c-1.6.5-3.4 1-5.7 1-5.2.1-7.1-3-7.1-7.5" class="st3"/><path d="m948.2 224.1 1.8-2.7c2.1 1.4 4.5 2.2 7.4 2.2 2.4 0 3.6-.9 3.6-2.1s-.8-1.8-4.9-2.7c-4.7-1-6.8-2.7-6.8-5.3 0-3.1 2.8-5.3 7.7-5.3 2.9 0 5.6 1.1 7.4 2.3l-1.9 2.6c-1.7-1.1-3.8-1.8-5.9-1.8-2.3 0-3.2.9-3.2 2 0 1.2 1.3 1.7 4.6 2.4 5.7 1.2 7.1 2.8 7.1 5.6 0 3-2.9 5.5-8.3 5.5-3.2.1-6.4-1.2-8.6-2.7M974.4 219.3V212h-4.7v-3.1l4.9-.2.5-5.5h3.4v5.5h8v3.3h-8v7.3c0 2.9 1.1 4.2 4.1 4.2 1.5 0 2.7-.3 3.8-.7l.8 3c-1.6.5-3.4 1-5.7 1-5.2.1-7.1-3-7.1-7.5M991.7 221.7c0-4 3.5-5.9 12.2-6.6-.1-2-1.3-3.5-4.2-3.5-2 0-4 .9-5.8 1.9l-1.5-2.8c2.1-1.3 5-2.5 8.1-2.5 4.9 0 7.6 2.7 7.6 7.6v10.5h-3.4l-.3-2.2h-.1c-1.9 1.4-4.2 2.6-6.6 2.6-3.5.2-6-2-6-5m12.3-.3v-3.7c-6.4.4-8.2 1.7-8.2 3.6 0 1.6 1.4 2.2 3.1 2.2 1.8.1 3.4-.7 5.1-2.1M1013 224.1l1.8-2.7c2.1 1.4 4.5 2.2 7.4 2.2 2.4 0 3.6-.9 3.6-2.1s-.8-1.8-4.9-2.7c-4.7-1-6.8-2.7-6.8-5.3 0-3.1 2.8-5.3 7.7-5.3 2.9 0 5.6 1.1 7.4 2.3l-1.9 2.6c-1.7-1.1-3.8-1.8-5.9-1.8-2.3 0-3.2.9-3.2 2 0 1.2 1.3 1.7 4.6 2.4 5.7 1.2 7.1 2.8 7.1 5.6 0 3-2.9 5.5-8.3 5.5-3.2.1-6.4-1.2-8.6-2.7M1035.4 201h4.2v6.6l-.2 3.8h.1c1.5-1.7 3.5-3 6.2-3 4.1 0 5.9 2.6 5.9 7.2v11h-4.2V216c0-2.8-.9-4.1-3.3-4.1-1.7 0-2.9.8-4.5 2.5v12.1h-4.2ZM1055.4 217.4c0-9.5 4.8-14 10.7-14 5.2 0 7.6 3.8 7.6 8.7v10.7h-2.3l-.3-2h-.1c-1 1.3-2.6 2.4-4.5 2.4-2.6 0-4.6-2-4.6-4.9 0-3.8 3.4-5.4 9.2-6.2v-.5c0-3.1-1.6-5.7-5-5.7-3.8 0-7.6 3.6-7.6 11.5 0 7.6 3.7 11.6 8 11.6 2.1 0 3.5-.5 4.9-1.5l1.3 2.1c-2 1.2-3.9 2-6.3 2-5.9.1-11-4.7-11-14.2m15.2 1.3v-3.9c-4.1.6-5.7 1.6-5.7 3.5 0 1.4.9 2.2 2.4 2.2 1.2 0 2.3-.7 3.3-1.8M1084.4 226.9c0-2.6.4-4.2.4-6.5 0-1.3-1-2.7-5.1-2.7v-2.5c4.1 0 5.1-1.4 5.1-2.7 0-2.3-.4-4-.4-6.5 0-3.8 2.1-5 6.7-5h2.5v2.3h-1.7c-3.3 0-4.1.7-4.1 2.9 0 2 .2 4 .2 6.2 0 2.5-.9 3.6-3.4 4.1v.1c2.5.4 3.4 1.5 3.4 4.1 0 2.3-.2 4.1-.2 6.2 0 2.2.7 2.9 4.1 2.9h1.7v2.3h-2.5c-4.6-.2-6.7-1.4-6.7-5.2M1099.5 214.9c0-7.7 3.3-11.8 8.5-11.8s8.5 4.1 8.5 11.8-3.3 12-8.5 12-8.5-4.3-8.5-12m13.3 0c0-6.3-2-8.5-4.8-8.5s-4.8 2.3-4.8 8.5 2 8.7 4.8 8.7 4.8-2.5 4.8-8.7m-7.3-.2c0-1.6 1.1-2.6 2.5-2.6s2.5 1 2.5 2.6-1.1 2.6-2.5 2.6-2.5-1-2.5-2.6M1122.5 229.6h1.7c3.3 0 4.1-.7 4.1-2.9 0-2.1-.2-3.9-.2-6.2 0-2.5.9-3.6 3.4-4.1v-.1c-2.5-.4-3.4-1.5-3.4-4.1 0-2.2.2-4.2.2-6.2 0-2.2-.7-2.9-4.1-2.9h-1.7v-2.3h2.5c4.6 0 6.7 1.2 6.7 5 0 2.5-.3 4.3-.3 6.5 0 1.3 1 2.7 5.1 2.7v2.5c-4.1 0-5.1 1.4-5.1 2.7 0 2.3.3 3.9.3 6.5 0 3.8-2.1 5-6.7 5h-2.5Z" class="st8"/><path d="m632 495-.6-72.6c-.2-62 50-112.4 112-112.4h14.8" class="st0"/><path d="M750.4 336.9 797 310l-46.6-26.9Z" class="st9"/><circle cx="992" cy="533" r="53.5" class="st10"/><path d="M992 483c27.6 0 50 22.4 50 50s-22.4 50-50 50-50-22.4-50-50 22.4-50 50-50m0-7c-31.4 0-57 25.6-57 57s25.6 57 57 57 57-25.6 57-57-25.6-57-57-57" class="st3"/><circle cx="1265" cy="533" r="53.5" class="st10"/><path d="M1265 483c27.6 0 50 22.4 50 50s-22.4 50-50 50-50-22.4-50-50 22.4-50 50-50m0-7c-31.4 0-57 25.6-57 57s25.6 57 57 57 57-25.6 57-57-25.6-57-57-57" class="st3"/><path d="M63 788h469.5" class="st11"/><path d="M532.5 786.5h862" class="st1"/><circle cx="189" cy="786" r="54" class="st6"/><path d="M189 736c27.6 0 50 22.4 50 50s-22.4 50-50 50-50-22.4-50-50 22.4-50 50-50m0-8c-32 0-58 26-58 58s26 58 58 58 58-26 58-58-26-58-58-58" class="st3"/><circle cx="526" cy="786" r="54" class="st6"/><path d="M526 736c27.6 0 50 22.4 50 50s-22.4 50-50 50-50-22.4-50-50 22.4-50 50-50m0-8c-32 0-58 26-58 58s26 58 58 58 58-26 58-58-26-58-58-58" class="st3"/><path d="m526 754-.5-312.5c0-132 73-224.5 203-224.5l30.3-.4" class="st11"/><path d="m751.3 243.6 46.2-27.6-47-26.2Z" class="st8"/><circle cx="890" cy="308" r="25" class="st2"/><path d="m948.7 317.6 1.8-2.7c2.1 1.4 4.5 2.2 7.4 2.2 2.4 0 3.6-.9 3.6-2.1s-.8-1.8-4.9-2.7c-4.7-1-6.8-2.7-6.8-5.3 0-3.1 2.8-5.3 7.7-5.3 2.9 0 5.6 1.1 7.4 2.3l-1.9 2.6c-1.7-1.1-3.8-1.8-5.9-1.8-2.3 0-3.2.9-3.2 2 0 1.2 1.3 1.7 4.6 2.4 5.7 1.2 7.1 2.8 7.1 5.6 0 3-2.9 5.5-8.3 5.5-3.2.1-6.4-1.2-8.6-2.7M974.9 312.8v-7.3h-4.7v-3.1l4.9-.2.5-5.5h3.4v5.5h8v3.3h-8v7.3c0 2.9 1.1 4.2 4.1 4.2 1.5 0 2.7-.3 3.8-.7l.8 3c-1.6.5-3.4 1-5.7 1-5.2.1-7.1-3-7.1-7.5M992.2 315.2c0-4 3.5-5.9 12.2-6.6-.1-2-1.3-3.5-4.2-3.5-2 0-4 .9-5.8 1.9l-1.5-2.8c2.1-1.3 5-2.5 8.1-2.5 4.9 0 7.6 2.7 7.6 7.6v10.5h-3.4l-.3-2.2h-.1c-1.9 1.4-4.2 2.6-6.6 2.6-3.5.2-6-2-6-5m12.3-.3v-3.7c-6.4.4-8.2 1.7-8.2 3.6 0 1.6 1.4 2.2 3.1 2.2 1.8.1 3.4-.7 5.1-2.1M1013.5 317.6l1.8-2.7c2.1 1.4 4.5 2.2 7.4 2.2 2.4 0 3.6-.9 3.6-2.1s-.8-1.8-4.9-2.7c-4.7-1-6.8-2.7-6.8-5.3 0-3.1 2.8-5.3 7.7-5.3 2.9 0 5.6 1.1 7.4 2.3l-1.9 2.6c-1.7-1.1-3.8-1.8-5.9-1.8-2.3 0-3.2.9-3.2 2 0 1.2 1.3 1.7 4.6 2.4 5.7 1.2 7.1 2.8 7.1 5.6 0 3-2.9 5.5-8.3 5.5-3.2.1-6.4-1.2-8.6-2.7M1035.9 294.5h4.2v6.6l-.2 3.8h.1c1.5-1.7 3.5-3 6.2-3 4.1 0 5.9 2.6 5.9 7.2v11h-4.2v-10.4c0-2.8-.9-4.1-3.3-4.1-1.7 0-2.9.8-4.5 2.5v12.1h-4.2ZM1055.9 310.9c0-9.5 4.8-14 10.7-14 5.2 0 7.6 3.8 7.6 8.7v10.7h-2.3l-.3-2h-.1c-1 1.3-2.6 2.4-4.5 2.4-2.6 0-4.6-2-4.6-4.9 0-3.8 3.4-5.4 9.2-6.2v-.5c0-3.1-1.6-5.7-5-5.7-3.8 0-7.6 3.6-7.6 11.5 0 7.6 3.7 11.6 8 11.6 2.1 0 3.5-.5 4.9-1.5l1.3 2.1c-2 1.2-3.9 2-6.3 2-5.9.1-11-4.7-11-14.2m15.2 1.3v-3.9c-4.1.6-5.7 1.6-5.7 3.5 0 1.4.9 2.2 2.4 2.2 1.2 0 2.3-.7 3.3-1.8M1084.9 320.4c0-2.6.4-4.2.4-6.5 0-1.3-1-2.7-5.1-2.7v-2.5c4.1 0 5.1-1.4 5.1-2.7 0-2.3-.4-4-.4-6.5 0-3.8 2.1-5 6.7-5h2.5v2.3h-1.7c-3.3 0-4.1.7-4.1 2.9 0 2 .2 4 .2 6.2 0 2.5-.9 3.6-3.4 4.1v.1c2.5.4 3.4 1.5 3.4 4.1 0 2.3-.2 4.1-.2 6.2 0 2.2.7 2.9 4.1 2.9h1.7v2.3h-2.5c-4.6-.2-6.7-1.4-6.7-5.2M1100.9 316.5h6.4v-15h-5.1v-2.6c2.9-.4 4.6-1 6.2-1.9h3.1v19.5h5.6v3.4H1101v-3.4ZM1123 323.1h1.7c3.3 0 4.1-.7 4.1-2.9 0-2.1-.2-3.9-.2-6.2 0-2.5.9-3.6 3.4-4.1v-.1c-2.5-.4-3.4-1.5-3.4-4.1 0-2.2.2-4.2.2-6.2 0-2.2-.7-2.9-4.1-2.9h-1.7v-2.3h2.5c4.6 0 6.7 1.2 6.7 5 0 2.5-.3 4.3-.3 6.5 0 1.3 1 2.7 5.1 2.7v2.5c-4.1 0-5.1 1.4-5.1 2.7 0 2.3.3 3.9.3 6.5 0 3.8-2.1 5-6.7 5h-2.5Z" class="st9"/><circle cx="865" cy="786" r="53.5" class="st10"/><path d="M865 736c27.6 0 50 22.4 50 50s-22.4 50-50 50-50-22.4-50-50 22.4-50 50-50m0-7c-31.4 0-57 25.6-57 57s25.6 57 57 57 57-25.6 57-57-25.6-57-57-57" class="st3"/><path d="M60 865h251v50H60Z" style="fill-rule:evenodd;clip-rule:evenodd;fill:#e54ec8;fill-opacity:.61"/><path d="M102.3 898.5h-.1l-.4 1.9h-3.3V875h4.2v6.6l-.2 3.1h.1c1.5-1.4 3.5-2.3 5.4-2.3 4.6 0 7.2 3.5 7.2 9 0 6.1-3.7 9.6-7.8 9.6-1.6-.1-3.5-1-5.1-2.5m8.7-7.2c0-3.5-1.2-5.6-4.1-5.6-1.3 0-2.8.6-4.2 2.1v7.9c1.3 1.2 2.8 1.6 3.9 1.6 2.5.1 4.4-2 4.4-6M121.9 882.7h3.4l.4 4h.1c1.8-2.9 4.5-4.5 7.5-4.5 1.4 0 2.4.2 3.4.7l-.9 3.5c-1.2-.4-1.9-.5-3.2-.5-2.4 0-4.8 1.2-6.6 4.7v9.7h-4.2v-17.6ZM141.3 895.7c0-4 3.5-5.9 12.2-6.6-.1-2-1.3-3.5-4.2-3.5-2 0-4 .9-5.8 1.9l-1.5-2.8c2.1-1.3 5-2.5 8.1-2.5 4.9 0 7.6 2.7 7.6 7.6v10.5h-3.4l-.3-2.2h-.1c-1.9 1.4-4.2 2.6-6.6 2.6-3.5.2-6-2-6-5m12.3-.3v-3.7c-6.4.4-8.2 1.7-8.2 3.6 0 1.6 1.4 2.2 3.1 2.2 1.8.1 3.4-.7 5.1-2.1M163.4 882.7h3.4l.3 2.7h.1c1.7-1.7 3.7-3.1 6.4-3.1 4.1 0 5.9 2.6 5.9 7.2v11h-4.2V890c0-2.8-.9-4.1-3.3-4.1-1.7 0-2.9.8-4.5 2.5v12.1h-4.2v-17.8ZM184.6 891.6c0-5.9 4.6-9.3 10-9.3 2.8 0 5.1 1.1 6.5 2.5l-2 2.6c-1.4-1.1-2.8-1.7-4.4-1.7-3.5 0-6 2.3-6 5.9 0 3.5 2.4 5.9 5.9 5.9 2 0 3.7-.9 5-1.9l1.7 2.7c-2 1.8-4.6 2.7-7.1 2.7-5.3-.1-9.6-3.5-9.6-9.4M206.6 875h4.2v6.6l-.2 3.8h.1c1.5-1.7 3.5-3 6.2-3 4.1 0 5.9 2.6 5.9 7.2v11h-4.2V890c0-2.8-.9-4.1-3.3-4.1-1.7 0-2.9.8-4.5 2.5v12.1h-4.2ZM228 887h16v3h-16ZM249.1 898c7.2-6.2 11.5-10.1 11.5-13.7 0-2.4-1.5-3.9-4.4-3.9-2 0-3.7 1.2-5 2.5l-2.3-2.3c2.2-2.2 4.5-3.6 7.9-3.6 4.7 0 7.8 2.8 7.8 7 0 4.1-4.1 8.3-9.5 13 1.4-.1 2.9-.2 4.2-.2h6.5v3.5h-16.7Z" class="st3"/></svg>