<?xml version="1.0" encoding="UTF-8"?> <svg xmlns="http://www.w3.org/2000/svg" width="49" height="48" viewBox="0 0 49 48" fill="none"><path d="M0.5 24C0.5 10.7452 11.2452 0 24.5 0C37.7548 0 48.5 10.7452 48.5 24C48.5 37.2548 37.7548 48 24.5 48C11.2452 48 0.5 37.2548 0.5 24Z" fill="#FFEFF7"></path><g clip-path="url(#clip0_403_2783)"><path fill-rule="evenodd" clip-rule="evenodd" d="M21.375 18.375C20.712 18.375 20.0761 18.6384 19.6073 19.1072C19.1384 19.5761 18.875 20.2119 18.875 20.875C18.875 21.538 19.1384 22.1739 19.6073 22.6428C20.0761 23.1116 20.712 23.375 21.375 23.375C22.0381 23.375 22.674 23.1116 23.1428 22.6428C23.6116 22.1739 23.875 21.538 23.875 20.875C23.875 20.2119 23.6116 19.5761 23.1428 19.1072C22.674 18.6384 22.0381 18.375 21.375 18.375ZM17 20.875C16.9999 20.1498 17.1801 19.436 17.5243 18.7978C17.8685 18.1595 18.366 17.6168 18.972 17.2185C19.5779 16.8202 20.2734 16.5788 20.9959 16.5159C21.7183 16.4531 22.445 16.5708 23.1107 16.8585C23.7763 17.1461 24.36 17.5948 24.8093 18.164C25.2585 18.7332 25.5593 19.4052 25.6844 20.1195C25.8095 20.8338 25.7552 21.568 25.5262 22.256C25.2972 22.9441 24.9007 23.5644 24.3725 24.0612C25.3686 24.5445 26.2334 25.2608 26.8936 26.1495C27.5539 27.0382 27.99 28.0731 28.165 29.1662C28.204 29.4119 28.1438 29.663 27.9975 29.8642C27.8514 30.0655 27.6313 30.2004 27.3857 30.2394C27.14 30.2784 26.8889 30.2181 26.6877 30.0719C26.4864 29.9257 26.3515 29.7056 26.3125 29.46C26.1234 28.2867 25.5226 27.2191 24.6178 26.4485C23.7131 25.6779 22.5635 25.2547 21.375 25.2547C20.1866 25.2547 19.037 25.6779 18.1322 26.4485C17.2275 27.2191 16.6267 28.2867 16.4375 29.46C16.4182 29.5816 16.375 29.6982 16.3106 29.8032C16.2461 29.9082 16.1616 29.9995 16.0619 30.0717C15.9622 30.1441 15.8493 30.196 15.7295 30.2246C15.6097 30.2534 15.4854 30.2581 15.3638 30.2387C15.2421 30.2194 15.1255 30.1762 15.0206 30.1117C14.9156 30.0474 14.8243 29.9629 14.752 29.8631C14.6797 29.7635 14.6277 29.6505 14.5991 29.5306C14.5704 29.4109 14.5657 29.2866 14.585 29.165C14.7605 28.0722 15.1968 27.038 15.8569 26.1497C16.5171 25.2615 17.3818 24.5455 18.3775 24.0625C17.9419 23.6538 17.5949 23.16 17.358 22.6117C17.121 22.0634 16.9992 21.4723 17 20.875ZM28.25 19C28.0014 19 27.7629 19.0988 27.5872 19.2746C27.4113 19.4504 27.3125 19.6888 27.3125 19.9375C27.3125 20.1861 27.4113 20.4246 27.5872 20.6004C27.7629 20.7762 28.0014 20.875 28.25 20.875C28.6729 20.875 29.0834 21.018 29.4149 21.2808C29.7463 21.5436 29.9792 21.9107 30.0755 22.3225C30.1719 22.7343 30.1263 23.1666 29.946 23.5492C29.7658 23.9318 29.4615 24.2422 29.0825 24.43C28.9263 24.5077 28.7948 24.6275 28.7029 24.7759C28.611 24.9243 28.5624 25.0954 28.5625 25.27V25.71C28.5623 25.9206 28.6329 26.1251 28.763 26.2906C28.8932 26.4562 29.0753 26.5731 29.28 26.6225C30.78 26.9837 31.9825 28.1225 32.4325 29.5875C32.4682 29.7056 32.5269 29.8156 32.6052 29.9111C32.6835 30.0065 32.7799 30.0856 32.8889 30.1437C32.9978 30.2017 33.1172 30.2377 33.24 30.2496C33.3629 30.2615 33.4869 30.2489 33.605 30.2127C33.723 30.1765 33.8328 30.1174 33.9278 30.0386C34.0229 29.9599 34.1015 29.8631 34.1592 29.7539C34.2168 29.6447 34.2523 29.5252 34.2635 29.4022C34.2749 29.2794 34.2618 29.1554 34.225 29.0375C33.9748 28.2257 33.562 27.4734 33.0119 26.8262C32.4618 26.179 31.7858 25.6503 31.025 25.2725C31.5137 24.7349 31.8358 24.067 31.9519 23.3498C32.0682 22.6327 31.9735 21.8972 31.6797 21.2328C31.3857 20.5684 30.905 20.0037 30.2963 19.6073C29.6874 19.2109 28.9765 18.9999 28.25 19Z" fill="#BF3989"></path></g><defs><clipPath id="clip0_403_2783"><rect width="20" height="20" fill="white" transform="translate(14.5 14)"></rect></clipPath></defs></svg> 