<?xml version="1.0" encoding="UTF-8"?> <svg xmlns="http://www.w3.org/2000/svg" viewBox="0 0 276 276" xml:space="preserve" style="fill-rule:evenodd;clip-rule:evenodd"><circle cx="138" cy="138" r="124" style="fill:none;stroke:#b30000;stroke-width:28px"></circle><path d="M57.57 119.29h8.6v45.25h16.66v8.62H57.57z" style="fill-rule:nonzero" transform="matrix(2.15 0 0 1.97 -98.23 -150.2)"></path><path d="M57.57 117.51h8.6c.9 0 1.64.8 1.64 1.77v43.49h15.02c.9 0 1.62.8 1.62 1.77v8.62c0 .98-.73 1.78-1.62 1.78H57.57c-.9 0-1.62-.8-1.62-1.78V119.3c0-.98.73-1.78 1.62-1.78m0 1.77v53.88h25.26v-8.62H66.18V119.3z" style="fill:#fff" transform="matrix(2.15 0 0 1.97 -98.23 -150.2)"></path><path d="M87.9 119.29h8.61v45.25h16.65v8.62H87.9z" style="fill-rule:nonzero" transform="matrix(2.15 0 0 1.97 -98.23 -150.2)"></path><path d="M87.9 117.51h8.61c.9 0 1.63.8 1.63 1.77v43.49h15.02c.9 0 1.62.8 1.62 1.77v8.62c0 .98-.73 1.78-1.62 1.78H87.9c-.9 0-1.62-.8-1.62-1.78V119.3c0-.98.73-1.78 1.62-1.78m0 1.77v53.88h25.26v-8.62H96.5V119.3z" style="fill:#fff" transform="matrix(2.15 0 0 1.97 -98.23 -150.2)"></path><path d="m153.22 173.16-3.6-34.63-10.5 23.78-10.52-23.78-3.6 34.63h-8.88l6.2-53.87h6.99l9.8 23.62 9.8-23.62h7l6.2 53.87z" style="fill-rule:nonzero" transform="matrix(2.15 0 0 1.97 -98.23 -150.2)"></path><path d="m151.6 173.36-2.96-28.53-8.06 18.25c-.27.61-.84 1-1.47 1-.62 0-1.19-.39-1.46-1l-8.06-18.25-2.97 28.53c-.1.9-.79 1.58-1.61 1.58h-8.9c-.46 0-.9-.22-1.21-.6s-.45-.9-.4-1.4l6.21-53.88c.1-.88.8-1.55 1.62-1.55h6.98c.64 0 1.22.4 1.48 1.04l8.32 20.06 8.33-20.06c.26-.63.84-1.04 1.48-1.04h6.98c.82 0 1.51.67 1.61 1.55l6.21 53.88c.06.5-.08 1.02-.4 1.4-.3.38-.75.6-1.21.6h-8.89c-.83 0-1.52-.68-1.62-1.58m1.62-.2h8.89l-6.2-53.87h-7l-9.8 23.62-9.8-23.62h-6.98l-6.21 53.87H125l3.6-34.63 10.5 23.78 10.51-23.78z" style="fill:#fff" transform="matrix(2.15 0 0 1.97 -98.23 -150.2)"></path><path d="m45 45 186 186" style="fill:none;fill-rule:nonzero;stroke:#b30000;stroke-width:22px"></path></svg> 