<svg xmlns="http://www.w3.org/2000/svg" xml:space="preserve" id="Layer_1" x="0" y="0" viewBox="0 0 1366 768"><style>.st1{fill:#6b99b5;stroke:#1d1d26;stroke-width:15px;stroke-linecap:round;stroke-linejoin:round;stroke-miterlimit:10}.st2{fill:none;stroke:#1d1d26;stroke-width:5px;stroke-linecap:round;stroke-linejoin:round;stroke-miterlimit:10}.st8{fill:#9bc0e0;stroke:#1d1d26;stroke-width:8px;stroke-linecap:round;stroke-linejoin:round;stroke-miterlimit:10}.st9{fill:none;stroke:#1d1d26;stroke-width:8px;stroke-linecap:round;stroke-linejoin:round;stroke-miterlimit:10}.st10{fill:#d9d9e2;stroke:#1d1d26;stroke-width:8px;stroke-linecap:round;stroke-linejoin:round;stroke-miterlimit:10}.st12{fill:#6b99b5;stroke:#1d1d26;stroke-width:8px;stroke-linecap:round;stroke-linejoin:round;stroke-miterlimit:10}</style><g id="Layer_1_1_"><path d="M-13.7-7.9h1393.4v783.8H-13.7Z" style="fill:#568399;stroke:#1d1d26;stroke-width:2px;stroke-miterlimit:10"/><path d="M1075.5 609.5H162.1c-16 0-29-13-29-29V99.6c0-16 13-29 29-29h913.4c16 0 29 13 29 29v480.9c0 16-13 29-29 29" class="st1"/></g><g id="Layer_2_1_"><path d="M1203.9 697.4H290.5c-16 0-29-13-29-29V187.5c0-16 13-29 29-29h913.4c16 0 29 13 29 29v480.9c0 16-13 29-29 29" class="st1"/><circle cx="305.4" cy="190.6" r="11.4" class="st2"/><circle cx="347.2" cy="190.6" r="11.4" class="st2"/><circle cx="388.9" cy="190.6" r="11.4" class="st2"/><path d="M261.5 221v447.4c0 16 13 29 29 29h913.4c16 0 29-13 29-29V221Z" style="fill:#9bc0e0;stroke:#1d1d26;stroke-width:15px;stroke-linecap:round;stroke-linejoin:round;stroke-miterlimit:10"/><path d="M261.5 221h485.7v238.2H261.5Z" style="fill:#9bc0e0;stroke:#1d1d26;stroke-width:12px;stroke-linecap:round;stroke-linejoin:round;stroke-miterlimit:10"/><path d="M747.2 221h485.7v238.2H747.2Z" style="fill:#d9d9e2;stroke:#1d1d26;stroke-width:12px;stroke-linecap:round;stroke-linejoin:round;stroke-miterlimit:10"/><path d="M747.2 697.4H290.5c-16 0-29-13-29-29V459.2h485.7Z" style="fill:#ff1493;stroke:#1d1d26;stroke-width:12px;stroke-linecap:round;stroke-linejoin:round;stroke-miterlimit:10"/><path d="M1203.9 697.4H747.2V459.2h485.7v209.2c0 16-13 29-29 29" style="fill:#6b99b5;stroke:#1d1d26;stroke-width:12px;stroke-linecap:round;stroke-linejoin:round;stroke-miterlimit:10"/><path d="M586.4 456.9H422.3v-20.5c0-42.6 34.5-77.1 77.1-77.1h9.3c42.9 0 77.8 34.8 77.8 77.8Z" class="st8"/><circle cx="507.7" cy="333.1" r="53" class="st8"/><path d="m420.1 302 138.6 45.6" class="st9"/><path d="M486.9 356.9c0 7.9 8.1 14.3 18.2 14.3" class="st2"/><path d="M908.3 313.1h105.9v95H908.3Z" class="st10"/><path d="M1038.7 456.9H883.9v-20.5c0-42.6 34.5-77.1 77.1-77.1h0c42.9 0 77.8 34.8 77.8 77.8v19.8Z" class="st10"/><circle cx="961.3" cy="313.1" r="53" class="st10"/><path d="M920.9 278.8c0 25.9 41.1 46.8 91.9 46.8" class="st9"/><path d="M938.1 306.1c0 13.2-12.1 23.8-27 23.8" class="st9"/><ellipse cx="963.4" cy="348.5" class="st2" rx="11.1" ry="5.7"/><path d="M591.2 697.4H436.4v-20.5c0-42.6 34.5-77.1 77.1-77.1h0c42.9 0 77.8 34.8 77.8 77.8Z" class="st9"/><path d="M513.8 595.1c-9.7 10.2-23.4 16.6-38.5 16.6-29.3 0-53-23.7-53-53 0-7.8 1.7-15.3 4.7-21.9" style="fill:#ff1493;stroke:#1d1d26;stroke-width:8px;stroke-linecap:round;stroke-linejoin:round;stroke-miterlimit:10"/><path d="m319.9 697.4 4.1-48.8 11.7 24.4h48l11.7-23.1 6.7 47.5Z" class="st9"/><path d="M461.6 599.6c10.4 4.4 22.6-1 27.3-12" class="st2"/><path d="M427 536.8s11.9 23.6 53.2 13.8c0 0 10.5 23.4 29.3 15.8 0 0-10.5 18 4.3 28.7" class="st9"/><path d="M427 536.8s-4.7-24.5 18.2-31c0 0 9-24.2 34.9-14.8 0 0 21.8-12 31.2 8.3 0 0 24-7.9 29.3 16.1 0 0 24 11.3 9.8 34.9 0 0 10.9 17.6-1.9 31.9 0 0 9.8 17.7-3.2 24.4M424.1 534.6s-19.1 6.4-15.7 26.1c0 0-11 22.6 4 34.3 0 0-6.5 15.9 9.9 23.2 0 0-2.1 10.5 9.9 17.7 0 0 .1 10 11.4 8.3" class="st9"/><path d="M1051.9 697.4H875c-3.5 0-6.4-2.9-6.4-6.4v-25.3c0-49.1 39.8-88.9 88.9-88.9h11.3c49.5 0 89.6 40.1 89.6 89.6V691c-.1 3.5-3 6.4-6.5 6.4" class="st12"/><circle cx="963.4" cy="547" r="59.6" class="st12"/><path d="m907.3 567.1 20.3-47.2s28.5 17.7 69.7 0l22.2 47.2" class="st12"/><path d="M963.4 592.1c14.7 0 26.6-9.1 26.6-20.3h-53.2c0 11.2 11.9 20.3 26.6 20.3" class="st2"/></g></svg>