<svg xmlns="http://www.w3.org/2000/svg" xml:space="preserve" id="Layer_1" x="0" y="0" viewBox="0 0 900 465"><path id="Layer_1_1_" fill="#212121" d="M.5 0h900v465H.5Z"/><path fill="#62d3d3" d="M386 160.5h-88c-1.1 0-2-.9-2-2v-44c0-1.1.9-2 2-2h88c1.1 0 2 .9 2 2v44c0 1.1-.9 2-2 2M494 160.5h-88c-1.1 0-2-.9-2-2v-44c0-1.1.9-2 2-2h88c1.1 0 2 .9 2 2v44c0 1.1-.9 2-2 2M602 160.5h-88c-1.1 0-2-.9-2-2v-44c0-1.1.9-2 2-2h88c1.1 0 2 .9 2 2v44c0 1.1-.9 2-2 2M386 224.5h-88c-1.1 0-2-.9-2-2v-44c0-1.1.9-2 2-2h88c1.1 0 2 .9 2 2v44c0 1.1-.9 2-2 2M494 224.5h-88c-1.1 0-2-.9-2-2v-44c0-1.1.9-2 2-2h88c1.1 0 2 .9 2 2v44c0 1.1-.9 2-2 2M602 224.5h-88c-1.1 0-2-.9-2-2v-44c0-1.1.9-2 2-2h88c1.1 0 2 .9 2 2v44c0 1.1-.9 2-2 2M386 288.5h-88c-1.1 0-2-.9-2-2v-44c0-1.1.9-2 2-2h88c1.1 0 2 .9 2 2v44c0 1.1-.9 2-2 2M494 288.5h-88c-1.1 0-2-.9-2-2v-44c0-1.1.9-2 2-2h88c1.1 0 2 .9 2 2v44c0 1.1-.9 2-2 2M602 288.5h-88c-1.1 0-2-.9-2-2v-44c0-1.1.9-2 2-2h88c1.1 0 2 .9 2 2v44c0 1.1-.9 2-2 2"/><path fill="none" stroke="#666" stroke-miterlimit="10" d="M275.5 92.3h349v280.5h-349Z"/><path fill="#ff9f50" d="M386 352.5h-88c-1.1 0-2-.9-2-2v-44c0-1.1.9-2 2-2h88c1.1 0 2 .9 2 2v44c0 1.1-.9 2-2 2M494 352.5h-88c-1.1 0-2-.9-2-2v-44c0-1.1.9-2 2-2h88c1.1 0 2 .9 2 2v44c0 1.1-.9 2-2 2"/></svg>