<svg xmlns="http://www.w3.org/2000/svg" viewBox="0 0 450 300"><path fill="#e2eee7" d="M-.002-.002h450v300h-450Z"/><g fill="#325b43"><g opacity=".5"><path d="M23.668-.002v.99l-.99-.99ZM23.668 7.728v1.96l-9.69-9.69h1.96ZM23.668 16.428v1.96L5.278-.002h1.96ZM23.668 25.128v1.96L-.002 3.418v-1.96ZM23.668 33.828v1.96l-23.67-23.67v-1.96ZM23.668 42.528v1.96l-23.67-23.67v-1.96ZM23.668 51.228v1.96l-23.67-23.67v-1.96ZM23.668 59.928v1.95l-23.67-23.66v-1.96ZM23.668 68.618v1.96l-23.67-23.67v-1.96ZM23.668 77.318v1.96l-23.67-23.67v-1.96ZM23.668 86.018v1.96l-23.67-23.67v-1.96ZM23.668 94.718v1.96l-23.67-23.67v-1.96ZM23.668 103.418v1.96l-23.67-23.67v-1.96ZM23.668 112.118v1.96l-23.67-23.67v-1.96ZM23.668 120.818v1.96l-23.67-23.67v-1.96ZM23.668 129.508v1.96l-23.67-23.67v-1.95ZM23.668 138.208v1.96l-23.67-23.67v-1.96ZM23.668 146.908v1.96l-23.67-23.67v-1.96ZM23.668 155.608v1.96l-23.67-23.67v-1.96ZM23.668 164.308v1.96l-23.67-23.67v-1.96ZM23.668 173.008v1.96l-23.67-23.67v-1.96ZM23.668 181.708v1.96l-23.67-23.67v-1.96ZM23.668 190.408v1.95l-23.67-23.67v-1.95ZM23.668 199.098v1.96l-23.67-23.67v-1.96ZM23.668 207.798v1.96l-23.67-23.67v-1.96ZM23.668 216.498v1.96l-23.67-23.67v-1.96ZM23.668 225.198v1.96l-23.67-23.67v-1.96ZM23.668 233.898v1.96l-23.67-23.67v-1.96ZM23.668 242.598v1.96l-23.67-23.67v-1.96ZM23.668 251.298v1.95l-23.67-23.67v-1.95ZM23.668 259.988v1.96l-23.67-23.67v-1.96ZM23.668 268.688v1.96l-23.67-23.67v-1.96ZM23.668 277.388v1.96l-23.67-23.67v-1.96ZM23.668 286.088v1.96l-23.67-23.67v-1.96ZM23.668 294.788v1.96l-23.67-23.67v-1.96ZM20.178 299.998h-1.96l-18.22-18.22v-1.96ZM11.478 299.998h-1.95l-9.53-9.53v-1.95ZM2.788 299.998H.828l-.83-.83v-1.96Z"/></g><g opacity=".5"><path d="M449.998 1.338v1.96l-3.3-3.3h1.96ZM449.998 10.038v1.96l-12-12h1.96ZM449.998 18.738v1.96l-20.7-20.7h1.96ZM449.998 27.438v1.96l-23.67-23.67v-1.96ZM449.998 36.138v1.96l-23.67-23.67v-1.96ZM449.998 44.838v1.96l-23.67-23.67v-1.96ZM449.998 53.538v1.95l-23.67-23.66v-1.96ZM449.998 62.228v1.96l-23.67-23.67v-1.96ZM449.998 70.928v1.96l-23.67-23.67v-1.96ZM449.998 79.628v1.96l-23.67-23.67v-1.96ZM449.998 88.328v1.96l-23.67-23.67v-1.96ZM449.998 97.028v1.96l-23.67-23.67v-1.96ZM449.998 105.728v1.96l-23.67-23.67v-1.96ZM449.998 114.428v1.96l-23.67-23.67v-1.96ZM449.998 123.118v1.96l-23.67-23.67v-1.95ZM449.998 131.818v1.96l-23.67-23.67v-1.96ZM449.998 140.518v1.96l-23.67-23.67v-1.96ZM449.998 149.218v1.96l-23.67-23.67v-1.96ZM449.998 157.918v1.96l-23.67-23.67v-1.96ZM449.998 166.618v1.96l-23.67-23.67v-1.96ZM449.998 175.318v1.96l-23.67-23.67v-1.96ZM449.998 184.018v1.95l-23.67-23.67v-1.95ZM449.998 192.708v1.96l-23.67-23.67v-1.96ZM449.998 201.408v1.96l-23.67-23.67v-1.96ZM449.998 210.108v1.96l-23.67-23.67v-1.96ZM449.998 218.808v1.96l-23.67-23.67v-1.96ZM449.998 227.508v1.96l-23.67-23.67v-1.96ZM449.998 236.208v1.96l-23.67-23.67v-1.96ZM449.998 244.908v1.95l-23.67-23.67v-1.95ZM449.998 253.598v1.96l-23.67-23.67v-1.96ZM449.998 262.298v1.96l-23.67-23.67v-1.96ZM449.998 270.998v1.96l-23.67-23.67v-1.96ZM449.998 279.698v1.96l-23.67-23.67v-1.96ZM449.998 288.398v1.96l-23.67-23.67v-1.96ZM449.998 297.098v1.96l-23.67-23.67v-1.96ZM444.198 299.998h-1.95l-15.92-15.92v-1.95ZM426.328 290.818l9.18 9.18h-1.96l-7.22-7.22ZM426.808 299.998h-.48v-.48Z"/></g><path d="m259.829 34.022-.029 6.401-3.99-6.4h-2.075v9.55h1.972l.02-6.392 3.98 6.391h2.093v-9.55Zm-9.158 0v9.55h2.112v-9.55Zm-3.046 0v3.654h-3.869v-3.654h-2.112v9.55h2.112v-4.12h3.869v4.12h2.093v-9.55Zm-6.672 5.402a2.7 2.7 0 0 0-.804-.832 3.5 3.5 0 0 0-.953-.43 4.4 4.4 0 0 0-.73-.206L237 37.583a5 5 0 0 1-.86-.3c-.215-.093-.346-.205-.42-.317a.95.95 0 0 1-.103-.458c0-.206.046-.364.13-.504.085-.131.206-.243.328-.328a1.4 1.4 0 0 1 .477-.196c.167-.028.336-.056.504-.056.261 0 .505.028.72.075.214.037.41.121.579.224.168.112.308.252.392.449.112.177.187.42.197.7h2.028c0-.55-.094-1.018-.319-1.401a2.6 2.6 0 0 0-.84-.963 3.5 3.5 0 0 0-1.233-.542 6 6 0 0 0-1.43-.168c-.421 0-.851.056-1.28.168-.43.122-.814.3-1.15.542a2.8 2.8 0 0 0-.832.906c-.206.356-.308.776-.308 1.272 0 .439.084.812.233 1.12.187.3.393.571.673.758.262.215.57.383.906.504.328.122.673.244 1.038.327.336.103.691.187 1.027.271.337.084.636.169.907.272.271.112.476.252.645.401.177.168.252.374.252.636 0 .233-.056.439-.187.607-.121.15-.27.252-.458.364a2.4 2.4 0 0 1-.617.168 3.4 3.4 0 0 1-.607.047c-.261 0-.532-.028-.794-.093a2.3 2.3 0 0 1-.673-.3c-.196-.14-.336-.336-.458-.56-.121-.215-.168-.486-.168-.813h-2.047c-.009.589.104 1.094.328 1.533.224.42.523.775.906 1.046.374.28.813.477 1.299.598.504.14 1.01.206 1.532.206q.982 0 1.71-.224c.514-.15.916-.365 1.253-.626.336-.28.598-.598.766-.982.168-.364.243-.775.243-1.214 0-.533-.112-.972-.336-1.308m-10.607-5.402h-2.14l-3.588 9.43v-9.429h-2.953l-2.12 6.56-2.253-6.56h-2.943v9.55h1.962l.028-6.7 2.336 6.7h1.617l2.383-6.766v6.765h4.018l.757-2.13h3.57l.719 2.13h2.186Zm-2.354 5.85 1.27-3.495 1.206 3.495Zm-14.353-.448a2.7 2.7 0 0 0-.804-.832 3.5 3.5 0 0 0-.934-.43 5 5 0 0 0-.748-.206l-1.448-.373a4.5 4.5 0 0 1-.878-.3c-.207-.093-.347-.205-.412-.317-.075-.122-.103-.271-.103-.458 0-.206.037-.364.122-.504q.14-.198.336-.328c.15-.102.299-.158.458-.196.177-.028.346-.056.523-.056.252 0 .486.028.71.075.215.037.412.121.598.224.15.112.29.252.383.449.113.177.169.42.197.7h2.037c0-.55-.122-1.018-.336-1.401a2.54 2.54 0 0 0-.841-.963 3.5 3.5 0 0 0-1.233-.542 6 6 0 0 0-1.43-.168c-.43 0-.851.056-1.28.168-.422.122-.805.3-1.15.542a2.65 2.65 0 0 0-.823.906c-.215.356-.308.776-.308 1.272 0 .439.075.812.243 1.12.168.3.383.571.645.758.262.215.58.383.915.504.337.122.692.244 1.047.327.346.103.691.187 1.018.271.346.084.655.169.916.272.262.112.477.252.645.401.168.168.243.374.243.636 0 .233-.046.439-.177.607-.131.15-.29.252-.468.364a2.2 2.2 0 0 1-.607.168 3.4 3.4 0 0 1-.598.047c-.271 0-.542-.028-.804-.093a2.3 2.3 0 0 1-.682-.3 1.6 1.6 0 0 1-.449-.56c-.121-.215-.177-.486-.177-.813h-2.028c-.019.589.094 1.094.318 1.533.215.42.514.775.888 1.046q.575.418 1.317.598c.505.14 1.01.206 1.542.206.654 0 1.206-.075 1.71-.224.495-.15.907-.365 1.243-.626.346-.28.589-.598.757-.982a2.9 2.9 0 0 0 .252-1.215c0-.532-.112-.971-.345-1.307m56.534-.094-2.803.458 1.289 1.29 1.075-.169a3.05 3.05 0 0 1-2.99 1.01 3.04 3.04 0 0 1-2.327-2.364 3.043 3.043 0 0 1 2.99-3.654c1.046 0 1.972.532 2.523 1.345l1.813-.58c-.832-1.55-2.458-2.616-4.336-2.616a4.903 4.903 0 0 0-4.812 5.822 4.86 4.86 0 0 0 3.55 3.794 4.91 4.91 0 0 0 4.719-1.262l-.121.757 1.299 1.3.457-2.795.459-2.794ZM202.326 47.888l-3.733-16.13c-.31-1.309-1.615-2.132-2.92-1.826l-2.727.626c.311.053.624.104.93.176 1.215.273 2.384.689 3.506 1.26l-1.557 4.205c-1.183-1.006-2.837-1.514-4.953-1.514-1.89 0-2.842.75-2.842 2.26q.002.885.934 1.596c.625.478 1.943 1.123 3.99 1.93 1.399.544 2.515 1.17 3.37 1.871.406.328.753.68 1.045 1.034.889 1.144 1.341 2.521 1.341 4.147 0 1.57-.435 2.904-1.298 3.994l3.09-.71a2.435 2.435 0 0 0 1.824-2.92M188.401 43.72c-1.095-.449-2.039-.956-2.827-1.503-2.118-1.483-3.184-3.294-3.184-5.472 0-1.444.4-2.657 1.188-3.636.147-.168.29-.34.458-.498l-4.518 1.048a2.43 2.43 0 0 0-1.824 2.916l3.742 16.129a2.425 2.425 0 0 0 2.912 1.818l1.858-.422-.154-.033c-.923-.247-2.101-.765-3.58-1.548l1.933-4.309c1.625 1.29 3.458 1.93 5.488 1.93 2.124 0 3.177-.752 3.177-2.252 0-.88-.319-1.611-.948-2.17-.641-.564-1.887-1.228-3.72-1.997M210.9 46.918l-1.831 4.672-1.85-4.672h-.738v5.326h.505v-4.597h.019l1.821 4.597h.476l1.823-4.597h.019v4.597h.505v-5.326ZM214.713 51.814v-2.103h2.972v-.43h-2.972v-1.925h3.177v-.44h-3.682v5.326h3.72v-.43ZM220.637 51.814v-2.103h2.972v-.43h-2.972v-1.925h3.178v-.44h-3.682v5.326h3.72v-.43ZM225.478 46.918v.44h1.86v4.887h.514v-4.887h1.85v-.44ZM234.215 49.431l-1.299-.317c-.43-.103-.803-.309-.803-.813 0-.785.644-1.056 1.336-1.056.757 0 1.43.411 1.457 1.224h.505c.01-1.093-.916-1.663-1.971-1.663-1.496 0-1.832.98-1.832 1.504 0 .832.57 1.121 1.196 1.28l1.187.29c.495.122 1.103.365 1.103.962 0 .776-.851 1.085-1.412 1.085-.972 0-1.766-.337-1.738-1.43h-.514c-.056 1.299.87 1.86 2.13 1.86 1.889 0 2.038-1.15 2.038-1.515 0-.878-.626-1.205-1.383-1.41M310.326 140.363a11.54 11.54 0 0 0-2.971-5.055 11.5 11.5 0 0 0-7.794-3.402c-.14-.01-.29-.01-.439-.01h-.44v7.233c0 6.27 4.991 11.4 11.205 11.634.14.01.29.01.439.01h.44v-7.233c0-1.084-.15-2.158-.44-3.177m-.971 9.475a10.4 10.4 0 0 1-1.86-.336 11.554 11.554 0 0 1-.897-.28c-.159-.056-.309-.122-.458-.187a8 8 0 0 1-.738-.346q-.212-.098-.412-.224a10.7 10.7 0 0 1-2.756-2.252c-.103-.122-.215-.253-.318-.384a4 4 0 0 1-.308-.402 10.7 10.7 0 0 1-1.196-2.112c-.047-.111-.094-.214-.131-.326a9 9 0 0 1-.308-.925 10 10 0 0 1-.196-.766c0-.02 0-.038-.01-.057-.028-.168-.065-.336-.084-.514a10 10 0 0 1-.122-1.598v-6.345a10.65 10.65 0 0 1 7.168 3.15 10.66 10.66 0 0 1 3.158 7.606v6.336a10 10 0 0 1-.532-.037"/><path d="M321.53 131.897c-.15 0-.29 0-.439.01-5.13.186-9.41 3.709-10.765 8.456a11.5 11.5 0 0 0-.439 3.177v7.233h.439c.15 0 .3 0 .44-.01 6.213-.233 11.204-5.363 11.204-11.633v-7.233Zm-.439 7.233c0 .542-.037 1.074-.121 1.597-.02.178-.057.346-.084.514-.01.02-.01.038-.01.057q-.084.39-.196.766a9 9 0 0 1-.308.925c-.038.112-.085.215-.131.327-.318.747-.72 1.458-1.196 2.112a4 4 0 0 1-.308.402c-.104.13-.216.261-.318.383a10.7 10.7 0 0 1-2.756 2.252 3.5 3.5 0 0 1-.412.224 8 8 0 0 1-.738.346q-.223.1-.458.187c-.178.065-.355.121-.533.177q-.183.059-.364.103c-.608.168-1.224.28-1.86.336-.178.019-.355.028-.533.038v-6.336c0-5.784 4.589-10.522 10.326-10.755Z"/><path d="M318.559 106.601a11.54 11.54 0 0 0-8.233-3.42c-6.42 0-11.643 5.224-11.643 11.643v24.305c0 6.27 4.99 11.4 11.204 11.634.14.01.29.01.439.01s.3 0 .44-.01c6.213-.233 11.204-5.363 11.204-11.633v-24.305c0-3.112-1.215-6.037-3.411-8.224m2.532 32.529c0 .542-.037 1.074-.121 1.597-.02.178-.057.346-.084.514-.01.02-.01.038-.01.057q-.084.39-.196.766a9 9 0 0 1-.308.925c-.038.112-.085.215-.131.327-.318.747-.72 1.458-1.196 2.112a4 4 0 0 1-.308.402 4 4 0 0 1-.318.383 10.7 10.7 0 0 1-2.756 2.252 3.5 3.5 0 0 1-.412.224 8 8 0 0 1-.738.346q-.223.1-.458.187c-.178.065-.355.121-.533.177-.122.038-.243.075-.364.103-.608.168-1.224.28-1.86.336-.178.019-.355.028-.533.038-.14.01-.29.01-.439.01s-.299 0-.439-.01a10 10 0 0 1-.532-.037 10.4 10.4 0 0 1-1.86-.336q-.183-.045-.365-.104a12 12 0 0 1-.532-.177c-.159-.056-.309-.122-.458-.187a8 8 0 0 1-.738-.346q-.212-.098-.412-.224a10.7 10.7 0 0 1-2.756-2.252 4 4 0 0 1-.318-.383 4 4 0 0 1-.308-.402 10.7 10.7 0 0 1-1.196-2.112c-.047-.112-.094-.215-.131-.327a9 9 0 0 1-.308-.925 10 10 0 0 1-.196-.766c0-.02 0-.038-.01-.057-.028-.168-.065-.336-.084-.514a10 10 0 0 1-.122-1.598v-24.305c0-5.933 4.832-10.755 10.765-10.755 2.878 0 5.579 1.121 7.607 3.15a10.67 10.67 0 0 1 3.158 7.606Z"/><path d="M309.886 150.328h.883v18.984h-.883ZM337.051 140.942c-4.905 0-8.896 3.99-8.896 8.887v.103l.029.467c.27 4.514 3.934 8.092 8.419 8.317h.028c.13.009.27.009.402.009h.037c.14 0 .29 0 .43-.01h.019c4.476-.233 8.13-3.812 8.4-8.316l.02-.252c.008-.066.008-.14.008-.215v-.103c0-4.897-3.99-8.887-8.896-8.887m7.99 9.4c-.01.16-.028.328-.047.487 0 .01 0 .028-.009.037-.019.215-.056.42-.103.626 0 .019 0 .028-.01.038a4.5 4.5 0 0 1-.159.607 7.6 7.6 0 0 1-.794 1.804c-.064.102-.12.205-.195.308a7.8 7.8 0 0 1-1.187 1.41 7.7 7.7 0 0 1-1.065.85c-.187.132-.383.244-.59.347a4 4 0 0 1-.617.308 6 6 0 0 1-.56.224c-.046.02-.084.029-.121.048-.187.055-.374.112-.56.158q-.423.113-.86.168a4.5 4.5 0 0 1-.607.065c-.038 0-.085.01-.122.01-.122.01-.243.01-.365.01h-.037c-.122 0-.243 0-.365-.01-.037 0-.084-.01-.121-.01a4.5 4.5 0 0 1-.607-.065 7 7 0 0 1-.86-.168c-.187-.046-.374-.103-.56-.158-.038-.02-.076-.029-.122-.047a6 6 0 0 1-.56-.224 4 4 0 0 1-.617-.308 5 5 0 0 1-.589-.346c-.187-.132-.374-.262-.552-.403a8.233 8.233 0 0 1-1.29-1.29c-.065-.083-.14-.176-.196-.27-.084-.094-.149-.196-.214-.299a2 2 0 0 1-.197-.318 7 7 0 0 1-.766-1.71.4.4 0 0 1-.047-.15 4 4 0 0 1-.131-.505.3.3 0 0 1-.019-.084 4 4 0 0 1-.094-.57c-.008-.027-.017-.055-.017-.083q-.032-.252-.047-.505c-.019-.112-.019-.233-.019-.383v-.112c0-4.41 3.589-8.008 8.008-8.008s8.009 3.597 8.009 8.008v.112c0 .15 0 .271-.019.402"/><path d="M337.472 158.286v-.028c-.01-.14-.019-.28-.037-.42a8.5 8.5 0 0 0-.383-1.775 8.92 8.92 0 0 0-8.008-6.12c-.14-.011-.281-.011-.421-.011h-.467l.028.467c.27 4.514 3.934 8.092 8.419 8.317h.028c.13.009.27.009.402.009h.467v-.01Zm-1.532-.524a7 7 0 0 1-.86-.168c-.187-.046-.374-.103-.56-.158-.038-.02-.076-.029-.122-.047a6 6 0 0 1-.56-.224 6 6 0 0 1-.617-.308 6 6 0 0 1-.589-.346c-.187-.132-.374-.262-.552-.403a8.233 8.233 0 0 1-1.29-1.29c-.065-.083-.14-.176-.196-.27-.084-.094-.149-.196-.214-.299a2 2 0 0 1-.197-.318 7 7 0 0 1-.766-1.71.4.4 0 0 1-.047-.15 4 4 0 0 1-.131-.505.3.3 0 0 1-.019-.084 4 4 0 0 1-.094-.57c-.008-.027-.017-.055-.017-.083 3.831.243 6.97 3.196 7.438 6.999a4.5 4.5 0 0 1-.607-.065"/><path d="M345.48 149.932c-.14 0-.28 0-.42.01a8.92 8.92 0 0 0-8.009 6.12 8.5 8.5 0 0 0-.383 1.775q-.025.21-.037.42v.028l-.028.43v.01h.467c.14 0 .29 0 .43-.01h.019c4.476-.233 8.13-3.812 8.4-8.316l.02-.252.018-.215Zm-.495.934c-.019.215-.056.42-.103.626 0 .019 0 .028-.01.038a4.5 4.5 0 0 1-.159.607 7.6 7.6 0 0 1-.794 1.804c-.064.102-.12.205-.195.308a7.8 7.8 0 0 1-1.187 1.41 7.7 7.7 0 0 1-1.065.85 6 6 0 0 1-.589.346 6 6 0 0 1-.617.308 6 6 0 0 1-.56.224c-.047.02-.085.03-.122.049-.187.055-.374.112-.56.158q-.423.112-.86.168a6 6 0 0 1-.607.065c.466-3.802 3.616-6.755 7.437-6.998 0 .01 0 .028-.009.037"/><path d="M336.632 158.286h.883v12.207h-.883ZM345.577 196.656v-.882c7.87 0 14.273-6.403 14.273-14.274v-14.697h.883V181.5c0 8.357-6.799 15.156-15.156 15.156"/><path d="M364.833 159.495c0 3.533-1.802 6.647-4.54 8.472-2.736-1.82-4.543-4.935-4.543-8.472s1.807-6.652 4.544-8.472a10.17 10.17 0 0 1 4.54 8.472"/></g><path fill="#e2eee7" d="M360.067 154.598h.45v13.369h-.45Z"/><path fill="#325b43" d="M296.318 163.466a10.17 10.17 0 0 1-8.472-4.54c1.82-2.736 4.935-4.543 8.472-4.543s6.652 1.807 8.472 4.544a10.17 10.17 0 0 1-8.472 4.54"/><path fill="#e2eee7" d="M287.846 158.7h13.369v.45h-13.369Z"/><path fill="#325b43" d="M276.552 169.337h-.883v-10.854h13.14v.882h-12.258ZM339.648 103.705q.095 0 .154.052c.059.052.058.088.058.16q0 .15-.096.384a1.3 1.3 0 0 1-.325.448q-.23.215-.61.373c-.38.158-.57.157-.954.157q-.568 0-.979-.191a1.9 1.9 0 0 1-.677-.52q-.267-.33-.394-.774c-.127-.444-.126-.615-.126-.958q0-.486.147-.924c.147-.438.24-.547.428-.766a2.05 2.05 0 0 1 .691-.523q.41-.196.938-.196.553 0 .927.171.372.171.599.414a1.54 1.54 0 0 1 .424.961q0 .288-.274.288a.3.3 0 0 1-.219-.075.56.56 0 0 1-.137-.232q-.177-.467-.475-.716-.298-.25-.798-.25-.458 0-.739.154c-.28.154-.342.23-.465.38q-.068.082-.14.198-.072.117-.134.281c-.062.164-.074.238-.099.384a3 3 0 0 0-.038.5q0 .464.124.814.123.348.338.584.216.237.496.353.28.117.603.116.343 0 .574-.068c.231-.068.286-.104.39-.174s.191-.151.257-.24.124-.177.175-.264a1 1 0 0 1 .175-.24.27.27 0 0 1 .181-.062"/><path fill="#325b43" d="M342.823 100.448q.472 0 .883.147.41.148.715.448.304.3.475.753.172.451.172 1.068 0 .492-.134.937a2.1 2.1 0 0 1-.414.773 1.9 1.9 0 0 1-.725.517q-.445.189-1.061.174-.486-.013-.873-.191c-.387-.178-.476-.283-.657-.493s-.318-.456-.414-.739a2.9 2.9 0 0 1-.144-.93q0-.495.117-.89c.117-.395.214-.52.41-.767q.137-.171.302-.318a1.9 1.9 0 0 1 .811-.428q.242-.06.537-.061m.096 4.284q.397 0 .69-.154.295-.154.487-.407c.192-.253.222-.362.284-.579q.092-.324.092-.667 0-.465-.123-.821a1.75 1.75 0 0 0-.339-.599 1.4 1.4 0 0 0-.513-.366 1.7 1.7 0 0 0-.64-.123q-.246 0-.414.034a1.039 1.039 0 0 0-.513.256s-.134.13-.202.203a1.5 1.5 0 0 0-.311.472s-.088.239-.12.39q-.048.225-.048.52 0 .465.133.81c.133.346.21.423.36.576q.225.229.53.342.304.113.647.113M345.625 106.408q-.102 0-.156-.052c-.054-.052-.055-.082-.055-.14q0-.063.015-.113c.015-.05.03-.069.061-.105s.077-.077.137-.12.14-.097.243-.159q.382-.232.637-.402.255-.169.404-.314c.15-.145.17-.19.211-.283s.062-.198.062-.318q0-.338-.176-.512c-.176-.174-.27-.173-.461-.173a.7.7 0 0 0-.492.169q-.189.168-.229.533 0 .097-.059.152-.06.054-.151.054c-.091 0-.11-.02-.145-.059s-.053-.097-.053-.173q0-.198.072-.38c.072-.182.12-.23.214-.325q.14-.142.353-.226t.49-.084q.51 0 .775.25c.265.25.265.393.265.677q0 .184-.043.342-.044.158-.137.3c-.093.141-.14.182-.237.267q-.144.127-.347.255-.135.083-.241.151l-.369.235s-.114.07-.176.106l-.083.048q-.04.022-.04.04 0 .012.035.012h.44q.158 0 .333-.002l.332-.002h.415q.093 0 .127.035.036.035.035.132 0 .084-.035.134c-.035.05-.065.05-.127.05ZM339.79 90.968l.084.71a12 12 0 0 1 2.832 0l.083-.71a13 13 0 0 0-3 0m-2.906.71c-.935.355-1.832.822-2.655 1.392l.402.59a11.4 11.4 0 0 1 2.504-1.317Zm8.82.01-.252.663c.879.336 1.72.785 2.495 1.318l.402-.58a12 12 0 0 0-2.644-1.402m-13.726 3.373a12.4 12.4 0 0 0-1.71 2.457l.635.337c.44-.841.981-1.617 1.607-2.327Zm18.614.01-.533.476c.626.71 1.168 1.485 1.607 2.327l.626-.337a12.6 12.6 0 0 0-1.7-2.467m-21.39 5.25a12.6 12.6 0 0 0-.365 2.971h.71c.01-.942.122-1.886.346-2.802Zm24.156.02-.692.177c.225.906.337 1.85.337 2.794v.056h.72v-.047c-.001-1.009-.122-2.009-.365-2.98m-23.474 5.756-.691.168c.233.981.589 1.925 1.056 2.813l.626-.328c-.43-.84-.766-1.728-.99-2.653m22.773.074c-.224.916-.57 1.804-1.01 2.636l.627.336c.467-.888.832-1.832 1.074-2.803Zm-20.175 4.906-.533.467c.664.748 1.412 1.42 2.234 1.991l.411-.58a12 12 0 0 1-2.112-1.878m17.55.047a11.8 11.8 0 0 1-2.121 1.869l.4.589c.823-.57 1.58-1.234 2.253-1.981Zm-12.943 3.149-.252.664c.934.364 1.906.607 2.906.729l.084-.71a11.5 11.5 0 0 1-2.738-.682m8.316.028c-.887.337-1.812.56-2.747.664l.084.71c.99-.122 1.972-.355 2.907-.71Z"/><circle cx="310.63" cy="76.721" r="20.935" fill="#325b43"/><path fill="#e2eee7" d="M302.739 78.857c-2.879 0-5.206 2.336-5.206 5.205s2.327 5.205 5.206 5.205c2.868 0 5.204-2.336 5.204-5.205s-2.336-5.205-5.204-5.205m0 9.821a4.62 4.62 0 0 1-4.626-4.616c0-2.541 2.075-4.616 4.626-4.616a4.626 4.626 0 0 1 4.616 4.616 4.62 4.62 0 0 1-4.616 4.616M310.392 67.737c-2.159 0-3.925 1.757-3.925 3.925a3.93 3.93 0 0 0 7.859 0s-1.766-3.925-3.934-3.925m0 7.41a3.483 3.483 0 0 1-3.476-3.485 3.49 3.49 0 0 1 3.476-3.485 3.485 3.485 0 1 1 0 6.971M297.823 69.373a2.752 2.752 0 0 0 0 5.504s2.747-1.234 2.747-2.748a2.754 2.754 0 0 0-2.747-2.757m0 4.915a2.16 2.16 0 0 1-2.159-2.159c0-1.196.963-2.168 2.16-2.168 1.196 0 2.158.972 2.158 2.168a2.16 2.16 0 0 1-2.159 2.159"/><path fill="#325b43" d="m340.367 131.75 6.589-.845 1.096-6.551.845 6.588 6.552 1.096-6.589.846-1.096 6.55-.845-6.587ZM286.463 43.634l6.588-.846 1.097-6.55.845 6.588 6.551 1.096-6.588.845-1.097 6.551-.845-6.588ZM360.682 91.892h.868v23.41h-.868Z"/><path fill="#325b43" d="m357.567 112.426.636-.592 2.912 3.134 2.914-3.134.635.592-3.549 3.817ZM160.944 164.631h.882v5.698h-.882ZM165.927 156.045c0 3.532-1.802 6.647-4.54 8.472-2.736-1.82-4.543-4.935-4.543-8.472s1.807-6.652 4.544-8.472a10.17 10.17 0 0 1 4.54 8.472"/><path fill="#e2eee7" d="M161.16 151.148h.45v13.369h-.45Z"/><path fill="#325b43" d="M92.923 222.724h.618v3.99h-.618Z"/><path fill="#325b43" d="M96.412 216.711a7.12 7.12 0 0 1-3.179 5.933c-1.916-1.275-3.181-3.456-3.181-5.933s1.265-4.658 3.182-5.933a7.12 7.12 0 0 1 3.179 5.933"/><path fill="#e2eee7" d="M93.075 213.282h.315v9.362h-.315Z"/><g fill="#62b183" opacity=".38"><path d="M210.605 161.793h-4.48l-2.488-3.812c-3.483 3.697-7.838 5.198-15.552 5.198-11.198 0-18.414-5.892-18.414-17.79V91.323c0-13.17 7.963-19.755 20.28-19.755 11.322 0 18.414 4.158 18.414 19.87 0 4.274-.373 8.318-.87 11.321l-12.567-.924c.373-2.542.747-4.852.747-8.78 0-8.433-1.991-9.704-4.728-9.704-3.733 0-4.728 1.848-4.728 5.891v57.3c0 3.35 1.368 5.084 4.603 5.084 2.613 0 3.982-1.733 3.982-5.083V119.28h15.801ZM264.357 143.54c0 14.556-9.332 19.639-20.405 19.639-11.322 0-20.903-5.43-20.903-19.639V91.207c0-14.44 9.705-19.638 20.903-19.638s20.405 5.083 20.405 19.639Zm-16.424-55.336c0-3.466-2.115-4.852-4.105-4.852-2.489 0-4.23 1.386-4.23 4.852v58.224c0 3.35 1.617 4.852 4.354 4.852 2.488 0 3.981-1.386 3.981-4.736Z"/></g><g fill="#62b183" opacity=".38"><path d="M123.735 219.876v27.267c0 .598-.047 1.14-.131 1.626-.392 2.28-1.7 3.457-3.85 3.457-3.233 0-4.598-1.738-4.598-5.083v-57.3c0-2.85.486-4.608 2.084-5.393.673-.336 1.533-.504 2.645-.504 2.738 0 4.728 1.27 4.728 9.7 0 3.934-.373 6.242-.747 8.783l3.476.253 2.037.15 7.055.522c.224-1.326.42-2.85.56-4.522.197-2.094.31-4.411.31-6.803 0-15.708-7.094-19.867-18.419-19.867-5.224 0-9.662 1.187-13.045 3.56a15.2 15.2 0 0 0-3.71 3.663c-2.28 3.15-3.523 7.318-3.523 12.532v54.068c0 10.895 6.056 16.763 15.68 17.66.88.094 1.785.131 2.73.131 7.718 0 12.072-1.504 15.558-5.195l2.485 3.812h4.486v-42.518ZM193.155 257.833c-.42-2.7-.607-5.896-.607-11.036v-6.7c0-5.663-.748-16.063-7.962-20.334 1.458-.663 2.7-1.42 3.748-2.28 2.149-1.747 3.513-3.924 4.354-6.662 1.112-3.551 1.355-8.065 1.355-13.82 0-16.288-7.092-23.334-20.408-23.334h-20.651v88.95h16.54v-36.275h2.364c1.999 0 3.99 1.392 4.232 14.67.13 5.664.13 8.551.374 16.298.121 1.84.495 3.69 1.243 5.307h16.427c-.43-1.635-.766-3.111-1.009-4.784m-23.632-43.854v-28.071h2.243c3.607 0 6.101 1.85 6.101 13.4 0 5.476-.532 9.027-1.466 11.251-1.094 2.617-2.748 3.42-4.757 3.42ZM223.151 250.142v-27.146h14.063v-12.475h-14.063v-24.613h16.923v-12.241h-33.472v88.726h33.603v-12.25ZM269.191 250.142v-27.146h14.064v-12.475h-14.064v-24.613h16.923v-12.241h-33.472v88.726h33.594v-12.25ZM323.193 173.667v39.397l-10.577-39.397h-13.933v88.95h13.68v-45.63l1.682 6.225 10.186 37.714.458 1.691h12.185v-88.95Z"/></g><path fill="#325b43" d="M214.6 114.058h-15.652V99.602l6.963 6.654 14.156.803c.374-2.869 1-7.233 1-11.82 0-12.634-5.597-21.474-18.016-26.978-2.728-1.262-6.083-1.608-9.812-1.608-10.456 0-17.848 4.598-20.193 13.615a8 8 0 0 0-.168.7c-.42 1.823-.636 3.833-.636 6v53.721c0 5.748 1.617 10.336 4.598 13.317 10.185 10.223 14.287 13.092 22.483 13.092 5.466 0 11.802-2.411 14.045-4.476l3.102 3.214h6.952v-43.508Zm-1.485 42.247h-3.355l-2.728-4.243c-3.355 4.019-7.579 5.626-15.652 5.626-10.69 0-17.643-5.514-17.643-16.998V86.969c0-12.737 7.579-18.942 19.502-18.942 10.934 0 17.643 3.794 17.643 19.054 0 4.251-.374 8.27-.748 10.568l-11.054-.803c.243-1.841.617-4.252.617-8.158 0-8.373-1.982-10.326-5.467-10.326-4.345 0-5.467 2.411-5.467 6.541v56.936c0 3.56 1.617 5.747 5.346 5.747 3.233 0 4.718-2.298 4.718-5.747v-26.398h14.288ZM247.026 78.362c-2.98 0-4.971 1.72-4.971 5.513v57.852c0 3.673 1.869 5.514 5.093 5.514 2.98 0 4.719-1.841 4.719-5.402V83.875c0-3.793-2.355-5.513-4.84-5.513m0 0c-2.98 0-4.971 1.72-4.971 5.513v57.852c0 3.673 1.869 5.514 5.093 5.514 2.98 0 4.719-1.841 4.719-5.402V83.875c0-3.793-2.355-5.513-4.84-5.513m0 0c-2.98 0-4.971 1.72-4.971 5.513v57.852c0 3.673 1.869 5.514 5.093 5.514 2.98 0 4.719-1.841 4.719-5.402V83.875c0-3.793-2.355-5.513-4.84-5.513m0 0c-2.98 0-4.971 1.72-4.971 5.513v57.852c0 3.673 1.869 5.514 5.093 5.514 2.98 0 4.719-1.841 4.719-5.402V83.875c0-3.793-2.355-5.513-4.84-5.513m0 0c-2.98 0-4.971 1.72-4.971 5.513v57.852c0 3.673 1.869 5.514 5.093 5.514 2.98 0 4.719-1.841 4.719-5.402V83.875c0-3.793-2.355-5.513-4.84-5.513m0 0c-2.98 0-4.971 1.72-4.971 5.513v57.852c0 3.673 1.869 5.514 5.093 5.514 2.98 0 4.719-1.841 4.719-5.402V83.875c0-3.793-2.355-5.513-4.84-5.513m0 0c-2.98 0-4.971 1.72-4.971 5.513v57.852c0 3.673 1.869 5.514 5.093 5.514 2.98 0 4.719-1.841 4.719-5.402V83.875c0-3.793-2.355-5.513-4.84-5.513m0 0c-2.98 0-4.971 1.72-4.971 5.513v57.852c0 3.673 1.869 5.514 5.093 5.514 2.98 0 4.719-1.841 4.719-5.402V83.875c0-3.793-2.355-5.513-4.84-5.513m12.793-8.728c-3.476-2.065-7.952-2.98-12.671-2.98-11.55 0-21.614 5.391-21.614 20.202v52.002c0 6.43 1.869 11.13 5.093 14.344 12.054 12.288 16.4 13.896 25.22 13.896 11.429 0 21.24-6.317 21.24-21.24V94.893c0-9.644-4.597-17.914-17.268-25.259m6.962 69.224c0 14.008-8.821 18.83-19.633 18.83-11.055 0-20.119-5.168-20.119-18.83V86.856c0-13.895 9.186-18.829 20.119-18.829s19.633 4.822 19.633 18.83Zm-19.755-60.496c-2.98 0-4.971 1.72-4.971 5.513v57.852c0 3.673 1.869 5.514 5.093 5.514 2.98 0 4.719-1.841 4.719-5.402V83.875c0-3.793-2.355-5.513-4.84-5.513m0 0c-2.98 0-4.971 1.72-4.971 5.513v57.852c0 3.673 1.869 5.514 5.093 5.514 2.98 0 4.719-1.841 4.719-5.402V83.875c0-3.793-2.355-5.513-4.84-5.513m0 0c-2.98 0-4.971 1.72-4.971 5.513v57.852c0 3.673 1.869 5.514 5.093 5.514 2.98 0 4.719-1.841 4.719-5.402V83.875c0-3.793-2.355-5.513-4.84-5.513m0 0c-2.98 0-4.971 1.72-4.971 5.513v57.852c0 3.673 1.869 5.514 5.093 5.514 2.98 0 4.719-1.841 4.719-5.402V83.875c0-3.793-2.355-5.513-4.84-5.513m0 0c-2.98 0-4.971 1.72-4.971 5.513v57.852c0 3.673 1.869 5.514 5.093 5.514 2.98 0 4.719-1.841 4.719-5.402V83.875c0-3.793-2.355-5.513-4.84-5.513m0 0c-2.98 0-4.971 1.72-4.971 5.513v57.852c0 3.673 1.869 5.514 5.093 5.514 2.98 0 4.719-1.841 4.719-5.402V83.875c0-3.793-2.355-5.513-4.84-5.513m0 0c-2.98 0-4.971 1.72-4.971 5.513v57.852c0 3.673 1.869 5.514 5.093 5.514 2.98 0 4.719-1.841 4.719-5.402V83.875c0-3.793-2.355-5.513-4.84-5.513M142.994 215.353h-15.652v-14.465l2.037 1.943 4.925 4.72 14.157.803c.373-2.869.99-7.233.99-11.82 0-12.635-5.588-21.475-18.007-26.979-2.738-1.261-6.092-1.607-9.812-1.607-9.587 0-16.586 3.86-19.502 11.438-.98 2.541-1.495 5.504-1.495 8.877v53.722c0 5.747 1.617 10.335 4.598 13.316 3.644 3.653 6.503 6.373 9.055 8.344 4.588 3.56 8.167 4.747 13.427 4.747 5.467 0 11.803-2.41 14.036-4.476l3.103 3.215h6.961v-43.508Zm-1.486 42.246h-3.355l-2.737-4.251c-3.355 4.018-7.579 5.625-15.652 5.625-10.681 0-17.634-5.504-17.634-16.988v-53.722c0-5.308 1.308-9.485 3.71-12.54 3.355-4.29 8.83-6.401 15.792-6.401 10.924 0 17.633 3.784 17.633 19.053 0 4.252-.374 8.27-.747 10.569l-1.523-.112-9.532-.692c.252-1.84.626-4.251.626-8.158 0-8.372-1.99-10.325-5.466-10.325-3.691 0-5.056 1.738-5.383 4.793a17 17 0 0 0-.084 1.748v56.936c0 3.56 1.617 5.738 5.345 5.738.393 0 .757-.038 1.103-.103 2.467-.477 3.616-2.607 3.616-5.635v-26.398h14.288ZM174.42 181.61h-2.98v29.267h2.86c.764 0 1.465-.094 2.1-.318 3.215-1.093 4.85-5.186 4.85-14.951 0-11.363-2.485-13.998-6.83-13.998m0 0h-2.98v29.267h2.86c.764 0 1.465-.094 2.1-.318 3.215-1.093 4.85-5.186 4.85-14.951 0-11.363-2.485-13.998-6.83-13.998m0 0h-2.98v29.267h2.86c.764 0 1.465-.094 2.1-.318 3.215-1.093 4.85-5.186 4.85-14.951 0-11.363-2.485-13.998-6.83-13.998m0 0h-2.98v29.267h2.86c.764 0 1.465-.094 2.1-.318 3.215-1.093 4.85-5.186 4.85-14.951 0-11.363-2.485-13.998-6.83-13.998m0 0h-2.98v29.267h2.86c.764 0 1.465-.094 2.1-.318 3.215-1.093 4.85-5.186 4.85-14.951 0-11.363-2.485-13.998-6.83-13.998m0 0h-2.98v29.267h2.86c.764 0 1.465-.094 2.1-.318 3.215-1.093 4.85-5.186 4.85-14.951 0-11.363-2.485-13.998-6.83-13.998m0 0h-2.98v29.267h2.86c.764 0 1.465-.094 2.1-.318 3.215-1.093 4.85-5.186 4.85-14.951 0-11.363-2.485-13.998-6.83-13.998m0 0h-2.98v29.267h2.86c.764 0 1.465-.094 2.1-.318 3.215-1.093 4.85-5.186 4.85-14.951 0-11.363-2.485-13.998-6.83-13.998m30.182 69.336v-8.961c0-9.298-1.738-15.606-8.438-20.661 6.084-2.981 9.934-8.728 9.934-21.576 0-12.747-6.458-19.063-16.774-26.866-3.224-2.41-7.7-3.448-13.036-3.448h-21.371v89.539l3.944 3.644 4.878 4.514h17.885v-6.429l2.15 1.915 5.055 4.514h17.521c-1.243-4.476-1.748-7.233-1.748-16.185m-18.997-35.135c1.018.439 1.925 1.009 2.729 1.672 5.42 4.476 6.083 13.354 6.083 18.652v6.653c0 8.27.504 11.597 1.373 15.045h-14.914c-.495-1.15-.869-2.878-.99-4.597-.243-7.69-.243-10.56-.374-16.185-.243-12.858-2.112-15.27-4.971-15.27h-3.102v36.051h-15.026v-87.016h19.876c12.792 0 19.623 6.542 19.623 22.502 0 8.261-.505 13.737-3.224 17.503-1.532 2.149-3.794 3.737-7.083 4.99m-11.186-34.201h-2.98v29.267h2.86c.765 0 1.466-.094 2.102-.318 3.214-1.093 4.85-5.186 4.85-14.951 0-11.363-2.486-13.998-6.832-13.998m0 0h-2.98v29.267h2.86c.765 0 1.466-.094 2.102-.318 3.214-1.093 4.85-5.186 4.85-14.951 0-11.363-2.486-13.998-6.832-13.998m0 0h-2.98v29.267h2.86c.765 0 1.466-.094 2.102-.318 3.214-1.093 4.85-5.186 4.85-14.951 0-11.363-2.486-13.998-6.832-13.998m0 0h-2.98v29.267h2.86c.765 0 1.466-.094 2.102-.318 3.214-1.093 4.85-5.186 4.85-14.951 0-11.363-2.486-13.998-6.832-13.998m0 0h-2.98v29.267h2.86c.765 0 1.466-.094 2.102-.318 3.214-1.093 4.85-5.186 4.85-14.951 0-11.363-2.486-13.998-6.832-13.998m0 0h-2.98v29.267h2.86c.765 0 1.466-.094 2.102-.318 3.214-1.093 4.85-5.186 4.85-14.951 0-11.363-2.486-13.998-6.832-13.998m0 0h-2.98v29.267h2.86c.765 0 1.466-.094 2.102-.318 3.214-1.093 4.85-5.186 4.85-14.951 0-11.363-2.486-13.998-6.832-13.998M243.485 245.433h-8.317v-17.568h14.035v-13.54l-8.699-8.27h-5.336V191.02h16.885v-13.428l-8.69-8.158h-34.911v89.539l3.654 3.42 4.924 4.616h35.276v-13.428Zm-1.486 12.166h-32.052v-86.782h31.921v10.793h-16.895v25.828h14.045v11.017h-14.045v28.351H242ZM289.45 245.433h-8.326v-17.568h14.035v-13.54l-8.69-8.27h-5.345V191.02h16.895v-13.428l-8.7-8.158h-34.901v89.539l3.644 3.42 4.925 4.616h35.276v-13.428Zm-1.495 12.166h-32.052v-86.782h31.93v10.793h-16.895v25.828h14.035v11.017H270.94v28.351h17.016ZM340.004 169.434h-15.157v11.708l-1.616-3.55-.038-.038-7.54-8.12h-15.278v89.539l3.999 3.644 4.821 4.392h15.036v-16.643l2.233 8.607 4 3.644 4.822 4.392h13.409v-89.306Zm-1.495 88.399h-10.802l-13.662-50.283v50.283H301.87v-87.016h12.54l8.784 32.444 3.15 11.634v-44.078h12.167Z"/><path fill="#325b43" d="M154.695 122.713a32.5 32.5 0 0 1-1.957 11.13q-.482 1.323-1.074 2.588c-.04.101-.095.21-.142.312a32 32 0 0 1-1.964 3.52c-.163.258-.326.502-.496.754-.02.027-.04.06-.068.088v.007c-4.43 6.448-11.122 11.218-18.936 13.16-2.52.633-5.164.966-7.889.966-2.37 0-4.68-.252-6.91-.741a32.35 32.35 0 0 1-14.112-6.964 32 32 0 0 1-3.207-3.126 32 32 0 0 1-3.438-4.593 28 28 0 0 1-1.155-2.025 30 30 0 0 1-1.624-3.628 32 32 0 0 1-1.576-5.72 32.4 32.4 0 0 1-.503-5.728c0-1.319.082-2.616.232-3.894a32.4 32.4 0 0 1 3.526-11.292c4.504-8.52 12.678-14.792 22.415-16.721a32.6 32.6 0 0 1 6.353-.618q.834 0 1.657.04a32.38 32.38 0 0 1 20.302 8.493 32.6 32.6 0 0 1 7.698 10.627q.184.389.347.788.174.42.34.85a32 32 0 0 1 1.597 5.578c.387 1.99.584 4.049.584 6.149"/><path fill="#fff" d="M130.058 154.273c-2.52.632-5.164.965-7.889.965-2.37 0-4.68-.252-6.91-.741l.816-12.475.163-2.514.02-.38.028-.32.068-1.046.095-1.474.203-3.166.089-1.332 3.553.129.252.014 1.365.047.313.014 5.463.197.122 1.162.245 2.262.163 1.522.034.3.088.842.075.713.047.4Z"/><path fill="#fff" d="m154.167 138.087-1.058-.915a5.6 5.6 0 0 1-.614-.833c-9.833 4.361-21.79 2.536-31.631-5.15l-2.036 2.608c6.59 5.146 14.066 7.895 21.375 8.165 5.252.195 10.41-.91 15.097-3.305a5.5 5.5 0 0 1-1.132-.57"/><path fill="#fff" d="M121.167 133.383c-9.39 10.144-22.491 13.62-33.696 9.058.231 1.243.439 2.49.635 3.743a30.1 30.1 0 0 0 10.707 1.527c8.891-.348 17.791-4.53 24.782-12.08ZM115.1 133.433l-17.801-7.129-4.48-21.603-1.312-6.879-7.361-12.749 3.842-3.27 11.964 2.036 13.208 5.594 15.887-13.223 8.046-6.685v17.857l8.42 13.575-1.992 14.177-12.332 15.04Z"/><path fill="#e2262b" d="M156.095 107.713s-.243-.934-.935-2.27v-.01c-.056-.121-.12-.233-.196-.364v-.01c-.065-.12-.14-.233-.215-.364-1.261-2.159-3.597-5-7.7-6.896 0 0 2.822-.44 3.729.01-.178-.197-3.047-3.169-7.99-4.047l-2.597-8.513 3.812.589s-.43-1.383-4.242-2.785c1.785-5.12-.823-13.68-.823-13.68a36 36 0 0 0-1.841.15h-.01c-10.269 1.14-13.221 7.194-13.922 9.138-2.775.467-6.177 1.355-10.307 2.934.13-.15 2.242-2.663 4.86-3.438 0 0-7.224-.318-12.597 6.186 0 0-12.522-6.056-22.857-1.14 0 0-.15 5.597 9.12 17.932 0 0-6.71 6.14-7.634 12.353.205-.346 3.354-6.008 5.56-7.532 0 0-8.167 12.158-2.748 19.68 0 0-.616-4.401.356-6.41 0 0 0-.01.009-.01.028-.074.065-.13.102-.196v-.01a4 4 0 0 1 .14-.206c0 .001 0 .067.01.197.019.954.206 5.13 1.738 8.653l-.261-.12c.233.195.467.438.672.719.028.018.038.046.047.065.262.037.514.075.776.121.448.084.897.187 1.327.328-.505-1.486-.86-3.112-.533-4.15 0 0 .775 2.112 2.168 4.794.27.131.551.243.803.393a59 59 0 0 1 4.644 2.934c.832.103 1.674.215 2.505.327 4 1.14 6.635 2.159 11.027 2.673 1.467.168 2.906.355 4.354.55.495.066.981.132 1.476.207h.01c.047.009.094.009.14.018 1.355.196 2.7.402 4.046.636.645.093 1.28.196 1.916.308.159.028.308.047.458.065h.019a7 7 0 0 0 1.084.028c.093-.009.195-.009.289-.018.757-.066 1.495-.234 2.336-.393.383-.065.785-.15 1.224-.206.44-.065.841-.149 1.215-.233h.01c.71-.178 1.252-.374 1.485-.44-.177.085-.542.262-1.15.561-.214.112-.466.234-.747.383-.047.029-.093.057-.15.085.066-.019.113-.056.178-.085l.029-.009q.39-.181.794-.336c.7-.29 1.402-.523 2.12-.71-.008-.01-.046-.028-.046-.028.252-.112.514-.225.766-.337 0 0 .486-.187 1.243-.673.122-.065.234-.15.346-.233h.01c.102-.075.196-.15.317-.234 1.607-1.177 3.915-3.401 5.7-7.289 0 0-.448 4.234-1.019 4.981.3-.252 5.075-4.345 5.776-9.055 0 0-.225 4.318-.524 5.187 0 0 3.243-3.495 5.168-8.373l.01-.028c.195-.477.373-.972.522-1.467l.01-.028c.233-.71.43-1.477.58-2.243l.009-.065c.046-.262.093-.533.13-.804 0 0 .28 2.467.056 2.99.103-.065 1.028-.673 1.832-1.887 1.261-1.907 2.215-5.308-.916-10.364 0 0 1.664.02 2.897 1.514m-56.17-20.146c-3.822 3.065-6.513 8.223-6.513 8.223-4.187-2.785-6.869-10.064-6.869-10.064 5.206-2.56 13.382 1.84 13.382 1.84m31.192 13.67c1.44 5.953-1.205 10.607-6.13 11.793-4.915 1.187-10.26-1.55-11.69-7.503-1.112-4.588-.215-11.335 2.523-14.718.794-1 1.766-1.71 2.887-1.981 1.645-.393 3.43.206 5.121 1.402 3.345 2.364 6.336 7.055 7.289 11.007m5.98-24.108v.019c-.009.009 0 .009 0 .018.197 1.439.281 3.102-.009 4.541v.13c-.177.945-.495 1.805-1.019 2.478 0 0-6.419-4.047-8.82-4.682-1.047-.271 2.401-5.616 8.942-6.719 0 0 .598 1.888.897 4.205Z"/><path fill="#61b183" d="m117.964 151.532-.18-15.038.292-.004.177 14.74 7.958-.223-.684-14.932.292-.014.698 15.231Z" opacity=".3"/><path fill="#606161" d="M114.628 139.002s9.674 3.853 17.169-1.973Z" opacity=".2"/><path fill="#e2262b" d="M86.907 119.023s.757 12.736 7.35 17.802c0 0-2.367-5.152-2.642-7.588 0 0 3.252 9.837 18.186 11.477 0 0-4.03-1.32-7.157-5.01 0 0 19.554 8.691 32.904-.828l-27.446-5.387s-12.93-10.974-13.224-10.99-7.97.524-7.97.524"/><path fill="#fff" d="M133.994 109.033c-3.854 2.005 5.615 3.958 5.615 3.958s1.836-3.009 2.187-5.557c.351-2.55-3.949-.408-7.802 1.599"/><path fill="#e2262b" d="M89.195 145.37c-.464 1.102-1.3 3.004-2.675 3.142-2.65.274-.188-3.454.472-4.56-1.124 1.192-2.27 2.373-3.567 3.38-.691.538-1.404 1.09-2.224 1.418-.594.238-2.069.653-2.402-.2-.33-.847 1.02-2.014 1.573-2.494 1.554-1.349 3.772-2.155 5.834-2.082-1.557-.053-3.113-.142-4.66-.323-.982-.114-1.965-.258-2.924-.5-.74-.188-1.853-.424-2.291-1.14-1.235-2.02 3.844-1.578 4.64-1.51 3.116.26 5.352 1.186 8.162 2.5l.2.092c.652-1.402 2.603-5.907 4.686-5.275 2.682.912-2.406 5.902-4.07 6.246ZM153.568 138.7c.34 1.145.961 3.127 2.312 3.416 2.604.565.568-3.412.033-4.585.986 1.31 1.995 2.61 3.173 3.754.628.61 1.276 1.237 2.055 1.654.564.302 1.984.876 2.409.065.422-.805-.792-2.113-1.289-2.651-1.396-1.513-3.512-2.558-5.568-2.712 1.552.119 3.11.201 4.667.192.988-.006 1.981-.04 2.961-.176.756-.104 1.888-.217 2.402-.88 1.45-1.87-3.647-1.991-4.444-2.013-3.127-.083-5.45.59-8.389 1.586l-.208.07c-.495-1.465-1.937-6.157-4.077-5.759-2.766.61 1.741 6.13 3.358 6.657Z"/><path fill="#fff" d="M107.661 112.819c-6.902-7.693-8.104 3.663-8.104 3.663 3.143-8.901 8.104-3.663 8.104-3.663"/><path fill="#fff" d="M117.775 127.086c4.95 1.016 10.744.01 17.289-3.008a.378.378 0 0 0-.317-.687c-8.038 3.707-14.883 4.314-20.346 1.804-6.978-3.205-9.56-10.62-10.185-12.816a.378.378 0 0 0-.727.207c.408 1.433 1.383 4.255 3.33 7.054 1.97 2.832 4.414 4.932 7.266 6.242q1.758.808 3.69 1.204"/><path fill="#325b43" d="m133.071 144.713.717 1.96 44.55-16.298 5.465-31.625-31.268 6.847-2.564 32.192Z"/><path fill="#fff" d="m133.226 145.089-.309-.753 16.669-6.828 2.567-32.244 31.563-6.912.174.795-30.974 6.783-2.56 32.141Z"/><path fill="#231f20" d="m178.456 129.689-44.875 16.416.207.567 44.512-16.284Z" opacity=".5"/><ellipse cx="167.482" cy="119.055" fill="#fff" rx="4.123" ry="2.197" transform="rotate(-87.703 167.482 119.055)"/><ellipse cx="121.815" cy="108.786" fill="#e2262b" rx="2.097" ry="3.441" transform="rotate(-19.59 121.815 108.786)"/><ellipse cx="134.594" cy="102.211" fill="#fff" rx="2.097" ry="3.441" transform="rotate(-19.59 134.594 102.21)"/><path fill="#325b43" d="M80.096 208.148a7.24 7.24 0 0 0-1.804-2.925 7.3 7.3 0 0 0-4.868-2.159c-.122-.018-.252-.018-.374-.018h-.383v4.644c0 3.972 3.14 7.224 7.055 7.42.122.01.252.01.374.01h.374v-4.654c0-.795-.122-1.58-.374-2.318m-.43 6.196c-.019 0-.047 0-.065-.01-.038 0-.085 0-.122-.01-.037.01-.074 0-.112-.008a4 4 0 0 1-.598-.093c-.019.009-.028 0-.047-.01a3 3 0 0 1-.486-.122c-.084-.018-.168-.037-.252-.074a1.6 1.6 0 0 1-.3-.112 2 2 0 0 1-.345-.14c-.074-.029-.14-.066-.215-.104a3 3 0 0 1-.308-.168 2 2 0 0 1-.271-.159 4 4 0 0 1-.336-.224.12.12 0 0 1-.056-.047 7 7 0 0 1-.411-.327c-.038-.018-.075-.056-.113-.093a4 4 0 0 1-.346-.336 1 1 0 0 1-.103-.112 4 4 0 0 1-.308-.355 6.2 6.2 0 0 1-.897-1.505c-.018-.019-.018-.037-.028-.056-.074-.178-.15-.355-.205-.542-.01-.038-.019-.075-.038-.122a6.9 6.9 0 0 1-.28-1.925v-3.887a6.64 6.64 0 0 1 4.336 1.944 6.63 6.63 0 0 1 1.962 4.719v3.887c-.019 0-.037 0-.056-.01"/><path fill="#325b43" d="M87.142 203.046c-.122 0-.253 0-.374.01a7.425 7.425 0 0 0-7.046 7.41v4.654h.374c.121 0 .252 0 .374-.01 3.915-.196 7.045-3.448 7.045-7.42v-4.644Zm-.374 4.644c0 .449-.047.879-.131 1.3-.075.42-.205.822-.365 1.214-.065.177-.149.346-.233.514a7 7 0 0 1-.72 1.121 4 4 0 0 1-.308.355q-.044.056-.103.113a4 4 0 0 1-.345.336c-.038.037-.075.075-.112.093a7 7 0 0 1-.411.327.12.12 0 0 1-.056.047 4 4 0 0 1-.336.224 2 2 0 0 1-.271.159 3 3 0 0 1-.308.168c-.076.038-.142.075-.216.103a2 2 0 0 1-.346.14 1.6 1.6 0 0 1-.299.112c-.084.038-.168.057-.252.075-.16.056-.318.094-.486.122-.019.01-.029.019-.047.01a4 4 0 0 1-.598.093c-.037.009-.075.018-.112.009a.5.5 0 0 1-.121.01.2.2 0 0 1-.066.01q-.03.01-.056.008v-3.887c0-3.551 2.794-6.467 6.298-6.663Z"/><path fill="#325b43" d="M85.338 187.16a7.35 7.35 0 0 0-5.242-2.177c-4.093 0-7.429 3.327-7.429 7.42v15.288c0 3.97 3.14 7.223 7.055 7.419.122.01.252.01.374.01s.252 0 .374-.01c3.915-.196 7.045-3.448 7.045-7.42v-15.288c0-1.98-.766-3.85-2.177-5.242m1.43 20.53c0 .449-.047.879-.131 1.3-.075.42-.205.822-.365 1.214-.065.177-.149.346-.233.514a7 7 0 0 1-.72 1.121 4 4 0 0 1-.308.355q-.044.056-.103.113a4 4 0 0 1-.345.336c-.038.037-.075.075-.112.093a3.4 3.4 0 0 1-.411.327.12.12 0 0 1-.056.047 4 4 0 0 1-.336.224 2 2 0 0 1-.271.159 3 3 0 0 1-.308.168c-.076.038-.142.075-.216.103a2 2 0 0 1-.346.14 1.6 1.6 0 0 1-.299.112c-.084.028-.168.057-.252.075-.16.056-.318.094-.486.122-.019.01-.029.019-.047.01a4 4 0 0 1-.598.093c-.037.009-.075.018-.112.009a.5.5 0 0 1-.121.01.2.2 0 0 1-.066.01h-.056c-.122.017-.253.017-.374.017s-.252 0-.374-.018h-.056c-.019 0-.047 0-.065-.01-.038 0-.085 0-.122-.01-.037.01-.074 0-.112-.008a4 4 0 0 1-.598-.093c-.019.009-.028 0-.047-.01a3 3 0 0 1-.486-.122c-.084-.018-.168-.047-.252-.074a1.6 1.6 0 0 1-.3-.112 2 2 0 0 1-.345-.14c-.074-.029-.14-.066-.215-.104a3 3 0 0 1-.308-.168 2 2 0 0 1-.271-.159 4 4 0 0 1-.336-.224.12.12 0 0 1-.056-.047 3.3 3.3 0 0 1-.411-.327c-.038-.018-.075-.056-.113-.093a4 4 0 0 1-.346-.336 1 1 0 0 1-.103-.112 4 4 0 0 1-.308-.355 6.2 6.2 0 0 1-.897-1.505c-.018-.019-.018-.037-.028-.056a10 10 0 0 1-.205-.542c-.01-.038-.019-.075-.038-.122a6.9 6.9 0 0 1-.28-1.925v-15.288a6.676 6.676 0 0 1 6.672-6.672c1.785 0 3.457.692 4.72 1.954a6.62 6.62 0 0 1 1.953 4.719Z"/><path fill="#325b43" d="M101.768 227.06H86.52a6.81 6.81 0 0 1-6.802-6.802v-5.518h.75v5.518a6.06 6.06 0 0 0 6.052 6.052h15.247ZM91.459 167.892c-4.168 0-7.56 3.392-7.56 7.56v.075l.02.401c.242 3.831 3.354 6.868 7.157 7.056q.014.014.028 0c.112.018.224.018.336.018h.037c.122 0 .243 0 .365-.018h.01c3.802-.188 6.914-3.225 7.148-7.056l.018-.402v-.075c0-4.167-3.391-7.559-7.56-7.559m6.793 7.99c-.01.14-.018.27-.047.41 0 .047 0 .104-.018.15-.01.094-.019.187-.047.28a1.5 1.5 0 0 1-.056.28 2 2 0 0 1-.084.337 2 2 0 0 1-.112.346 1 1 0 0 1-.065.177 3 3 0 0 1-.159.374c-.066.16-.15.318-.234.477-.056.103-.112.206-.178.308-.093.15-.196.29-.299.44a6.4 6.4 0 0 1-.832.934c-.13.13-.28.262-.438.383a6.5 6.5 0 0 1-1.533.916 2 2 0 0 1-.318.122 2 2 0 0 1-.318.112c-.074.037-.158.056-.242.074a4 4 0 0 1-.365.093.8.8 0 0 1-.215.037 5 5 0 0 1-.804.103.3.3 0 0 1-.121 0c-.093.02-.196.02-.29.02h-.037c-.093 0-.196 0-.29-.02a.3.3 0 0 1-.121 0q-.126-.001-.252-.018a5 5 0 0 1-.551-.084.8.8 0 0 1-.215-.037 4 4 0 0 1-.364-.093 1 1 0 0 1-.243-.075 2 2 0 0 1-.318-.112 2 2 0 0 1-.318-.122 6.5 6.5 0 0 1-1.972-1.299 6.7 6.7 0 0 1-.831-.934c-.104-.15-.206-.29-.3-.44-.056-.102-.121-.205-.177-.308a3 3 0 0 0-.121-.224 16 16 0 0 1-.224-.523 2.3 2.3 0 0 1-.159-.449c-.01-.028-.02-.047-.029-.075a3.6 3.6 0 0 1-.14-.551 4 4 0 0 1-.103-.589v-.01a3 3 0 0 1-.047-.42c-.01-.093-.01-.205-.01-.327v-.093c0-3.757 3.047-6.812 6.804-6.812s6.812 3.055 6.812 6.812v.093c0 .131-.01.234-.019.337"/><path fill="#325b43" d="M91.814 182.628v-.019a2.4 2.4 0 0 0-.047-.374 6.3 6.3 0 0 0-.308-1.458 7.52 7.52 0 0 0-6.803-5.233c-.122-.018-.234-.018-.355-.018h-.402l.02.402c.242 3.831 3.354 6.868 7.157 7.056q.014.014.028 0c.112.018.224.018.336.018h.402v-.018Zm-.785-.383c-.084-.01-.168-.01-.252-.028a2.7 2.7 0 0 1-.551-.084.8.8 0 0 1-.215-.037 4 4 0 0 1-.364-.093 1 1 0 0 1-.243-.075 2 2 0 0 1-.318-.112 2 2 0 0 1-.318-.122 6.5 6.5 0 0 1-1.972-1.299 6.7 6.7 0 0 1-.831-.934c-.104-.15-.206-.29-.3-.44-.056-.102-.121-.205-.177-.308a3 3 0 0 0-.121-.224 16 16 0 0 1-.224-.523c-.066-.15-.113-.3-.16-.45-.01-.027-.019-.046-.028-.074a5 5 0 0 1-.14-.551c-.047-.197-.075-.393-.103-.589v-.01a6.81 6.81 0 0 1 6.317 5.943Z"/><path fill="#325b43" d="M98.626 175.526c-.121 0-.243 0-.355.02a7.53 7.53 0 0 0-6.812 5.233 6.3 6.3 0 0 0-.308 1.458 2.4 2.4 0 0 0-.047.374v.019l-.028.354v.018h.402c.121 0 .242 0 .364-.018h.01c3.802-.188 6.914-3.225 7.148-7.056l.018-.402Zm-.44.916c-.008.094-.018.187-.046.28a1.5 1.5 0 0 1-.056.28 2 2 0 0 1-.084.337 2 2 0 0 1-.112.346 1 1 0 0 1-.065.177 3 3 0 0 1-.159.374c-.066.16-.15.318-.234.477-.056.103-.112.206-.178.308-.093.15-.196.29-.299.44a6.4 6.4 0 0 1-.832.934c-.13.13-.28.262-.438.383a6.5 6.5 0 0 1-1.533.916 2 2 0 0 1-.318.122 2 2 0 0 1-.318.112c-.074.037-.158.056-.242.074a4 4 0 0 1-.365.093.8.8 0 0 1-.215.037 2.7 2.7 0 0 1-.551.084c-.084.02-.168.02-.252.03v-.01c.41-3.224 3.065-5.738 6.316-5.943h.01c-.01.046-.01.103-.028.15"/><path fill="#325b43" d="M101.768 193.376h-5.441a5.23 5.23 0 0 1-5.223-5.223v-5.523h.75v5.523a4.48 4.48 0 0 0 4.473 4.473h5.441ZM164.857 64.781a8.04 8.04 0 0 1-3.59 6.702c-2.166-1.44-3.595-3.904-3.595-6.702s1.43-5.261 3.594-6.701a8.04 8.04 0 0 1 3.59 6.702"/><path fill="#e2eee7" d="M161.087 60.908h.356v10.575h-.356Z"/><path fill="#325b43" d="M174.1 80.97h-8.31a4.92 4.92 0 0 1-4.912-4.912V71.6h.698v4.459a4.22 4.22 0 0 0 4.214 4.214h8.31Z"/><path fill="#e2262b" d="M351.66 227.525c-4.164 3.08-9.698-.053-12.357-3.658-1.166-1.575-1.958-3.872-3.385-5.112-1.992-1.855-4.192.172-3.451 2.517.646 2.242 2.639 4.097 4.505 5.405-1.764-1.402-4.792-2.02-6.768-.672-2.782 1.806-.728 4.55 1.39 5.72 1.876 1.11 3.94 1.195 6.056 1.233-2.175.206-4.697.447-5.725 2.72-1.106 2.423.647 4.223 2.65 5.382 1.15.668 2.48.966 3.801 1.01 2.672.09 5.188-.886 7.349-2.407 1.831-1.289 3.684-2.744 4.842-4.698.957-1.733 1.971-4.843 1.014-6.704Z"/><path fill="#fff" d="M380.216 247.958s-12.356 1.722-9.685-21.542-28.694-13.44-27.65 3.07c1.043 16.51 19.257 31.422 37.335 18.472"/><path fill="#e2262b" d="M378.823 247.937c-3.152-.365-10.4-3.166-8.292-21.521 2.1-18.29-16.836-16.128-24.524-6.345a5 5 0 0 1 .75-.377c2.203-.881 2.69 1.425 2.77 3.094.24-.999 1.258-1.878 2.03-2.494 1.738-1.385 4.31-2.058 6.48-1.447 1.256.354 2.552 1.48 3.084 2.654 1.042 2.303.813 5.367.536 7.816-.435 3.838-1.111 7.683-.812 11.564.203 2.626.897 5.427 2.427 7.611.864 1.233 2.669 2.327 4.1 2.704 2.717.714 5.67-.384 8.134-1.48 1.117-.496 2.255-1.08 3.317-1.78"/><path fill="#e2262b" d="M378.289 248.388c-.101-.794-.529-1.55-.882-2.253-.386-.77-.802-1.552-.996-2.396-.158-.688-.249-1.56.247-2.143.525-.618 1.063.085 1.265.598.274.694.379 1.478.4 2.22.02.76-.046 1.52-.035 2.281-.012-.796.292-1.657.585-2.387.137-.34.409-1.028.854-1.07.896-.083.305 1.723.192 2.066a56 56 0 0 0-.744 2.463c.364-.313.625-.744.947-1.097.265-.292.525-.718.942-.81.319-.069.521.133.524.447.008.669-.597 1.122-1.095 1.46-.631.427-1.27.86-1.969 1.17Z"/><path fill="#e86724" d="m347.452 229.961 5.139.29-2.807 4.75Z"/><path fill="#a72226" d="M371.333 241.003s-6.71-1.703-7.196-10.838l6.522 7.788s.031.959.674 3.05"/><path fill="#e2262b" d="M364.142 229.701c4.866 1.774 9.287-2.796 10.816-7.007.673-1.84.782-4.268 1.799-5.861 1.385-2.343 4.07-1.022 4.023 1.437.014 2.333-1.37 4.676-2.791 6.459 1.295-1.844 4.024-3.293 6.3-2.56 3.18.944 1.987 4.156.286 5.879-1.483 1.596-3.44 2.262-5.458 2.897 2.144-.418 4.63-.9 6.261.987 1.747 2.012.575 4.234-1.018 5.913-.915.966-2.105 1.628-3.36 2.045-2.537.843-5.226.618-7.73-.228-2.12-.717-4.31-1.59-5.973-3.135-1.41-1.391-3.517-4.74-3.125-6.797Z"/><path fill="gray" d="M348.55 227.97a.38.38 0 0 1-.336-.262c-.26-.805-.92-2.103-1.578-2.154h-.006c-.424-.028-.933.5-1.434 1.487a.38.38 0 0 1-.677-.344c.675-1.33 1.381-1.953 2.16-1.9h.01c1.38.108 2.163 2.415 2.248 2.678a.38.38 0 0 1-.387.495M351.95 228.039a.38.38 0 0 1-.335-.5c.485-1.424 1.102-2.14 1.888-2.19 1.363-.092 2.475 2.089 2.596 2.337a.38.38 0 0 1-.175.507.38.38 0 0 1-.507-.175c-.373-.76-1.237-1.954-1.867-1.91-.425.027-.857.622-1.215 1.674a.38.38 0 0 1-.385.257"/></svg>