<svg width="100" height="100" viewBox="0 0 100 100" fill="none" xmlns="http://www.w3.org/2000/svg">
<path d="M64.4337 80C61.0591 80 58.2575 77.4759 57.8542 74.2366H43.167C42.7425 77.4759 39.9409 80 36.5663 80C32.8945 80 29.9231 77.0552 29.9231 73.4162C29.9231 71.2707 30.9631 69.3776 32.5549 68.1786L25.2113 55.579C24.426 55.9155 23.5558 56.0838 22.6432 56.0838C18.9714 56.0838 16 53.1179 16 49.5C16 45.8821 18.9714 42.9162 22.6432 42.9162C23.5558 42.9162 24.426 43.1055 25.2113 43.421L32.5549 30.8214C30.9631 29.6224 29.9231 27.7083 29.9231 25.5838C29.9231 21.9448 32.9157 19 36.5663 19C39.9409 19 42.7425 21.5031 43.1458 24.7634H57.833C58.2362 21.5241 61.0378 19 64.4125 19C68.0843 19 71.0557 21.9448 71.0557 25.5838C71.0557 27.7083 70.0157 29.6224 68.4239 30.8214L75.7675 43.421C76.5528 43.0845 77.4229 42.9162 78.3356 42.9162C82.0074 42.9162 84.9788 45.861 84.9788 49.5C84.9788 53.139 82.0074 56.0838 78.3356 56.0838C77.4229 56.0838 76.5528 55.8945 75.7675 55.5579L68.4239 68.1576C70.0157 69.3565 71.0557 71.2707 71.0557 73.3952C71.0769 77.0341 68.1055 80 64.4337 80ZM64.4337 68.4941C61.6958 68.4941 59.4672 70.7028 59.4672 73.4162C59.4672 76.1297 61.6958 78.3383 64.4337 78.3383C67.1716 78.3383 69.4002 76.1297 69.4002 73.4162C69.4002 70.7028 67.1716 68.4941 64.4337 68.4941ZM36.5663 68.4941C33.8284 68.4941 31.5998 70.7028 31.5998 73.4162C31.5998 76.1297 33.8284 78.3383 36.5663 78.3383C39.3042 78.3383 41.5328 76.1297 41.5328 73.4162C41.5328 70.7028 39.3042 68.4941 36.5663 68.4941ZM43.167 72.5748H57.8542C58.0877 70.7869 59.0428 69.2093 60.4223 68.1576L54.6706 58.2714H46.3507L40.5989 68.1576C41.9785 69.2093 42.9336 70.7869 43.167 72.5748ZM26.6546 54.7376L33.9982 67.3372C35.59 66.6852 37.5638 66.6852 39.1344 67.3372L44.8862 57.451L40.7262 50.2993H29.2227C29.0105 52.1293 28.0341 53.6859 26.6546 54.7376ZM64.4337 66.8324C65.3464 66.8324 66.2165 67.0217 67.0018 67.3583L74.3454 54.7586C72.9659 53.7069 72.0108 52.1503 71.7773 50.3414H60.2738L56.1138 57.4931L61.8656 67.3793C62.6509 67.0217 63.5211 66.8324 64.4337 66.8324ZM46.3507 56.6307H54.6706L58.8305 49.479L54.6706 42.3272H46.3507L42.1907 49.479L46.3507 56.6307ZM78.378 44.5779C75.6401 44.5779 73.4116 46.7866 73.4116 49.5C73.4116 52.2134 75.6401 54.4221 78.378 54.4221C81.116 54.4221 83.3445 52.2134 83.3445 49.5C83.3445 46.7866 81.116 44.5779 78.378 44.5779ZM22.6432 44.5779C19.9053 44.5779 17.6767 46.7866 17.6767 49.5C17.6767 52.2134 19.9053 54.4221 22.6432 54.4221C25.3811 54.4221 27.6097 52.2134 27.6097 49.5C27.6097 46.7866 25.3811 44.5779 22.6432 44.5779ZM60.2738 48.6586H71.7773C72.0108 46.8707 72.9659 45.2931 74.3454 44.2414L67.0018 31.6417C65.41 32.2938 63.4362 32.2938 61.8656 31.6417L56.1138 41.5279L60.2738 48.6586ZM29.2227 48.6586H40.7262L44.8862 41.5069L39.1344 31.6417C37.5426 32.2938 35.5687 32.2938 33.9982 31.6417L26.6546 44.2414C28.0341 45.2931 29.0105 46.8707 29.2227 48.6586ZM46.3507 40.6866H54.6706L60.4223 30.8003C59.0428 29.7486 58.0877 28.1921 57.8542 26.3831H43.167C42.9336 28.171 41.9785 29.7486 40.5989 30.8003L46.3507 40.6866ZM64.4337 20.6617C61.6958 20.6617 59.4672 22.8703 59.4672 25.5838C59.4672 28.2972 61.6958 30.5059 64.4337 30.5059C67.1716 30.5059 69.4002 28.2972 69.4002 25.5838C69.4002 22.8703 67.1716 20.6617 64.4337 20.6617ZM36.5663 20.6617C33.8284 20.6617 31.5998 22.8703 31.5998 25.5838C31.5998 28.2972 33.8284 30.5059 36.5663 30.5059C39.3042 30.5059 41.5328 28.2972 41.5328 25.5838C41.5328 22.8703 39.3042 20.6617 36.5663 20.6617Z" fill="black"/>
<path d="M46.3514 56.6301H54.6713L58.8312 49.4994L54.6713 42.3477H46.3514L42.1914 49.4994L46.3514 56.6301Z" fill="#7CCEC8"/>
<path d="M22.6423 54.4223C25.3852 54.4223 27.6087 52.2186 27.6087 49.5002C27.6087 46.7818 25.3852 44.5781 22.6423 44.5781C19.8993 44.5781 17.6758 46.7818 17.6758 49.5002C17.6758 52.2186 19.8993 54.4223 22.6423 54.4223Z" fill="#83FFCA"/>
<path d="M78.3786 54.4223C81.1215 54.4223 83.3451 52.2186 83.3451 49.5002C83.3451 46.7818 81.1215 44.5781 78.3786 44.5781C75.6357 44.5781 73.4121 46.7818 73.4121 49.5002C73.4121 52.2186 75.6357 54.4223 78.3786 54.4223Z" fill="#83FFCA"/>
<path d="M36.5661 78.3383C39.309 78.3383 41.5326 76.1346 41.5326 73.4162C41.5326 70.6978 39.309 68.4941 36.5661 68.4941C33.8232 68.4941 31.5996 70.6978 31.5996 73.4162C31.5996 76.1346 33.8232 78.3383 36.5661 78.3383Z" fill="#83FFCA"/>
<path d="M64.4333 78.3383C67.1762 78.3383 69.3997 76.1346 69.3997 73.4162C69.3997 70.6978 67.1762 68.4941 64.4333 68.4941C61.6904 68.4941 59.4668 70.6978 59.4668 73.4162C59.4668 76.1346 61.6904 78.3383 64.4333 78.3383Z" fill="#83FFCA"/>
<path d="M36.5661 30.5062C39.309 30.5062 41.5326 28.3026 41.5326 25.5842C41.5326 22.8658 39.309 20.6621 36.5661 20.6621C33.8232 20.6621 31.5996 22.8658 31.5996 25.5842C31.5996 28.3026 33.8232 30.5062 36.5661 30.5062Z" fill="#83FFCA"/>
<path d="M64.4333 30.5062C67.1762 30.5062 69.3997 28.3026 69.3997 25.5842C69.3997 22.8658 67.1762 20.6621 64.4333 20.6621C61.6904 20.6621 59.4668 22.8658 59.4668 25.5842C59.4668 28.3026 61.6904 30.5062 64.4333 30.5062Z" fill="#83FFCA"/>
</svg>
