<svg id="Layer_1" data-name="Layer 1" xmlns="http://www.w3.org/2000/svg" viewBox="0 0 1024 771"><defs><style>.cls-1{fill:#0071bc;}.cls-2{fill:#29abe2;}.cls-3,.cls-4{fill:none;stroke:red;stroke-miterlimit:10;stroke-width:2px;}.cls-4{stroke-dasharray:4.04 4.04;}</style></defs><title>Grid 2</title><rect class="cls-1" x="301" y="119" width="207" height="203"/><rect class="cls-2" x="518" y="119" width="97" height="97"/><rect class="cls-2" x="518" y="225" width="97" height="97"/><rect class="cls-2" x="626" y="13" width="97" height="97"/><rect class="cls-2" x="626" y="225" width="97" height="97"/><rect class="cls-1" x="520" y="441" width="203" height="203" transform="translate(1243 1085) rotate(-180)"/><rect class="cls-2" x="411" y="547" width="97" height="97" transform="translate(919 1191) rotate(-180)"/><rect class="cls-2" x="411" y="441" width="97" height="97" transform="translate(919 979) rotate(-180)"/><rect class="cls-2" x="301" y="657" width="97" height="97" transform="translate(699 1411) rotate(-180)"/><rect class="cls-2" x="301" y="547" width="97" height="97" transform="translate(699 1191) rotate(-180)"/><polyline class="cls-3" points="301 428 301 430 303 430"/><line class="cls-4" x1="307.04" y1="430" x2="393.98" y2="430"/><polyline class="cls-3" points="396 430 398 430 398 428"/><line class="cls-4" x1="398" y1="423.96" x2="398" y2="337.02"/><polyline class="cls-3" points="398 335 398 333 396 333"/><line class="cls-4" x1="391.96" y1="333" x2="305.02" y2="333"/><polyline class="cls-3" points="303 333 301 333 301 335"/><line class="cls-4" x1="301" y1="339.04" x2="301" y2="425.98"/><polyline class="cls-3" points="411 428 411 430 413 430"/><line class="cls-4" x1="417.04" y1="430" x2="503.98" y2="430"/><polyline class="cls-3" points="506 430 508 430 508 428"/><line class="cls-4" x1="508" y1="423.96" x2="508" y2="337.02"/><polyline class="cls-3" points="508 335 508 333 506 333"/><line class="cls-4" x1="501.96" y1="333" x2="415.02" y2="333"/><polyline class="cls-3" points="413 333 411 333 411 335"/><line class="cls-4" x1="411" y1="339.04" x2="411" y2="425.98"/><polyline class="cls-3" points="518 428 518 430 520 430"/><line class="cls-4" x1="524.04" y1="430" x2="610.98" y2="430"/><polyline class="cls-3" points="613 430 615 430 615 428"/><line class="cls-4" x1="615" y1="423.96" x2="615" y2="337.02"/><polyline class="cls-3" points="615 335 615 333 613 333"/><line class="cls-4" x1="608.96" y1="333" x2="522.02" y2="333"/><polyline class="cls-3" points="520 333 518 333 518 335"/><line class="cls-4" x1="518" y1="339.04" x2="518" y2="425.98"/><polyline class="cls-3" points="626 428 626 430 628 430"/><line class="cls-4" x1="632.04" y1="430" x2="718.98" y2="430"/><polyline class="cls-3" points="721 430 723 430 723 428"/><line class="cls-4" x1="723" y1="423.96" x2="723" y2="337.02"/><polyline class="cls-3" points="723 335 723 333 721 333"/><line class="cls-4" x1="716.96" y1="333" x2="630.02" y2="333"/><polyline class="cls-3" points="628 333 626 333 626 335"/><line class="cls-4" x1="626" y1="339.04" x2="626" y2="425.98"/></svg>