<?xml version="1.0" encoding="UTF-8"?> <svg xmlns="http://www.w3.org/2000/svg" width="49" height="48" viewBox="0 0 49 48" fill="none"><path d="M0.5 24C0.5 10.7452 11.2452 0 24.5 0C37.7548 0 48.5 10.7452 48.5 24C48.5 37.2548 37.7548 48 24.5 48C11.2452 48 0.5 37.2548 0.5 24Z" fill="#F6F8FA"></path><path fill-rule="evenodd" clip-rule="evenodd" d="M24.5 14C18.975 14 14.5 18.475 14.5 24C14.5 28.425 17.3625 32.1625 21.3375 33.4875C21.8375 33.575 22.025 33.275 22.025 33.0125C22.025 32.775 22.0125 31.9875 22.0125 31.15C19.5 31.6125 18.85 30.5375 18.65 29.975C18.5375 29.6875 18.05 28.8 17.625 28.5625C17.275 28.375 16.775 27.9125 17.6125 27.9C18.4 27.8875 18.9625 28.625 19.15 28.925C20.05 30.4375 21.4875 30.0125 22.0625 29.75C22.15 29.1 22.4125 28.6625 22.7 28.4125C20.475 28.1625 18.15 27.3 18.15 23.475C18.15 22.3875 18.5375 21.4875 19.175 20.7875C19.075 20.5375 18.725 19.5125 19.275 18.1375C19.275 18.1375 20.1125 17.875 22.025 19.1625C22.825 18.9375 23.675 18.825 24.525 18.825C25.375 18.825 26.225 18.9375 27.025 19.1625C28.9375 17.8625 29.775 18.1375 29.775 18.1375C30.325 19.5125 29.975 20.5375 29.875 20.7875C30.5125 21.4875 30.9 22.375 30.9 23.475C30.9 27.3125 28.5625 28.1625 26.3375 28.4125C26.7 28.725 27.0125 29.325 27.0125 30.2625C27.0125 31.6 27 32.675 27 33.0125C27 33.275 27.1875 33.5875 27.6875 33.4875C31.6375 32.1625 34.5 28.4125 34.5 24C34.5 18.475 30.025 14 24.5 14Z" fill="#0D1117"></path></svg> 