<svg width="68" height="74" viewBox="0 0 68 74" fill="none" xmlns="http://www.w3.org/2000/svg">
<path d="M13.0343 13.166H9.35618H7.88494C4.63478 13.166 2 15.8008 2 19.051V21.9934" stroke="#357FF7" stroke-width="3.552" stroke-linecap="round"/>
<path d="M13.0343 60.834H9.35618H7.88494C4.63478 60.834 2 58.1992 2 54.949V52.0066" stroke="#357FF7" stroke-width="3.552" stroke-linecap="round"/>
<path d="M54.9657 13.166H58.6438H60.1151C63.3652 13.166 66 15.8008 66 19.051V21.9934" stroke="#357FF7" stroke-width="3.552" stroke-linecap="round"/>
<path d="M54.9657 60.834H58.6438H60.1151C63.3652 60.834 66 58.1992 66 54.949V52.0066" stroke="#357FF7" stroke-width="3.552" stroke-linecap="round"/>
<path d="M15.4004 33.999C16.0599 35.0103 16.958 35.8508 18.0156 36.4414C15.6667 39.8517 13.5811 44.1678 11.9287 49.4473C11.6357 50.3831 10.6391 50.905 9.70312 50.6123C8.76738 50.3192 8.24542 49.3226 8.53809 48.3867C10.3259 42.6747 12.6675 37.8572 15.4004 33.999ZM33.9951 22.8398C44.4901 22.84 54.2838 31.8767 59.4512 48.3867C59.7441 49.3227 59.2231 50.3193 58.2871 50.6123C57.3512 50.905 56.3545 50.3832 56.0615 49.4473C51.0878 33.5562 42.1909 26.3917 33.9951 26.3916C32.2277 26.3916 30.4278 26.7252 28.6416 27.4072C28.218 26.2357 27.5084 25.2018 26.5977 24.3877C28.9866 23.3636 31.4705 22.8399 33.9951 22.8398Z" fill="url(#paint0_linear_1818_24103)"/>
<path d="M21.6406 24.6416C24.5656 24.6418 26.9365 27.0135 26.9365 29.9385C26.9363 32.8633 24.5654 35.2341 21.6406 35.2344C18.7156 35.2344 16.344 32.8634 16.3438 29.9385C16.3438 27.0133 18.7155 24.6416 21.6406 24.6416ZM21.6396 26.9951C20.0146 26.9952 18.6973 28.3125 18.6973 29.9375C18.6973 31.5626 20.0146 32.8798 21.6396 32.8799C23.2647 32.8799 24.582 31.5626 24.582 29.9375C24.582 28.3125 23.2647 26.9951 21.6396 26.9951Z" fill="#3D84F7"/>
<defs>
<linearGradient id="paint0_linear_1818_24103" x1="33.995" y1="22.8398" x2="33.995" y2="50.6938" gradientUnits="userSpaceOnUse">
<stop stop-color="#357FF7"/>
<stop offset="1" stop-color="#85B8FF"/>
</linearGradient>
</defs>
</svg>
