<svg xmlns="http://www.w3.org/2000/svg" viewBox="0 0 1366 768"><path fill="#9bc0e0" d="M0 0h1366v768H0Z"/><path fill="#6b99b5" stroke="#1d1d26" stroke-linecap="round" stroke-linejoin="round" stroke-miterlimit="10" stroke-width="15" d="M421.9 183.7h238.2v253.1H421.9Z"/><path fill="#d9d9e2" stroke="#1d1d26" stroke-linecap="round" stroke-linejoin="round" stroke-miterlimit="10" stroke-width="15" d="M704.9 291.1h238.2V589H704.9Z"/><path fill="#ff1493" stroke="#1d1d26" stroke-linecap="round" stroke-linejoin="round" stroke-miterlimit="10" stroke-width="15" d="M421.9 488.1h238.2V660H421.9Z"/><path fill="#d9d9e2" stroke="#1d1d26" stroke-linecap="round" stroke-linejoin="round" stroke-miterlimit="10" stroke-width="15" d="M249.2 353.6h131.7v193.3H249.2Z"/><path fill="#ff1493" stroke="#1d1d26" stroke-linecap="round" stroke-linejoin="round" stroke-miterlimit="10" stroke-width="15" d="M704.9 108h238.2v133.6H704.9Zm280.3 313.8h131.7v193.3H985.2Z"/><path fill="#fff" d="M404 114.2c-34.7 3.5-37.6 6.4-41.2 41.2-3.5-34.7-6.4-37.6-41.2-41.2 34.7-3.5 37.6-6.4 41.2-41.2 3.6 34.7 6.5 37.6 41.2 41.2m560.4 565.7c-34.7 3.5-37.6 6.4-41.2 41.2-3.5-34.7-6.4-37.6-41.2-41.2 34.7-3.5 37.6-6.4 41.2-41.2 3.5 34.7 6.4 37.6 41.2 41.2m79.6-441.3c-28.3 2.9-30.6 5.2-33.5 33.5-2.9-28.3-5.2-30.6-33.5-33.5 28.3-2.9 30.6-5.2 33.5-33.5 2.9 28.2 5.2 30.6 33.5 33.5M282.7 614.9c-28.3 2.9-30.6 5.2-33.5 33.5-2.9-28.3-5.2-30.6-33.5-33.5 28.3-2.9 30.6-5.2 33.5-33.5 2.9 28.2 5.2 30.6 33.5 33.5m915-275.7c-21.8 2.2-23.6 4-25.8 25.8-2.2-21.8-4-23.6-25.8-25.8 21.8-2.2 23.6-4 25.8-25.8 2.2 21.8 4 23.6 25.8 25.8"/></svg>