<svg xmlns="http://www.w3.org/2000/svg" xml:space="preserve" id="Layer_1" x="0" y="0" viewBox="0 0 1366 768"><path fill="#b8b8e8" d="M0 0h1366v768H0Z"/><path fill="#6b99b5" stroke="#1d1d26" stroke-linecap="round" stroke-linejoin="round" stroke-miterlimit="10" stroke-width="15" d="M-823.2 295.9H-585V549h-238.2Z"/><path fill="#d9d9e2" stroke="#1d1d26" stroke-linecap="round" stroke-linejoin="round" stroke-miterlimit="10" stroke-width="15" d="M-540.2 403.3H-302v297.9h-238.2Z"/><path fill="#ff1493" stroke="#1d1d26" stroke-linecap="round" stroke-linejoin="round" stroke-miterlimit="10" stroke-width="15" d="M-540.2 220.2H-302v133.6h-238.2Z"/><g stroke-linecap="round" stroke-linejoin="round" stroke-miterlimit="10"><path fill="#d9d9e2" stroke="#1d1d26" stroke-width="15" d="M2061.4 896.8h-622c-16 0-29-13-29-29V675c0-16 13-29 29-29h622c16 0 29 13 29 29v192.7c0 16.1-13 29.1-29 29.1"/><g stroke="#2e2e35" stroke-width="10"><path fill="none" d="M1645.9 816.3h210v40h-210Z"/><path fill="#e8e8ef" d="M1582.9 816.3h40v40h-40ZM1877.9 816.3h40v40h-40ZM1938.9 816.3h40v40h-40ZM1520.9 816.3h40v40h-40ZM1730.9 755.3h40v40h-40ZM1668.9 755.3h40v40h-40ZM1792.9 755.3h40v40h-40ZM1917.9 755.3h40v40h-40ZM1855.9 755.3h40v40h-40ZM1979.9 755.3h40v40h-40ZM1543.9 755.3h40v40h-40Z"/><path fill="none" d="M1481.9 755.3h40v40h-40ZM1605.9 755.3h40v40h-40Z"/><path fill="#e8e8ef" d="M1696.9 692.3h40v40h-40ZM1634.9 692.3h40v40h-40ZM1758.9 692.3h40v40h-40ZM1883.9 692.3h40v40h-40ZM1821.9 692.3h40v40h-40ZM1945.9 692.3h40v40h-40ZM1509.9 692.3h40v40h-40ZM1447.9 692.3h40v40h-40ZM1571.9 692.3h40v40h-40Z"/><path fill="none" d="M2007.9 692.3h40v40h-40Z"/></g><path fill="#ff1493" stroke="#1d1d26" stroke-width="11" d="M1699.6 468.7c-11.1 0-15.3 6.2-17.7 10.3-2.5-4.1-6.6-10.3-17.7-10.3-11.4 0-30.1 9-26.9 35 3.2 25.9 27.3 31.7 44.4 47.7v.3l.2-.2.2.2v-.3c17.1-16 41.2-21.8 44.4-47.7 3.2-26.1-15.5-35-26.9-35"/><path fill="#ff1493" stroke="#1d1d26" stroke-width="10" d="M1803 558.3c-7.6 0-10.4 4.2-12.1 7-1.7-2.8-4.5-7-12.1-7-7.8 0-20.5 6.1-18.3 23.9 2.2 17.6 18.6 21.6 30.3 32.5v.2l.1-.1.1.1v-.2c11.6-10.9 28.1-14.9 30.3-32.5 2.2-17.8-10.6-23.9-18.3-23.9"/><path fill="#ff1493" stroke="#1d1d26" stroke-width="12" d="M1864.9 339.3c-15.7 0-21.5 10.7-25 16.5-3.5-5.8-9.3-16.5-25-16.5-16.1 0-43.8 12.8-37.9 49.4 4.9 30.6 38.6 44.7 62.7 67.3v.5c.1-.1.2-.2.3-.2.1.1.2.2.3.2v-.5c24.1-22.6 56.9-37.7 62.7-67.3 7.9-41.4-22-49.4-38.1-49.4"/></g><g stroke="#2e2e35" stroke-linecap="round" stroke-linejoin="round" stroke-miterlimit="10"><path fill="#ff1493" stroke-width="15" d="M-124.3 1082c9.2-11 14.8-25.1 14.8-40.5 0-18.2-7.7-34.5-20-46v-.5c0-38.7-28.4-70.8-65.5-76.6-4.3-13.9-17.2-23.9-32.5-23.9-4 0-7.9.7-11.4 2-8.5-9.8-21.1-16-35.1-16-8.6 0-16.7 2.4-23.6 6.5-12.2-9.7-27.6-15.5-44.4-15.5-18.8 0-35.8 7.2-48.6 19.1-6.1-3.2-13.7-5.1-21.9-5.1-20.4 0-37 11.6-37 26v.5c-29.6 3.2-52.8 22.2-55.7 46-13.8 11.4-22.3 26.7-22.3 43.5 0 5.2.8 10.3 2.4 15.2-9.6 10.8-15.4 24.5-15.4 39.3 0 20.3 10.8 38.4 27.5 50.1-.3 2.4-.5 4.9-.5 7.4 0 33.1 30.9 60 69 60 2.7 0 5.4-.1 8-.4 9.1 14.1 24.9 23.4 43 23.4 5.3 0 10.5-.8 15.3-2.3 5.5 11.4 17.2 19.3 30.7 19.3 10.1 0 19.1-4.4 25.3-11.3 9.7 9.5 23 15.3 37.7 15.3 10.4 0 20.1-2.9 28.3-8 13.7 11.7 33.6 19 55.7 19 41.4 0 75-25.7 75-57.5 0-7.6-1.9-14.8-5.4-21.5 12.8-6.9 21.4-20.5 21.4-36 0-12.7-5.7-24-14.8-31.5"/><path fill="none" stroke-width="10" d="M-512.5 1105.5c14-32 60-57 125-34 0 0 14-43 69-27 0 0 23-39 61-16m-181 85s75 43 101-24c0 0 83 48 132-26m-233 110s-19-27 13-54m103 80c39.5 8.5 63 8 84-30 0 0 35 29 74 15m-205-24c23 14 56 11 83-14 0 0 65 21 94-6 0 0 33 19 62 6m-138-172c41-1 62 15 69 30m-12.3-15s-41.7-52 16.3-71m38 103s25 23 0 59c0 0 11-9.8 33 3m-9-89s-16.5-16.5-34-9m-28 121s20-3 38-26m-81-181s-36-19-47 34c0 0-46 12-19 50m7-94s-31-3-42 23c0 0-38 8-30 41 0 0-29 3-29 30m47.4 58.2s29.6-15.2 10.6-47.2m-81.5 68.4s-48.5-12.4-33.5-68.4m68.5-34.2s-14.5-40.8-57.5-21.8m-7 103s-16-30-45-37m-9-46s19-8 31 2m28-46S-461 917-461 935m-61.5 81.5s1 22 23 20"/></g><path fill="#d9d9e2" d="M-547.9 734.7c3.7 8.5 4.9 16.6 3.8 24.4-.9 5.4-2 9.9-3.4 13.4s-6 13.3-13.8 29.5c-5.2 10.9-6.4 19.6-3.6 26.2.8 1.8 2.6 4.5 5.6 7.9 1.1 1.3 1.8 2.2 2 2.7.4.9.2 1.5-.5 1.9-2 .9-5.4-1-10.2-5.6s-8.2-9.2-10.1-13.8c-3.2-7.5-3.6-18-1.2-31.7 2.1-11.5 3.1-18.9 3.2-22 .4-7.4-.8-14.4-3.7-21.1-7.8-17.9-19.3-23.6-34.7-17-6.5 2.8-11.1 7.2-13.8 13.3-2.6 6-2.6 12.1 0 18.1.6 1.4 1.3 1.9 2 1.6.8-.3 1.3-1.8 1.6-4.5.4-3.6 2.6-6.3 6.6-8 8.7-3.7 14.9-1.3 18.6 7.4 1.8 4.3 2 8.3.4 12-1.5 3.7-4.5 6.6-8.9 8.5q-7.35 3.15-14.1.3c-4.5-1.9-7.9-5.5-10.2-10.6-4.3-9.9-3.8-19.5 1.4-28.8 4.8-8.6 13.6-15.6 26.6-21.2 12.8-5.5 24.2-6.7 34.3-3.6 10.1 2.9 17.4 9.9 22.1 20.7m18.7 124c2 4.7 2.2 9.3.5 13.6-1.7 4.4-4.9 7.6-9.7 9.6-4.7 2-9.3 2.2-13.9.5-4.5-1.7-7.8-5-9.9-9.7-2-4.6-2.1-9.1-.2-13.7 1.8-4.6 5.1-7.9 9.8-9.9 4.4-1.9 8.9-2 13.5-.1 4.6 1.7 7.9 5 9.9 9.7m528.1 242.1c-2 5.7-4.9 10.2-8.9 13.4-2.8 2.2-5.3 3.9-7.5 5s-8.7 3.8-19.5 8.2c-7.3 3-11.7 6.7-13.2 11-.4 1.2-.7 3.3-.8 6.2 0 1.1-.1 1.8-.2 2.1-.2.6-.6.8-1.1.7-1.3-.5-2.1-2.8-2.4-7.2-.3-4.3.1-8 1.1-11.1 1.7-5 6.1-10.3 13.3-15.8 6-4.7 9.8-7.7 11.2-9.2 3.4-3.4 5.9-7.3 7.5-11.8 4.1-12 1-19.8-9.3-23.3-4.4-1.5-8.5-1.4-12.4.4-3.9 1.7-6.5 4.7-7.9 8.7-.3.9-.2 1.5.3 1.6q.75.3 2.7-1.5c1.8-1.6 4-1.9 6.7-1q8.7 3 5.7 11.7c-1 2.9-2.7 4.8-5 6-2.4 1.1-5 1.2-8 .2q-4.95-1.65-6.9-6c-1.3-2.9-1.4-6.1-.2-9.6q3.45-9.9 13.2-13.2c6-2 13.4-1.6 22.1 1.4 8.6 2.9 14.6 7.4 18.1 13.3 3.3 6 3.9 12.6 1.4 19.8m-45.3 67.9c-1.1 3.2-3 5.4-5.7 6.8-2.7 1.3-5.7 1.5-8.8.4-3.2-1.1-5.5-3-6.9-5.9-1.4-2.8-1.6-5.8-.5-9 1-3.1 3-5.3 5.9-6.7s5.9-1.6 9.1-.5c3 1 5.1 3 6.5 5.8 1.3 3 1.5 6 .4 9.1m-97.9-389c-1.5 5.7-4 10.2-7.6 13.6-2.6 2.4-4.9 4.1-6.9 5.3s-8.2 4.3-18.4 9.3c-6.8 3.4-10.8 7.3-12 11.6-.3 1.2-.4 3.2-.3 6.1 0 1.1 0 1.8-.1 2.1-.2.6-.5.8-1 .7-1.3-.3-2.3-2.6-2.8-6.8q-.9-6.3.3-10.8 1.95-7.5 11.7-16.2c5.5-4.9 8.9-8.1 10.2-9.7 3.1-3.5 5.2-7.5 6.4-11.9 3.2-11.9-.4-19.3-10.6-22q-6.6-1.65-12 1.2c-3.7 2-6 5-7.1 9-.2.9-.1 1.4.4 1.6.5.1 1.3-.4 2.5-1.6 1.6-1.6 3.7-2.1 6.4-1.4 5.8 1.5 7.9 5.2 6.4 10.9-.7 2.8-2.2 4.9-4.5 6.1-2.2 1.3-4.8 1.5-7.7.7-3.2-.9-5.6-2.6-7.1-5.4-1.5-2.7-1.8-5.8-.9-9.2 1.7-6.6 5.7-11.2 11.9-13.7 5.7-2.4 12.9-2.4 21.5-.2 8.5 2.2 14.6 6.1 18.4 11.6 3.8 5.6 4.8 11.9 2.9 19.1m-39.1 68.9q-1.2 4.65-5.1 6.9c-2.6 1.5-5.4 1.8-8.5 1s-5.5-2.6-7.1-5.2-2-5.5-1.1-8.7c.8-3 2.5-5.3 5.2-6.9s5.6-1.9 8.7-1.1c2.9.8 5.2 2.5 6.7 5.2 1.6 2.8 2 5.7 1.2 8.8m-383.7 304.9c3.6 2.8 6.1 6.1 7.4 9.8.9 2.6 1.5 4.8 1.7 6.7s.6 7.2 1 16.2c.3 6 1.9 10.1 4.7 12.3.8.6 2.2 1.3 4.3 2.1.8.3 1.3.5 1.5.7.4.3.5.6.2.9-.7.8-2.6.8-5.8 0-3.2-.9-5.8-2.1-7.7-3.6-3.2-2.5-5.9-7-8.1-13.6-1.8-5.5-3.1-9-3.8-10.4-1.6-3.3-3.8-6.1-6.7-8.4-7.7-6-14.1-5.7-19.2.8-2.2 2.8-3.1 5.8-2.9 9.1.3 3.3 1.7 5.9 4.3 7.9.6.5 1 .5 1.3.2s.1-1.1-.4-2.3c-.7-1.7-.4-3.4 1-5.1q4.35-5.55 9.9-1.2 2.7 2.1 3 5.1c.2 2-.4 3.9-1.9 5.8-1.6 2.1-3.7 3.2-6.1 3.5-2.4.2-4.8-.5-7-2.2-4.2-3.3-6.3-7.6-6.2-12.9q0-7.35 6.6-15.6c4.3-5.5 9-8.7 14.1-9.7 5.3-1 10.2.3 14.8 3.9m37.7 49.8c2 1.6 3.2 3.5 3.4 5.8.3 2.3-.4 4.5-1.9 6.5-1.6 2-3.6 3.2-6 3.5s-4.6-.3-6.6-1.9c-1.9-1.5-3.1-3.5-3.4-5.9s.3-4.7 1.9-6.7c1.5-1.9 3.4-3 5.9-3.3 2.4-.2 4.7.4 6.7 2m211.2 95.7c-1.5 6.5-4.2 11.8-8.1 15.8-2.8 2.8-5.4 4.9-7.7 6.4-2.3 1.4-9.1 5.2-20.5 11.4-7.7 4.2-12 8.7-13.2 13.7-.3 1.4-.3 3.7-.1 6.9q.15 1.8 0 2.4c-.2.7-.5 1-1.1.9-1.5-.3-2.7-2.9-3.5-7.6s-.9-8.8-.1-12.3c1.3-5.7 5.5-12 12.7-19 6.1-5.9 9.8-9.7 11.2-11.4 3.4-4.1 5.6-8.8 6.8-13.9 3.1-13.7-1.3-21.9-13-24.5-5-1.1-9.5-.5-13.6 1.9s-6.6 5.9-7.7 10.6c-.2 1-.1 1.6.5 1.8.6.1 1.5-.5 2.8-1.9 1.8-1.9 4.2-2.6 7.2-1.9 6.6 1.5 9.2 5.5 7.7 12.2q-1.05 4.95-4.8 7.2c-3.75 2.25-5.4 1.9-8.8 1.2-3.7-.8-6.5-2.8-8.3-5.8s-2.3-6.5-1.4-10.5c1.7-7.6 6-13 13-16.2 6.4-3 14.6-3.3 24.5-1.1 9.8 2.2 16.9 6.3 21.5 12.4 4.4 5.9 5.8 13.1 4 21.3m-41.6 80.2c-.8 3.6-2.6 6.3-5.5 8.1-2.8 1.8-6.1 2.3-9.7 1.5s-6.4-2.7-8.3-5.6-2.5-6.2-1.7-9.8q1.2-5.25 5.7-8.1c3-1.9 6.3-2.4 9.9-1.6 3.4.8 6 2.6 7.9 5.6 2 3 2.5 6.3 1.7 9.9"/><g stroke="#1d1d26" stroke-linecap="round" stroke-linejoin="round" stroke-miterlimit="10" stroke-width="15"><path fill="#ff1493" d="M652.5 130H462.3c-59 0-107.3 48.3-107.3 107.3V321c0 59 48.3 107.3 107.3 107.3h10.6v61.8l91.9-61.8h87.8c59 0 107.3-48.3 107.3-107.3v-83.7c-.1-59-48.4-107.3-107.4-107.3"/><path fill="#8383ba" d="M826.7 414.9h117.8c36.6 0 66.5 29.9 66.5 66.5v51.9c0 36.6-29.9 66.5-66.5 66.5H938V638l-56.9-38.3h-54.4c-36.6 0-66.5-29.9-66.5-66.5v-51.9c0-36.5 29.9-66.4 66.5-66.4"/></g></svg>