<svg xmlns="http://www.w3.org/2000/svg" id="Layer_1" data-name="Layer 1" viewBox="0 0 1600 900"><defs><linearGradient id="linear-gradient" x1="800" x2="800" y1="900" gradientUnits="userSpaceOnUse"><stop offset="0" stop-color="#26184a"/><stop offset="1" stop-color="#00002a"/></linearGradient><style>.cls-4{fill:#e51a5d}.cls-6{fill:#ef6f99}</style></defs><path fill="url(#linear-gradient)" d="M0 0h1600v900H0Z"/><path d="m920.02 218.57 300.52-300.52m-215.67 266.57L1198.62-9.12M858.5 232l251.73-251.73M833.05 305.54l55.86-55.86" style="fill:none;stroke-linecap:round;stroke-linejoin:round;stroke:#f7639c;stroke-width:6px"/><path d="M411.32 555.65c54.58-56.46 107-116.27 107-172.41 0-64.3-44.85-106.24-110.56-106.24-47.69 0-78.82 17.73-111.62 52.81L338 371.46c16.67-17.6 35.51-33.91 59.22-33.91 29.32 0 47.23 17.78 47.23 50 0 47.73-59.79 104.68-144.63 184.89v44.26h234.44v-64.88h-67.11c-15.43 0-38.66 1.92-55.83 3.83M675.14 277c-71.65 0-119.27 58.06-119.27 171.52S603.49 623 675.14 623s119.28-61 119.28-174.48c0-113.03-47.63-171.52-119.28-171.52m0 286.31c-26 0-46.24-23.82-46.24-114.79s20.25-111.83 46.24-111.83 46.25 20.86 46.25 111.83-20.26 114.79-46.25 114.79M979.29 283.3h-56.91c-23.35 14.46-47 23.54-82.71 30.33v47.89h62.44v192.9h-72.87v62.28h212.48v-62.28h-62.43Zm198.43-6.3c-60.41 0-110.87 42.37-110.87 111.74 0 70.65 42.24 103.08 99.31 103.08 20.61 0 49.31-13.05 67-35.61-3 78-32 104.51-69.07 104.51-19.45 0-40.36-11.18-51.69-24l-40.78 46.16c21 21.49 53.37 40.15 97.48 40.15 70.1 0 134.77-56.09 134.77-180.72-.02-117.08-61.55-165.31-126.15-165.31m3.33 160.32c-25.18 0-43.77-13.33-43.77-48.58 0-37.67 19.2-53.78 42-53.78 23.27 0 45.06 16.78 51.93 69.32-14.88 24.06-33.4 33.04-50.16 33.04" style="fill:none;stroke-linecap:round;stroke-linejoin:round;stroke:#5353aa;stroke-width:8px"/><path d="m1393.63 163.65-2.1 21.68 16.68 14.02-21.27 4.71-8.18 20.18-11.05-18.77-21.73-1.54 14.44-16.31-5.25-21.14 19.98 8.69Z" class="cls-4"/><path d="M339.06 332.53c-1.94-.7-3.83-1.41-5.72-2.16l-5.26 3.28q.35-3.07.6-6.07l-4.68-3.93 2.88-.57c1-.22 1.89-.46 2.85-.7.61-1.89 1.25-3.71 1.78-5.58l3.51 5c2 0 4 0 6.07-.11-1.22 1.66-2.4 3.37-3.73 4.95.64 1.93 1.16 3.89 1.7 5.89m-30.64 21.82c-1.7-1.15-3.36-2.3-5-3.5l-5.9 1.9c.73-1.93 1.42-3.85 2.07-5.74l-3.59-4.95 2.94.15h2.93c1.06-1.69 2.12-3.29 3.09-5l2.18 5.7c2 .49 3.91.93 5.91 1.37-1.59 1.31-3.15 2.68-4.82 3.89q.15 3.09.19 6.18M273.4 368c-1.37-1.52-2.7-3-4-4.63l-6.18.44q1.77-2.56 3.4-5.09l-2.25-5.67c1.85.56 3.76 1.17 5.65 1.6 1.44-1.37 2.85-2.71 4.22-4.07l.72 6c1.78 1 3.56 1.86 5.4 2.78l-2.79 1.35c-.93.45-1.89.82-2.84 1.24q-.62 3.05-1.33 6.05m-37.28 4.8c-1-1.79-1.89-3.66-2.78-5.5-2.05-.36-4.08-.65-6.1-1.07 1.55-1.3 3.06-2.74 4.53-4.11l-.82-6c1.67 1 3.37 2 5.1 2.93l5.08-2.95-.77 6c1.49 1.41 3 2.71 4.57 4-1 .21-2 .45-3 .64l-3.06.5c-.87 1.87-1.81 3.76-2.75 5.56m-37.35-4.42c-.49-2-.93-4-1.35-6l-2.84-1.24c-1-.4-1.89-.82-2.81-1.29 1.81-.87 3.63-1.89 5.39-2.87l.68-6c1.37 1.35 2.78 2.74 4.23 4.09l5.64-1.65-2.21 5.58 1.69 2.56c.57.84 1.16 1.64 1.76 2.47-2.07 0-4.11-.23-6.18-.38q-1.95 2.35-4 4.73m-35.13-13.45c0-2 .08-4.13.17-6.16-1.63-1.29-3.3-2.49-4.87-3.84 2-.39 4-1 5.93-1.46l2.14-5.7c1 1.64 2 3.35 3.1 5l5.88-.21-3.53 4.95 1 2.89c.35 1 .73 1.88 1.11 2.83-2-.52-3.93-1.24-5.9-1.88q-2.47 1.82-5.03 3.58m-30.82-21.81q.84-3 1.76-5.9c-1.3-1.61-2.45-3.36-3.64-5.05 2.06.12 4.07.23 6.07.25 1.18-1.63 2.4-3.28 3.62-4.91.47 1.87 1.06 3.69 1.63 5.58 1.86.53 3.83.87 5.68 1.28q-2.31 2-4.67 3.9c.14 2 .31 4.07.59 6.07-1.82-1-3.49-2.21-5.25-3.33-1.92.75-3.86 1.47-5.79 2.11m-23.37-30.04q1.69-2.59 3.45-5.08c-.7-2-1.3-3.95-1.94-5.91q2.91 1.11 5.74 2.07 2.46-1.82 5-3.58c-.15 1.94-.16 3.86-.16 5.82.84.51 1.64 1 2.48 1.52l2.54 1.42q-2.81 1.17-5.65 2.3c-.45 1.94-.93 4-1.28 6-1.37-1.55-2.66-3.17-4-4.77-2.1.13-4.12.13-6.18.21m-13.16-35.7c1.57-1.3 3.2-2.57 4.85-3.8 0-2.09-.15-4.15-.06-6.22.8.64 1.58 1.28 2.38 1.9l2.46 1.8q2.88-1 5.78-1.91c-.64 1.79-1.37 3.64-1.91 5.5 1.31 1.48 2.53 2.94 3.89 4.32-2 .18-4.06.35-6.09.49-1 1.71-2 3.48-3 5.29-.78-1.9-1.68-3.79-2.36-5.75q-2.95-.75-5.94-1.62m-1.78-38.01q2.89-1.14 5.78-2.16c.49-2 1.2-4 1.81-6 1.15 1.72 2.29 3.38 3.47 5 2 0 4.08-.07 6.11-.08-1.22 1.5-2.3 3.07-3.47 4.67.72 1.8 1.61 3.57 2.41 5.29-2-.43-4-.89-5.93-1.36l-2.28 2-2.19 2.12c-.28-2.06-.38-4.12-.52-6.2a78 78 0 0 1-5.19-3.28m9.84-36.77c2.05-.15 4.1-.25 6.12-.32 1.16-1.73 2.37-3.42 3.54-5.11q.88 3 1.83 5.83c2 .57 3.9 1.17 5.84 1.78-.8.53-1.62 1.07-2.41 1.64l-2.27 1.74.27 2.9.41 2.88q-2.62-1.53-5.24-3.11c-1.83.81-3.7 1.66-5.54 2.58.43-2 .91-4 1.38-6.07-1.36-1.54-2.66-3.12-3.93-4.74M125 160.48c2 .49 4 1.08 5.95 1.68 1.63-1.32 3.35-2.5 5.06-3.68-.13 2.07-.25 4.06-.24 6.08 1.65 1.18 3.28 2.37 4.91 3.6q-2.73.72-5.52 1.61c-.39 1.93-.84 3.75-1.11 5.65q-2-2.26-4-4.58-3 .3-6 .77c1.06-1.77 2-3.63 3.22-5.35-.84-1.89-1.58-3.82-2.27-5.78m31-22.97a93 93 0 0 1 4.88 3.78l3-.82 3.05-.67c-.9 1.86-1.76 3.65-2.5 5.55q1.62 2.58 3.18 5.17l-2.83-.33-1.38-.19H162l-1.63 2.38c-.54.78-1 1.63-1.52 2.43q-1-2.87-2-5.76c-1.9-.54-3.91-1.14-5.89-1.56.79-.68 1.63-1.28 2.46-1.91s1.66-1.27 2.52-1.86q-.03-3.09.06-6.21m37.42-9.63c.54.87 1.07 1.75 1.59 2.63s1 1.8 1.52 2.7l3.11.37 3.08.51c-1.53 1.39-3 2.73-4.4 4.21q.54 3 1 6l-2.5-1.36-1.28-.68-1.3-.62-2.41 1.59c-.79.53-1.56 1.13-2.32 1.69.08-2 .17-4.06.29-6.09-1.56-1.22-3.2-2.52-4.88-3.65 1-.33 2-.59 3-.85s2-.56 3-.79q1.2-2.83 2.5-5.66m38.27 5.04c.35 2 .66 4 .89 6.1l2.74 1.53c.91.5 1.78 1.09 2.66 1.63-1 .34-1.92.7-2.86 1.06s-1.88.79-2.8 1.19c-.41 2-.85 4-1.3 5.93-1.18-1.44-2.39-3-3.71-4.38l-2.82.57c-.94.22-1.87.46-2.78.7q1.23-2.77 2.54-5.54c-1-1.72-2-3.53-3.15-5.21 1 .07 2.07.19 3.1.33l3.11.41q2.12-2.19 4.38-4.32m33.64 19.17c-.45 2-.95 4-1.55 6 .64.84 1.31 1.65 1.92 2.5l1.8 2.57c-2.09-.13-4.06-.26-6.09-.22-1.18 1.66-2.37 3.29-3.58 4.91-.48-1.76-1-3.64-1.62-5.41-1.85-.42-3.75-.69-5.58-.93 1.46-1.4 2.93-2.79 4.43-4.16-.21-2-.57-4-1-6 .92.48 1.86.95 2.77 1.45l2.72 1.59c1.93-.86 3.81-1.58 5.78-2.3m22.4 32.26a102 102 0 0 1-4.14 4.58l.53 3.11c.16 1 .26 2.08.39 3.12-1.76-1.1-3.48-2.12-5.29-3-1.81.93-3.62 1.82-5.45 2.69l.62-2.74c.18-.93.32-1.85.47-2.81-.71-.61-1.48-1.19-2.24-1.76s-1.48-1.12-2.28-1.63c2-.58 3.92-1.13 5.87-1.65q1.05-2.79 1.91-5.78c1.19 1.7 2.39 3.44 3.45 5.26 2.05.11 4.12.32 6.16.61m4.96 38.93a97 97 0 0 1-5.79 2.16l-1 3c-.34 1-.73 2-1.09 3-1.05-1.79-2.12-3.49-3.3-5.12q-3 0-6.08-.13l1.81-2.15c.59-.74 1.14-1.5 1.72-2.27-.36-.88-.77-1.75-1.19-2.6s-.79-1.68-1.26-2.5c2 .39 4 .8 6 1.24 1.48-1.33 2.94-2.75 4.36-4.25.28 2.06.54 4.15.64 6.26 1.76 1.08 3.49 2.16 5.18 3.36m-13.6 36.84q-3.13-.3-6.16-.78a57 57 0 0 1-4.6 4.33c0-1-.08-2-.17-3.06s-.21-2-.33-3q-2.7-1.44-5.32-3c1.72-.59 3.41-1.43 5.17-2.24.1-1.95.24-3.79.17-5.67q2.38 1.89 4.72 3.87c1.89-.52 3.92-1.05 5.82-1.75-.31 1-.71 2-1.1 2.93s-.77 2-1.22 2.91c1.04 1.79 2.06 3.61 3.02 5.46m-30.86 25.36a81 81 0 0 1-4.71-4.05c-2.08.43-4.18.74-6.26 1a56 56 0 0 0 3-5.29c-.93-1.81-1.83-3.62-2.7-5.45a49 49 0 0 0 5.45 1.07c.57-.77 1.12-1.5 1.65-2.26l1.49-2.31c.66 1.91 1.28 3.83 1.88 5.77 1 .34 1.9.63 2.88.9s2 .55 3 .76c-.81.67-1.67 1.27-2.52 1.91s-1.74 1.19-2.62 1.79c-.11 2.02-.29 4.07-.54 6.16M208.37 289c-.62-2-1.17-4-1.61-6a57 57 0 0 1-5.76-2.7c1-.38 1.88-.82 2.8-1.27s1.8-.88 2.67-1.39q.38-3 .84-6a48 48 0 0 0 3.9 3.94c.89-.26 1.78-.61 2.64-.94s1.7-.69 2.53-1.07c-.54 1.95-1.1 3.9-1.7 5.85.59.78 1.22 1.58 1.87 2.37s1.33 1.52 2 2.29a58 58 0 0 1-6.33.15 52 52 0 0 1-3.85 4.77m-35-20c.7-2 1.48-4 2.33-5.83l-.83-1.38c-.25-.47-.46-1-.7-1.45l-1.35-2.88q3.08.83 5.93 1.32 2.17-2.18 4.42-4.24a18 18 0 0 0 .2 2.66c.11.88.23 1.8.37 2.73.87.3 1.8.5 2.67.73s1.71.44 2.58.58c-1.58 1.32-3.13 2.54-4.75 3.77a27 27 0 0 0 .15 3c.1 1 .21 2 .36 3.06l-2.75-1.66a11 11 0 0 1-1.31-.92l-1.27-1c-1.92.6-4 1.15-6.05 1.51m-13.71-38.51a56 56 0 0 1 5.67-2.68c.26-1 .46-2.09.78-3.11l1-3c.54.89 1.1 1.76 1.66 2.59l.84 1.22c.3.41.63.8.94 1.19 2-.07 4-.11 6-.1-.54.67-1.08 1.37-1.63 2.09a24 24 0 0 0-1.58 2.26 36 36 0 0 0 3 4.54c-2-.12-4.06-.29-6.09-.49a55 55 0 0 0-3.78 4.77c-.32-1-.51-2-.77-3.08a24 24 0 0 1-.63-3.15c-1.77-.92-3.59-1.94-5.41-3.05m16.55-37.66a44 44 0 0 1 5.93 2.1 42 42 0 0 1 5.76-2.93c-.31 1-.55 2-.77 3a27 27 0 0 0-.53 2.93c1.43 1.4 2.85 2.87 4.23 4.37a22 22 0 0 0-2.56.18 16.7 16.7 0 0 0-2.64.41c-.22.88-.43 1.74-.61 2.58s-.22 1.75-.31 2.59c-1.39-1.46-2.75-3-4.07-4.51-1 .07-2 .16-3 .29s-2 .37-3 .6a42.4 42.4 0 0 1 3.23-5.58 57 57 0 0 1-1.66-6.03m40.19-11.67a47 47 0 0 1 1.83 6l3 1.35c.95.51 1.87 1.08 2.79 1.61a33.2 33.2 0 0 0-5.56 2.46c-.29 2-.62 4-1 6-.52-.65-1.08-1.31-1.66-2a26 26 0 0 0-1.89-1.86l-1.24.47c-.41.17-.81.4-1.2.59-.79.41-1.54.78-2.27 1.21.36-2 .77-3.95 1.23-5.93a23 23 0 0 0-2-2.2c-.71-.71-1.47-1.42-2.27-2.13l3.19-.43c1.08-.15 2.15-.12 3.25-.18.58-.85 1.2-1.73 1.85-2.55s1.25-1.57 1.95-2.41m32.66 27.02a45.5 45.5 0 0 1-4.36 4.58c.07 1.11.15 2.21.18 3.3s-.06 2.19-.16 3.26a30 30 0 0 0-2.31-2.08c-.39-.32-.76-.63-1.16-.93s-.84-.57-1.25-.83q-2.87 1-5.76 1.82c.33-.71.67-1.47 1-2.26s.51-1.6.76-2.46c-.69-.55-1.43-1-2.11-1.49a22 22 0 0 0-2.17-1.18q2.81-1.12 5.7-2a27 27 0 0 0 .87-2.87c.21-1 .4-2 .56-3.05.69.82 1.45 1.62 2.09 2.5s1.31 1.78 1.86 2.74a44 44 0 0 1 6.26.95m-11.48 41.53a32 32 0 0 1-3-1.12q-1.49-.66-2.85-1.41a27 27 0 0 1-3.13 1.23c-.53.18-1.08.29-1.61.44a13 13 0 0 1-1.62.35 22.3 22.3 0 0 0 2.32-5.6q-1.83-2.44-3.44-5a13.3 13.3 0 0 0 2.3.34l1.22.06c.42 0 .81 0 1.23-.07.13-.4.25-.79.35-1.18l.21-1.21a13 13 0 0 0 .18-2.33q2.13 2.15 4.1 4.48a24 24 0 0 0 3-.29c1-.18 2-.41 3-.67-.5 1-.92 2-1.5 2.91a26 26 0 0 1-1.89 2.78q.43 1.5.75 3.09c.15 1.06.28 2.11.38 3.2m-43.74-2.88a28 28 0 0 1 .9-3.18 24 24 0 0 1 1.21-2.94 21 21 0 0 1-2.12-6.47 18.1 18.1 0 0 0 5.57 2.32 59 59 0 0 1 5-3.48 11.4 11.4 0 0 0-.37 4.45 12.5 12.5 0 0 0 2.32.23c.71 0 1.55 0 2.29-.09a86 86 0 0 1-4 4.53 24 24 0 0 0 .59 2.92c.29.94.61 1.95 1 2.94-1-.37-2.08-.73-3.09-1.2a23.4 23.4 0 0 1-3-1.61 26.6 26.6 0 0 1-6.3 1.58" style="fill:#ee6d98"/><path d="m267.1 602.9 28.79 15.18 28.84-15.11-5.54 32.08 23.28 22.75-32.22 4.64-14.45 29.18-14.37-29.21-32.21-4.73 23.34-22.69Zm954.58 141.29q-5.21.51-10.28.69c-.92 1.49-2 2.89-3 4.32s-2.07 2.8-3.13 4.17c-.41-1.67-.8-3.29-1.28-4.91s-1-3.24-1.51-4.81q-4.85-1.49-9.62-3.11c1.28-.83 2.66-1.64 3.9-2.55l3.84-2.76c-.43-3.18-.84-6.23-1.54-9.26q4.48 2.32 8.93 4.78c3-1.43 6-3 8.92-4.73l-.35 2.58-.48 2.57c-.34 1.71-.62 3.44-1.06 5.13 2.28 2.53 4.52 5.17 6.66 7.89m-42.54 54.32c-3.15-1.41-6.26-3-9.25-4.54-1.53.84-3.15 1.54-4.73 2.27l-2.37 1.08-2.42 1c1-3.24 1.76-6.59 2.43-9.81q-3.45-3.72-6.79-7.5c3.11-.06 6.17-.4 9.36-.75l1.77-4.39c.58-1.44 1-3 1.54-4.4q2.71 4.24 5.33 8.59c1.65.13 3.32.23 5 .32s3.35.06 5.07 0c-2.11 2.76-4.41 5.37-6.77 8q1.07 4.97 1.83 10.13m-64.02 25.78c-1-1.39-2-2.8-2.94-4.2s-1.88-2.89-2.78-4.34c-1.75-.14-3.49-.17-5.23-.39l-5.17-.6c2.48-2.45 4.83-4.79 7-7.31-.75-3.28-1.45-6.55-2.11-9.87 1.36.74 2.74 1.38 4.15 2.07l2.15 1 2.17.91c1.27-1 2.53-1.87 3.73-2.88l3.54-3c.14 3.36.25 6.72.3 10.09 2.74 2 5.57 3.66 8.56 5.4-1.61.62-3.24 1.26-4.87 1.86l-5 1.63c-1.02 3.25-2.21 6.4-3.5 9.63m-68.31-9.61q-.51-5.2-.69-10.28c-1.49-.92-2.89-2-4.32-3s-2.8-2.07-4.17-3.13c1.67-.41 3.29-.8 4.91-1.28s3.24-1 4.81-1.51q1.49-4.85 3.11-9.62c.83 1.28 1.64 2.66 2.55 3.9l2.76 3.84c3.18-.43 6.23-.84 9.26-1.54q-2.33 4.49-4.78 8.93c1.43 3 3 6 4.73 8.92l-2.58-.35-2.57-.48c-1.71-.34-3.44-.62-5.13-1.06-2.53 2.28-5.17 4.52-7.89 6.66m-54.32-42.54c1.41-3.15 3-6.26 4.54-9.25-.84-1.53-1.54-3.15-2.27-4.73l-1.08-2.37-1-2.42c3.24 1 6.59 1.76 9.81 2.43q3.72-3.45 7.5-6.79c.06 3.11.4 6.17.75 9.36l4.39 1.77c1.44.58 3 1 4.4 1.54q-4.24 2.72-8.59 5.33c-.13 1.65-.23 3.32-.32 5s-.06 3.35 0 5.07c-2.76-2.11-5.37-4.41-8-6.77q-4.96 1.07-10.13 1.83m-25.78-64.02c1.39-1 2.8-2 4.2-2.94s2.89-1.88 4.34-2.78c.14-1.75.17-3.49.39-5.23l.6-5.17c2.45 2.48 4.79 4.83 7.31 7 3.28-.75 6.55-1.45 9.87-2.11-.74 1.36-1.38 2.74-2.07 4.15l-1 2.15-.91 2.17c1 1.27 1.87 2.53 2.88 3.73l3 3.54c-3.36.14-6.72.25-10.09.3-2 2.74-3.66 5.57-5.4 8.56-.62-1.61-1.26-3.24-1.86-4.87l-1.63-5c-3.25-1.02-6.4-2.21-9.63-3.5m9.61-68.31q5.2-.51 10.28-.69c.92-1.49 2-2.89 3-4.32s2.07-2.8 3.13-4.17c.41 1.67.8 3.29 1.28 4.91s1 3.24 1.51 4.81q4.85 1.49 9.62 3.11c-1.28.83-2.66 1.64-3.9 2.55l-3.84 2.76c.43 3.18.84 6.23 1.54 9.26q-4.49-2.32-8.93-4.78c-3 1.43-6 3-8.92 4.73l.35-2.58.48-2.57c.34-1.71.62-3.44 1.06-5.13-2.28-2.53-4.52-5.17-6.66-7.89m42.54-54.32c3.15 1.41 6.26 3 9.25 4.54 1.53-.84 3.15-1.54 4.73-2.27l2.37-1.08 2.42-1c-1 3.24-1.76 6.59-2.43 9.81q3.45 3.72 6.79 7.5c-3.11.06-6.17.4-9.36.75l-1.77 4.39c-.58 1.44-1 3-1.54 4.4q-2.71-4.24-5.33-8.59c-1.65-.13-3.32-.23-5-.32s-3.35-.06-5.07 0c2.11-2.76 4.41-5.37 6.77-8q-1.06-4.96-1.83-10.13m64.02-25.78c1 1.39 2 2.8 2.94 4.2s1.88 2.89 2.78 4.34c1.75.14 3.49.17 5.23.39l5.17.6c-2.48 2.45-4.83 4.79-7 7.31.75 3.28 1.45 6.55 2.11 9.87-1.36-.74-2.74-1.38-4.15-2.07l-2.15-1-2.17-.91c-1.27 1-2.53 1.87-3.73 2.88l-3.54 3c-.14-3.36-.25-6.72-.3-10.09-2.74-2-5.57-3.66-8.56-5.4 1.61-.62 3.24-1.26 4.87-1.86l5-1.63c1.02-3.25 2.21-6.4 3.5-9.63m68.31 9.61q.51 5.2.69 10.28c1.49.92 2.89 2 4.32 3s2.8 2.07 4.17 3.13c-1.67.41-3.29.8-4.91 1.28s-3.24 1-4.81 1.51q-1.49 4.85-3.11 9.62c-.83-1.28-1.64-2.66-2.55-3.9l-2.76-3.84c-3.18.43-6.23.84-9.26 1.54q2.33-4.49 4.78-8.93c-1.43-3-3-6-4.73-8.92l2.58.35 2.57.48c1.71.34 3.44.62 5.13 1.06 2.53-2.28 5.17-4.52 7.89-6.66m54.32 42.54c-1.41 3.15-3 6.26-4.54 9.25.84 1.53 1.54 3.15 2.27 4.73l1.08 2.37 1 2.42c-3.24-1-6.59-1.76-9.81-2.43q-3.72 3.45-7.51 6.79c0-3.11-.39-6.17-.74-9.36l-4.39-1.77c-1.44-.58-3-1-4.4-1.54q4.24-2.72 8.59-5.33c.13-1.65.23-3.32.32-5s.06-3.35.05-5.07c2.76 2.11 5.37 4.41 8 6.77q4.92-1.06 10.08-1.83m25.78 64.02c-1.39 1-2.8 2-4.2 2.94s-2.89 1.88-4.34 2.78c-.14 1.75-.17 3.49-.39 5.23l-.6 5.17c-2.45-2.48-4.79-4.83-7.31-7-3.28.75-6.55 1.45-9.87 2.11.74-1.36 1.38-2.74 2.07-4.15l1-2.15.91-2.17c-1-1.27-1.87-2.53-2.88-3.73l-3-3.54c3.36-.14 6.72-.25 10.09-.3 2-2.74 3.66-5.57 5.4-8.56.62 1.61 1.26 3.24 1.86 4.87l1.63 5c3.25 1.02 6.4 2.21 9.63 3.5" class="cls-4"/><circle cx="1345.5" cy="277.5" r="14.5" class="cls-4"/><path d="M1142.21 712.81a5.55 5.55 0 0 1-2.7-2.92 6 6 0 0 1-.26-.91 5.4 5.4 0 0 1-.17-1 4.4 4.4 0 0 1 .26-1.9 6 6 0 0 1 1-1.65 5.4 5.4 0 0 1 1.46-1.21 5.77 5.77 0 0 1 4-.59 4.7 4.7 0 0 1 3.17 2.47 5.6 5.6 0 0 1 .61 2.11 5.2 5.2 0 0 1-.35 2.31 6.6 6.6 0 0 1-1.19 2 5 5 0 0 1-.79.76 5.6 5.6 0 0 1-1 .53 4.8 4.8 0 0 1-4.04 0m-13.3 16.7a5.74 5.74 0 0 1-1.18-3.82 5.21 5.21 0 0 1 5-5 5.74 5.74 0 0 1 3.82 1.18 4.67 4.67 0 0 1 1.8 3.61 5.74 5.74 0 0 1-5.79 5.79 4.67 4.67 0 0 1-3.65-1.76m-19.24 9.26a5.77 5.77 0 0 1 .59-4 5.4 5.4 0 0 1 1.21-1.46 6 6 0 0 1 1.65-1 4.4 4.4 0 0 1 1.9-.26 5.4 5.4 0 0 1 1 .17 6 6 0 0 1 .91.26 5.55 5.55 0 0 1 2.92 2.7 4.8 4.8 0 0 1 .07 4.06 5.6 5.6 0 0 1-.53 1 5 5 0 0 1-.76.79 6.6 6.6 0 0 1-2 1.19 5.2 5.2 0 0 1-2.31.35 5.8 5.8 0 0 1-2.11-.6 4.74 4.74 0 0 1-2.54-3.2m-21.34 0a5.66 5.66 0 0 1 2.23-3.29 4.87 4.87 0 0 1 3.65-1 5 5 0 0 1 3.33 1.74A5.78 5.78 0 0 1 1099 740a4.6 4.6 0 0 1-1.69 3.61 5.8 5.8 0 0 1-4.26 1.26 6.1 6.1 0 0 1-3.89-2.14 4.71 4.71 0 0 1-.83-3.96m-19.24-9.26a5.58 5.58 0 0 1 7.18-1.32 4.4 4.4 0 0 1 1.39 1.33 5 5 0 0 1 .47.85 7 7 0 0 1 .36.88 5.5 5.5 0 0 1-.3 4 4.8 4.8 0 0 1-3.13 2.58 5.4 5.4 0 0 1-1.07.18 6 6 0 0 1-1.1-.1 6.5 6.5 0 0 1-2.19-.85 5.3 5.3 0 0 1-2.55-3.61 4.66 4.66 0 0 1 .94-3.94m-13.3-16.7a5.5 5.5 0 0 1 4-.3 7 7 0 0 1 .88.36 5 5 0 0 1 .85.47 4.4 4.4 0 0 1 1.33 1.39 5.58 5.58 0 0 1-1.32 7.18 4.66 4.66 0 0 1-3.9.94 5.3 5.3 0 0 1-3.61-2.55 6.5 6.5 0 0 1-.85-2.19 6 6 0 0 1-.1-1.1 5.4 5.4 0 0 1 .18-1.07 4.8 4.8 0 0 1 2.54-3.13M1051 692a5.78 5.78 0 0 1 3.77 1.46 5 5 0 0 1 1.74 3.33 4.87 4.87 0 0 1-1 3.65 5.66 5.66 0 0 1-3.29 2.23 4.71 4.71 0 0 1-4-.83 6.1 6.1 0 0 1-2.14-3.89 5.8 5.8 0 0 1 1.26-4.26A4.6 4.6 0 0 1 1051 692m4.79-20.81a5.55 5.55 0 0 1 2.7 2.92 6 6 0 0 1 .26.91 5.4 5.4 0 0 1 .17 1 4.4 4.4 0 0 1-.26 1.9 6 6 0 0 1-1 1.65 5.4 5.4 0 0 1-1.46 1.21 5.77 5.77 0 0 1-4 .59 4.7 4.7 0 0 1-3.17-2.47 5.6 5.6 0 0 1-.61-2.11 5.2 5.2 0 0 1 .35-2.31 6.6 6.6 0 0 1 1.19-2 5 5 0 0 1 .79-.76 5.6 5.6 0 0 1 1-.53 4.8 4.8 0 0 1 4.04 0m13.3-16.7a5.74 5.74 0 0 1 1.18 3.82 5.21 5.21 0 0 1-5 5 5.74 5.74 0 0 1-3.82-1.18 4.67 4.67 0 0 1-1.8-3.61 5.74 5.74 0 0 1 5.79-5.79 4.67 4.67 0 0 1 3.65 1.76m19.24-9.26a5.77 5.77 0 0 1-.59 4 5.4 5.4 0 0 1-1.21 1.46 6 6 0 0 1-1.65 1 4.4 4.4 0 0 1-1.9.26 5.4 5.4 0 0 1-1-.17 6 6 0 0 1-.91-.26 5.55 5.55 0 0 1-2.92-2.7 4.8 4.8 0 0 1-.07-4.06 5.6 5.6 0 0 1 .53-1 5 5 0 0 1 .76-.79 6.6 6.6 0 0 1 2-1.19 5.2 5.2 0 0 1 2.31-.35 5.8 5.8 0 0 1 2.11.6 4.74 4.74 0 0 1 2.54 3.2m21.34 0a5.66 5.66 0 0 1-2.23 3.29 4.87 4.87 0 0 1-3.65 1 5 5 0 0 1-3.33-1.74A5.78 5.78 0 0 1 1099 644a4.6 4.6 0 0 1 1.69-3.61 5.8 5.8 0 0 1 4.26-1.26 6.1 6.1 0 0 1 3.89 2.14 4.71 4.71 0 0 1 .83 3.96m19.24 9.26a5.58 5.58 0 0 1-7.18 1.32 4.4 4.4 0 0 1-1.39-1.33 5 5 0 0 1-.47-.85 7 7 0 0 1-.36-.88 5.5 5.5 0 0 1 .3-4 4.8 4.8 0 0 1 3.13-2.58 5.4 5.4 0 0 1 1.06-.17 6 6 0 0 1 1.1.1 6.5 6.5 0 0 1 2.19.85 5.3 5.3 0 0 1 2.55 3.61 4.66 4.66 0 0 1-.93 3.93m13.3 16.7a5.5 5.5 0 0 1-4 .3 7 7 0 0 1-.88-.36 5 5 0 0 1-.85-.47 4.4 4.4 0 0 1-1.33-1.39 5.58 5.58 0 0 1 1.32-7.18 4.66 4.66 0 0 1 3.9-.94 5.3 5.3 0 0 1 3.61 2.55 6.5 6.5 0 0 1 .85 2.19 6 6 0 0 1 .1 1.1 5.4 5.4 0 0 1-.18 1.07 4.8 4.8 0 0 1-2.54 3.13M1147 692a5.78 5.78 0 0 1-3.77-1.46 5 5 0 0 1-1.74-3.33 4.87 4.87 0 0 1 1-3.65 5.66 5.66 0 0 1 3.29-2.23 4.71 4.71 0 0 1 4 .83 6.1 6.1 0 0 1 2.14 3.89 5.8 5.8 0 0 1-1.26 4.26A4.6 4.6 0 0 1 1147 692" class="cls-6"/><path d="m200.94 548.63 8.39 15.45 17.48 1.85-12.1 12.75 3.64 17.2-15.87-7.56-15.23 8.78 2.3-17.43-13.06-11.78 17.29-3.2Z" class="cls-4"/><circle cx="1253" cy="299" r="7" class="cls-4"/><path d="M1548.59 604.2a4.38 4.38 0 0 1-.28-3.18 3.88 3.88 0 0 1 1.83-2.43 4.3 4.3 0 0 1 5.65 1.44 4.09 4.09 0 0 1-1.42 5.83 4.32 4.32 0 0 1-3.3.43 4.07 4.07 0 0 1-2.48-2.09m-23.86 6.85a4.16 4.16 0 0 1 8.22-1.3 4.16 4.16 0 1 1-8.22 1.3m-24.73-2.22a4.44 4.44 0 0 1 1.93-2.56 3.95 3.95 0 0 1 5.5 1.18 4.48 4.48 0 0 1 .7 3.13 4 4 0 0 1-1.7 2.73 4.26 4.26 0 0 1-6-1.29 4 4 0 0 1-.43-3.19m-22.24-11.03a4.28 4.28 0 0 1 5.71-1.09 3.85 3.85 0 0 1 1.7 2.52 4.42 4.42 0 0 1-.47 3.16 4 4 0 0 1-2.59 1.94 4.43 4.43 0 0 1-3.28-.61 4.1 4.1 0 0 1-1.07-5.92m-16.2-18.71a4.4 4.4 0 0 1 3.16-.37 4 4 0 0 1 1.36.64 3.7 3.7 0 0 1 1.11 1.08 4.37 4.37 0 0 1-1.23 5.69 4 4 0 0 1-5.88-1.19 4.7 4.7 0 0 1-.67-1.63 4.15 4.15 0 0 1 .12-1.69 4 4 0 0 1 2.03-2.53m-6.26-23.93a4.3 4.3 0 0 1 3 1.08 4 4 0 0 1 1.48 2.64 4.24 4.24 0 0 1-.91 2.89 4.33 4.33 0 0 1-2.7 1.65 4 4 0 0 1-4.76-3.69 4.3 4.3 0 0 1 .95-3.22 4.06 4.06 0 0 1 2.94-1.35m5.04-24.23a4.34 4.34 0 0 1 2.35 5.33 4.5 4.5 0 0 1-.85 1.28 3.8 3.8 0 0 1-1.21.91 4.42 4.42 0 0 1-3.18.27 4 4 0 0 1-2.49-2.06 4.5 4.5 0 0 1-.45-1.63 3.8 3.8 0 0 1 .31-1.74 4 4 0 0 1 5.52-2.36m15.48-19.28c1.32 1.88 1.15 4.49-.44 5.76a4.29 4.29 0 0 1-5.76-.23 3.86 3.86 0 0 1-1.26-2.94 4.5 4.5 0 0 1 1.43-3.12 4.08 4.08 0 0 1 6.03.53m23.23-8.21a4.16 4.16 0 0 1-8.23 1.22 4.17 4.17 0 1 1 8.23-1.22m23.95 5.8a4.3 4.3 0 0 1-5.44 1.9c-1.89-.75-2.82-3.19-2.11-5.38a4.16 4.16 0 1 1 7.55 3.48m16.21 18.34a4.64 4.64 0 0 1-3.18 0 3.59 3.59 0 0 1-2.66-3.25 3.7 3.7 0 0 1 .1-1.47 4.7 4.7 0 0 1 1.82-2.64 3.82 3.82 0 0 1 3.16-.62 4.7 4.7 0 0 1 1.56.74 4.54 4.54 0 0 1 1.47 4.88 3.84 3.84 0 0 1-2.27 2.36m.33 24.42a4.83 4.83 0 0 1-2.45-2.07 3.8 3.8 0 0 1-.47-2.86 3.7 3.7 0 0 1 1.71-2.37 4.57 4.57 0 0 1 3.06-.79 4 4 0 0 1 2.83 1.64 4.6 4.6 0 0 1 .6 3.41 4.45 4.45 0 0 1-2.07 2.8 3.75 3.75 0 0 1-3.21.24m-16.2 18.12a4.94 4.94 0 0 1-.22-3.18 4 4 0 0 1 1.62-2.33 3.1 3.1 0 0 1 1.34-.49 4.5 4.5 0 0 1 1.46 0 4.88 4.88 0 0 1 2.8 1.55 3.78 3.78 0 0 1 .91 3.1 4.2 4.2 0 0 1-.63 1.63 5.1 5.1 0 0 1-1.36 1.3 4.3 4.3 0 0 1-3.5.57 3.72 3.72 0 0 1-2.42-2.15m-24.1-.88a4.75 4.75 0 0 1 2.35-2.12 3.73 3.73 0 0 1 5 1.74 4.72 4.72 0 0 1 .52 3.12 3.85 3.85 0 0 1-1.88 2.67 4.64 4.64 0 0 1-3.54.26 4.58 4.58 0 0 1-2.6-2.42 3.82 3.82 0 0 1 .15-3.25m-12.87-19.95a5.1 5.1 0 0 1 3 1 3.88 3.88 0 0 1 1.56 2.27 2.7 2.7 0 0 1 0 .69 3 3 0 0 1 0 .67 4.1 4.1 0 0 1-.55 1.35 4.88 4.88 0 0 1-2.35 2.11 3.74 3.74 0 0 1-3.26-.15 4.3 4.3 0 0 1-1.3-1.19 5 5 0 0 1-.49-.82 4.82 4.82 0 0 1 .46-4.51 3.68 3.68 0 0 1 2.93-1.42" class="cls-6"/></svg>