<?xml version="1.0" encoding="UTF-8"?> <svg xmlns:xlink="http://www.w3.org/1999/xlink" xmlns="http://www.w3.org/2000/svg" width="193" height="66" viewBox="0 0 193 66" fill="none"><g clip-path="url(#clip0_393_11221)"><rect x="0.0488281" width="3.35802" height="66" fill="#232325"></rect><path d="M28.4743 8.59491C28.4305 8.11394 28.236 7.7401 27.8906 7.47338C27.5495 7.20229 27.062 7.06674 26.428 7.06674C26.0082 7.06674 25.6584 7.1214 25.3786 7.23071C25.0988 7.34002 24.8889 7.49087 24.749 7.68326C24.609 7.87127 24.5369 8.08771 24.5325 8.33256C24.5238 8.53369 24.5631 8.71078 24.6506 8.86381C24.7424 9.01685 24.8736 9.15239 25.0441 9.27045C25.219 9.38413 25.4289 9.4847 25.6737 9.57215C25.9186 9.65959 26.1941 9.73611 26.5001 9.8017L27.6544 10.064C28.3191 10.2083 28.905 10.4007 29.4122 10.6412C29.9237 10.8817 30.3522 11.1681 30.6977 11.5004C31.0474 11.8327 31.312 12.2153 31.4912 12.6481C31.6705 13.081 31.7623 13.5664 31.7667 14.1042C31.7623 14.9524 31.5481 15.6804 31.124 16.2882C30.6998 16.896 30.0899 17.3616 29.2941 17.6852C28.5027 18.0087 27.5473 18.1705 26.428 18.1705C25.3043 18.1705 24.3248 18.0022 23.4897 17.6655C22.6546 17.3288 22.0053 16.8173 21.5418 16.1308C21.0783 15.4443 20.84 14.5764 20.8269 13.527H23.9357C23.9619 13.9599 24.0778 14.3206 24.2833 14.6092C24.4888 14.8978 24.7708 15.1164 25.1294 15.265C25.4923 15.4137 25.912 15.488 26.3886 15.488C26.8259 15.488 27.1975 15.429 27.5036 15.311C27.814 15.1929 28.0523 15.0289 28.2185 14.8191C28.3846 14.6092 28.4699 14.3687 28.4743 14.0976C28.4699 13.844 28.3912 13.6276 28.2382 13.4483C28.0851 13.2647 27.849 13.1073 27.5298 12.9761C27.215 12.8405 26.8127 12.7159 26.323 12.6022L24.9195 12.2743C23.7564 12.0076 22.8404 11.5769 22.1714 10.9823C21.5024 10.3832 21.1701 9.57433 21.1745 8.55556C21.1701 7.72479 21.3931 6.99678 21.8435 6.37153C22.2938 5.74627 22.9169 5.25874 23.7127 4.90895C24.5085 4.55916 25.4158 4.38426 26.4345 4.38426C27.4752 4.38426 28.3781 4.56134 29.1433 4.91551C29.9128 5.2653 30.5096 5.7572 30.9338 6.3912C31.3579 7.02521 31.5743 7.75977 31.5831 8.59491H28.4743ZM39.0927 7.92593V10.287H32.7374V7.92593H39.0927ZM34.0688 5.51235H37.276V14.8322C37.276 15.0289 37.3066 15.1885 37.3678 15.311C37.4334 15.429 37.5274 15.5143 37.6498 15.5667C37.7722 15.6148 37.9187 15.6389 38.0892 15.6389C38.2117 15.6389 38.3407 15.628 38.4762 15.6061C38.6161 15.5799 38.7211 15.558 38.791 15.5405L39.2764 17.8557C39.1233 17.8994 38.9069 17.9541 38.627 18.0197C38.3516 18.0853 38.0215 18.1268 37.6367 18.1443C36.8846 18.1793 36.2397 18.0918 35.7019 17.8819C35.1685 17.6677 34.7596 17.3354 34.4754 16.885C34.1956 16.4347 34.06 15.8684 34.0688 15.1863V5.51235ZM40.7291 18V7.92593H43.9363V18H40.7291ZM42.336 6.75193C41.8856 6.75193 41.4986 6.60327 41.1751 6.30594C40.8515 6.00424 40.6897 5.64133 40.6897 5.21721C40.6897 4.79745 40.8515 4.43891 41.1751 4.14159C41.4986 3.83989 41.8856 3.68904 42.336 3.68904C42.7907 3.68904 43.1777 3.83989 43.4968 4.14159C43.8204 4.43891 43.9822 4.79745 43.9822 5.21721C43.9822 5.64133 43.8204 6.00424 43.4968 6.30594C43.1777 6.60327 42.7907 6.75193 42.336 6.75193ZM50.6802 18.1902C49.6177 18.1902 48.706 17.9716 47.9452 17.5343C47.1888 17.0971 46.6073 16.4893 46.2006 15.711C45.794 14.9284 45.5907 14.0233 45.5907 12.9958C45.5907 11.9639 45.794 11.0588 46.2006 10.2805C46.6116 9.49781 47.1954 8.88786 47.9518 8.45062C48.7126 8.01337 49.6199 7.79475 50.6736 7.79475C51.605 7.79475 52.416 7.96309 53.1069 8.29977C53.8021 8.63645 54.3443 9.11304 54.7334 9.72955C55.127 10.3417 55.3346 11.061 55.3565 11.8873H52.3592C52.298 11.3714 52.1231 10.9669 51.8345 10.674C51.5503 10.381 51.1787 10.2346 50.7195 10.2346C50.3479 10.2346 50.0221 10.3395 49.7423 10.5494C49.4625 10.7549 49.2439 11.061 49.0864 11.4676C48.9334 11.8699 48.8569 12.3683 48.8569 12.963C48.8569 13.5576 48.9334 14.0604 49.0864 14.4715C49.2439 14.8781 49.4625 15.1863 49.7423 15.3962C50.0221 15.6017 50.3479 15.7045 50.7195 15.7045C51.0169 15.7045 51.2792 15.6411 51.5066 15.5143C51.7383 15.3875 51.9285 15.2016 52.0772 14.9568C52.2258 14.7076 52.3199 14.4059 52.3592 14.0517H55.3565C55.3259 14.8825 55.1182 15.6083 54.7334 16.2292C54.353 16.8501 53.8174 17.3332 53.1266 17.6786C52.4401 18.0197 51.6246 18.1902 50.6802 18.1902ZM60.205 12.2546V18H56.9978V4.5679H60.1V9.77546H60.2115C60.4389 9.15458 60.8106 8.66924 61.3265 8.31944C61.8468 7.96965 62.483 7.79475 63.2351 7.79475C63.9434 7.79475 64.5599 7.95216 65.0846 8.26698C65.6093 8.57742 66.0159 9.01685 66.3045 9.58526C66.5975 10.1537 66.7418 10.8183 66.7374 11.5791V18H63.5302V12.2087C63.5346 11.649 63.3947 11.2118 63.1105 10.897C62.8263 10.5822 62.4262 10.4248 61.9102 10.4248C61.5736 10.4248 61.2762 10.4991 61.0183 10.6478C60.7647 10.7921 60.5657 10.9997 60.4214 11.2708C60.2815 11.5419 60.2094 11.8699 60.205 12.2546ZM74.4258 7.92593V10.287H68.0704V7.92593H74.4258ZM69.4018 5.51235H72.609V14.8322C72.609 15.0289 72.6396 15.1885 72.7008 15.311C72.7664 15.429 72.8604 15.5143 72.9829 15.5667C73.1053 15.6148 73.2518 15.6389 73.4223 15.6389C73.5447 15.6389 73.6737 15.628 73.8092 15.6061C73.9492 15.5799 74.0541 15.558 74.1241 15.5405L74.6094 17.8557C74.4564 17.8994 74.2399 17.9541 73.9601 18.0197C73.6846 18.0853 73.3545 18.1268 72.9697 18.1443C72.2177 18.1793 71.5727 18.0918 71.0349 17.8819C70.5015 17.6677 70.0927 17.3354 69.8085 16.885C69.5286 16.4347 69.3931 15.8684 69.4018 15.1863V5.51235ZM76.0621 18V7.92593H79.2693V18H76.0621ZM77.669 6.75193C77.2186 6.75193 76.8317 6.60327 76.5081 6.30594C76.1846 6.00424 76.0228 5.64133 76.0228 5.21721C76.0228 4.79745 76.1846 4.43891 76.5081 4.14159C76.8317 3.83989 77.2186 3.68904 77.669 3.68904C78.1237 3.68904 78.5107 3.83989 78.8299 4.14159C79.1534 4.43891 79.3152 4.79745 79.3152 5.21721C79.3152 5.64133 79.1534 6.00424 78.8299 6.30594C78.5107 6.60327 78.1237 6.75193 77.669 6.75193ZM84.5179 12.2546V18H81.3107V7.92593H84.3605V9.77546H84.472C84.695 9.15895 85.0754 8.6758 85.6132 8.326C86.151 7.97184 86.7915 7.79475 87.5348 7.79475C88.2432 7.79475 88.8575 7.95435 89.3778 8.27353C89.9025 8.58835 90.3091 9.02996 90.5977 9.59838C90.8907 10.1624 91.035 10.8227 91.0306 11.5791V18H87.8234V12.2087C87.8278 11.649 87.6857 11.2118 87.3971 10.897C87.1129 10.5822 86.7172 10.4248 86.21 10.4248C85.8733 10.4248 85.576 10.4991 85.318 10.6478C85.0644 10.7921 84.8677 10.9997 84.7277 11.2708C84.5922 11.5419 84.5222 11.8699 84.5179 12.2546ZM97.7122 21.9877C96.7546 21.9877 95.9348 21.8543 95.2527 21.5876C94.5706 21.3209 94.035 20.9558 93.6459 20.4923C93.2567 20.0288 93.0228 19.5041 92.9441 18.9182L95.9807 18.7477C96.0376 18.9532 96.1425 19.1325 96.2955 19.2855C96.453 19.4385 96.6563 19.5566 96.9055 19.6397C97.1591 19.7227 97.4564 19.7643 97.7975 19.7643C98.3353 19.7643 98.7791 19.6331 99.1289 19.3708C99.483 19.1128 99.6601 18.6602 99.6601 18.0131V16.2423H99.5486C99.4218 16.5527 99.2294 16.8304 98.9715 17.0752C98.7135 17.3201 98.3921 17.5125 98.0073 17.6524C97.6269 17.7923 97.1897 17.8623 96.6956 17.8623C95.9611 17.8623 95.2877 17.6917 94.6756 17.3507C94.0678 17.0053 93.5803 16.4718 93.213 15.7504C92.8501 15.0246 92.6686 14.091 92.6686 12.9498C92.6686 11.7737 92.8566 10.8052 93.2327 10.0444C93.6087 9.27919 94.1006 8.71296 94.7084 8.34568C95.3205 7.9784 95.9785 7.79475 96.6825 7.79475C97.2116 7.79475 97.6641 7.88657 98.0401 8.07022C98.4205 8.24949 98.7332 8.48122 98.978 8.76543C99.2229 9.04964 99.4087 9.34478 99.5355 9.65085H99.6273V7.92593H102.821V18.0394C102.821 18.892 102.607 19.6112 102.179 20.1971C101.75 20.7831 101.151 21.2269 100.382 21.5285C99.612 21.8346 98.7222 21.9877 97.7122 21.9877ZM97.8106 15.5274C98.1997 15.5274 98.532 15.4246 98.8075 15.2191C99.083 15.0136 99.295 14.7185 99.4437 14.3337C99.5924 13.9489 99.6667 13.4877 99.6667 12.9498C99.6667 12.4033 99.5924 11.9333 99.4437 11.5397C99.2994 11.1418 99.0873 10.8358 98.8075 10.6215C98.532 10.4073 98.1997 10.3002 97.8106 10.3002C97.4127 10.3002 97.076 10.4095 96.8006 10.6281C96.5251 10.8467 96.3152 11.155 96.1709 11.5529C96.031 11.9464 95.9611 12.412 95.9611 12.9498C95.9611 13.4877 96.0332 13.9489 96.1775 14.3337C96.3218 14.7185 96.5295 15.0136 96.8006 15.2191C97.076 15.4246 97.4127 15.5274 97.8106 15.5274ZM26.1787 40H21.2139V26.5679H26.1722C27.5408 26.5679 28.7191 26.8368 29.7073 27.3746C30.6998 27.9081 31.465 28.6776 32.0028 29.6833C32.5406 30.6845 32.8095 31.8826 32.8095 33.2774C32.8095 34.6766 32.5406 35.879 32.0028 36.8846C31.4694 37.8903 30.7064 38.662 29.7139 39.1998C28.7213 39.7333 27.5429 40 26.1787 40ZM24.4604 37.2323H26.0541C26.8062 37.2323 27.4424 37.1055 27.9627 36.8519C28.4874 36.5939 28.8831 36.1763 29.1498 35.5992C29.4209 35.0176 29.5564 34.2437 29.5564 33.2774C29.5564 32.3111 29.4209 31.5415 29.1498 30.9687C28.8787 30.3916 28.4786 29.9762 27.9496 29.7226C27.4249 29.4646 26.7778 29.3356 26.0082 29.3356H24.4604V37.2323ZM37.5449 40.1705C36.9021 40.1705 36.3315 40.0634 35.8331 39.8492C35.339 39.6305 34.9477 39.3026 34.6591 38.8654C34.3749 38.4237 34.2328 37.8706 34.2328 37.206C34.2328 36.6463 34.3311 36.1741 34.5279 35.7894C34.7247 35.4046 34.9957 35.0919 35.3412 34.8515C35.6866 34.611 36.0845 34.4295 36.5348 34.3071C36.9852 34.1803 37.4662 34.095 37.9777 34.0513C38.5505 33.9988 39.0118 33.9442 39.3616 33.8873C39.7114 33.8261 39.965 33.7409 40.1224 33.6316C40.2842 33.5179 40.3651 33.3583 40.3651 33.1528V33.12C40.3651 32.7833 40.2492 32.5231 40.0175 32.3395C39.7857 32.1559 39.4731 32.064 39.0796 32.064C38.6555 32.064 38.3144 32.1559 38.0564 32.3395C37.7985 32.5231 37.6345 32.7767 37.5645 33.1003L34.6066 32.9954C34.6941 32.3832 34.9192 31.8367 35.2821 31.3557C35.6494 30.8704 36.1523 30.49 36.7906 30.2145C37.4334 29.9347 38.2051 29.7948 39.1058 29.7948C39.7486 29.7948 40.341 29.8713 40.8832 30.0243C41.4254 30.173 41.8976 30.3916 42.2999 30.6802C42.7022 30.9644 43.0126 31.3142 43.2312 31.7296C43.4542 32.1449 43.5657 32.6193 43.5657 33.1528V40H40.5487V38.5965H40.47C40.2908 38.9375 40.0612 39.2261 39.7814 39.4622C39.5059 39.6983 39.1802 39.8754 38.8041 39.9934C38.4325 40.1115 38.0127 40.1705 37.5449 40.1705ZM38.5352 38.0718C38.8807 38.0718 39.1911 38.0018 39.4666 37.8619C39.7464 37.722 39.9694 37.5296 40.1355 37.2847C40.3017 37.0355 40.3848 36.7469 40.3848 36.419V35.4614C40.2929 35.5095 40.1814 35.5532 40.0503 35.5926C39.9235 35.6319 39.7836 35.6691 39.6305 35.7041C39.4775 35.7391 39.3201 35.7697 39.1583 35.7959C38.9965 35.8221 38.8413 35.8462 38.6926 35.8681C38.3909 35.9162 38.133 35.9905 37.9187 36.091C37.7088 36.1916 37.5471 36.3228 37.4334 36.4846C37.3241 36.642 37.2694 36.83 37.2694 37.0486C37.2694 37.3809 37.3875 37.6345 37.6236 37.8094C37.8641 37.9843 38.1679 38.0718 38.5352 38.0718ZM51.2131 29.9259V32.287H44.8578V29.9259H51.2131ZM46.1892 27.5123H49.3963V36.8322C49.3963 37.0289 49.4269 37.1885 49.4882 37.311C49.5537 37.429 49.6478 37.5143 49.7702 37.5667C49.8926 37.6148 50.0391 37.6389 50.2096 37.6389C50.332 37.6389 50.461 37.628 50.5966 37.6061C50.7365 37.5799 50.8414 37.558 50.9114 37.5405L51.3967 39.8557C51.2437 39.8994 51.0273 39.9541 50.7474 40.0197C50.472 40.0853 50.1418 40.1268 49.7571 40.1443C49.005 40.1793 48.3601 40.0918 47.8223 39.8819C47.2888 39.6677 46.88 39.3354 46.5958 38.885C46.316 38.4347 46.1804 37.8684 46.1892 37.1863V27.5123ZM55.6894 40.1705C55.0466 40.1705 54.476 40.0634 53.9776 39.8492C53.4835 39.6305 53.0921 39.3026 52.8036 38.8654C52.5193 38.4237 52.3772 37.8706 52.3772 37.206C52.3772 36.6463 52.4756 36.1741 52.6724 35.7894C52.8691 35.4046 53.1402 35.0919 53.4857 34.8515C53.8311 34.611 54.229 34.4295 54.6793 34.3071C55.1297 34.1803 55.6107 34.095 56.1222 34.0513C56.695 33.9988 57.1563 33.9442 57.5061 33.8873C57.8559 33.8261 58.1095 33.7409 58.2669 33.6316C58.4287 33.5179 58.5096 33.3583 58.5096 33.1528V33.12C58.5096 32.7833 58.3937 32.5231 58.162 32.3395C57.9302 32.1559 57.6176 32.064 57.2241 32.064C56.8 32.064 56.4589 32.1559 56.2009 32.3395C55.943 32.5231 55.779 32.7767 55.709 33.1003L52.7511 32.9954C52.8385 32.3832 53.0637 31.8367 53.4266 31.3557C53.7939 30.8704 54.2967 30.49 54.9351 30.2145C55.5779 29.9347 56.3496 29.7948 57.2503 29.7948C57.8931 29.7948 58.4855 29.8713 59.0277 30.0243C59.5699 30.173 60.0421 30.3916 60.4444 30.6802C60.8466 30.9644 61.1571 31.3142 61.3757 31.7296C61.5987 32.1449 61.7102 32.6193 61.7102 33.1528V40H58.6932V38.5965H58.6145C58.4352 38.9375 58.2057 39.2261 57.9259 39.4622C57.6504 39.6983 57.3246 39.8754 56.9486 39.9934C56.577 40.1115 56.1572 40.1705 55.6894 40.1705ZM56.6797 38.0718C57.0251 38.0718 57.3356 38.0018 57.611 37.8619C57.8909 37.722 58.1139 37.5296 58.28 37.2847C58.4462 37.0355 58.5292 36.7469 58.5292 36.419V35.4614C58.4374 35.5095 58.3259 35.5532 58.1948 35.5926C58.068 35.6319 57.928 35.6691 57.775 35.7041C57.622 35.7391 57.4646 35.7697 57.3028 35.7959C57.141 35.8221 56.9858 35.8462 56.8371 35.8681C56.5354 35.9162 56.2774 35.9905 56.0632 36.091C55.8533 36.1916 55.6915 36.3228 55.5779 36.4846C55.4685 36.642 55.4139 36.83 55.4139 37.0486C55.4139 37.3809 55.5319 37.6345 55.7681 37.8094C56.0085 37.9843 56.3124 38.0718 56.6797 38.0718ZM67.6392 40V26.5679H73.2403C74.2459 26.5679 75.0876 26.71 75.7654 26.9942C76.4475 27.2784 76.959 27.6763 77.3001 28.1879C77.6455 28.6995 77.8182 29.2919 77.8182 29.9653C77.8182 30.4769 77.7111 30.9338 77.4968 31.336C77.2826 31.7339 76.9875 32.064 76.6114 32.3264C76.2354 32.5887 75.8003 32.7724 75.3063 32.8773V33.0085C75.8484 33.0347 76.3491 33.1812 76.8082 33.4479C77.2717 33.7146 77.6433 34.0863 77.9232 34.5629C78.203 35.0351 78.3429 35.5948 78.3429 36.2419C78.3429 36.9633 78.1593 37.6083 77.792 38.1767C77.4247 38.7407 76.8934 39.1867 76.1982 39.5147C75.503 39.8382 74.6591 40 73.6666 40H67.6392ZM70.8857 37.3831H72.8927C73.5966 37.3831 74.1148 37.2497 74.4471 36.983C74.7837 36.7163 74.9521 36.3447 74.9521 35.8681C74.9521 35.5226 74.8712 35.2253 74.7094 34.9761C74.5476 34.7225 74.3181 34.5279 74.0208 34.3924C73.7234 34.2524 73.3671 34.1825 72.9517 34.1825H70.8857V37.3831ZM70.8857 32.0903H72.6828C73.037 32.0903 73.3518 32.0312 73.6272 31.9132C73.9027 31.7951 74.117 31.6246 74.27 31.4016C74.4274 31.1786 74.5061 30.9097 74.5061 30.5949C74.5061 30.1445 74.3465 29.7904 74.0273 29.5324C73.7081 29.2744 73.2774 29.1454 72.7353 29.1454H70.8857V32.0903ZM84.613 40.1902C83.5592 40.1902 82.6497 39.9825 81.8846 39.5671C81.1238 39.1474 80.5379 38.5505 80.1269 37.7766C79.7202 36.9983 79.5169 36.0736 79.5169 35.0023C79.5169 33.9617 79.7224 33.0522 80.1334 32.2739C80.5444 31.4913 81.1238 30.8835 81.8715 30.4506C82.6191 30.0134 83.5002 29.7948 84.5146 29.7948C85.2317 29.7948 85.8875 29.9063 86.4822 30.1292C87.0768 30.3522 87.5906 30.6824 88.0235 31.1196C88.4563 31.5568 88.793 32.0968 89.0335 32.7396C89.274 33.378 89.3942 34.1103 89.3942 34.9367V35.7369H80.6384V33.8742H86.41C86.4057 33.5332 86.3248 33.2293 86.1674 32.9626C86.01 32.6959 85.7935 32.4882 85.5181 32.3395C85.247 32.1865 84.9343 32.11 84.5802 32.11C84.2216 32.11 83.9003 32.1908 83.6161 32.3526C83.3318 32.51 83.1067 32.7265 82.9405 33.0019C82.7744 33.273 82.6869 33.5813 82.6782 33.9267V35.8221C82.6782 36.2332 82.7591 36.5939 82.9208 36.9043C83.0826 37.2104 83.3122 37.4487 83.6095 37.6192C83.9068 37.7897 84.261 37.875 84.672 37.875C84.9562 37.875 85.2142 37.8356 85.4459 37.7569C85.6777 37.6782 85.8766 37.5624 86.0428 37.4093C86.2089 37.2563 86.3335 37.0683 86.4166 36.8453L89.3614 36.9306C89.239 37.5908 88.9701 38.1658 88.5547 38.6555C88.1437 39.1408 87.6037 39.519 86.9347 39.7901C86.2657 40.0568 85.4918 40.1902 84.613 40.1902ZM99.8274 33.0019L96.8825 33.0806C96.8519 32.8708 96.7689 32.6849 96.6333 32.5231C96.4978 32.357 96.3207 32.228 96.1021 32.1362C95.8878 32.04 95.6386 31.9919 95.3544 31.9919C94.9827 31.9919 94.6657 32.0662 94.4034 32.2149C94.1454 32.3636 94.0186 32.5647 94.023 32.8183C94.0186 33.015 94.0973 33.1856 94.2591 33.3299C94.4252 33.4742 94.7204 33.59 95.1445 33.6775L97.0859 34.0448C98.0915 34.2371 98.8392 34.5563 99.3289 35.0023C99.823 35.4483 100.072 36.0386 100.077 36.7731C100.072 37.464 99.8667 38.0652 99.4601 38.5768C99.0578 39.0883 98.5069 39.4862 97.8073 39.7704C97.1077 40.0503 96.3076 40.1902 95.4069 40.1902C93.9683 40.1902 92.8337 39.8951 92.0029 39.3048C91.1765 38.7101 90.7043 37.9144 90.5862 36.9174L93.7541 36.8387C93.824 37.206 94.0055 37.4859 94.2984 37.6782C94.5914 37.8706 94.9652 37.9668 95.42 37.9668C95.831 37.9668 96.1655 37.8903 96.4234 37.7373C96.6814 37.5842 96.8126 37.3809 96.817 37.1273C96.8126 36.8999 96.712 36.7185 96.5153 36.5829C96.3185 36.443 96.0102 36.3337 95.5905 36.255L93.8328 35.9205C92.8227 35.7369 92.0707 35.398 91.5766 34.9039C91.0825 34.4055 90.8377 33.7715 90.842 33.0019C90.8377 32.3286 91.0169 31.7536 91.3798 31.277C91.7428 30.796 92.2587 30.4288 92.9277 30.1752C93.5967 29.9216 94.3859 29.7948 95.2954 29.7948C96.6596 29.7948 97.7352 30.0811 98.5222 30.6539C99.3092 31.2224 99.7443 32.005 99.8274 33.0019ZM106.358 40.1902C105.296 40.1902 104.384 39.9716 103.623 39.5343C102.867 39.0971 102.285 38.4893 101.879 37.711C101.472 36.9284 101.269 36.0233 101.269 34.9958C101.269 33.9639 101.472 33.0588 101.879 32.2805C102.29 31.4978 102.873 30.8879 103.63 30.4506C104.391 30.0134 105.298 29.7948 106.352 29.7948C107.283 29.7948 108.094 29.9631 108.785 30.2998C109.48 30.6364 110.022 31.113 110.411 31.7296C110.805 32.3417 111.013 33.061 111.034 33.8873H108.037C107.976 33.3714 107.801 32.9669 107.512 32.674C107.228 32.381 106.857 32.2346 106.397 32.2346C106.026 32.2346 105.7 32.3395 105.42 32.5494C105.14 32.7549 104.922 33.061 104.764 33.4676C104.611 33.8699 104.535 34.3683 104.535 34.963C104.535 35.5576 104.611 36.0604 104.764 36.4715C104.922 36.8781 105.14 37.1863 105.42 37.3962C105.7 37.6017 106.026 37.7045 106.397 37.7045C106.695 37.7045 106.957 37.6411 107.185 37.5143C107.416 37.3875 107.606 37.2016 107.755 36.9568C107.904 36.7076 107.998 36.4059 108.037 36.0517H111.034C111.004 36.8825 110.796 37.6083 110.411 38.2292C110.031 38.8501 109.495 39.3332 108.805 39.6786C108.118 40.0197 107.303 40.1902 106.358 40.1902ZM115.883 34.2546V40H112.676V26.5679H115.778V31.7755H115.889C116.117 31.1546 116.489 30.6692 117.004 30.3194C117.525 29.9697 118.161 29.7948 118.913 29.7948C119.621 29.7948 120.238 29.9522 120.763 30.267C121.287 30.5774 121.694 31.0168 121.982 31.5853C122.275 32.1537 122.42 32.8183 122.415 33.5791V40H119.208V34.2087C119.213 33.649 119.073 33.2118 118.788 32.897C118.504 32.5822 118.104 32.4248 117.588 32.4248C117.252 32.4248 116.954 32.4991 116.696 32.6478C116.443 32.7921 116.244 32.9997 116.099 33.2708C115.959 33.5419 115.887 33.8699 115.883 34.2546ZM129.126 40.1902C128.073 40.1902 127.163 39.9825 126.398 39.5671C125.637 39.1474 125.051 38.5505 124.64 37.7766C124.234 36.9983 124.03 36.0736 124.03 35.0023C124.03 33.9617 124.236 33.0522 124.647 32.2739C125.058 31.4913 125.637 30.8835 126.385 30.4506C127.133 30.0134 128.014 29.7948 129.028 29.7948C129.745 29.7948 130.401 29.9063 130.996 30.1292C131.59 30.3522 132.104 30.6824 132.537 31.1196C132.97 31.5568 133.307 32.0968 133.547 32.7396C133.787 33.378 133.908 34.1103 133.908 34.9367V35.7369H125.152V33.8742H130.924C130.919 33.5332 130.838 33.2293 130.681 32.9626C130.523 32.6959 130.307 32.4882 130.032 32.3395C129.76 32.1865 129.448 32.11 129.094 32.11C128.735 32.11 128.414 32.1908 128.13 32.3526C127.845 32.51 127.62 32.7265 127.454 33.0019C127.288 33.273 127.2 33.5813 127.192 33.9267V35.8221C127.192 36.2332 127.273 36.5939 127.434 36.9043C127.596 37.2104 127.826 37.4487 128.123 37.6192C128.42 37.7897 128.774 37.875 129.185 37.875C129.47 37.875 129.728 37.8356 129.959 37.7569C130.191 37.6782 130.39 37.5624 130.556 37.4093C130.722 37.2563 130.847 37.0683 130.93 36.8453L133.875 36.9306C133.752 37.5908 133.484 38.1658 133.068 38.6555C132.657 39.1408 132.117 39.519 131.448 39.7901C130.779 40.0568 130.005 40.1902 129.126 40.1902ZM135.546 40V29.9259H138.661V31.7623H138.766C138.95 31.0977 139.249 30.6037 139.665 30.2801C140.08 29.9522 140.563 29.7882 141.114 29.7882C141.263 29.7882 141.416 29.7991 141.573 29.821C141.731 29.8385 141.877 29.8669 142.013 29.9063V32.6937C141.86 32.6412 141.658 32.5997 141.409 32.5691C141.164 32.5385 140.946 32.5231 140.753 32.5231C140.373 32.5231 140.03 32.6084 139.724 32.7789C139.422 32.9451 139.184 33.179 139.009 33.4807C138.838 33.778 138.753 34.1278 138.753 34.5301V40H135.546ZM143.319 40V29.9259H146.369V31.7755H146.481C146.691 31.1633 147.045 30.6802 147.543 30.326C148.042 29.9718 148.636 29.7948 149.327 29.7948C150.027 29.7948 150.626 29.974 151.124 30.3326C151.623 30.6911 151.94 31.1721 152.075 31.7755H152.18C152.368 31.1764 152.735 30.6977 153.282 30.3391C153.829 29.9762 154.473 29.7948 155.217 29.7948C156.17 29.7948 156.944 30.1008 157.539 30.713C158.133 31.3207 158.43 32.1559 158.43 33.2184V40H155.223V33.9529C155.223 33.4501 155.094 33.0675 154.836 32.8052C154.578 32.5385 154.244 32.4051 153.833 32.4051C153.391 32.4051 153.044 32.5494 152.79 32.838C152.541 33.1222 152.416 33.5048 152.416 33.9857V40H149.334V33.9201C149.334 33.4523 149.207 33.0828 148.953 32.8117C148.7 32.5406 148.365 32.4051 147.95 32.4051C147.67 32.4051 147.423 32.4729 147.209 32.6084C146.994 32.7396 146.826 32.9276 146.704 33.1725C146.586 33.4173 146.527 33.7059 146.527 34.0382V40H143.319ZM160.418 40V29.9259H163.625V40H160.418ZM162.025 28.7519C161.574 28.7519 161.187 28.6033 160.864 28.3059C160.54 28.0042 160.378 27.6413 160.378 27.2172C160.378 26.7975 160.54 26.4389 160.864 26.1416C161.187 25.8399 161.574 25.689 162.025 25.689C162.479 25.689 162.866 25.8399 163.185 26.1416C163.509 26.4389 163.671 26.7975 163.671 27.2172C163.671 27.6413 163.509 28.0042 163.185 28.3059C162.866 28.6033 162.479 28.7519 162.025 28.7519ZM168.873 34.2546V40H165.666V29.9259H168.716V31.7755H168.828C169.051 31.159 169.431 30.6758 169.969 30.326C170.507 29.9718 171.147 29.7948 171.89 29.7948C172.599 29.7948 173.213 29.9543 173.733 30.2735C174.258 30.5883 174.665 31.03 174.953 31.5984C175.246 32.1624 175.391 32.8227 175.386 33.5791V40H172.179V34.2087C172.183 33.649 172.041 33.2118 171.753 32.897C171.469 32.5822 171.073 32.4248 170.566 32.4248C170.229 32.4248 169.932 32.4991 169.674 32.6478C169.42 32.7921 169.223 32.9997 169.083 33.2708C168.948 33.5419 168.878 33.8699 168.873 34.2546ZM182.068 43.9877C181.11 43.9877 180.29 43.8543 179.608 43.5876C178.926 43.3209 178.391 42.9558 178.001 42.4923C177.612 42.0288 177.378 41.5041 177.3 40.9182L180.336 40.7477C180.393 40.9532 180.498 41.1325 180.651 41.2855C180.809 41.4385 181.012 41.5566 181.261 41.6397C181.515 41.7227 181.812 41.7643 182.153 41.7643C182.691 41.7643 183.135 41.6331 183.484 41.3708C183.839 41.1128 184.016 40.6602 184.016 40.0131V38.2423H183.904C183.777 38.5527 183.585 38.8304 183.327 39.0752C183.069 39.3201 182.748 39.5125 182.363 39.6524C181.983 39.7923 181.545 39.8623 181.051 39.8623C180.317 39.8623 179.643 39.6917 179.031 39.3507C178.423 39.0053 177.936 38.4718 177.569 37.7504C177.206 37.0246 177.024 36.091 177.024 34.9498C177.024 33.7737 177.212 32.8052 177.588 32.0444C177.964 31.2792 178.456 30.713 179.064 30.3457C179.676 29.9784 180.334 29.7948 181.038 29.7948C181.567 29.7948 182.02 29.8866 182.396 30.0702C182.776 30.2495 183.089 30.4812 183.334 30.7654C183.578 31.0496 183.764 31.3448 183.891 31.6508H183.983V29.9259H187.177V40.0394C187.177 40.892 186.963 41.6112 186.534 42.1971C186.106 42.7831 185.507 43.2269 184.737 43.5285C183.968 43.8346 183.078 43.9877 182.068 43.9877ZM182.166 37.5274C182.555 37.5274 182.888 37.4246 183.163 37.2191C183.439 37.0136 183.651 36.7185 183.799 36.3337C183.948 35.9489 184.022 35.4877 184.022 34.9498C184.022 34.4033 183.948 33.9333 183.799 33.5397C183.655 33.1418 183.443 32.8358 183.163 32.6215C182.888 32.4073 182.555 32.3002 182.166 32.3002C181.768 32.3002 181.432 32.4095 181.156 32.6281C180.881 32.8467 180.671 33.155 180.527 33.5529C180.387 33.9464 180.317 34.412 180.317 34.9498C180.317 35.4877 180.389 35.9489 180.533 36.3337C180.677 36.7185 180.885 37.0136 181.156 37.2191C181.432 37.4246 181.768 37.5274 182.166 37.5274ZM32.6456 48.5679V62H29.8909L24.5456 54.2477H24.4604V62H21.2139V48.5679H24.0078L29.2941 56.3071H29.4056V48.5679H32.6456ZM39.3961 62.1902C38.3423 62.1902 37.4328 61.9825 36.6677 61.5671C35.9069 61.1474 35.3209 60.5505 34.9099 59.7766C34.5033 58.9983 34.3 58.0736 34.3 57.0023C34.3 55.9617 34.5055 55.0522 34.9165 54.2739C35.3275 53.4913 35.9069 52.8835 36.6545 52.4506C37.4022 52.0134 38.2833 51.7948 39.2977 51.7948C40.0147 51.7948 40.6706 51.9063 41.2653 52.1292C41.8599 52.3522 42.3737 52.6824 42.8065 53.1196C43.2394 53.5568 43.5761 54.0968 43.8166 54.7396C44.0571 55.378 44.1773 56.1103 44.1773 56.9367V57.7369H35.4215V55.8742H41.1931C41.1887 55.5332 41.1079 55.2293 40.9504 54.9626C40.793 54.6959 40.5766 54.4882 40.3011 54.3395C40.0301 54.1865 39.7174 54.11 39.3633 54.11C39.0047 54.11 38.6833 54.1908 38.3991 54.3526C38.1149 54.51 37.8897 54.7265 37.7236 55.0019C37.5574 55.273 37.47 55.5813 37.4613 55.9267V57.8221C37.4613 58.2332 37.5421 58.5939 37.7039 58.9043C37.8657 59.2104 38.0953 59.4487 38.3926 59.6192C38.6899 59.7897 39.0441 59.875 39.4551 59.875C39.7393 59.875 39.9973 59.8356 40.229 59.7569C40.4607 59.6782 40.6597 59.5624 40.8258 59.4093C40.992 59.2563 41.1166 59.0683 41.1997 58.8453L44.1445 58.9306C44.0221 59.5908 43.7532 60.1658 43.3378 60.6555C42.9268 61.1408 42.3868 61.519 41.7178 61.7901C41.0488 62.0568 40.2749 62.1902 39.3961 62.1902ZM49.4947 62.1443C48.7514 62.1443 48.0759 61.9519 47.4681 61.5671C46.8603 61.1824 46.375 60.6052 46.0121 59.8356C45.6492 59.0661 45.4677 58.1107 45.4677 56.9695C45.4677 55.7846 45.6557 54.8095 46.0318 54.0444C46.4078 53.2792 46.8997 52.713 47.5075 52.3457C48.1196 51.9784 48.7776 51.7948 49.4816 51.7948C50.0107 51.7948 50.4632 51.8866 50.8392 52.0702C51.2153 52.2495 51.5257 52.4812 51.7706 52.7654C52.0154 53.0496 52.2013 53.3448 52.3281 53.6508H52.3936V48.5679H55.6008V62H52.4264V60.3669H52.3281C52.1925 60.6773 52.0001 60.9681 51.7509 61.2392C51.5017 61.5103 51.189 61.7289 50.813 61.8951C50.4413 62.0612 50.0019 62.1443 49.4947 62.1443ZM50.6097 59.6454C50.9988 59.6454 51.3311 59.5361 51.6066 59.3175C51.8821 59.0945 52.0941 58.7819 52.2428 58.3796C52.3915 57.9774 52.4658 57.5051 52.4658 56.963C52.4658 56.412 52.3915 55.9376 52.2428 55.5397C52.0985 55.1418 51.8864 54.8358 51.6066 54.6215C51.3311 54.4073 50.9988 54.3002 50.6097 54.3002C50.2118 54.3002 49.8751 54.4095 49.5997 54.6281C49.3242 54.8467 49.1143 55.155 48.97 55.5529C48.8301 55.9507 48.7602 56.4208 48.7602 56.963C48.7602 57.5051 48.8323 57.9774 48.9766 58.3796C49.1209 58.7819 49.3286 59.0945 49.5997 59.3175C49.8751 59.5361 50.2118 59.6454 50.6097 59.6454ZM62.3382 62.1902C61.2844 62.1902 60.375 61.9825 59.6098 61.5671C58.849 61.1474 58.2631 60.5505 57.8521 59.7766C57.4454 58.9983 57.2421 58.0736 57.2421 57.0023C57.2421 55.9617 57.4476 55.0522 57.8586 54.2739C58.2696 53.4913 58.849 52.8835 59.5967 52.4506C60.3444 52.0134 61.2254 51.7948 62.2398 51.7948C62.9569 51.7948 63.6127 51.9063 64.2074 52.1292C64.802 52.3522 65.3158 52.6824 65.7487 53.1196C66.1815 53.5568 66.5182 54.0968 66.7587 54.7396C66.9992 55.378 67.1194 56.1103 67.1194 56.9367V57.7369H58.3636V55.8742H64.1352C64.1309 55.5332 64.05 55.2293 63.8926 54.9626C63.7352 54.6959 63.5187 54.4882 63.2433 54.3395C62.9722 54.1865 62.6596 54.11 62.3054 54.11C61.9468 54.11 61.6255 54.1908 61.3413 54.3526C61.0571 54.51 60.8319 54.7265 60.6657 55.0019C60.4996 55.273 60.4121 55.5813 60.4034 55.9267V57.8221C60.4034 58.2332 60.4843 58.5939 60.646 58.9043C60.8078 59.2104 61.0374 59.4487 61.3347 59.6192C61.632 59.7897 61.9862 59.875 62.3972 59.875C62.6814 59.875 62.9394 59.8356 63.1711 59.7569C63.4029 59.6782 63.6018 59.5624 63.768 59.4093C63.9341 59.2563 64.0587 59.0683 64.1418 58.8453L67.0866 58.9306C66.9642 59.5908 66.6953 60.1658 66.2799 60.6555C65.8689 61.1408 65.3289 61.519 64.6599 61.7901C63.991 62.0568 63.217 62.1902 62.3382 62.1902ZM68.7574 62V51.9259H71.8728V53.7623H71.9777C72.1614 53.0977 72.4609 52.6037 72.8763 52.2801C73.2917 51.9522 73.7748 51.7882 74.3257 51.7882C74.4744 51.7882 74.6274 51.7991 74.7848 51.821C74.9422 51.8385 75.0887 51.8669 75.2243 51.9063V54.6937C75.0712 54.6412 74.8701 54.5997 74.6209 54.5691C74.376 54.5385 74.1574 54.5231 73.965 54.5231C73.5846 54.5231 73.2414 54.6084 72.9353 54.7789C72.6336 54.9451 72.3953 55.179 72.2204 55.4807C72.0499 55.778 71.9646 56.1278 71.9646 56.5301V62H68.7574ZM79.7383 48.5679V62H76.5311V48.5679H79.7383ZM84.6195 62.1705C83.9768 62.1705 83.4062 62.0634 82.9077 61.8492C82.4136 61.6305 82.0223 61.3026 81.7337 60.8654C81.4495 60.4237 81.3074 59.8706 81.3074 59.206C81.3074 58.6463 81.4058 58.1741 81.6025 57.7894C81.7993 57.4046 82.0704 57.0919 82.4158 56.8515C82.7612 56.611 83.1591 56.4295 83.6095 56.3071C84.0599 56.1803 84.5408 56.095 85.0524 56.0513C85.6252 55.9988 86.0865 55.9442 86.4363 55.8873C86.7861 55.8261 87.0397 55.7409 87.1971 55.6316C87.3589 55.5179 87.4397 55.3583 87.4397 55.1528V55.12C87.4397 54.7833 87.3239 54.5231 87.0921 54.3395C86.8604 54.1559 86.5478 54.064 86.1542 54.064C85.7301 54.064 85.3891 54.1559 85.1311 54.3395C84.8731 54.5231 84.7092 54.7767 84.6392 55.1003L81.6813 54.9954C81.7687 54.3832 81.9939 53.8367 82.3568 53.3557C82.7241 52.8704 83.2269 52.49 83.8653 52.2145C84.508 51.9347 85.2798 51.7948 86.1805 51.7948C86.8232 51.7948 87.4157 51.8713 87.9579 52.0243C88.5001 52.173 88.9723 52.3916 89.3745 52.6802C89.7768 52.9644 90.0872 53.3142 90.3059 53.7296C90.5289 54.1449 90.6404 54.6193 90.6404 55.1528V62H87.6234V60.5965H87.5447C87.3654 60.9375 87.1359 61.2261 86.856 61.4622C86.5806 61.6983 86.2548 61.8754 85.8788 61.9934C85.5071 62.1115 85.0874 62.1705 84.6195 62.1705ZM85.6099 60.0718C85.9553 60.0718 86.2657 60.0018 86.5412 59.8619C86.821 59.722 87.044 59.5296 87.2102 59.2847C87.3763 59.0355 87.4594 58.7469 87.4594 58.419V57.4614C87.3676 57.5095 87.2561 57.5532 87.1249 57.5926C86.9981 57.6319 86.8582 57.6691 86.7052 57.7041C86.5521 57.7391 86.3947 57.7697 86.2329 57.7959C86.0712 57.8221 85.9159 57.8462 85.7673 57.8681C85.4656 57.9162 85.2076 57.9905 84.9934 58.091C84.7835 58.1916 84.6217 58.3228 84.508 58.4846C84.3987 58.642 84.3441 58.83 84.3441 59.0486C84.3441 59.3809 84.4621 59.6345 84.6982 59.8094C84.9387 59.9843 85.2426 60.0718 85.6099 60.0718ZM95.8086 56.2546V62H92.6014V51.9259H95.6512V53.7755H95.7627C95.9856 53.159 96.3661 52.6758 96.9039 52.326C97.4417 51.9718 98.0822 51.7948 98.8255 51.7948C99.5339 51.7948 100.148 51.9543 100.669 52.2735C101.193 52.5883 101.6 53.03 101.888 53.5984C102.181 54.1624 102.326 54.8227 102.321 55.5791V62H99.1141V56.2087C99.1185 55.649 98.9764 55.2118 98.6878 54.897C98.4036 54.5822 98.0079 54.4248 97.5007 54.4248C97.164 54.4248 96.8667 54.4991 96.6087 54.6478C96.3551 54.7921 96.1584 54.9997 96.0184 55.2708C95.8829 55.5419 95.8129 55.8699 95.8086 56.2546ZM107.986 62.1443C107.243 62.1443 106.567 61.9519 105.96 61.5671C105.352 61.1824 104.867 60.6052 104.504 59.8356C104.141 59.0661 103.959 58.1107 103.959 56.9695C103.959 55.7846 104.147 54.8095 104.523 54.0444C104.899 53.2792 105.391 52.713 105.999 52.3457C106.611 51.9784 107.269 51.7948 107.973 51.7948C108.502 51.7948 108.955 51.8866 109.331 52.0702C109.707 52.2495 110.017 52.4812 110.262 52.7654C110.507 53.0496 110.693 53.3448 110.82 53.6508H110.885V48.5679H114.092V62H110.918V60.3669H110.82C110.684 60.6773 110.492 60.9681 110.242 61.2392C109.993 61.5103 109.681 61.7289 109.305 61.8951C108.933 62.0612 108.494 62.1443 107.986 62.1443ZM109.101 59.6454C109.49 59.6454 109.823 59.5361 110.098 59.3175C110.374 59.0945 110.586 58.7819 110.734 58.3796C110.883 57.9774 110.957 57.5051 110.957 56.963C110.957 56.412 110.883 55.9376 110.734 55.5397C110.59 55.1418 110.378 54.8358 110.098 54.6215C109.823 54.4073 109.49 54.3002 109.101 54.3002C108.703 54.3002 108.367 54.4095 108.091 54.6281C107.816 54.8467 107.606 55.155 107.462 55.5529C107.322 55.9507 107.252 56.4208 107.252 56.963C107.252 57.5051 107.324 57.9774 107.468 58.3796C107.612 58.7819 107.82 59.0945 108.091 59.3175C108.367 59.5361 108.703 59.6454 109.101 59.6454Z" fill="#232325"></path></g><defs><clipPath id="clip0_393_11221"><rect width="193" height="66" fill="white"></rect></clipPath></defs></svg> 