<svg width="400" height="250" viewBox="0 0 400 250" fill="none" xmlns="http://www.w3.org/2000/svg">
<rect width="400" height="250" fill="#E0DDD9"/>
<path d="M100.098 158.6C81.9977 158.6 73.8977 147.5 73.8977 122.5C73.8977 97.5 81.9977 86.4 100.098 86.4C118.198 86.4 126.298 97.5 126.298 122.5C126.298 147.5 118.198 158.6 100.098 158.6ZM100.098 146.8C109.298 146.8 112.898 140.4 112.898 122.5C112.898 105.1 109.098 98.2 100.098 98.2C91.0977 98.2 87.3977 105.1 87.3977 122.5C87.3977 140.4 90.8977 146.8 100.098 146.8ZM200.02 158.6C181.92 158.6 173.82 147.5 173.82 122.5C173.82 97.5 181.92 86.4 200.02 86.4C218.12 86.4 226.22 97.5 226.22 122.5C226.22 147.5 218.12 158.6 200.02 158.6ZM200.02 146.9C209.92 146.9 214.32 139.8 214.32 122.5C214.32 105.6 209.72 98.1 200.02 98.1C190.32 98.1 185.72 105.6 185.72 122.5C185.72 139.8 190.12 146.9 200.02 146.9ZM200.02 130C195.62 130 193.52 127.6 193.52 122.1C193.52 116.6 195.62 114.2 200.02 114.2C204.42 114.2 206.52 116.6 206.52 122.1C206.52 127.6 204.42 130 200.02 130ZM299.941 158.6C281.841 158.6 273.741 147.5 273.741 122.5C273.741 97.5 281.841 86.4 299.941 86.4C318.041 86.4 326.141 97.5 326.141 122.5C326.141 147.5 318.041 158.6 299.941 158.6ZM285.541 122.5C285.541 125.4 285.641 127.9 285.841 130.2L312.341 107C310.141 100.8 306.041 97.8 299.941 97.8C290.141 97.8 285.541 105.4 285.541 122.5ZM299.941 147.2C310.041 147.2 314.341 140 314.341 122.5C314.341 119.6 314.241 117 313.941 114.6L287.441 138C289.541 144.4 293.641 147.2 299.941 147.2Z" fill="#181716"/>
</svg>
