<svg xmlns="http://www.w3.org/2000/svg" viewBox="0 0 1366 768"><path fill="#fff" d="M0 0h1366v768H0Z"/><g data-name="Layer 3"><path fill="#f9d2ec" d="M428.95 125.09h508.11V633.2H428.95Z"/><path fill="#ff1493" d="M937.05 634.7H429a1.5 1.5 0 0 1-1.5-1.5V125.09a1.5 1.5 0 0 1 1.5-1.5h508.1a1.5 1.5 0 0 1 1.5 1.5V633.2a1.5 1.5 0 0 1-1.55 1.5m-506.6-3h505.1V126.59h-505.1Z"/></g><g data-name="Layer 4"><path fill="#f4b8dd" d="m428.95 484.2 508.1-210.47"/><path fill="#f998d0" d="M429 485.2a1 1 0 0 1-.39-1.93l2.31-.95a1 1 0 0 1 1.31.54 1 1 0 0 1-.54 1.3l-2.31 1a1.1 1.1 0 0 1-.38.04m11.41-4.75a1 1 0 0 1-.38-1.93l4.57-1.89a1 1 0 1 1 .77 1.85l-4.58 1.89a1 1 0 0 1-.38.08m13.73-5.69a1 1 0 0 1-.38-1.92l4.57-1.9a1 1 0 0 1 .77 1.85l-4.58 1.89a.84.84 0 0 1-.38.08m13.73-5.69a1 1 0 0 1-.38-1.92l4.58-1.9a1 1 0 0 1 1.3.54 1 1 0 0 1-.54 1.31l-4.58 1.9a1 1 0 0 1-.38.07m13.73-5.69a1 1 0 0 1-.38-1.92l4.58-1.9a1 1 0 0 1 .76 1.85l-4.57 1.9a1.1 1.1 0 0 1-.39.07m13.73-5.68a1 1 0 0 1-.38-1.93l4.58-1.89a1 1 0 1 1 .76 1.84l-4.57 1.9a1.1 1.1 0 0 1-.39.08m13.74-5.7a1 1 0 0 1-.93-.62 1 1 0 0 1 .54-1.31l4.58-1.89A1 1 0 1 1 514 450l-4.58 1.89a1.1 1.1 0 0 1-.35.11m13.73-5.69a1 1 0 0 1-.38-1.92l4.57-1.9a1 1 0 1 1 .77 1.85l-4.58 1.89a.84.84 0 0 1-.38.09Zm13.73-5.69a1 1 0 0 1-.38-1.92l4.57-1.9a1 1 0 1 1 .77 1.85l-4.58 1.9a1 1 0 0 1-.38.08Zm13.73-5.62a1 1 0 0 1-.38-1.93l4.58-1.9a1 1 0 0 1 1.3.55 1 1 0 0 1-.54 1.3l-4.58 1.9a1 1 0 0 1-.38.08m13.74-5.74a1 1 0 0 1-.38-1.93l4.58-1.89a1 1 0 0 1 .76 1.85l-4.57 1.89a1.1 1.1 0 0 1-.39.08m13.73-5.69a1 1 0 0 1-.38-1.92l4.58-1.9a1 1 0 1 1 .76 1.85l-4.57 1.89a1.1 1.1 0 0 1-.4.08Zm13.74-5.69a1 1 0 0 1-.39-1.92l4.58-1.9a1 1 0 1 1 .77 1.85l-4.58 1.9a1.1 1.1 0 0 1-.39.07Zm13.73-5.69a1 1 0 0 1-.39-1.92l4.58-1.9a1 1 0 0 1 1.31.55 1 1 0 0 1-.54 1.3l-4.58 1.9a1 1 0 0 1-.39.07Zm13.73-5.68a1 1 0 0 1-.38-1.93l4.57-1.89a1 1 0 0 1 1.31.54 1 1 0 0 1-.54 1.3l-4.58 1.9a1 1 0 0 1-.39.08Zm13.73-5.69a1 1 0 0 1-.92-.62 1 1 0 0 1 .54-1.31l4.57-1.89a1 1 0 1 1 .77 1.85l-4.62 1.89a1 1 0 0 1-.35.08Zm13.73-5.69a1 1 0 0 1-.38-1.92l4.58-1.9a1 1 0 0 1 .76 1.85l-4.58 1.89a.84.84 0 0 1-.39.08Zm27.47-11.37a1 1 0 0 1-.39-1.93l4.58-1.89a1 1 0 0 1 1.31.54 1 1 0 0 1-.54 1.3l-4.58 1.9a1.1 1.1 0 0 1-.39.08Zm13.73-5.69a1 1 0 0 1-.93-.62 1 1 0 0 1 .54-1.31l4.58-1.89a1 1 0 0 1 .77 1.85L688 378a1 1 0 0 1-.42.07Zm13.73-5.69a1 1 0 0 1-.38-1.92l4.57-1.9a1 1 0 1 1 .77 1.85l-4.58 1.89a1 1 0 0 1-.39.08Zm13.68-5.69a1 1 0 0 1-.38-1.92l4.57-1.9a1 1 0 1 1 .77 1.85l-4.58 1.9a1 1 0 0 1-.38.07m13.77-5.69a1 1 0 0 1-.38-1.92l4.58-1.9a1 1 0 0 1 .76 1.85l-4.58 1.9a1 1 0 0 1-.38.07m13.73-5.68a1 1 0 0 1-.38-1.93l4.58-1.89a1 1 0 0 1 .76 1.84l-4.57 1.9a1.1 1.1 0 0 1-.39.08m13.73-5.69a1 1 0 0 1-.92-.62 1 1 0 0 1 .54-1.31l4.58-1.89a1 1 0 1 1 .76 1.85l-4.57 1.89a1.1 1.1 0 0 1-.39.08m13.77-5.69a1 1 0 0 1-.39-1.92l4.58-1.9a1 1 0 0 1 .77 1.85l-4.58 1.89a.9.9 0 0 1-.38.08m13.73-5.69a1 1 0 0 1-.39-1.92l4.58-1.9a1 1 0 0 1 .77 1.85l-4.58 1.9a1 1 0 0 1-.41.07Zm13.73-5.68a1 1 0 0 1-.93-.62 1 1 0 0 1 .55-1.31l4.57-1.89a1 1 0 0 1 1.31.54 1 1 0 0 1-.54 1.3l-4.58 1.9a1 1 0 0 1-.41.08Zm13.73-5.69a1 1 0 0 1-.92-.62 1 1 0 0 1 .54-1.31l4.57-1.89a1 1 0 1 1 .77 1.85l-4.58 1.89a1 1 0 0 1-.41.08Zm13.73-5.69a1 1 0 0 1-.38-1.92l4.58-1.9a1 1 0 0 1 .76 1.85l-4.58 1.89a.84.84 0 0 1-.41.08Zm13.73-5.69a1 1 0 0 1-.38-1.92l4.58-1.9a1 1 0 0 1 .76 1.85l-4.57 1.9a1.1 1.1 0 0 1-.42.07Zm13.74-5.69a1 1 0 0 1-.39-1.92l4.58-1.9a1 1 0 0 1 .77 1.85l-4.58 1.9a1.1 1.1 0 0 1-.41.07Zm13.73-5.68a1 1 0 0 1-.93-.62 1 1 0 0 1 .54-1.31l4.58-1.89a1 1 0 0 1 1.31.54 1 1 0 0 1-.54 1.3l-4.58 1.9a1.1 1.1 0 0 1-.41.08Zm13.73-5.69a1 1 0 0 1-.38-1.93l4.57-1.89a1 1 0 0 1 .77 1.85l-4.58 1.89a1 1 0 0 1-.41.08Zm13.73-5.69a1 1 0 0 1-.38-1.92l4.57-1.9a1 1 0 1 1 .77 1.85l-4.58 1.89a.84.84 0 0 1-.41.08Zm13.73-5.69a1 1 0 0 1-.38-1.92l4.58-1.9a1 1 0 0 1 .76 1.85l-4.58 1.9a1 1 0 0 1-.41.07Zm13.69-5.68a1 1 0 0 1-.38-1.93l4.58-1.89a1 1 0 0 1 .76 1.84l-4.57 1.9a1.1 1.1 0 0 1-.39.08m13.75-5.69a1 1 0 0 1-.93-.62 1 1 0 0 1 .54-1.31l2.31-.95a1 1 0 0 1 1.31.54 1 1 0 0 1-.54 1.3l-2.31 1a1.1 1.1 0 0 1-.38.04"/><path fill="#f4b8dd" d="M430.31 631.65 936.96 125"/><path fill="#f998d0" d="M430.31 632.65a1 1 0 0 1-.71-.29 1 1 0 0 1 0-1.41l1.77-1.77a1 1 0 0 1 1.42 0 1 1 0 0 1 0 1.41l-1.79 1.77a1 1 0 0 1-.69.29m8.81-8.8a1 1 0 0 1-.71-.3 1 1 0 0 1 0-1.41l3.52-3.52a1 1 0 0 1 1.41 0 1 1 0 0 1 0 1.42l-3.52 3.51a1 1 0 0 1-.7.3m10.55-10.56a1 1 0 0 1-.71-1.7l3.52-3.52a1 1 0 0 1 1.42 0 1 1 0 0 1 0 1.41l-3.52 3.52a1 1 0 0 1-.71.29m10.56-10.55a1 1 0 0 1-.71-1.71l3.52-3.52a1 1 0 0 1 1.41 0 1 1 0 0 1 0 1.42l-3.52 3.52a1 1 0 0 1-.7.29m10.55-10.56a1 1 0 0 1-.71-.29 1 1 0 0 1 0-1.41l3.52-3.52a1 1 0 0 1 1.42 0 1 1 0 0 1 0 1.41l-3.52 3.52a1 1 0 0 1-.71.29m10.56-10.55a1 1 0 0 1-.71-.3 1 1 0 0 1 0-1.41l3.52-3.52a1 1 0 0 1 1.41 0 1 1 0 0 1 0 1.42l-3.56 3.51a1 1 0 0 1-.66.3m10.55-10.56a1 1 0 0 1-.71-.29 1 1 0 0 1 0-1.41l3.52-3.52a1 1 0 0 1 1.42 0 1 1 0 0 1 0 1.41l-3.52 3.52a1 1 0 0 1-.71.29m10.56-10.55a1 1 0 0 1-.71-1.71l3.52-3.52a1 1 0 0 1 1.41 0 1 1 0 0 1 0 1.42l-3.52 3.52a1 1 0 0 1-.7.29M513 550a1 1 0 0 1-.71-.29 1 1 0 0 1 0-1.41l3.52-3.52a1 1 0 0 1 1.42 0 1 1 0 0 1 0 1.41l-3.52 3.52a1 1 0 0 1-.71.29m10.56-10.55a1 1 0 0 1-.71-1.71l3.52-3.52a1 1 0 0 1 1.41 0 1 1 0 0 1 0 1.42l-3.52 3.52a1 1 0 0 1-.7.25Zm10.55-10.56a1 1 0 0 1-.71-.29 1 1 0 0 1 0-1.41l3.52-3.52a1 1 0 0 1 1.42 0 1 1 0 0 1 0 1.41l-3.52 3.52a1 1 0 0 1-.71.25Zm10.56-10.55a1 1 0 0 1-.71-1.71l3.52-3.52a1 1 0 0 1 1.41 0 1 1 0 0 1 0 1.42l-3.52 3.47a1 1 0 0 1-.7.3Zm10.55-10.56a1 1 0 0 1-.71-.29 1 1 0 0 1 0-1.41l3.52-3.52a1 1 0 0 1 1.42 0 1 1 0 0 1 0 1.41l-3.52 3.52a1 1 0 0 1-.71.25Zm10.55-10.55a1 1 0 0 1-.7-1.71l3.52-3.52a1 1 0 0 1 1.41 0 1 1 0 0 1 0 1.42l-3.52 3.52a1 1 0 0 1-.71.25Zm10.56-10.56a1 1 0 0 1-.71-.29 1 1 0 0 1 0-1.41l3.52-3.52a1 1 0 0 1 1.41 0 1 1 0 0 1 0 1.41l-3.55 3.48a1 1 0 0 1-.67.29Zm10.55-10.55a1 1 0 0 1-.7-1.71l3.52-3.52a1 1 0 0 1 1.41 0 1 1 0 0 1 0 1.42l-3.52 3.52a1 1 0 0 1-.71.25Zm10.56-10.56a1 1 0 0 1-.71-.29 1 1 0 0 1 0-1.41l3.52-3.52a1 1 0 0 1 1.42 0 1 1 0 0 1 0 1.41l-3.52 3.52a1 1 0 0 1-.71.25ZM608 455a1 1 0 0 1-.7-1.71l3.52-3.52a1 1 0 0 1 1.41 0 1 1 0 0 1 0 1.42l-3.52 3.52a1 1 0 0 1-.71.29m10.56-10.56a1 1 0 0 1-.71-.29 1 1 0 0 1 0-1.41l3.52-3.52a1 1 0 0 1 1.41 0 1 1 0 0 1 0 1.41l-3.51 3.52a1 1 0 0 1-.72.26Zm10.55-10.55a1 1 0 0 1-.7-1.71l3.52-3.52a1 1 0 0 1 1.41 0 1 1 0 0 1 0 1.42l-3.52 3.52a1 1 0 0 1-.72.26Zm10.56-10.56a1 1 0 0 1-.67-.33 1 1 0 0 1 0-1.41l3.52-3.52a1 1 0 0 1 1.41 0 1 1 0 0 1 0 1.41l-3.56 3.52a1 1 0 0 1-.71.3Zm10.55-10.55a1 1 0 0 1-.7-1.71l3.52-3.52a1 1 0 0 1 1.41 0 1 1 0 0 1 0 1.42l-3.52 3.52a1 1 0 0 1-.72.26Zm10.56-10.55a1 1 0 0 1-.71-1.71l3.52-3.52a1 1 0 1 1 1.41 1.41l-3.51 3.52a1 1 0 0 1-.72.27Zm10.55-10.56a1 1 0 0 1-.7-1.71l3.51-3.51a1 1 0 0 1 1.42 1.41l-3.56 3.49a1 1 0 0 1-.68.29Zm10.56-10.56a1 1 0 0 1-.71-.29 1 1 0 0 1 0-1.41l3.52-3.52a1 1 0 0 1 1.41 0 1 1 0 0 1 0 1.41l-3.51 3.52a1 1 0 0 1-.72.26Zm10.55-10.55a1 1 0 0 1-.7-1.71l3.52-3.52a1 1 0 0 1 1.41 0 1 1 0 0 1 0 1.42l-3.52 3.52a1 1 0 0 1-.72.26ZM703 360a1 1 0 0 1-.71-1.71l3.52-3.52a1 1 0 0 1 1.41 1.41l-3.51 3.52a1 1 0 0 1-.71.3m10.55-10.56a1 1 0 0 1-.7-1.71l3.51-3.51a1 1 0 0 1 1.42 1.41l-3.52 3.52a1 1 0 0 1-.72.27Zm10.56-10.55a1 1 0 0 1-.71-1.71l3.52-3.52a1 1 0 0 1 1.41 1.41l-3.51 3.52a1 1 0 0 1-.72.28Zm10.55-10.56a1 1 0 0 1-.7-1.71l3.51-3.51a1 1 0 1 1 1.42 1.41l-3.53 3.48a1 1 0 0 1-.71.31Zm10.56-10.55a1 1 0 0 1-.71-1.71l3.52-3.52a1 1 0 0 1 1.41 1.41l-3.51 3.52a1 1 0 0 1-.72.28Zm10.55-10.56a1 1 0 0 1-.7-1.71l3.51-3.51a1 1 0 0 1 1.42 1.41l-3.52 3.52a1 1 0 0 1-.72.27Zm10.56-10.55a1 1 0 0 1-.71-1.71l3.52-3.52a1 1 0 1 1 1.41 1.41l-3.55 3.5a1 1 0 0 1-.68.3Zm10.55-10.56a1 1 0 0 1-.7-1.71l3.51-3.51a1 1 0 0 1 1.42 0 1 1 0 0 1 0 1.41l-3.52 3.52a1 1 0 0 1-.72.27Zm10.56-10.55a1 1 0 0 1-.71-1.71l3.52-3.52a1 1 0 0 1 1.41 0 1 1 0 0 1 0 1.42l-3.52 3.51a1 1 0 0 1-.71.28ZM798 265a1 1 0 0 1-.7-.29 1 1 0 0 1 0-1.42l3.51-3.51a1 1 0 0 1 1.42 0 1 1 0 0 1 0 1.41l-3.52 3.52a1 1 0 0 1-.71.29m10.56-10.55a1 1 0 0 1-.71-1.71l3.52-3.52a1 1 0 0 1 1.41 0 1 1 0 0 1 0 1.42l-3.52 3.51a1 1 0 0 1-.72.28Zm10.55-10.56a1 1 0 0 1-.7-1.71l3.51-3.51a1 1 0 0 1 1.42 0 1 1 0 0 1 0 1.41l-3.52 3.52a1 1 0 0 1-.73.27Zm10.56-10.55a1 1 0 0 1-.71-1.71l3.52-3.52a1 1 0 0 1 1.41 0 1 1 0 0 1 0 1.42l-3.54 3.47a1 1 0 0 1-.7.32Zm10.55-10.56a1 1 0 0 1-.7-.29 1 1 0 0 1 0-1.42l3.51-3.51a1 1 0 0 1 1.42 0 1 1 0 0 1 0 1.41l-3.52 3.52a1 1 0 0 1-.73.27Zm10.56-10.55a1 1 0 0 1-.71-1.71l3.52-3.52a1 1 0 0 1 1.41 0 1 1 0 0 1 0 1.42l-3.52 3.51a1 1 0 0 1-.72.28Zm10.55-10.56a1 1 0 0 1-.7-.29 1 1 0 0 1 0-1.42l3.51-3.51a1 1 0 0 1 1.42 0 1 1 0 0 1 0 1.41l-3.56 3.5a1 1 0 0 1-.69.29Zm10.56-10.55a1 1 0 0 1-.71-1.71l3.52-3.52a1 1 0 0 1 1.41 0 1 1 0 0 1 0 1.42l-3.52 3.51a1 1 0 0 1-.72.28Zm10.55-10.56a1 1 0 0 1-.71-.29 1 1 0 0 1 0-1.42l3.52-3.51a1 1 0 0 1 1.42 0 1 1 0 0 1 0 1.41l-3.52 3.52a1 1 0 0 1-.73.27ZM893 170a1 1 0 0 1-.71-.3 1 1 0 0 1 0-1.41l3.52-3.52a1 1 0 0 1 1.41 0 1 1 0 0 1 0 1.42l-3.52 3.51a1 1 0 0 1-.7.3m10.55-10.56a1 1 0 0 1-.71-.29 1 1 0 0 1 0-1.41l3.52-3.52a1 1 0 0 1 1.42 0 1 1 0 0 1 0 1.41l-3.52 3.52a1 1 0 0 1-.73.28Zm10.56-10.55a1 1 0 0 1-.71-1.71l3.52-3.52a1 1 0 0 1 1.41 0 1 1 0 0 1 0 1.42l-3.52 3.51a1 1 0 0 1-.72.29Zm10.55-10.56a1 1 0 0 1-.71-.29 1 1 0 0 1 0-1.41l3.52-3.52a1 1 0 0 1 1.42 0 1 1 0 0 1 0 1.41l-3.54 3.48a1 1 0 0 1-.71.32Zm10.54-10.56a1 1 0 0 1-.71-.3 1 1 0 0 1 0-1.41l1.77-1.77a1 1 0 0 1 1.41 0 1 1 0 0 1 0 1.42l-1.77 1.76a1 1 0 0 1-.7.3"/><path fill="#f4b8dd" d="m577.69 633.2 210.3-507.71"/><path fill="#f998d0" d="M577.69 634.2a.84.84 0 0 1-.38-.08 1 1 0 0 1-.54-1.3l1-2.31A1 1 0 0 1 579 630a1 1 0 0 1 .54 1.3l-1 2.31a1 1 0 0 1-.85.59m4.75-11.46a1.1 1.1 0 0 1-.39-.07 1 1 0 0 1-.54-1.31l1.9-4.57a1 1 0 0 1 1.85.76l-1.9 4.58a1 1 0 0 1-.92.61m5.68-13.74a1 1 0 0 1-.38-.07 1 1 0 0 1-.54-1.31l1.89-4.57a1 1 0 0 1 1.85.76l-1.9 4.58a1 1 0 0 1-.92.61m5.68-13.72a1.1 1.1 0 0 1-.38-.07 1 1 0 0 1-.54-1.31l1.89-4.57a1 1 0 1 1 1.85.76l-1.89 4.57a1 1 0 0 1-.93.64Zm5.69-13.72a1.1 1.1 0 0 1-.39-.07 1 1 0 0 1-.54-1.31l1.9-4.58a1 1 0 0 1 1.85.77l-1.9 4.57a1 1 0 0 1-.92.64Zm5.68-13.72a1 1 0 0 1-.38-.07 1 1 0 0 1-.54-1.31l1.89-4.58a1 1 0 1 1 1.85.77l-1.9 4.57a1 1 0 0 1-.92.64Zm5.68-13.72a.9.9 0 0 1-.38-.08 1 1 0 0 1-.54-1.3l1.89-4.58a1 1 0 1 1 1.85.77l-1.89 4.57a1 1 0 0 1-.93.64Zm5.69-13.72a.9.9 0 0 1-.39-.08 1 1 0 0 1-.54-1.3l1.9-4.58a1 1 0 0 1 1.3-.54 1 1 0 0 1 .55 1.31l-1.9 4.57a1 1 0 0 1-.92.64Zm5.68-13.72a1 1 0 0 1-.38-.08 1 1 0 0 1-.54-1.3l1.89-4.58a1 1 0 1 1 1.85.77l-1.9 4.57a1 1 0 0 1-.92.64ZM627.9 513a1.1 1.1 0 0 1-.38-.08 1 1 0 0 1-.54-1.3l1.89-4.58a1 1 0 1 1 1.85.77l-1.89 4.57a1 1 0 0 1-.93.62m5.69-13.72a1.1 1.1 0 0 1-.39-.08 1 1 0 0 1-.54-1.3l1.9-4.58a1 1 0 0 1 1.3-.54 1 1 0 0 1 .55 1.31l-1.9 4.57a1 1 0 0 1-.92.6Zm5.68-13.72a1 1 0 0 1-.38-.08 1 1 0 0 1-.54-1.3l1.89-4.58a1 1 0 1 1 1.85.77l-1.9 4.57a1 1 0 0 1-.92.6Zm5.73-13.74a1.1 1.1 0 0 1-.38-.08 1 1 0 0 1-.54-1.31l1.89-4.57a1 1 0 1 1 1.85.77l-1.89 4.57a1 1 0 0 1-.93.62m5.69-13.72a1.1 1.1 0 0 1-.39-.08 1 1 0 0 1-.54-1.31l1.9-4.57a1 1 0 0 1 1.3-.54 1 1 0 0 1 .55 1.31l-1.9 4.57a1 1 0 0 1-.97.62Zm5.68-13.72a1 1 0 0 1-.92-1.39l1.89-4.57a1 1 0 1 1 1.85.77l-1.9 4.57a1 1 0 0 1-.97.62Zm5.63-13.72a1.1 1.1 0 0 1-.38-.08 1 1 0 0 1-.54-1.31l1.92-4.57a1 1 0 0 1 1.31-.54 1 1 0 0 1 .54 1.3l-1.92 4.54a1 1 0 0 1-.93.66m5.69-13.73a1.1 1.1 0 0 1-.39-.07 1 1 0 0 1-.54-1.31l1.9-4.57a1 1 0 1 1 1.84.76l-1.89 4.58a1 1 0 0 1-.92.61m11.36-27.44a1 1 0 0 1-.38-.07 1 1 0 0 1-.54-1.31l1.89-4.57a1 1 0 0 1 1.31-.54 1 1 0 0 1 .54 1.3l-1.87 4.58a1 1 0 0 1-.95.61m5.69-13.72a1.1 1.1 0 0 1-.39-.07 1 1 0 0 1-.54-1.31l1.9-4.57a1 1 0 1 1 1.84.76l-1.89 4.58a1 1 0 0 1-.92.61m5.68-13.72a1 1 0 0 1-.42-.05 1 1 0 0 1-.54-1.31l1.89-4.57a1 1 0 0 1 1.31-.54 1 1 0 0 1 .54 1.3l-1.9 4.58a1 1 0 0 1-.88.59m5.68-13.72a1 1 0 0 1-.38-.07 1 1 0 0 1-.54-1.31l1.89-4.57a1 1 0 1 1 1.85.76l-1.92 4.58a1 1 0 0 1-.9.61m5.69-13.72a1.1 1.1 0 0 1-.39-.07 1 1 0 0 1-.54-1.31l1.9-4.57a1 1 0 1 1 1.84.76l-1.89 4.58a1 1 0 0 1-.92.61m5.68-13.72a.84.84 0 0 1-.38-.08 1 1 0 0 1-.55-1.3l1.9-4.57a1 1 0 1 1 1.85.76l-1.9 4.57a1 1 0 0 1-.92.62m5.68-13.72a.84.84 0 0 1-.38-.08 1 1 0 0 1-.54-1.3l1.89-4.58a1 1 0 1 1 1.88.79l-1.89 4.57a1 1 0 0 1-.96.6m5.68-13.72a.9.9 0 0 1-.38-.08 1 1 0 0 1-.54-1.3l1.9-4.58a1 1 0 1 1 1.84.77l-1.89 4.57a1 1 0 0 1-.93.62m5.69-13.72a.84.84 0 0 1-.38-.08 1 1 0 0 1-.55-1.3l1.9-4.58a1 1 0 1 1 1.85.77l-1.9 4.57a1 1 0 0 1-.92.62M730.2 266a1 1 0 0 1-.92-1.38l1.89-4.58a1 1 0 1 1 1.85.77l-1.89 4.57a1 1 0 0 1-.93.62m5.68-13.72a1.1 1.1 0 0 1-.38-.08 1 1 0 0 1-.54-1.3l1.9-4.58a1 1 0 0 1 1.3-.54 1 1 0 0 1 .54 1.31l-1.89 4.57a1 1 0 0 1-.93.63Zm5.69-13.72a1 1 0 0 1-.93-1.38l1.9-4.58a1 1 0 1 1 1.85.77l-1.9 4.57a1 1 0 0 1-.92.63Zm5.68-13.72a1 1 0 0 1-.92-1.39l1.89-4.57a1 1 0 1 1 1.85.77l-1.9 4.57a1 1 0 0 1-.92.63Zm5.68-13.72a1.1 1.1 0 0 1-.38-.08 1 1 0 0 1-.54-1.31l1.9-4.57a1 1 0 0 1 1.3-.54 1 1 0 0 1 .54 1.31l-1.89 4.57a1 1 0 0 1-.93.63Zm5.69-13.72a1 1 0 0 1-.38-.08 1 1 0 0 1-.55-1.31l1.9-4.57a1 1 0 0 1 1.85.77l-1.9 4.57a1 1 0 0 1-.92.63Zm5.68-13.72a1 1 0 0 1-.92-1.39l1.89-4.57a1 1 0 1 1 1.85.77l-1.9 4.57a1 1 0 0 1-.92.63ZM770 170a1.1 1.1 0 0 1-.38-.08 1 1 0 0 1-.54-1.31L771 164a1 1 0 0 1 1.84.76l-1.89 4.58a1 1 0 0 1-.95.66m5.69-13.72a1 1 0 0 1-.38-.08 1 1 0 0 1-.55-1.31l1.9-4.57a1 1 0 0 1 1.85.76l-1.9 4.58a1 1 0 0 1-.94.59Zm5.68-13.73a1 1 0 0 1-.38-.07 1 1 0 0 1-.54-1.31l1.89-4.57a1 1 0 0 1 1.31-.54 1 1 0 0 1 .54 1.3l-1.9 4.58a1 1 0 0 1-.94.58ZM787 128.8a1.1 1.1 0 0 1-.38-.07 1 1 0 0 1-.54-1.31l1-2.31a1 1 0 1 1 1.84.77l-.95 2.31a1 1 0 0 1-.97.61"/><path fill="#f4b8dd" d="M788.31 633.2 577.84 125.09"/><path fill="#f998d0" d="M788.31 634.2a1 1 0 0 1-.93-.62l-1-2.31A1 1 0 0 1 787 630a1 1 0 0 1 1.31.54l1 2.31a1 1 0 0 1-.54 1.3.84.84 0 0 1-.46.05m-4.75-11.46a1 1 0 0 1-.92-.62l-1.9-4.58a1 1 0 0 1 .54-1.3 1 1 0 0 1 1.31.54l1.89 4.57a1 1 0 0 1-.92 1.39M777.87 609a1 1 0 0 1-.92-.61l-1.9-4.58a1 1 0 1 1 1.85-.77l1.9 4.58a1 1 0 0 1-.55 1.31 1 1 0 0 1-.38.07m-5.69-13.73a1 1 0 0 1-.92-.61l-1.9-4.58a1 1 0 0 1 .55-1.31 1 1 0 0 1 1.3.54l1.9 4.58a1 1 0 0 1-.54 1.31 1.1 1.1 0 0 1-.39.07m-5.68-13.73a1 1 0 0 1-.93-.62l-1.89-4.57a1 1 0 0 1 .54-1.31 1 1 0 0 1 1.3.54l1.9 4.58a1 1 0 0 1-.54 1.31 1.1 1.1 0 0 1-.38.07m-5.69-13.73a1 1 0 0 1-.93-.62l-1.88-4.57a1 1 0 0 1 1.85-.77l1.89 4.58a1 1 0 0 1-.54 1.3.84.84 0 0 1-.39.08m-5.69-13.73a1 1 0 0 1-.92-.62l-1.9-4.58a1 1 0 0 1 .54-1.3 1 1 0 0 1 1.31.54l1.85 4.58a1 1 0 0 1-.54 1.3 1 1 0 0 1-.34.08m-5.69-13.73a1 1 0 0 1-.92-.62l-1.9-4.58a1 1 0 0 1 .54-1.3 1 1 0 0 1 1.31.54l1.9 4.57a1 1 0 0 1-.54 1.31 1.1 1.1 0 0 1-.39.08m-5.68-13.73a1 1 0 0 1-.93-.62l-1.89-4.58a1 1 0 1 1 1.84-.76l1.9 4.57a1 1 0 0 1-.54 1.31 1.1 1.1 0 0 1-.38.08m-5.69-13.74a1 1 0 0 1-.93-.61l-1.89-4.58a1 1 0 0 1 .54-1.31 1 1 0 0 1 1.3.54l1.9 4.58a1 1 0 0 1-.54 1.31 1 1 0 0 1-.38.07m-5.69-13.73a1 1 0 0 1-.92-.61l-1.9-4.58a1 1 0 0 1 1.85-.77l1.89 4.58a1 1 0 0 1-.54 1.31 1 1 0 0 1-.38.07m-5.69-13.73a1 1 0 0 1-.92-.62l-1.9-4.57a1 1 0 0 1 1.85-.77l1.9 4.58a1 1 0 0 1-.55 1.3.84.84 0 0 1-.38.08M721 471.69a1 1 0 0 1-.92-.62l-1.9-4.57a1 1 0 0 1 1.85-.77l1.9 4.58a1 1 0 0 1-.54 1.3.9.9 0 0 1-.39.08M715.31 458a1 1 0 0 1-.93-.62l-1.89-4.58a1 1 0 0 1 1.84-.76l1.9 4.58a1 1 0 0 1-.54 1.3 1.1 1.1 0 0 1-.38.08m-5.69-13.73a1 1 0 0 1-.93-.62L706.8 439a1 1 0 0 1 .54-1.3 1 1 0 0 1 1.31.54l1.89 4.57a1 1 0 0 1-.92 1.39Zm-5.69-13.73a1 1 0 0 1-.92-.62l-1.9-4.58a1 1 0 1 1 1.85-.76l1.89 4.57a1 1 0 0 1-.92 1.39m-5.69-13.74a1 1 0 0 1-.92-.61l-1.9-4.58a1 1 0 0 1 1.85-.77l1.9 4.58a1 1 0 0 1-.54 1.31 1.1 1.1 0 0 1-.39.03Zm-11.37-27.5a1 1 0 0 1-.93-.62l-1.89-4.57a1 1 0 1 1 1.85-.77l1.89 4.58a1 1 0 0 1-.54 1.3.9.9 0 0 1-.38.08m-5.69-13.73a1 1 0 0 1-.92-.62l-1.9-4.58a1 1 0 0 1 .54-1.3 1 1 0 0 1 1.31.54l1.89 4.58a1 1 0 0 1-.92 1.38m-11.38-27.46a1 1 0 0 1-.92-.62l-1.9-4.58a1 1 0 1 1 1.85-.76l1.9 4.57a1 1 0 0 1-.54 1.31 1.1 1.1 0 0 1-.39.08m-5.68-13.74a1 1 0 0 1-.93-.61l-1.89-4.58a1 1 0 0 1 .54-1.31 1 1 0 0 1 1.3.54L665 333a1 1 0 0 1-.54 1.31 1 1 0 0 1-.34.06m-5.69-13.73a1 1 0 0 1-.93-.61l-1.89-4.58a1 1 0 0 1 1.85-.77l1.89 4.58a1 1 0 0 1-.54 1.31 1 1 0 0 1-.38.07m-5.69-13.73a1 1 0 0 1-.92-.62l-1.9-4.57a1 1 0 1 1 1.85-.77l1.89 4.58a1 1 0 0 1-.54 1.3.84.84 0 0 1-.38.08m-5.69-13.73a1 1 0 0 1-.92-.62l-1.9-4.57a1 1 0 0 1 1.85-.77l1.9 4.58a1 1 0 0 1-.54 1.3.9.9 0 0 1-.39.08m-5.68-13.73a1 1 0 0 1-.93-.62l-1.9-4.58a1 1 0 0 1 1.85-.76l1.9 4.57a1 1 0 0 1-.54 1.31 1.1 1.1 0 0 1-.38.08m-5.69-13.73a1 1 0 0 1-.93-.62l-1.89-4.58a1 1 0 0 1 .54-1.3 1 1 0 0 1 1.31.54l1.89 4.57a1 1 0 0 1-.92 1.39M630 252a1 1 0 0 1-.92-.61l-1.9-4.58A1 1 0 0 1 629 246l1.89 4.58a1 1 0 0 1-.54 1.31 1 1 0 0 1-.35.11m-5.69-13.73a1 1 0 0 1-.92-.61l-1.9-4.58a1 1 0 1 1 1.85-.77l1.9 4.58a1 1 0 0 1-.55 1.31 1 1 0 0 1-.39.05Zm-5.69-13.73a1 1 0 0 1-.92-.62l-1.9-4.57a1 1 0 1 1 1.85-.77l1.9 4.58a1 1 0 0 1-.54 1.31 1.1 1.1 0 0 1-.4.05Zm-5.68-13.73a1 1 0 0 1-.93-.62l-1.89-4.57a1 1 0 0 1 .54-1.31 1 1 0 0 1 1.3.54l1.9 4.58a1 1 0 0 1-.54 1.3.9.9 0 0 1-.39.06Zm-5.69-13.73a1 1 0 0 1-.93-.62l-1.89-4.58a1 1 0 0 1 .54-1.3 1 1 0 0 1 1.31.54l1.89 4.58a1 1 0 0 1-.92 1.38m-5.69-13.73a1 1 0 0 1-.92-.62l-1.9-4.58a1 1 0 0 1 .54-1.3 1 1 0 0 1 1.31.54l1.89 4.57a1 1 0 0 1-.92 1.39m-5.69-13.73a1 1 0 0 1-.92-.62l-1.95-4.6a1 1 0 1 1 1.85-.76l1.9 4.57a1 1 0 0 1-.54 1.31 1.1 1.1 0 0 1-.35.08Zm-5.69-13.74a1 1 0 0 1-.92-.61l-1.89-4.58a1 1 0 1 1 1.84-.77l1.9 4.58a1 1 0 0 1-.54 1.31 1.1 1.1 0 0 1-.4.05Zm-5.68-13.73a1 1 0 0 1-.93-.61l-1.89-4.58a1 1 0 1 1 1.85-.77l1.89 4.58a1 1 0 0 1-.54 1.31 1 1 0 0 1-.39.05Zm-5.7-13.75a1 1 0 0 1-.92-.62l-1-2.31a1 1 0 0 1 .54-1.3 1 1 0 0 1 1.31.54l1 2.31a1 1 0 0 1-.54 1.3.84.84 0 0 1-.39.08"/><path fill="#f4b8dd" d="m934.32 630.29-505.19-505.2"/><path fill="#f998d0" d="M934.32 631.29a1 1 0 0 1-.7-.3l-1.77-1.76a1 1 0 0 1 0-1.42 1 1 0 0 1 1.41 0l1.77 1.77a1 1 0 0 1-.71 1.71m-8.78-8.79a1 1 0 0 1-.71-.29l-3.51-3.51a1 1 0 0 1 0-1.41 1 1 0 0 1 1.42 0l3.51 3.5a1 1 0 0 1 0 1.42 1 1 0 0 1-.71.29M915 612a1 1 0 0 1-.7-.3l-3.51-3.5a1 1 0 0 1 0-1.42 1 1 0 0 1 1.41 0l3.51 3.51a1 1 0 0 1 0 1.41 1 1 0 0 1-.71.3m-10.52-10.53a1 1 0 0 1-.71-.29l-3.5-3.51a1 1 0 0 1 0-1.41 1 1 0 0 1 1.41 0l3.51 3.51a1 1 0 0 1 0 1.41 1 1 0 0 1-.7.27ZM894 590.93a1 1 0 0 1-.71-.29l-3.51-3.51a1 1 0 0 1 1.42-1.42l3.5 3.51a1 1 0 0 1-.7 1.71m-10.56-10.53a1 1 0 0 1-.71-.29l-3.5-3.51a1 1 0 1 1 1.41-1.41l3.51 3.51a1 1 0 0 1 0 1.41 1 1 0 0 1-.71.29m-10.52-10.52a1 1 0 0 1-.71-.29l-3.51-3.51a1 1 0 0 1 1.42-1.41l3.5 3.5a1 1 0 0 1-.7 1.71m-10.53-10.52a1 1 0 0 1-.7-.3l-3.51-3.51a1 1 0 0 1 1.41-1.41l3.51 3.51a1 1 0 0 1 0 1.41 1 1 0 0 1-.71.3m-10.52-10.53a1 1 0 0 1-.71-.29l-3.51-3.54a1 1 0 0 1 0-1.41 1 1 0 0 1 1.42 0l3.51 3.5a1 1 0 0 1 0 1.42 1 1 0 0 1-.71.32m-10.53-10.52a1 1 0 0 1-.7-.3l-3.51-3.5a1 1 0 0 1 0-1.42 1 1 0 0 1 1.41 0l3.51 3.51a1 1 0 0 1 0 1.41 1 1 0 0 1-.71.3m-10.52-10.53a1 1 0 0 1-.71-.29L826.6 524a1 1 0 0 1 0-1.41 1 1 0 0 1 1.42 0l3.51 3.51a1 1 0 0 1 0 1.41 1 1 0 0 1-.71.27m-10.52-10.52a1 1 0 0 1-.71-.29l-3.51-3.51a1 1 0 1 1 1.42-1.46l3.5 3.51a1 1 0 0 1-.7 1.71Zm-10.53-10.53a1 1 0 0 1-.71-.29l-3.5-3.51a1 1 0 0 1 1.41-1.41l3.51 3.51a1 1 0 0 1 0 1.41 1 1 0 0 1-.71.29m-10.52-10.52a1 1 0 0 1-.71-.29l-3.54-3.51a1 1 0 0 1 1.42-1.41l3.5 3.5a1 1 0 0 1-.7 1.71Zm-10.53-10.52a1 1 0 0 1-.7-.3l-3.51-3.51a1 1 0 1 1 1.41-1.41l3.51 3.51a1 1 0 0 1-.71 1.71m-10.52-10.53a1 1 0 0 1-.71-.29l-3.49-3.51a1 1 0 0 1 0-1.41 1 1 0 0 1 1.42 0l3.51 3.5a1 1 0 0 1 0 1.42 1 1 0 0 1-.73.29m-10.53-10.52a1 1 0 0 1-.7-.3l-3.51-3.5a1 1 0 0 1 0-1.42 1 1 0 0 1 1.41 0l3.51 3.51a1 1 0 0 1 0 1.41 1 1 0 0 1-.71.3m-10.52-10.53a1 1 0 0 1-.71-.29l-3.51-3.51a1 1 0 0 1 0-1.41 1 1 0 0 1 1.42 0l3.51 3.51a1 1 0 0 1 0 1.41 1 1 0 0 1-.71.29m-10.53-10.52a1 1 0 0 1-.7-.29l-3.51-3.51a1 1 0 0 1 0-1.42 1 1 0 0 1 1.41 0l3.51 3.51a1 1 0 0 1-.71 1.71m-10.52-10.53a1 1 0 0 1-.71-.29l-3.5-3.51a1 1 0 0 1 1.41-1.41l3.51 3.51a1 1 0 0 1 0 1.41 1 1 0 0 1-.71.29m-10.52-10.52a1 1 0 0 1-.71-.29l-3.51-3.51a1 1 0 1 1 1.42-1.41l3.5 3.5a1 1 0 0 1-.7 1.71M715.05 412a1 1 0 0 1-.7-.3l-3.51-3.51a1 1 0 0 1 1.41-1.41l3.51 3.51a1 1 0 0 1-.71 1.71m-10.52-10.53a1 1 0 0 1-.71-.29l-3.51-3.51a1 1 0 0 1 0-1.41 1 1 0 0 1 1.42 0l3.51 3.5a1 1 0 0 1 0 1.42 1 1 0 0 1-.71.31ZM694 391a1 1 0 0 1-.7-.3l-3.51-3.5a1 1 0 0 1 0-1.42 1 1 0 0 1 1.41 0l3.51 3.51a1 1 0 0 1 0 1.41 1 1 0 0 1-.71.3m-10.52-10.53a1 1 0 0 1-.71-.29l-3.51-3.51a1 1 0 0 1 0-1.41 1 1 0 0 1 1.42 0l3.51 3.51a1 1 0 0 1 0 1.41 1 1 0 0 1-.71.26ZM673 369.92a1 1 0 0 1-.71-.29l-3.51-3.51a1 1 0 0 1 0-1.42 1 1 0 0 1 1.41 0l3.51 3.51a1 1 0 0 1-.7 1.71m-10.53-10.53a1 1 0 0 1-.71-.29l-3.5-3.51a1 1 0 1 1 1.41-1.41l3.51 3.51a1 1 0 0 1 0 1.41 1 1 0 0 1-.75.29Zm-10.52-10.52a1 1 0 0 1-.71-.29l-3.51-3.51a1 1 0 0 1 1.42-1.42l3.5 3.51a1 1 0 0 1-.7 1.71m-10.53-10.52a1 1 0 0 1-.71-.3l-3.5-3.51a1 1 0 0 1 1.41-1.41l3.51 3.51a1 1 0 0 1-.71 1.71m-10.52-10.53a1 1 0 0 1-.71-.29l-3.55-3.53a1 1 0 0 1 0-1.41 1 1 0 0 1 1.42 0l3.5 3.5a1 1 0 0 1 0 1.42 1 1 0 0 1-.7.31Zm-10.57-10.52a1 1 0 0 1-.7-.3l-3.51-3.5a1 1 0 0 1 0-1.42 1 1 0 0 1 1.41 0l3.51 3.51a1 1 0 0 1 0 1.41 1 1 0 0 1-.71.3m-10.52-10.53a1 1 0 0 1-.71-.29l-3.51-3.48a1 1 0 0 1 0-1.41 1 1 0 0 1 1.42 0l3.51 3.51a1 1 0 0 1 0 1.41 1 1 0 0 1-.71.26m-10.52-10.52a1 1 0 0 1-.71-.29l-3.51-3.51a1 1 0 0 1 0-1.42 1 1 0 0 1 1.41 0l3.51 3.51a1 1 0 0 1-.7 1.71m-10.53-10.53a1 1 0 0 1-.71-.29l-3.5-3.51a1 1 0 0 1 1.41-1.41l3.51 3.51a1 1 0 0 1 0 1.41 1 1 0 0 1-.71.29m-10.52-10.52a1 1 0 0 1-.71-.29L574 271.4a1 1 0 0 1 1.42-1.42l3.5 3.51a1 1 0 0 1-.7 1.71Zm-10.53-10.52a1 1 0 0 1-.71-.3l-3.5-3.51a1 1 0 1 1 1.41-1.41l3.51 3.51a1 1 0 0 1-.71 1.71m-10.52-10.53a1 1 0 0 1-.71-.29l-3.48-3.51a1 1 0 0 1 0-1.41 1 1 0 0 1 1.42 0l3.5 3.5a1 1 0 0 1 0 1.42 1 1 0 0 1-.73.29m-10.53-10.52a1 1 0 0 1-.7-.3l-3.51-3.5a1 1 0 0 1 0-1.42 1 1 0 0 1 1.41 0l3.51 3.51a1 1 0 0 1-.71 1.71m-10.52-10.53a1 1 0 0 1-.71-.29l-3.51-3.51a1 1 0 0 1 0-1.41 1 1 0 0 1 1.42 0l3.51 3.51a1 1 0 0 1 0 1.41 1 1 0 0 1-.71.29m-10.52-10.52a1 1 0 0 1-.71-.29l-3.51-3.51a1 1 0 0 1 0-1.42 1 1 0 0 1 1.41 0l3.51 3.51a1 1 0 0 1-.7 1.71m-10.53-10.53a1 1 0 0 1-.71-.29l-3.5-3.51a1 1 0 0 1 0-1.41 1 1 0 0 1 1.41 0l3.51 3.51a1 1 0 0 1 0 1.41 1 1 0 0 1-.71.29m-10.52-10.52a1 1 0 0 1-.71-.29l-3.51-3.51a1 1 0 0 1 0-1.42 1 1 0 0 1 1.41 0l3.51 3.51a1 1 0 0 1-.7 1.71M494 191a1 1 0 0 1-.71-.29l-3.5-3.51a1 1 0 1 1 1.41-1.41l3.51 3.51a1 1 0 0 1 0 1.41 1 1 0 0 1-.71.29m-10.52-10.52a1 1 0 0 1-.71-.29l-3.51-3.51a1 1 0 0 1 0-1.41 1 1 0 0 1 1.42 0l3.5 3.5a1 1 0 0 1 0 1.42 1 1 0 0 1-.66.29ZM473 170a1 1 0 0 1-.7-.3l-3.51-3.5a1 1 0 0 1 0-1.42 1 1 0 0 1 1.41 0l3.51 3.51A1 1 0 0 1 473 170m-10.52-10.53a1 1 0 0 1-.71-.29l-3.51-3.51a1 1 0 0 1 0-1.41 1 1 0 0 1 1.42 0l3.51 3.51a1 1 0 0 1 0 1.41 1 1 0 0 1-.72.25Zm-10.53-10.52a1 1 0 0 1-.7-.3l-3.51-3.5a1 1 0 0 1 0-1.42 1 1 0 0 1 1.41 0l3.51 3.51a1 1 0 0 1 0 1.41 1 1 0 0 1-.72.26Zm-10.52-10.53a1 1 0 0 1-.71-.29l-3.5-3.51a1 1 0 0 1 0-1.41 1 1 0 0 1 1.41 0l3.51 3.51a1 1 0 0 1 0 1.41 1 1 0 0 1-.72.25Zm-10.53-10.56a1 1 0 0 1-.71-.29l-1.77-1.77a1 1 0 0 1 0-1.42 1 1 0 0 1 1.41 0l1.77 1.77a1 1 0 0 1-.7 1.71"/><path fill="#f4b8dd" d="m937.05 484.2-508.1-210.47"/><path fill="#f998d0" d="M937.05 485.2a1.1 1.1 0 0 1-.38-.08l-2.31-1a1 1 0 1 1 .77-1.84l2.31.95a1 1 0 0 1-.39 1.93Zm-11.46-4.75a1 1 0 0 1-.38-.08l-4.58-1.89a1 1 0 0 1 .77-1.85l4.57 1.89a1 1 0 0 1-.38 1.93m-13.73-5.69a.84.84 0 0 1-.38-.08l-4.58-1.89a1 1 0 0 1 .77-1.85l4.57 1.9a1 1 0 0 1-.38 1.92m-13.73-5.69a1 1 0 0 1-.38-.07l-4.58-1.9a1 1 0 0 1 .76-1.85l4.58 1.9a1 1 0 0 1-.38 1.92m-13.73-5.69a1.1 1.1 0 0 1-.39-.07l-4.57-1.9a1 1 0 0 1 .76-1.85l4.58 1.9a1 1 0 0 1-.38 1.92m-13.73-5.68a1.1 1.1 0 0 1-.39-.08l-4.57-1.9a1 1 0 1 1 .76-1.84l4.58 1.89a1 1 0 0 1-.38 1.93m-13.74-5.7a1.1 1.1 0 0 1-.38-.08L852 450a1 1 0 1 1 .77-1.85l4.58 1.89a1 1 0 0 1 .54 1.31 1 1 0 0 1-.96.65m-13.73-5.69a.84.84 0 0 1-.38-.08l-4.58-1.89a1 1 0 0 1 .77-1.85l4.57 1.9a1 1 0 0 1-.38 1.92m-13.73-5.69a1 1 0 0 1-.38-.07l-4.58-1.9a1 1 0 0 1 .77-1.85l4.57 1.9a1 1 0 0 1-.38 1.92M815.74 435a1 1 0 0 1-.38-.08l-4.58-1.9a1 1 0 0 1-.54-1.3 1 1 0 0 1 1.3-.55l4.58 1.9a1 1 0 0 1-.38 1.93M802 429.26a1.1 1.1 0 0 1-.39-.08l-4.57-1.89a1 1 0 0 1 .76-1.85l4.58 1.89a1 1 0 0 1-.38 1.93m-13.73-5.69a1.1 1.1 0 0 1-.39-.08l-4.57-1.89a1 1 0 1 1 .76-1.85l4.58 1.9a1 1 0 0 1-.38 1.92m-13.74-5.69a1.1 1.1 0 0 1-.38-.07l-4.58-1.9a1 1 0 1 1 .77-1.85l4.58 1.9a1 1 0 0 1-.39 1.92m-13.73-5.69a1 1 0 0 1-.38-.07l-4.58-1.9a1 1 0 0 1-.54-1.3 1 1 0 0 1 1.31-.55l4.58 1.9a1 1 0 0 1-.39 1.92m-13.73-5.68a1 1 0 0 1-.38-.08l-4.58-1.9a1 1 0 0 1-.54-1.3 1 1 0 0 1 1.31-.54l4.57 1.89a1 1 0 0 1-.38 1.93m-13.73-5.69a1 1 0 0 1-.38-.08l-4.58-1.89a1 1 0 0 1 .77-1.85l4.57 1.89a1 1 0 0 1 .54 1.31 1 1 0 0 1-.91.62Zm-13.73-5.69a.9.9 0 0 1-.39-.08l-4.57-1.89a1 1 0 0 1-.54-1.31 1 1 0 0 1 1.3-.54l4.58 1.9a1 1 0 0 1-.38 1.92m-27.47-11.37a1.1 1.1 0 0 1-.38-.08l-4.58-1.9a1 1 0 0 1-.54-1.3 1 1 0 0 1 1.31-.54l4.58 1.89a1 1 0 0 1-.39 1.93m-13.73-5.69a1 1 0 0 1-.41-.07l-4.58-1.89a1 1 0 1 1 .77-1.85l4.58 1.89a1 1 0 0 1 .54 1.31 1 1 0 0 1-.89.61ZM651 366.69a1 1 0 0 1-.38-.07l-4.58-1.9a1 1 0 0 1 .77-1.85l4.57 1.9a1 1 0 0 1-.38 1.92M637.23 361a1 1 0 0 1-.38-.07l-4.58-1.9a1 1 0 0 1 .76-1.85l4.58 1.9a1 1 0 0 1-.38 1.92m-13.73-5.68a1.1 1.1 0 0 1-.39-.08l-4.57-1.9a1 1 0 0 1 .76-1.84l4.58 1.89a1 1 0 0 1-.38 1.93m-13.73-5.69a1.1 1.1 0 0 1-.39-.08l-4.57-1.89a1 1 0 1 1 .76-1.85l4.58 1.89a1 1 0 0 1 .54 1.31 1 1 0 0 1-.92.62M596 343.94a.9.9 0 0 1-.38-.08l-4.55-1.86a1 1 0 1 1 .77-1.85l4.58 1.9a1 1 0 0 1-.39 1.92Zm-13.73-5.69a1 1 0 0 1-.38-.07l-4.58-1.9a1 1 0 1 1 .77-1.85l4.58 1.9a1 1 0 0 1-.39 1.92m-13.73-5.68a1 1 0 0 1-.38-.08l-4.58-1.9a1 1 0 0 1-.54-1.3 1 1 0 0 1 1.31-.54l4.57 1.89a1 1 0 0 1 .55 1.31 1 1 0 0 1-.9.62Zm-13.73-5.69a1 1 0 0 1-.38-.08l-4.58-1.89a1 1 0 0 1-.54-1.31 1 1 0 0 1 1.3-.54l4.58 1.89a1 1 0 0 1 .54 1.31 1 1 0 0 1-.89.62Zm-13.73-5.69a.9.9 0 0 1-.39-.08l-4.57-1.89a1 1 0 0 1 .76-1.85l4.58 1.9a1 1 0 0 1-.38 1.92m-13.73-5.69a1.1 1.1 0 0 1-.39-.07l-4.57-1.9a1 1 0 0 1 .76-1.85l4.58 1.9a1 1 0 0 1-.38 1.92m-13.74-5.69a1.1 1.1 0 0 1-.38-.07l-4.58-1.9a1 1 0 0 1 .77-1.85l4.58 1.9a1 1 0 0 1-.39 1.92m-13.73-5.68a1.1 1.1 0 0 1-.38-.08l-4.58-1.9a1 1 0 0 1-.54-1.3 1 1 0 0 1 1.31-.54l4.58 1.89a1 1 0 0 1 .54 1.31 1 1 0 0 1-.9.62Zm-13.73-5.69a1 1 0 0 1-.38-.08l-4.58-1.89a1 1 0 0 1 .77-1.85l4.57 1.89a1 1 0 0 1-.38 1.93m-13.73-5.69a.84.84 0 0 1-.38-.08l-4.58-1.89a1 1 0 1 1 .77-1.85l4.57 1.9a1 1 0 0 1-.38 1.92m-13.73-5.69a1 1 0 0 1-.38-.07l-4.58-1.9a1 1 0 0 1 .76-1.85l4.58 1.9a1 1 0 0 1-.38 1.92M445 281.38a1.1 1.1 0 0 1-.39-.08l-4.61-1.9a1 1 0 1 1 .76-1.84l4.58 1.89a1 1 0 0 1-.38 1.93Zm-13.75-5.69a1.1 1.1 0 0 1-.38-.08l-2.31-1a1 1 0 0 1-.54-1.3 1 1 0 0 1 1.31-.54l2.31.95a1 1 0 0 1 .54 1.31 1 1 0 0 1-.93.66"/><circle cx="683" cy="378.96" r="24" fill="#f9d2ec"/><path fill="#ff1493" d="M435 380.46h-6a1.5 1.5 0 0 1 0-3h6a1.5 1.5 0 0 1 0 3m484 0h-12.1a1.5 1.5 0 0 1 0-3H919a1.5 1.5 0 0 1 0 3m-24.2 0h-12.1a1.5 1.5 0 0 1 0-3h12.1a1.5 1.5 0 0 1 0 3m-24.2 0h-12.1a1.5 1.5 0 0 1 0-3h12.1a1.5 1.5 0 0 1 0 3m-24.2 0h-12.1a1.5 1.5 0 0 1 0-3h12.1a1.5 1.5 0 0 1 0 3m-24.2 0h-12.1a1.5 1.5 0 0 1 0-3h12.1a1.5 1.5 0 0 1 0 3m-24.2 0h-12.1a1.5 1.5 0 0 1 0-3H798a1.5 1.5 0 0 1 0 3m-24.2 0h-12.1a1.5 1.5 0 0 1 0-3h12.1a1.5 1.5 0 0 1 0 3m-24.2 0h-12.1a1.5 1.5 0 0 1 0-3h12.1a1.5 1.5 0 0 1 0 3m-24.2 0h-12.1a1.5 1.5 0 0 1 0-3h12.1a1.5 1.5 0 0 1 0 3m-24.2 0h-12.1a1.5 1.5 0 0 1 0-3h12.1a1.5 1.5 0 0 1 0 3m-24.2 0h-12.1a1.5 1.5 0 0 1 0-3H677a1.5 1.5 0 0 1 0 3m-24.2 0h-12.1a1.5 1.5 0 0 1 0-3h12.1a1.5 1.5 0 0 1 0 3m-24.2 0h-12.1a1.5 1.5 0 0 1 0-3h12.1a1.5 1.5 0 0 1 0 3m-24.2 0h-12.1a1.5 1.5 0 0 1 0-3h12.1a1.5 1.5 0 0 1 0 3m-24.2 0h-12.1a1.5 1.5 0 0 1 0-3h12.1a1.5 1.5 0 0 1 0 3m-24.2 0h-12.1a1.5 1.5 0 0 1 0-3H556a1.5 1.5 0 0 1 0 3m-24.2 0h-12.1a1.5 1.5 0 0 1 0-3h12.1a1.5 1.5 0 0 1 0 3m-24.2 0h-12.1a1.5 1.5 0 0 1 0-3h12.1a1.5 1.5 0 0 1 0 3m-24.2 0h-12.1a1.5 1.5 0 0 1 0-3h12.1a1.5 1.5 0 0 1 0 3m-24.2 0h-12.1a1.5 1.5 0 0 1 0-3h12.1a1.5 1.5 0 0 1 0 3m477.85 0h-6a1.5 1.5 0 0 1 0-3h6a1.5 1.5 0 0 1 0 3"/><path fill="#f4b8dd" d="M683 630.29V127.64"/><path fill="#ff1493" d="M683 631.79a1.5 1.5 0 0 1-1.5-1.5v-6a1.5 1.5 0 0 1 3 0v6a1.5 1.5 0 0 1-1.5 1.5m0-17.97a1.5 1.5 0 0 1-1.5-1.5v-12a1.5 1.5 0 1 1 3 0v12a1.5 1.5 0 0 1-1.5 1.5m0-23.93a1.5 1.5 0 0 1-1.5-1.5v-12a1.5 1.5 0 0 1 3 0v12a1.5 1.5 0 0 1-1.5 1.5m0-23.89a1.5 1.5 0 0 1-1.5-1.5v-12a1.5 1.5 0 0 1 3 0v12a1.5 1.5 0 0 1-1.5 1.5m0-24a1.5 1.5 0 0 1-1.5-1.5v-12a1.5 1.5 0 0 1 3 0v12a1.5 1.5 0 0 1-1.5 1.5m0-23.94a1.5 1.5 0 0 1-1.5-1.5v-12a1.5 1.5 0 1 1 3 0v12a1.5 1.5 0 0 1-1.5 1.52Zm0-23.93a1.5 1.5 0 0 1-1.5-1.5v-12a1.5 1.5 0 0 1 3 0v12a1.5 1.5 0 0 1-1.5 1.52Zm0-23.93a1.5 1.5 0 0 1-1.5-1.5v-12a1.5 1.5 0 0 1 3 0v12a1.5 1.5 0 0 1-1.5 1.52Zm0-23.94a1.5 1.5 0 0 1-1.5-1.5v-12a1.5 1.5 0 1 1 3 0v12a1.5 1.5 0 0 1-1.5 1.52Zm0-23.93a1.5 1.5 0 0 1-1.5-1.5v-12a1.5 1.5 0 0 1 3 0v12a1.5 1.5 0 0 1-1.5 1.52Zm0-23.94a1.5 1.5 0 0 1-1.5-1.5V385a1.5 1.5 0 0 1 3 0v12a1.5 1.5 0 0 1-1.5 1.41Zm0-23.93a1.5 1.5 0 0 1-1.5-1.5V361a1.5 1.5 0 0 1 3 0v12a1.5 1.5 0 0 1-1.5 1.48Zm0-23.93a1.5 1.5 0 0 1-1.5-1.5v-12a1.5 1.5 0 1 1 3 0v12a1.5 1.5 0 0 1-1.5 1.52Zm0-23.94a1.5 1.5 0 0 1-1.5-1.5v-12a1.5 1.5 0 0 1 3 0v12a1.5 1.5 0 0 1-1.5 1.52Zm0-23.93a1.5 1.5 0 0 1-1.5-1.5v-12a1.5 1.5 0 0 1 3 0v12a1.5 1.5 0 0 1-1.5 1.52Zm0-23.94a1.5 1.5 0 0 1-1.5-1.5v-12a1.5 1.5 0 0 1 3 0v12a1.5 1.5 0 0 1-1.5 1.52Zm0-23.93a1.5 1.5 0 0 1-1.5-1.5v-12a1.5 1.5 0 0 1 3 0v12a1.5 1.5 0 0 1-1.5 1.52Zm0-23.93a1.5 1.5 0 0 1-1.5-1.5v-12a1.5 1.5 0 1 1 3 0v12a1.5 1.5 0 0 1-1.5 1.52Zm0-23.94a1.5 1.5 0 0 1-1.5-1.5v-12a1.5 1.5 0 0 1 3 0v12a1.5 1.5 0 0 1-1.5 1.52Zm0-23.92a1.5 1.5 0 0 1-1.5-1.5v-12a1.5 1.5 0 1 1 3 0v12a1.5 1.5 0 0 1-1.5 1.5m0-23.93a1.5 1.5 0 0 1-1.5-1.5v-12a1.5 1.5 0 0 1 3 0v12a1.5 1.5 0 0 1-1.5 1.51Zm0-23.93a1.5 1.5 0 0 1-1.5-1.5v-6a1.5 1.5 0 1 1 3 0v6a1.5 1.5 0 0 1-1.5 1.5"/><path d="M995.05 302.29a9.3 9.3 0 0 1-3.71-3.51 10.39 10.39 0 0 1 0-10.17 9.3 9.3 0 0 1 3.7-3.49 11.2 11.2 0 0 1 5.38-1.26 10.46 10.46 0 0 1 5 1.15 7.47 7.47 0 0 1 3.22 3.31l-3.45 2a5.5 5.5 0 0 0-2.07-2 6.07 6.07 0 0 0-6.89 1 6.63 6.63 0 0 0 0 8.75 6.05 6.05 0 0 0 6.91 1 5.47 5.47 0 0 0 2.07-2l3.45 2a7.8 7.8 0 0 1-3.25 3.33 10.17 10.17 0 0 1-5 1.17 11.3 11.3 0 0 1-5.36-1.28m20.56 0a9.23 9.23 0 0 1-3.66-3.51 10.52 10.52 0 0 1 0-10.17 9.25 9.25 0 0 1 3.66-3.49 10.9 10.9 0 0 1 5.25-1.26 11 11 0 0 1 5.3 1.26 9.2 9.2 0 0 1 3.65 3.49 10.52 10.52 0 0 1 0 10.17 9.2 9.2 0 0 1-3.65 3.51 11 11 0 0 1-5.3 1.26 10.9 10.9 0 0 1-5.25-1.26M1025 298a6.66 6.66 0 0 0 0-8.71 5.52 5.52 0 0 0-4.11-1.65 5.45 5.45 0 0 0-4.08 1.65 6.73 6.73 0 0 0 0 8.71 5.42 5.42 0 0 0 4.08 1.66A5.5 5.5 0 0 0 1025 298m27.18-12q2.21 2.13 2.2 6.3v11h-4.5v-10.44a5.43 5.43 0 0 0-1.19-3.8 4.4 4.4 0 0 0-3.38-1.28 5.2 5.2 0 0 0-3.93 1.5 5.94 5.94 0 0 0-1.44 4.3v9.72h-4.5v-19.22h4.29v2.48a7 7 0 0 1 2.81-2 10.2 10.2 0 0 1 3.81-.68 8 8 0 0 1 5.83 2.12m8.14-5.87a2.51 2.51 0 0 1-.83-1.92 2.55 2.55 0 0 1 .83-1.93 2.92 2.92 0 0 1 2-.77 3 3 0 0 1 2.05.74 2.35 2.35 0 0 1 .83 1.85 2.72 2.72 0 0 1-.81 2 2.8 2.8 0 0 1-2.07.81 2.88 2.88 0 0 1-2-.78m-.22 3.95h4.5v19.22h-4.5Zm13.9 18.21a9.2 9.2 0 0 1-3.7-3.51 10.32 10.32 0 0 1 0-10.17 9.2 9.2 0 0 1 3.69-3.49 11.2 11.2 0 0 1 5.38-1.26 10.46 10.46 0 0 1 5 1.15 7.54 7.54 0 0 1 3.23 3.31l-3.46 2a5.5 5.5 0 0 0-2.07-2 6.07 6.07 0 0 0-6.89 1 6.63 6.63 0 0 0 0 8.75 6.05 6.05 0 0 0 6.91 1 5.47 5.47 0 0 0 2.07-2l3.46 2a7.8 7.8 0 0 1-3.26 3.33 10.17 10.17 0 0 1-5 1.17 11.3 11.3 0 0 1-5.36-1.28m15.91-10.87h9.9v3.74h-9.9Zm34.27-7.34v16.3q0 10.15-10.37 10.16a19.1 19.1 0 0 1-5.25-.71 11 11 0 0 1-4.1-2l2-3.38a9.7 9.7 0 0 0 3.19 1.67 12.4 12.4 0 0 0 3.9.63 6.48 6.48 0 0 0 4.65-1.44 5.9 5.9 0 0 0 1.47-4.39v-1a7.4 7.4 0 0 1-2.8 1.91 10 10 0 0 1-3.64.65 10.4 10.4 0 0 1-5-1.17 8.73 8.73 0 0 1-3.49-3.3 9.83 9.83 0 0 1 0-9.7 8.7 8.7 0 0 1 3.49-3.26 10.6 10.6 0 0 1 5-1.15 10.3 10.3 0 0 1 3.8.68 7.1 7.1 0 0 1 2.86 2.09v-2.55Zm-6.06 13a5.2 5.2 0 0 0 1.63-4 5.1 5.1 0 0 0-1.63-3.92 6.64 6.64 0 0 0-8.43 0 5.1 5.1 0 0 0-1.64 3.92 5.2 5.2 0 0 0 1.64 4 6.57 6.57 0 0 0 8.43 0m23.09-13.22v4.29a5 5 0 0 0-1-.11 5.45 5.45 0 0 0-4.11 1.53 6.12 6.12 0 0 0-1.47 4.41v9.32h-4.5v-19.22h4.28v2.8q1.91-3.01 6.8-3.02m17.55 2.04c1.5 1.35 2.25 3.4 2.25 6.13v11.27h-4.25V301a5.3 5.3 0 0 1-2.36 1.93 9.3 9.3 0 0 1-3.69.66 9 9 0 0 1-3.78-.74 5.86 5.86 0 0 1-2.5-2.05 5.16 5.16 0 0 1-.88-3 5.09 5.09 0 0 1 1.93-4.16q1.92-1.56 6.06-1.56h5v-.29a3.94 3.94 0 0 0-1.21-3.1 5.2 5.2 0 0 0-3.58-1.08 10.2 10.2 0 0 0-3.18.51 7.9 7.9 0 0 0-2.65 1.4l-1.76-3.27a10.9 10.9 0 0 1 3.63-1.77 16.1 16.1 0 0 1 4.5-.61q4.21-.01 6.47 2.03m-4.1 13.6a4.2 4.2 0 0 0 1.85-2.21v-2.23h-4.64q-3.88 0-3.89 2.55a2.29 2.29 0 0 0 1 1.95 4.46 4.46 0 0 0 2.7.72 5.8 5.8 0 0 0 2.98-.78m31.12-22.91v26.71h-4.32v-2.48a7.06 7.06 0 0 1-2.75 2.05 9.5 9.5 0 0 1-3.62.68 10.1 10.1 0 0 1-5-1.22 8.8 8.8 0 0 1-3.47-3.48 11.18 11.18 0 0 1 0-10.31 8.8 8.8 0 0 1 3.47-3.46 10.2 10.2 0 0 1 5-1.22 9.2 9.2 0 0 1 3.49.65 7.1 7.1 0 0 1 2.7 1.94v-9.86Zm-7.24 22.41a5.25 5.25 0 0 0 2-2.1 7 7 0 0 0 0-6.34 5.34 5.34 0 0 0-2-2.11 6.19 6.19 0 0 0-5.83 0 5.4 5.4 0 0 0-2 2.11 7 7 0 0 0 0 6.34 5.3 5.3 0 0 0 2 2.1 6.11 6.11 0 0 0 5.83 0m13.36-18.87a2.51 2.51 0 0 1-.83-1.92 2.55 2.55 0 0 1 .83-1.93 2.9 2.9 0 0 1 2-.77 3 3 0 0 1 2 .74 2.38 2.38 0 0 1 .83 1.85 2.72 2.72 0 0 1-.81 2 2.8 2.8 0 0 1-2.07.81 2.86 2.86 0 0 1-1.95-.78m-.22 3.95h4.5v19.22h-4.5Zm28.41 11.05H1205a5.26 5.26 0 0 0 2.07 3.36 6.78 6.78 0 0 0 4.16 1.25 7 7 0 0 0 5.22-2.09l2.41 2.77a8.1 8.1 0 0 1-3.27 2.34 13 13 0 0 1-10-.47 9 9 0 0 1-3.72-3.51 9.9 9.9 0 0 1-1.32-5.09 10.1 10.1 0 0 1 1.28-5.06 9 9 0 0 1 3.55-3.51 10.3 10.3 0 0 1 5.11-1.26 10.07 10.07 0 0 1 5 1.24 8.87 8.87 0 0 1 3.46 3.49 10.7 10.7 0 0 1 1.24 5.21c-.03.31-.06.75-.1 1.33m-13.31-6.39a5.37 5.37 0 0 0-1.81 3.4h10.9a5.3 5.3 0 0 0-1.76-3.38 5.35 5.35 0 0 0-3.67-1.3 5.46 5.46 0 0 0-3.66 1.28m34.44-2.74q2.19 2.13 2.19 6.3v11h-4.5v-10.44a5.42 5.42 0 0 0-1.18-3.8 4.43 4.43 0 0 0-3.39-1.28 5.18 5.18 0 0 0-3.92 1.5 5.94 5.94 0 0 0-1.44 4.3v9.72h-4.5v-19.22h4.28v2.48a7 7 0 0 1 2.81-2 10.2 10.2 0 0 1 3.81-.68 8.08 8.08 0 0 1 5.84 2.12m19.47 16.26a5.3 5.3 0 0 1-1.92 1 9 9 0 0 1-2.4.32 6.8 6.8 0 0 1-4.89-1.65 6.4 6.4 0 0 1-1.73-4.83v-9.25h-3.17v-3.6h3.17v-4.39h4.5v4.39h5.15v3.6h-5.15V297a3.08 3.08 0 0 0 .68 2.15 2.58 2.58 0 0 0 2 .73 3.93 3.93 0 0 0 2.52-.79Zm-239.07 26.91c1.42 1.4 2.12 3.51 2.12 6.31v11h-4.5v-10.42a5.67 5.67 0 0 0-1.11-3.8 4 4 0 0 0-3.21-1.28 4.67 4.67 0 0 0-3.63 1.5 6.12 6.12 0 0 0-1.37 4.27v9.75h-4.5v-10.44a5.62 5.62 0 0 0-1.12-3.8 4 4 0 0 0-3.2-1.28 4.71 4.71 0 0 0-3.65 1.48 6.15 6.15 0 0 0-1.35 4.29v9.75h-4.5v-19.22h4.28v2.45a6.9 6.9 0 0 1 2.7-2 9.1 9.1 0 0 1 3.6-.69 8.66 8.66 0 0 1 3.83.81 6.2 6.2 0 0 1 2.65 2.4 7.9 7.9 0 0 1 3.06-2.36 9.9 9.9 0 0 1 4.14-.85 7.8 7.8 0 0 1 5.76 2.13m21.73-.07c1.5 1.35 2.25 3.4 2.25 6.13v11.27h-4.25v-2.34a5.3 5.3 0 0 1-2.36 1.93 9.3 9.3 0 0 1-3.69.66 9.1 9.1 0 0 1-3.78-.73A5.9 5.9 0 0 1 1029 344a5.46 5.46 0 0 1 1-7.13q1.93-1.56 6.07-1.56h5V335a4 4 0 0 0-1.21-3.1 5.26 5.26 0 0 0-3.58-1.07 10.3 10.3 0 0 0-3.19.5 7.9 7.9 0 0 0-2.64 1.4l-1.77-3.27a10.9 10.9 0 0 1 3.64-1.77 16.4 16.4 0 0 1 4.5-.61q4.28-.02 6.53 2.02m-4.11 13.6a4.17 4.17 0 0 0 1.86-2.21v-2.23h-4.65q-3.89 0-3.89 2.55a2.3 2.3 0 0 0 1 1.95 4.42 4.42 0 0 0 2.7.72 5.76 5.76 0 0 0 2.98-.78m13.48 3.44a11.5 11.5 0 0 1-3.56-1.55l1.73-3.42a11 11 0 0 0 3.11 1.39 12.9 12.9 0 0 0 3.58.52q4 0 4-2.12a1.44 1.44 0 0 0-1-1.41 18 18 0 0 0-3.29-.75 26.6 26.6 0 0 1-3.87-.83 6 6 0 0 1-2.6-1.64 4.57 4.57 0 0 1-1.09-3.26 5.12 5.12 0 0 1 2.28-4.37 10.4 10.4 0 0 1 6.18-1.64 17.8 17.8 0 0 1 4 .45 11 11 0 0 1 3.24 1.21l-1.73 3.42a10.66 10.66 0 0 0-5.51-1.44 6.2 6.2 0 0 0-3 .59 1.78 1.78 0 0 0-1 1.57 1.56 1.56 0 0 0 1.1 1.53 17 17 0 0 0 3.4.84 27 27 0 0 1 3.78.83 5.9 5.9 0 0 1 2.54 1.59 4.42 4.42 0 0 1 1.06 3.16 5 5 0 0 1-2.34 4.32 11 11 0 0 1-6.37 1.62 17.2 17.2 0 0 1-4.64-.61m25.02-7.88-3.34 3.16v5.08h-4.5v-26.71h4.5v16.13l9.32-8.64h5.4l-8 8.06 8.79 11.16h-5.48Z"/><path fill="#cfd9ff" d="M683 130h249v249H683Z"/><path fill="#3976b2" d="M932 381H683a2 2 0 0 1-2-2V130a2 2 0 0 1 2-2h249a2 2 0 0 1 2 2v249a2 2 0 0 1-2 2m-247-4h245V132H685Z"/><path fill="#ff1493" d="M936.93 126H788.16L682.97 379.96l2.5 1.04H937V126Z" opacity=".45"/><path d="m846.868 278.496.26-2.989 127.004 11-.259 2.989Z"/><path fill="#ff1493" d="M936.65 635.29h-507.3a2.5 2.5 0 0 1-2.5-2.5V125.5a2.5 2.5 0 0 1 2.5-2.5h507.3a2.5 2.5 0 0 1 2.5 2.5v507.29a2.5 2.5 0 0 1-2.5 2.5m-504.8-5h502.3V128h-502.3Z"/><path fill="#cfd9ff" d="M377.45 321H236v340.12Z"/><path fill="#3976b2" d="M236 663.12a1.7 1.7 0 0 1-.39 0 2 2 0 0 1-1.61-2V321a2 2 0 0 1 2-2h141.45a2 2 0 0 1 1.84 2.77L237.85 661.89a2 2 0 0 1-1.85 1.23M238 323v328.1L374.45 323Z"/><path d="M104.68 151.05v4.29a5 5 0 0 0-1-.11 5.46 5.46 0 0 0-4.11 1.53 6.12 6.12 0 0 0-1.47 4.41v9.32h-4.5v-19.22h4.28v2.81q1.91-3.03 6.8-3.03m21.64 11.27h-15.09a5.28 5.28 0 0 0 2.07 3.37 6.86 6.86 0 0 0 4.16 1.24 7 7 0 0 0 5.22-2.09l2.41 2.77a8.1 8.1 0 0 1-3.27 2.34 13 13 0 0 1-10-.47 9.07 9.07 0 0 1-3.72-3.51 9.85 9.85 0 0 1-1.32-5.09 10.1 10.1 0 0 1 1.28-5.06 9.1 9.1 0 0 1 3.55-3.51 10.3 10.3 0 0 1 5.11-1.26 10.15 10.15 0 0 1 5 1.24 8.83 8.83 0 0 1 3.46 3.5 10.55 10.55 0 0 1 1.24 5.2c-.03.31-.05.75-.1 1.33M113 155.93a5.34 5.34 0 0 0-1.82 3.4h10.91a5.28 5.28 0 0 0-5.44-4.68 5.42 5.42 0 0 0-3.65 1.28m19.08 14.2a11.5 11.5 0 0 1-3.57-1.55l1.73-3.42a11 11 0 0 0 3.12 1.39 12.8 12.8 0 0 0 3.58.52q4 0 4-2.12a1.43 1.43 0 0 0-1-1.41 18 18 0 0 0-3.29-.75 27 27 0 0 1-3.87-.83 5.9 5.9 0 0 1-2.59-1.64 4.58 4.58 0 0 1-1.1-3.26 5.11 5.11 0 0 1 2.29-4.37 10.4 10.4 0 0 1 6.17-1.64 17.8 17.8 0 0 1 4 .45 11 11 0 0 1 3.24 1.21l-1.79 3.42a10.66 10.66 0 0 0-5.51-1.44 6.14 6.14 0 0 0-3 .59 1.77 1.77 0 0 0-1 1.57 1.57 1.57 0 0 0 1.1 1.53 17.3 17.3 0 0 0 3.4.84 26 26 0 0 1 3.78.83 5.84 5.84 0 0 1 2.54 1.59 4.4 4.4 0 0 1 1.06 3.16 5 5 0 0 1-2.34 4.32 11 11 0 0 1-6.37 1.62 17.1 17.1 0 0 1-4.58-.61m35.78-18.86v19.22h-4.28V168a7.1 7.1 0 0 1-2.7 2 8.7 8.7 0 0 1-3.49.7 8.36 8.36 0 0 1-6.07-2.14c-1.48-1.43-2.21-3.54-2.21-6.35v-11h4.5v10.37a5.6 5.6 0 0 0 1.17 3.87 4.3 4.3 0 0 0 3.33 1.27 5 5 0 0 0 3.83-1.49 6 6 0 0 0 1.42-4.3v-9.72Zm5.91-7.49h4.5v26.71h-4.5Zm22.89 25.67a5.4 5.4 0 0 1-1.92 1 8.6 8.6 0 0 1-2.4.32 6.8 6.8 0 0 1-4.89-1.65 6.36 6.36 0 0 1-1.73-4.83V155h-3.17v-3.6h3.17V147h4.5v4.39h5.15V155h-5.15v9.15a3.07 3.07 0 0 0 .68 2.14 2.6 2.6 0 0 0 2 .74 3.94 3.94 0 0 0 2.52-.8Zm3.92-22.12a2.68 2.68 0 0 1 0-3.86 2.94 2.94 0 0 1 2.06-.77 3 3 0 0 1 2.05.74 2.38 2.38 0 0 1 .83 1.85 2.72 2.72 0 0 1-.81 2 2.8 2.8 0 0 1-2.07.81 2.94 2.94 0 0 1-2.06-.77m-.21 3.94h4.5v19.22h-4.5Zm27.14 1.91q2.2 2.12 2.2 6.3v11h-4.5v-10.43a5.43 5.43 0 0 0-1.19-3.8 4.4 4.4 0 0 0-3.38-1.27 5.2 5.2 0 0 0-3.93 1.49 6 6 0 0 0-1.44 4.3v9.72h-4.5v-19.22h4.29v2.48a7 7 0 0 1 2.8-2 10 10 0 0 1 3.82-.69 8 8 0 0 1 5.83 2.12m27.18-1.91v16.31q0 10.14-10.37 10.15a19.5 19.5 0 0 1-5.25-.7 11.15 11.15 0 0 1-4.11-2l2-3.38a9.7 9.7 0 0 0 3.19 1.67 12.4 12.4 0 0 0 3.9.63 6.48 6.48 0 0 0 4.65-1.44 5.9 5.9 0 0 0 1.47-4.39v-1a7.36 7.36 0 0 1-2.81 1.91 9.9 9.9 0 0 1-3.63.65 10.4 10.4 0 0 1-4.95-1.17 8.73 8.73 0 0 1-3.49-3.3 9.83 9.83 0 0 1 0-9.7 8.7 8.7 0 0 1 3.49-3.26 10.6 10.6 0 0 1 4.95-1.15 10.1 10.1 0 0 1 3.8.69 7 7 0 0 1 2.86 2.08v-2.55Zm-6.06 13a5.2 5.2 0 0 0 1.63-4 5.1 5.1 0 0 0-1.63-3.92 6.64 6.64 0 0 0-8.43 0 5.1 5.1 0 0 0-1.64 3.92 5.2 5.2 0 0 0 1.64 4 6.57 6.57 0 0 0 8.43 0m-153.7 49.06a11.5 11.5 0 0 1-3.57-1.55l1.73-3.42a11 11 0 0 0 3.11 1.39 13 13 0 0 0 3.59.52c2.68 0 4-.71 4-2.12a1.43 1.43 0 0 0-1-1.41 18 18 0 0 0-3.29-.74 26.6 26.6 0 0 1-3.87-.83 5.9 5.9 0 0 1-2.63-1.65 4.53 4.53 0 0 1-1.1-3.26 5.12 5.12 0 0 1 2.28-4.37 10.46 10.46 0 0 1 6.18-1.64 17.8 17.8 0 0 1 4 .45 11 11 0 0 1 3.24 1.21l-1.73 3.42a10.66 10.66 0 0 0-5.51-1.44 6.14 6.14 0 0 0-3 .59 1.77 1.77 0 0 0-1 1.57 1.57 1.57 0 0 0 1.1 1.53 17 17 0 0 0 3.4.84 26 26 0 0 1 3.78.83 5.9 5.9 0 0 1 2.54 1.59 4.4 4.4 0 0 1 1.06 3.16 5 5 0 0 1-2.34 4.32 11 11 0 0 1-6.37 1.62 17 17 0 0 1-4.6-.61m35.17-7.81H115a5.28 5.28 0 0 0 2.07 3.37 6.86 6.86 0 0 0 4.16 1.24 7 7 0 0 0 5.22-2.09l2.41 2.77a8.1 8.1 0 0 1-3.27 2.34 13 13 0 0 1-10-.47 9.07 9.07 0 0 1-3.72-3.51 9.85 9.85 0 0 1-1.32-5.09 10.1 10.1 0 0 1 1.28-5.06 9.1 9.1 0 0 1 3.55-3.51 10.3 10.3 0 0 1 5.11-1.26 10.15 10.15 0 0 1 5 1.24 8.83 8.83 0 0 1 3.46 3.5 10.55 10.55 0 0 1 1.24 5.2c-.02.31-.04.75-.09 1.33m-13.3-6.39a5.34 5.34 0 0 0-1.82 3.4h10.91a5.28 5.28 0 0 0-5.44-4.68 5.42 5.42 0 0 0-3.65 1.28m36.77-4.66v16.31q0 10.14-10.37 10.15a19.5 19.5 0 0 1-5.25-.7 11.15 11.15 0 0 1-4.11-2l2-3.38a9.8 9.8 0 0 0 3.18 1.67 12.5 12.5 0 0 0 3.91.63 6.43 6.43 0 0 0 4.64-1.44 5.85 5.85 0 0 0 1.48-4.39v-1a7.36 7.36 0 0 1-2.81 1.91 9.9 9.9 0 0 1-3.63.65 10.4 10.4 0 0 1-4.95-1.17 8.8 8.8 0 0 1-3.5-3.3 9.9 9.9 0 0 1 0-9.7 8.8 8.8 0 0 1 3.5-3.26 10.6 10.6 0 0 1 4.95-1.15 10 10 0 0 1 3.79.69 7 7 0 0 1 2.87 2.08v-2.55Zm-6.07 13a5.16 5.16 0 0 0 1.64-4 5.08 5.08 0 0 0-1.64-3.92 6.62 6.62 0 0 0-8.42 0 5.1 5.1 0 0 0-1.64 3.92 5.2 5.2 0 0 0 1.64 4 6.56 6.56 0 0 0 8.42 0m42-11.11q2.12 2.1 2.12 6.32v11h-4.5v-10.43a5.62 5.62 0 0 0-1.12-3.8 4 4 0 0 0-3.2-1.27 4.66 4.66 0 0 0-3.63 1.49 6.07 6.07 0 0 0-1.37 4.27v9.75h-4.5v-10.44a5.67 5.67 0 0 0-1.12-3.8 4 4 0 0 0-3.2-1.27 4.72 4.72 0 0 0-3.66 1.47 6.15 6.15 0 0 0-1.35 4.29v9.75h-4.5v-19.22h4.29v2.45a6.9 6.9 0 0 1 2.7-2 9.1 9.1 0 0 1 3.6-.69 8.66 8.66 0 0 1 3.83.81 6.2 6.2 0 0 1 2.65 2.4 7.9 7.9 0 0 1 3.06-2.36 9.8 9.8 0 0 1 4.14-.85 7.8 7.8 0 0 1 5.76 2.13m26.06 9.16h-15.08a5.2 5.2 0 0 0 2.07 3.37 6.82 6.82 0 0 0 4.16 1.24 7 7 0 0 0 5.21-2.09l2.42 2.77a8.2 8.2 0 0 1-3.28 2.34 13 13 0 0 1-10-.47 9.1 9.1 0 0 1-3.73-3.51 9.85 9.85 0 0 1-1.31-5.09 10.1 10.1 0 0 1 1.27-5.06 9.14 9.14 0 0 1 3.55-3.51 10.35 10.35 0 0 1 5.11-1.26 10.15 10.15 0 0 1 5 1.24 8.83 8.83 0 0 1 3.46 3.5 10.55 10.55 0 0 1 1.24 5.2c-.02.31-.04.75-.09 1.33m-13.3-6.39a5.38 5.38 0 0 0-1.82 3.4h10.91a5.26 5.26 0 0 0-1.77-3.38 5.32 5.32 0 0 0-3.67-1.3 5.42 5.42 0 0 0-3.65 1.28m34.43-2.75q2.2 2.12 2.2 6.3v11h-4.5v-10.43a5.43 5.43 0 0 0-1.19-3.8 4.4 4.4 0 0 0-3.38-1.27 5.2 5.2 0 0 0-3.93 1.49 6 6 0 0 0-1.44 4.3v9.72H220v-19.22h4.29V197a7 7 0 0 1 2.8-2 10 10 0 0 1 3.82-.69 8 8 0 0 1 5.78 2.07m19.48 16.27a5.4 5.4 0 0 1-1.93 1 8.5 8.5 0 0 1-2.39.32 6.82 6.82 0 0 1-4.9-1.65 6.4 6.4 0 0 1-1.73-4.83v-9.25h-3.16v-3.6h3.16v-4.39h4.5v4.39h5.15v3.6h-5.15v9.15a3 3 0 0 0 .69 2.14 2.56 2.56 0 0 0 2 .74 3.94 3.94 0 0 0 2.52-.8Zm15.01.68a11.3 11.3 0 0 1-3.56-1.55l1.72-3.42a11.2 11.2 0 0 0 3.12 1.39 12.8 12.8 0 0 0 3.58.52q4 0 4-2.12a1.43 1.43 0 0 0-1-1.41 18.4 18.4 0 0 0-3.3-.75 27 27 0 0 1-3.87-.83 5.94 5.94 0 0 1-2.59-1.64 4.58 4.58 0 0 1-1.1-3.26 5.11 5.11 0 0 1 2.29-4.37 10.4 10.4 0 0 1 6.17-1.64 17.8 17.8 0 0 1 4 .45 11 11 0 0 1 3.24 1.21l-1.73 3.42a10.6 10.6 0 0 0-5.5-1.44 6.2 6.2 0 0 0-3 .59 1.79 1.79 0 0 0-1 1.57 1.57 1.57 0 0 0 1.1 1.53 17.3 17.3 0 0 0 3.4.84 26 26 0 0 1 3.78.83 5.84 5.84 0 0 1 2.54 1.59 4.4 4.4 0 0 1 1.06 3.16 5 5 0 0 1-2.34 4.32 11 11 0 0 1-6.37 1.62 17.1 17.1 0 0 1-4.64-.61m33.91-16.95q2.21 2.12 2.2 6.3v11h-4.5v-10.43a5.43 5.43 0 0 0-1.19-3.8 4.4 4.4 0 0 0-3.38-1.27 5.2 5.2 0 0 0-3.93 1.49 6 6 0 0 0-1.44 4.3v9.72h-4.5V187h4.5v9.72a7.36 7.36 0 0 1 2.76-1.82 10.1 10.1 0 0 1 3.65-.63 8 8 0 0 1 5.83 2.11m21.76-.09c1.5 1.35 2.25 3.4 2.25 6.13v11.27h-4.24v-2.34a5.33 5.33 0 0 1-2.36 1.93 9.3 9.3 0 0 1-3.69.66 9.1 9.1 0 0 1-3.78-.73 5.83 5.83 0 0 1-2.5-2.06 5.17 5.17 0 0 1-.89-3 5.09 5.09 0 0 1 1.93-4.15c1.28-1.05 3.31-1.57 6.07-1.57h5v-.29a3.94 3.94 0 0 0-1.2-3.09 5.23 5.23 0 0 0-3.58-1.08 10.2 10.2 0 0 0-3.19.5 8 8 0 0 0-2.65 1.4l-1.76-3.27a10.9 10.9 0 0 1 3.64-1.77 16.4 16.4 0 0 1 4.5-.61q4.21.03 6.45 2.07m-4.1 13.6a4.16 4.16 0 0 0 1.85-2.21v-2.23H320q-3.88 0-3.89 2.55a2.32 2.32 0 0 0 1 1.95 4.46 4.46 0 0 0 2.7.72 5.8 5.8 0 0 0 2.94-.78m27.79-14.41a8.8 8.8 0 0 1 3.48 3.45 11.2 11.2 0 0 1 0 10.32 8.86 8.86 0 0 1-3.48 3.47 10.14 10.14 0 0 1-5 1.22 7.78 7.78 0 0 1-6.16-2.59v9.33h-4.5v-26.21h4.29V197a6.9 6.9 0 0 1 2.75-2.05 9.2 9.2 0 0 1 3.62-.69 10.15 10.15 0 0 1 5 1.22m-1.44 13a6.74 6.74 0 0 0 0-8.72 5.45 5.45 0 0 0-4.08-1.65 5.7 5.7 0 0 0-2.92.74 5.3 5.3 0 0 0-2.05 2.1 7 7 0 0 0 0 6.34 5.3 5.3 0 0 0 2.05 2.1 5.7 5.7 0 0 0 2.92.74 5.45 5.45 0 0 0 4.08-1.69Zm28.46-2.96h-15.08a5.23 5.23 0 0 0 2.06 3.37 6.86 6.86 0 0 0 4.16 1.24 7 7 0 0 0 5.22-2.09l2.41 2.77a8.1 8.1 0 0 1-3.27 2.34 13 13 0 0 1-10-.47 9.1 9.1 0 0 1-3.73-3.51 9.85 9.85 0 0 1-1.31-5.09 10.1 10.1 0 0 1 1.27-5.06 9.1 9.1 0 0 1 3.55-3.51 10.3 10.3 0 0 1 5.11-1.26 10.15 10.15 0 0 1 5 1.24 8.83 8.83 0 0 1 3.46 3.5 10.55 10.55 0 0 1 1.24 5.2c-.02.31-.04.75-.09 1.33m-13.3-6.39a5.38 5.38 0 0 0-1.82 3.4h10.91a5.26 5.26 0 0 0-1.77-3.38 5.32 5.32 0 0 0-3.67-1.3 5.42 5.42 0 0 0-3.65 1.28"/><path fill="#3976b2" d="M236 322a1 1 0 0 1-.4-1.92l2.3-1a1 1 0 0 1 .79 1.84l-2.29 1a1.1 1.1 0 0 1-.4.08m6.86-3a1 1 0 0 1-.4-1.92l4.56-2a1 1 0 0 1 .79 1.84l-4.56 2a1.1 1.1 0 0 1-.39.08m9.14-3.9a1 1 0 0 1-.92-.6 1 1 0 0 1 .52-1.32l4.56-2a1 1 0 0 1 1.32.53 1 1 0 0 1-.52 1.31l-4.56 2a1.1 1.1 0 0 1-.4.08m9.12-3.94a1 1 0 0 1-.92-.6 1 1 0 0 1 .52-1.32l4.56-2a1 1 0 1 1 .8 1.83l-4.56 2a1 1 0 0 1-.42.09Zm9.12-3.94a1 1 0 0 1-.39-1.91l4.56-2a1 1 0 1 1 .79 1.83l-4.56 2a1 1 0 0 1-.42.08Zm9.12-3.93a1 1 0 0 1-.39-1.92l4.56-2a1 1 0 1 1 .79 1.83l-4.56 2a.9.9 0 0 1-.42.09Zm9.13-3.94a1 1 0 0 1-.4-1.92l4.56-2a1 1 0 0 1 1.31.52 1 1 0 0 1-.52 1.32l-4.56 2a1.1 1.1 0 0 1-.41.08Zm9.12-3.94a1 1 0 0 1-.4-1.92l4.56-2a1 1 0 1 1 .79 1.84l-4.56 2a1 1 0 0 1-.41.08Zm9.12-3.94a1 1 0 0 1-.4-1.92l4.56-2a1 1 0 0 1 .8 1.84l-4.56 2a1.1 1.1 0 0 1-.42.08Zm9.12-3.94a1 1 0 0 1-.92-.6 1 1 0 0 1 .52-1.32l4.57-2a1 1 0 0 1 .79 1.84l-4.56 2a1.1 1.1 0 0 1-.42.08Zm9.12-3.94a1 1 0 0 1-.91-.6 1 1 0 0 1 .52-1.32l4.56-2a1 1 0 1 1 .79 1.83l-4.56 2a.9.9 0 0 1-.37.09Zm9.13-3.94a1 1 0 0 1-.4-1.91l4.56-2a1 1 0 1 1 .79 1.83l-4.56 2a.9.9 0 0 1-.41.08Zm9.12-3.93a1 1 0 0 1-.4-1.92l4.56-2a1 1 0 1 1 .79 1.83l-4.56 2a.9.9 0 0 1-.41.09Zm9.12-3.94a1 1 0 0 1-.4-1.92l4.56-2a1 1 0 0 1 .8 1.84l-4.57 2a1 1 0 0 1-.41.08Zm9.12-3.94a1 1 0 0 1-.4-1.92l4.56-2a1 1 0 0 1 .8 1.84l-4.56 2a1.1 1.1 0 0 1-.42.08Zm9.12-3.94a1 1 0 0 1-.92-.6 1 1 0 0 1 .53-1.32l4.56-2a1 1 0 0 1 .79 1.84l-4.56 2a1.1 1.1 0 0 1-.42.08Zm9.13-3.94a1 1 0 0 1-.92-.6 1 1 0 0 1 .52-1.32l4.56-2a1 1 0 0 1 1.31.53 1 1 0 0 1-.52 1.31l-4.56 2a.9.9 0 0 1-.41.12Zm9.12-3.94a1 1 0 0 1-.4-1.91l4.56-2a1 1 0 1 1 .79 1.83l-4.56 2a.9.9 0 0 1-.41.06Zm9.12-3.93a1 1 0 0 1-.4-1.92l4.56-2a1 1 0 1 1 .79 1.83l-4.56 2a.9.9 0 0 1-.41.09Zm9.12-3.94a1 1 0 0 1-.4-1.92l4.56-2a1 1 0 1 1 .8 1.83l-4.56 2a1 1 0 0 1-.42.09Zm9.12-3.94a1 1 0 0 1-.92-.61 1 1 0 0 1 .53-1.31l4.56-2a1 1 0 0 1 .79 1.84l-4.56 2a1.1 1.1 0 0 1-.42.08Zm9.12-3.94a1 1 0 0 1-.39-1.92l4.56-2a1 1 0 0 1 .79 1.84l-4.56 2a1.1 1.1 0 0 1-.42.08Zm9.13-3.94a1 1 0 0 1-.4-1.92l4.56-2a1 1 0 0 1 .79 1.84l-4.56 2a1.1 1.1 0 0 1-.41.08Zm9.12-3.94a1 1 0 0 1-.92-.6 1 1 0 0 1 .52-1.32l4.56-2a1 1 0 1 1 .79 1.84l-4.56 2a.9.9 0 0 1-.41.08Zm9.12-3.94a1 1 0 0 1-.4-1.91l4.56-2a1 1 0 1 1 .8 1.83l-4.56 2a1 1 0 0 1-.42.08Zm9.12-3.93a1 1 0 0 1-.4-1.92l4.57-2a1 1 0 1 1 .79 1.83l-4.56 2a1 1 0 0 1-.42.09Zm9.12-3.94a1 1 0 0 1-.92-.58 1 1 0 0 1 .53-1.31l4.56-2a1 1 0 0 1 .79 1.84l-4.56 2a.9.9 0 0 1-.42.05Zm9.13-3.94a1 1 0 0 1-.4-1.92l4.56-2a1 1 0 0 1 .79 1.84l-4.56 2a1.1 1.1 0 0 1-.44.08Zm9.12-3.94a1 1 0 0 1-.4-1.92l4.56-2a1 1 0 0 1 .79 1.84l-4.56 2a1.1 1.1 0 0 1-.41.08Zm9.12-3.94a1 1 0 0 1-.92-.6 1 1 0 0 1 .52-1.32l4.56-2a1 1 0 0 1 .8 1.84l-4.56 2a1.1 1.1 0 0 1-.42.08Zm9.12-3.94a1 1 0 0 1-.92-.6 1 1 0 0 1 .52-1.32l4.56-2a1 1 0 1 1 .8 1.83l-4.56 2a1 1 0 0 1-.42.09Zm9.12-3.94a1 1 0 0 1-.39-1.91l4.56-2a1 1 0 0 1 .79 1.83l-4.56 2a1 1 0 0 1-.42.08Zm9.12-3.93a1 1 0 0 1-.39-1.92l4.56-2a1 1 0 0 1 .79 1.83l-4.56 2a.9.9 0 0 1-.42.14Zm9.13-3.94a1 1 0 0 1-.4-1.92l4.56-2a1 1 0 0 1 1.31.52 1 1 0 0 1-.52 1.32l-4.56 2a.9.9 0 0 1-.41.07Zm9.12-3.94a1 1 0 0 1-.4-1.92l4.56-2a1 1 0 1 1 .79 1.84l-4.56 2a1.1 1.1 0 0 1-.41.08Zm9.12-3.94a1 1 0 0 1-.4-1.92l4.56-2a1 1 0 1 1 .8 1.84l-4.56 2a1.1 1.1 0 0 1-.42.08Zm9.12-3.94a1 1 0 0 1-.92-.6 1 1 0 0 1 .52-1.32l4.57-2a1 1 0 0 1 .79 1.84l-4.56 2a1 1 0 0 1-.42.08Zm9.12-3.94a1 1 0 0 1-.91-.6 1 1 0 0 1 .52-1.32l4.56-2a1 1 0 1 1 .79 1.83l-4.56 2a.9.9 0 0 1-.42.09Zm9.13-3.94a1 1 0 0 1-.4-1.91l4.56-2a1 1 0 1 1 .79 1.83l-4.56 2a.9.9 0 0 1-.41.08Zm9.12-3.93a1 1 0 0 1-.4-1.92l4.56-2a1 1 0 1 1 .79 1.83l-4.56 2a.9.9 0 0 1-.41.09Zm9.12-3.94a1 1 0 0 1-.4-1.92l4.56-2a1 1 0 1 1 .8 1.84l-4.57 2a1 1 0 0 1-.41.08Zm9.12-3.94a1 1 0 0 1-.4-1.92l4.56-2a1 1 0 1 1 .8 1.84l-4.56 2a1.1 1.1 0 0 1-.42.08Zm9.12-3.94a1 1 0 0 1-.92-.6 1 1 0 0 1 .53-1.32l4.56-2a1 1 0 0 1 .79 1.84l-4.56 2a1.1 1.1 0 0 1-.42.08Zm9.12-3.94a1 1 0 0 1-.91-.6 1 1 0 0 1 .52-1.32l4.56-2a1 1 0 0 1 .79 1.84l-4.56 2a.9.9 0 0 1-.39.08Zm9.13-3.94a1 1 0 0 1-.4-1.91l4.56-2a1 1 0 1 1 .79 1.83l-4.56 2a.9.9 0 0 1-.41.08Zm9.12-3.93a1 1 0 0 1-.4-1.92l4.56-2a1 1 0 1 1 .79 1.83l-4.56 2a.9.9 0 0 1-.41.09Zm9.12-3.94a1 1 0 0 1-.4-1.92l4.56-2a1 1 0 1 1 .8 1.83l-4.56 2a1 1 0 0 1-.42.09Zm9.12-3.94a1 1 0 0 1-.4-1.92l4.57-2a1 1 0 0 1 .79 1.84l-4.56 2a1.1 1.1 0 0 1-.42.08Zm9.12-3.94a1 1 0 0 1-.39-1.92l4.56-2a1 1 0 0 1 .79 1.84l-4.56 2a1.1 1.1 0 0 1-.42.08Zm9.11-3.93a1 1 0 0 1-.92-.6 1 1 0 0 1 .52-1.32l2.29-1a1 1 0 1 1 .8 1.84l-2.3 1a1.1 1.1 0 0 1-.39.08M235.5 662.5a1 1 0 0 1-.53-1.85l2.11-1.33a1 1 0 0 1 1.07 1.7l-2.15 1.33a1 1 0 0 1-.5.15m6.33-3.98a1 1 0 0 1-.53-1.85l4.22-2.65a1 1 0 0 1 1.38.32 1 1 0 0 1-.32 1.37l-4.21 2.66a1 1 0 0 1-.54.15m8.44-5.3a1 1 0 0 1-.54-1.85l4.22-2.65a1 1 0 1 1 1.07 1.69l-4.22 2.65a1 1 0 0 1-.53.16m8.43-5.3a1 1 0 0 1-.85-.47 1 1 0 0 1 .32-1.38l4.21-2.65a1 1 0 1 1 1.07 1.69l-4.22 2.65a.94.94 0 0 1-.53.16m8.43-5.31a1 1 0 0 1-.53-1.84l4.22-2.65a1 1 0 1 1 1.06 1.69l-4.21 2.65a1 1 0 0 1-.54.15m8.44-5.3a1 1 0 0 1-.85-.47 1 1 0 0 1 .32-1.38l4.21-2.65a1 1 0 0 1 1.07 1.7l-4.22 2.65a1 1 0 0 1-.53.15M284 632a1 1 0 0 1-.53-1.85l4.22-2.65a1 1 0 0 1 1.06 1.7l-4.22 2.65a1 1 0 0 1-.53.15m8.44-5.3a1 1 0 0 1-.54-1.85l4.22-2.65a1 1 0 0 1 1.38.32 1 1 0 0 1-.32 1.37l-4.18 2.66a1 1 0 0 1-.56.16Zm8.43-5.3a1 1 0 0 1-.85-.47 1 1 0 0 1 .32-1.38l4.21-2.65a1 1 0 1 1 1.07 1.69l-4.22 2.65a.94.94 0 0 1-.53.17Zm8.43-5.3a1 1 0 0 1-.53-1.85l4.22-2.65a1 1 0 1 1 1.06 1.69l-4.22 2.71a.9.9 0 0 1-.53.11Zm8.44-5.31a1 1 0 0 1-.54-1.84l4.22-2.65a1 1 0 0 1 1.38.31 1 1 0 0 1-.31 1.38l-4.22 2.65a1 1 0 0 1-.53.16Zm8.43-5.3a1 1 0 0 1-.53-1.84l4.21-2.66a1 1 0 0 1 1.07 1.7l-4.22 2.65a1 1 0 0 1-.53.16Zm8.43-5.3a1 1 0 0 1-.84-.47 1 1 0 0 1 .31-1.38l4.22-2.65a1 1 0 0 1 1.06 1.7l-4.21 2.65a1 1 0 0 1-.54.16Zm8.44-5.3a1 1 0 0 1-.54-1.85l4.22-2.65a1 1 0 1 1 1.07 1.69l-4.22 2.66a1 1 0 0 1-.57.16Zm8.43-5.3a1 1 0 0 1-.85-.47 1 1 0 0 1 .32-1.38l4.22-2.65a1 1 0 0 1 1.06 1.69l-4.22 2.66a.94.94 0 0 1-.53.16Zm8.44-5.31a1 1 0 0 1-.54-1.84l4.22-2.65a1 1 0 1 1 1.06 1.69l-4.21 2.65a1 1 0 0 1-.53.16Zm8.43-5.3a1 1 0 0 1-.53-1.84l4.19-2.64a1 1 0 0 1 1.07 1.69l-4.22 2.65a1 1 0 0 1-.51.16Zm8.43-5.3a1 1 0 0 1-.53-1.85l4.22-2.65a1 1 0 0 1 1.06 1.7l-4.22 2.65a1 1 0 0 1-.53.16Zm8.44-5.3a1 1 0 0 1-.54-1.85l4.22-2.65a1 1 0 1 1 1.06 1.7l-4.21 2.65a1 1 0 0 1-.53.16Zm8.43-5.3a1 1 0 0 1-.53-1.85l4.21-2.65a1 1 0 0 1 1.38.32 1 1 0 0 1-.31 1.37l-4.22 2.65a.94.94 0 0 1-.53.17Zm8.43-5.3a1 1 0 0 1-.53-1.85l4.22-2.65a1 1 0 0 1 1.38.31 1 1 0 0 1-.32 1.38l-4.22 2.65a.94.94 0 0 1-.53.17Zm8.44-5.31a1 1 0 0 1-.85-.46 1 1 0 0 1 .31-1.38l4.22-2.65a1 1 0 1 1 1.06 1.69l-4.25 2.66a1 1 0 0 1-.49.15Zm8.43-5.3a1 1 0 0 1-.53-1.84l4.21-2.65a1 1 0 0 1 1.07 1.69l-4.22 2.63a1 1 0 0 1-.53.18Zm8.43-5.3a1 1 0 0 1-.53-1.84l4.22-2.66a1 1 0 1 1 1.06 1.7l-4.21 2.65a1 1 0 0 1-.54.16Zm8.44-5.3a1 1 0 0 1-.85-.47 1 1 0 0 1 .32-1.38l4.21-2.65a1 1 0 0 1 1.07 1.7l-4.22 2.65a1 1 0 0 1-.53.16Zm8.43-5.3a1 1 0 0 1-.53-1.85l4.22-2.65a1 1 0 0 1 1.06 1.69l-4.22 2.65a.94.94 0 0 1-.53.17Zm8.44-5.3a1 1 0 0 1-.54-1.85l4.22-2.65a1 1 0 1 1 1.06 1.69l-4.21 2.65a1 1 0 0 1-.53.19Zm8.43-5.31a1 1 0 0 1-.53-1.84l4.21-2.65a1 1 0 0 1 1.07 1.69l-4.22 2.65a1 1 0 0 1-.53.16Zm8.43-5.3a1 1 0 0 1-.53-1.84l4.22-2.65a1 1 0 1 1 1.06 1.69l-4.22 2.65a1 1 0 0 1-.53.16Zm8.44-5.3a1 1 0 0 1-.85-.47 1 1 0 0 1 .31-1.38l4.22-2.65a1 1 0 1 1 1.06 1.7l-4.21 2.65a1 1 0 0 1-.51.16Zm8.43-5.3a1 1 0 0 1-.53-1.85l4.21-2.65a1 1 0 0 1 1.07 1.7l-4.22 2.65a1 1 0 0 1-.53.16Zm8.43-5.3a1 1 0 0 1-.53-1.85l4.22-2.65a1 1 0 0 1 1.38.32 1 1 0 0 1-.32 1.37l-4.21 2.65a1 1 0 0 1-.54.17Zm8.44-5.3a1 1 0 0 1-.54-1.85l4.22-2.65a1 1 0 0 1 1.07 1.69l-4.22 2.65a1 1 0 0 1-.53.17Zm8.43-5.31a1 1 0 0 1-.53-1.84l4.21-2.65a1 1 0 0 1 1.07 1.69l-4.22 2.65a1 1 0 0 1-.53.16Zm8.43-5.3a1 1 0 0 1-.53-1.84l4.22-2.65a1 1 0 0 1 1.38.31 1 1 0 0 1-.32 1.38l-4.21 2.65a1 1 0 0 1-.54.16Zm8.44-5.3a1 1 0 0 1-.54-1.84l4.22-2.66a1 1 0 0 1 1.07 1.7l-4.22 2.65a1 1 0 0 1-.53.16ZM537 473a1 1 0 0 1-.53-1.85l4.22-2.65a1 1 0 0 1 1.06 1.7l-4.22 2.65a1 1 0 0 1-.53.15m8.44-5.3a1 1 0 0 1-.54-1.85l4.22-2.65a1 1 0 1 1 1.06 1.69L546 467.5a1 1 0 0 1-.55.16Zm8.43-5.3a1 1 0 0 1-.85-.47 1 1 0 0 1 .32-1.38l4.21-2.65a1 1 0 0 1 1.07 1.69l-4.22 2.65a.94.94 0 0 1-.52.12Zm8.43-5.31a1 1 0 0 1-.85-.46 1 1 0 0 1 .32-1.38l4.22-2.65a1 1 0 1 1 1.06 1.69l-4.22 2.65a1 1 0 0 1-.52.11Zm8.44-5.3a1 1 0 0 1-.54-1.84l4.22-2.66a1 1 0 1 1 1.06 1.7l-4.21 2.65a1 1 0 0 1-.52.11Zm8.43-5.3a1 1 0 0 1-.85-.47 1 1 0 0 1 .32-1.38l4.21-2.65a1 1 0 0 1 1.07 1.7l-4.22 2.65a1 1 0 0 1-.52.11Zm8.43-5.3a1 1 0 0 1-.53-1.85l4.22-2.65a1 1 0 1 1 1.06 1.7l-4.21 2.61a1 1 0 0 1-.53.15Zm8.44-5.3a1 1 0 0 1-.54-1.85l4.22-2.65a1 1 0 1 1 1.06 1.69l-4.21 2.65a1 1 0 0 1-.52.12Zm8.43-5.3a1 1 0 0 1-.85-.47 1 1 0 0 1 .32-1.38l4.21-2.65a1 1 0 0 1 1.38.31 1 1 0 0 1-.31 1.38l-4.22 2.61a.94.94 0 0 1-.52.16Zm8.43-5.31a1 1 0 0 1-.53-1.84l4.22-2.65a1 1 0 1 1 1.06 1.69l-4.21 2.65a1 1 0 0 1-.53.11Zm8.44-5.3a1 1 0 0 1-.54-1.84l4.22-2.65a1 1 0 0 1 1.38.31 1 1 0 0 1-.31 1.38l-4.22 2.65a1 1 0 0 1-.52.11Zm8.43-5.3a1 1 0 0 1-.85-.47 1 1 0 0 1 .32-1.38l4.22-2.65a1 1 0 0 1 1.06 1.7l-4.22 2.65a1 1 0 0 1-.52.11Zm8.44-5.3a1 1 0 0 1-.54-1.85l4.22-2.65a1 1 0 1 1 1.06 1.7l-4.21 2.65a1 1 0 0 1-.52.11Zm8.43-5.3a1 1 0 0 1-.53-1.85l4.21-2.65a1 1 0 0 1 1.38.31 1 1 0 0 1-.31 1.38l-4.22 2.65a.94.94 0 0 1-.52.08Zm8.43-5.3a1 1 0 0 1-.53-1.85l4.22-2.65a1 1 0 1 1 1.06 1.69l-4.22 2.65a.94.94 0 0 1-.52.12Zm8.44-5.31a1 1 0 0 1-.85-.46 1 1 0 0 1 .31-1.38l4.22-2.65a1 1 0 0 1 1.38.31 1 1 0 0 1-.32 1.38l-4.21 2.65a1 1 0 0 1-.52.11Zm8.43-5.3a1 1 0 0 1-.53-1.84l4.21-2.65a1 1 0 0 1 1.07 1.69l-4.21 2.63a1 1 0 0 1-.48.13Zm8.44-5.34a1 1 0 0 1-.84-.47 1 1 0 0 1 .31-1.38l2.12-1.33a1 1 0 1 1 1.06 1.7l-2.11 1.33a1 1 0 0 1-.54.15"/></g></svg>