<svg xmlns="http://www.w3.org/2000/svg" viewBox="0 0 1366 768"><path fill="#fff" d="M0 0h1366v768H0Z"/><path fill="#f9d2ec" d="M428.9 125.1H937v508.1H428.9Z"/><path fill="#ff1493" d="M937.1 634.7H428.9c-.8 0-1.5-.7-1.5-1.5V125.1c0-.8.7-1.5 1.5-1.5H937c.8 0 1.5.7 1.5 1.5v508.1c.1.8-.6 1.5-1.4 1.5m-506.7-3h505.1V126.6H430.4Z"/><path fill="#f4b8dd" d="m428.9 484.2 508.2-210.5"/><path fill="#f998d0" d="M428.9 485.2c-.4 0-.8-.2-.9-.6-.2-.5 0-1.1.5-1.3l2.3-1c.5-.2 1.1 0 1.3.5s0 1.1-.5 1.3l-2.3 1c-.1.1-.2.1-.4.1m11.5-4.8c-.4 0-.8-.2-.9-.6-.2-.5 0-1.1.5-1.3l4.6-1.9c.5-.2 1.1 0 1.3.5s0 1.1-.5 1.3l-4.6 1.9c-.1.1-.3.1-.4.1m13.7-5.6c-.4 0-.8-.2-.9-.6-.2-.5 0-1.1.5-1.3l4.6-1.9c.5-.2 1.1 0 1.3.5s0 1.1-.5 1.3l-4.6 1.9c-.1 0-.2.1-.4.1m13.8-5.7c-.4 0-.8-.2-.9-.6-.2-.5 0-1.1.5-1.3l4.6-1.9c.5-.2 1.1 0 1.3.5s0 1.1-.5 1.3l-4.6 1.9c-.2 0-.3.1-.4.1m13.7-5.7c-.4 0-.8-.2-.9-.6-.2-.5 0-1.1.5-1.3l4.6-1.9c.5-.2 1.1 0 1.3.5s0 1.1-.5 1.3l-4.6 1.9c-.1.1-.3.1-.4.1m13.7-5.7c-.4 0-.8-.2-.9-.6-.2-.5 0-1.1.5-1.3l4.6-1.9c.5-.2 1.1 0 1.3.5s0 1.1-.5 1.3l-4.6 1.9c-.1.1-.2.1-.4.1m13.8-5.7c-.4 0-.8-.2-.9-.6-.2-.5 0-1.1.5-1.3l4.6-1.9c.5-.2 1.1 0 1.3.5s0 1.1-.5 1.3l-4.6 1.9c-.2.1-.3.1-.4.1m13.7-5.7c-.4 0-.8-.2-.9-.6-.2-.5 0-1.1.5-1.3l4.6-1.9c.5-.2 1.1 0 1.3.5s0 1.1-.5 1.3l-4.6 1.9c-.1.1-.3.1-.4.1m13.7-5.7c-.4 0-.8-.2-.9-.6-.2-.5 0-1.1.5-1.3l4.6-1.9c.5-.2 1.1 0 1.3.5s0 1.1-.5 1.3l-4.6 1.9c-.1.1-.2.1-.4.1m13.8-5.7c-.4 0-.8-.2-.9-.6-.2-.5 0-1.1.5-1.3l4.6-1.9c.5-.2 1.1 0 1.3.5s0 1.1-.5 1.3l-4.6 1.9c-.2.1-.3.1-.4.1m13.7-5.6c-.4 0-.8-.2-.9-.6-.2-.5 0-1.1.5-1.3l4.6-1.9c.5-.2 1.1 0 1.3.5s0 1.1-.5 1.3l-4.6 1.9c-.1 0-.3.1-.4.1m13.7-5.7c-.4 0-.8-.2-.9-.6-.2-.5 0-1.1.5-1.3l4.6-1.9c.5-.2 1.1 0 1.3.5s0 1.1-.5 1.3l-4.6 1.9c-.1 0-.2.1-.4.1m13.8-5.7c-.4 0-.8-.2-.9-.6-.2-.5 0-1.1.5-1.3l4.6-1.9c.5-.2 1.1 0 1.3.5s0 1.1-.5 1.3l-4.6 1.9c-.2.1-.3.1-.4.1m13.7-5.7c-.4 0-.8-.2-.9-.6-.2-.5 0-1.1.5-1.3l4.6-1.9c.5-.2 1.1 0 1.3.5s0 1.1-.5 1.3l-4.6 1.9c-.2.1-.3.1-.4.1m13.7-5.7c-.4 0-.8-.2-.9-.6-.2-.5 0-1.1.5-1.3l4.6-1.9c.5-.2 1.1 0 1.3.5s0 1.1-.5 1.3l-4.6 1.9c-.1.1-.3.1-.4.1m13.8-5.7c-.4 0-.8-.2-.9-.6-.2-.5 0-1.1.5-1.3l4.6-1.9c.5-.2 1.1 0 1.3.5s0 1.1-.5 1.3l-4.6 1.9c-.2.1-.3.1-.4.1m13.7-5.7c-.4 0-.8-.2-.9-.6-.2-.5 0-1.1.5-1.3l4.6-1.9c.5-.2 1.1 0 1.3.5s0 1.1-.5 1.3l-4.6 1.9c-.2.1-.3.1-.4.1m13.7-5.7c-.4 0-.8-.2-.9-.6-.2-.5 0-1.1.5-1.3l4.6-1.9c.5-.2 1.1 0 1.3.5s0 1.1-.5 1.3l-4.6 1.9c-.1.1-.3.1-.4.1m13.7-5.6c-.4 0-.8-.2-.9-.6-.2-.5 0-1.1.5-1.3l4.6-1.9c.5-.2 1.1 0 1.3.5s0 1.1-.5 1.3l-4.6 1.9c-.1 0-.2.1-.4.1m13.8-5.7c-.4 0-.8-.2-.9-.6-.2-.5 0-1.1.5-1.3l4.6-1.9c.5-.2 1.1 0 1.3.5s0 1.1-.5 1.3L688 378c-.2 0-.3.1-.4.1m13.7-5.7c-.4 0-.8-.2-.9-.6-.2-.5 0-1.1.5-1.3l4.6-1.9c.5-.2 1.1 0 1.3.5s0 1.1-.5 1.3l-4.6 1.9c-.1.1-.3.1-.4.1m13.7-5.7c-.4 0-.8-.2-.9-.6-.2-.5 0-1.1.5-1.3l4.6-1.9c.5-.2 1.1 0 1.3.5s0 1.1-.5 1.3l-4.6 1.9c-.1.1-.2.1-.4.1m13.8-5.7c-.4 0-.8-.2-.9-.6-.2-.5 0-1.1.5-1.3l4.6-1.9c.5-.2 1.1 0 1.3.5s0 1.1-.5 1.3l-4.6 1.9c-.2.1-.3.1-.4.1m13.7-5.7c-.4 0-.8-.2-.9-.6-.2-.5 0-1.1.5-1.3l4.6-1.9c.5-.2 1.1 0 1.3.5s0 1.1-.5 1.3l-4.6 1.9c-.1.1-.3.1-.4.1m13.7-5.7c-.4 0-.8-.2-.9-.6-.2-.5 0-1.1.5-1.3l4.6-1.9c.5-.2 1.1 0 1.3.5s0 1.1-.5 1.3l-4.6 1.9c-.1.1-.2.1-.4.1m13.8-5.7c-.4 0-.8-.2-.9-.6-.2-.5 0-1.1.5-1.3l4.6-1.9c.5-.2 1.1 0 1.3.5s0 1.1-.5 1.3l-4.6 1.9c-.2.1-.3.1-.4.1m13.7-5.6c-.4 0-.8-.2-.9-.6-.2-.5 0-1.1.5-1.3l4.6-1.9c.5-.2 1.1 0 1.3.5s0 1.1-.5 1.3l-4.6 1.9c-.1 0-.3.1-.4.1m13.7-5.7c-.4 0-.8-.2-.9-.6-.2-.5 0-1.1.5-1.3l4.6-1.9c.5-.2 1.1 0 1.3.5s0 1.1-.5 1.3l-4.6 1.9c-.1 0-.2.1-.4.1m13.8-5.7c-.4 0-.8-.2-.9-.6-.2-.5 0-1.1.5-1.3l4.6-1.9c.5-.2 1.1 0 1.3.5s0 1.1-.5 1.3l-4.6 1.9c-.2.1-.3.1-.4.1m13.7-5.7c-.4 0-.8-.2-.9-.6-.2-.5 0-1.1.5-1.3l4.6-1.9c.5-.2 1.1 0 1.3.5s0 1.1-.5 1.3l-4.6 1.9c-.1.1-.3.1-.4.1m13.7-5.7c-.4 0-.8-.2-.9-.6-.2-.5 0-1.1.5-1.3l4.6-1.9c.5-.2 1.1 0 1.3.5s0 1.1-.5 1.3l-4.6 1.9c-.1.1-.2.1-.4.1m13.8-5.7c-.4 0-.8-.2-.9-.6-.2-.5 0-1.1.5-1.3l4.6-1.9c.5-.2 1.1 0 1.3.5s0 1.1-.5 1.3l-4.6 1.9c-.2.1-.3.1-.4.1m13.7-5.7c-.4 0-.8-.2-.9-.6-.2-.5 0-1.1.5-1.3l4.6-1.9c.5-.2 1.1 0 1.3.5s0 1.1-.5 1.3l-4.6 1.9c-.2.1-.3.1-.4.1m13.7-5.7c-.4 0-.8-.2-.9-.6-.2-.5 0-1.1.5-1.3l4.6-1.9c.5-.2 1.1 0 1.3.5s0 1.1-.5 1.3l-4.6 1.9c-.1.1-.3.1-.4.1m13.8-5.6c-.4 0-.8-.2-.9-.6-.2-.5 0-1.1.5-1.3l4.6-1.9c.5-.2 1.1 0 1.3.5s0 1.1-.5 1.3l-4.6 1.9c-.2 0-.3.1-.4.1m13.7-5.7c-.4 0-.8-.2-.9-.6-.2-.5 0-1.1.5-1.3l4.6-1.9c.5-.2 1.1 0 1.3.5s0 1.1-.5 1.3l-4.6 1.9c-.2 0-.3.1-.4.1m13.7-5.7c-.4 0-.8-.2-.9-.6-.2-.5 0-1.1.5-1.3l4.6-1.9c.5-.2 1.1 0 1.3.5s0 1.1-.5 1.3l-4.6 1.9c-.1.1-.3.1-.4.1m13.7-5.7c-.4 0-.8-.2-.9-.6-.2-.5 0-1.1.5-1.3l2.3-1c.5-.2 1.1 0 1.3.5s0 1.1-.5 1.3l-2.3 1c-.1.1-.2.1-.4.1"/><path fill="#f4b8dd" d="M430.3 631.7 937 125"/><path fill="#f998d0" d="M430.3 632.7c-.3 0-.5-.1-.7-.3-.4-.4-.4-1 0-1.4l1.8-1.8C431.8 628.8 432.4 628.8 432.8 629.2s.4 1 0 1.4l-1.8 1.8c-.2.2-.4.3-.7.3m8.8-8.9c-.3 0-.5-.1-.7-.3-.4-.4-.4-1 0-1.4l3.5-3.5c.4-.4 1-.4 1.4 0s.4 1 0 1.4l-3.5 3.5c-.2.3-.4.3-.7.3m10.6-10.5c-.3 0-.5-.1-.7-.3-.4-.4-.4-1 0-1.4l3.5-3.5c.4-.4 1-.4 1.4 0s.4 1 0 1.4l-3.5 3.5c-.2.2-.5.3-.7.3m10.5-10.6c-.3 0-.5-.1-.7-.3-.4-.4-.4-1 0-1.4l3.5-3.5c.4-.4 1-.4 1.4 0s.4 1 0 1.4l-3.5 3.5c-.2.2-.4.3-.7.3m10.6-10.5c-.3 0-.5-.1-.7-.3-.4-.4-.4-1 0-1.4l3.5-3.5c.4-.4 1-.4 1.4 0s.4 1 0 1.4l-3.5 3.5c-.2.2-.5.3-.7.3m10.5-10.6c-.3 0-.5-.1-.7-.3-.4-.4-.4-1 0-1.4l3.5-3.5c.4-.4 1-.4 1.4 0s.4 1 0 1.4l-3.5 3.5c-.2.2-.4.3-.7.3m10.6-10.5c-.3 0-.5-.1-.7-.3-.4-.4-.4-1 0-1.4l3.5-3.5c.4-.4 1-.4 1.4 0s.4 1 0 1.4l-3.5 3.5c-.2.2-.5.3-.7.3m10.5-10.6c-.3 0-.5-.1-.7-.3-.4-.4-.4-1 0-1.4l3.5-3.5c.4-.4 1-.4 1.4 0s.4 1 0 1.4l-3.5 3.5c-.1.2-.4.3-.7.3M513 550c-.3 0-.5-.1-.7-.3-.4-.4-.4-1 0-1.4l3.5-3.5C516.2 544.4 516.8 544.4 517.2 544.8s.4 1 0 1.4l-3.5 3.5c-.2.2-.4.3-.7.3m10.6-10.6c-.3 0-.5-.1-.7-.3-.4-.4-.4-1 0-1.4l3.5-3.5c.4-.4 1-.4 1.4 0s.4 1 0 1.4l-3.5 3.5c-.2.2-.5.3-.7.3m10.5-10.5c-.3 0-.5-.1-.7-.3-.4-.4-.4-1 0-1.4l3.5-3.5c.4-.4 1-.4 1.4 0s.4 1 0 1.4l-3.5 3.5c-.2.2-.4.3-.7.3m10.6-10.6c-.3 0-.5-.1-.7-.3-.4-.4-.4-1 0-1.4l3.5-3.5c.4-.4 1-.4 1.4 0s.4 1 0 1.4l-3.5 3.5c-.2.2-.5.3-.7.3m10.5-10.6c-.3 0-.5-.1-.7-.3-.4-.4-.4-1 0-1.4l3.5-3.5C558.4 502.1 559 502.1 559.4 502.5s.4 1 0 1.4l-3.5 3.5c-.2.2-.4.3-.7.3m10.6-10.5c-.3 0-.5-.1-.7-.3-.4-.4-.4-1 0-1.4l3.5-3.5C569 491.6 569.6 491.6 570 492s.4 1 0 1.4l-3.5 3.5c-.2.2-.5.3-.7.3m10.5-10.6c-.3 0-.5-.1-.7-.3-.4-.4-.4-1 0-1.4l3.5-3.5C579.5 481 580.1 481 580.5 481.4s.4 1 0 1.4l-3.5 3.5c-.2.2-.4.3-.7.3m10.6-10.5c-.3 0-.5-.1-.7-.3-.4-.4-.4-1 0-1.4l3.5-3.5C590.1 470.5 590.7 470.5 591.1 470.9s.4 1 0 1.4l-3.5 3.5c-.2.2-.5.3-.7.3m10.5-10.6c-.3 0-.5-.1-.7-.3-.4-.4-.4-1 0-1.4l3.5-3.5C600.6 459.9 601.2 459.9 601.6 460.3s.4 1 0 1.4l-3.5 3.5c-.1.2-.4.3-.7.3M608 455c-.3 0-.5-.1-.7-.3-.4-.4-.4-1 0-1.4l3.5-3.5c.4-.4 1-.4 1.4 0s.4 1 0 1.4l-3.5 3.5c-.2.2-.5.3-.7.3m10.5-10.6c-.3 0-.5-.1-.7-.3-.4-.4-.4-1 0-1.4l3.5-3.5c.4-.4 1-.4 1.4 0s.4 1 0 1.4l-3.5 3.5c-.1.2-.4.3-.7.3m10.6-10.5c-.3 0-.5-.1-.7-.3-.4-.4-.4-1 0-1.4l3.5-3.5c.4-.4 1-.4 1.4 0s.4 1 0 1.4l-3.5 3.5c-.2.2-.4.3-.7.3m10.6-10.6c-.3 0-.5-.1-.7-.3-.4-.4-.4-1 0-1.4l3.5-3.5C642.9 417.7 643.5 417.7 643.9 418.1s.4 1 0 1.4l-3.5 3.5c-.2.2-.5.3-.7.3m10.5-10.5c-.3 0-.5-.1-.7-.3-.4-.4-.4-1 0-1.4l3.5-3.5C653.4 407.2 654 407.2 654.4 407.6s.4 1 0 1.4l-3.5 3.5c-.2.2-.4.3-.7.3m10.6-10.6c-.3 0-.5-.1-.7-.3-.4-.4-.4-1 0-1.4l3.5-3.5C664 396.6 664.6 396.6 665 397s.4 1 0 1.4l-3.5 3.5c-.2.2-.5.3-.7.3m10.5-10.6c-.3 0-.5-.1-.7-.3-.4-.4-.4-1 0-1.4l3.5-3.5C674.5 386 675.1 386 675.5 386.4s.4 1 0 1.4l-3.5 3.5c-.2.2-.4.3-.7.3m10.6-10.5c-.3 0-.5-.1-.7-.3-.4-.4-.4-1 0-1.4l3.5-3.5C685.1 375.5 685.7 375.5 686.1 375.9s.4 1 0 1.4l-3.5 3.5c-.2.2-.5.3-.7.3m10.5-10.6c-.3 0-.5-.1-.7-.3-.4-.4-.4-1 0-1.4l3.5-3.5C695.6 364.9 696.2 364.9 696.6 365.3s.4 1 0 1.4l-3.5 3.5c-.2.2-.4.3-.7.3M703 360c-.3 0-.5-.1-.7-.3-.4-.4-.4-1 0-1.4l3.5-3.5c.4-.4 1-.4 1.4 0s.4 1 0 1.4l-3.5 3.5c-.2.2-.5.3-.7.3m10.5-10.6c-.3 0-.5-.1-.7-.3-.4-.4-.4-1 0-1.4l3.5-3.5c.4-.4 1-.4 1.4 0s.4 1 0 1.4l-3.5 3.5c-.1.2-.4.3-.7.3m10.6-10.5c-.3 0-.5-.1-.7-.3-.4-.4-.4-1 0-1.4l3.5-3.5c.4-.4 1-.4 1.4 0s.4 1 0 1.4l-3.5 3.5c-.2.2-.4.3-.7.3m10.6-10.6c-.3 0-.5-.1-.7-.3-.4-.4-.4-1 0-1.4l3.5-3.5C737.9 322.7 738.5 322.7 738.9 323.1s.4 1 0 1.4l-3.5 3.5c-.2.2-.5.3-.7.3m10.5-10.5c-.3 0-.5-.1-.7-.3-.4-.4-.4-1 0-1.4l3.5-3.5C748.4 312.2 749 312.2 749.4 312.6s.4 1 0 1.4l-3.5 3.5c-.2.2-.4.3-.7.3m10.6-10.6c-.3 0-.5-.1-.7-.3-.4-.4-.4-1 0-1.4l3.5-3.5C759 301.6 759.6 301.6 760 302s.4 1 0 1.4l-3.5 3.5c-.2.2-.5.3-.7.3m10.5-10.6c-.3 0-.5-.1-.7-.3-.4-.4-.4-1 0-1.4l3.5-3.5C769.5 291 770.1 291 770.5 291.4s.4 1 0 1.4l-3.5 3.5c-.2.2-.4.3-.7.3m10.6-10.5c-.3 0-.5-.1-.7-.3-.4-.4-.4-1 0-1.4l3.5-3.5C780.1 280.5 780.7 280.5 781.1 280.9s.4 1 0 1.4l-3.5 3.5c-.2.2-.5.3-.7.3m10.5-10.6c-.3 0-.5-.1-.7-.3-.4-.4-.4-1 0-1.4l3.5-3.5C790.6 269.9 791.2 269.9 791.6 270.3s.4 1 0 1.4l-3.5 3.5c-.2.2-.4.3-.7.3M798 265c-.3 0-.5-.1-.7-.3-.4-.4-.4-1 0-1.4l3.5-3.5c.4-.4 1-.4 1.4 0s.4 1 0 1.4l-3.5 3.5c-.2.2-.5.3-.7.3m10.5-10.6c-.3 0-.5-.1-.7-.3-.4-.4-.4-1 0-1.4l3.5-3.5c.4-.4 1-.4 1.4 0s.4 1 0 1.4l-3.5 3.5c-.2.2-.4.3-.7.3m10.6-10.5c-.3 0-.5-.1-.7-.3-.4-.4-.4-1 0-1.4l3.5-3.5c.4-.4 1-.4 1.4 0s.4 1 0 1.4l-3.5 3.5c-.2.2-.5.3-.7.3m10.5-10.6c-.3 0-.5-.1-.7-.3-.4-.4-.4-1 0-1.4l3.5-3.5c.4-.4 1-.4 1.4 0s.4 1 0 1.4l-3.5 3.5c-.1.2-.4.3-.7.3m10.6-10.5c-.3 0-.5-.1-.7-.3-.4-.4-.4-1 0-1.4l3.5-3.5c.4-.4 1-.4 1.4 0s.4 1 0 1.4l-3.5 3.5c-.2.2-.4.3-.7.3m10.6-10.6c-.3 0-.5-.1-.7-.3-.4-.4-.4-1 0-1.4l3.5-3.5c.4-.4 1-.4 1.4 0s.4 1 0 1.4l-3.5 3.5c-.2.2-.5.3-.7.3m10.5-10.5c-.3 0-.5-.1-.7-.3-.4-.4-.4-1 0-1.4l3.5-3.5c.4-.4 1-.4 1.4 0s.4 1 0 1.4l-3.5 3.5c-.2.2-.4.3-.7.3m10.6-10.6c-.3 0-.5-.1-.7-.3-.4-.4-.4-1 0-1.4l3.5-3.5c.4-.4 1-.4 1.4 0s.4 1 0 1.4l-3.5 3.5c-.2.2-.5.3-.7.3m10.5-10.6c-.3 0-.5-.1-.7-.3-.4-.4-.4-1 0-1.4l3.5-3.5c.4-.4 1-.4 1.4 0s.4 1 0 1.4l-3.5 3.5c-.2.2-.4.3-.7.3M893 170c-.3 0-.5-.1-.7-.3-.4-.4-.4-1 0-1.4l3.5-3.5C896.2 164.4 896.8 164.4 897.2 164.8s.4 1 0 1.4l-3.5 3.5c-.2.2-.5.3-.7.3m10.5-10.6c-.3 0-.5-.1-.7-.3-.4-.4-.4-1 0-1.4l3.5-3.5c.4-.4 1-.4 1.4 0s.4 1 0 1.4l-3.5 3.5c-.2.2-.4.3-.7.3m10.6-10.5c-.3 0-.5-.1-.7-.3-.4-.4-.4-1 0-1.4l3.5-3.5c.4-.4 1-.4 1.4 0s.4 1 0 1.4l-3.5 3.5c-.2.2-.5.3-.7.3m10.5-10.6c-.3 0-.5-.1-.7-.3-.4-.4-.4-1 0-1.4l3.5-3.5c.4-.4 1-.4 1.4 0s.4 1 0 1.4l-3.5 3.5c-.1.2-.4.3-.7.3m10.6-10.5c-.3 0-.5-.1-.7-.3-.4-.4-.4-1 0-1.4l1.8-1.8c.4-.4 1-.4 1.4 0s.4 1 0 1.4l-1.8 1.8c-.2.2-.4.3-.7.3"/><path fill="#f4b8dd" d="M577.7 633.2 788 125.5"/><path fill="#f998d0" d="M577.7 634.2c-.1 0-.3 0-.4-.1-.5-.2-.8-.8-.5-1.3l1-2.3c.2-.5.8-.8 1.3-.5.5.2.8.8.5 1.3l-1 2.3c-.1.4-.5.6-.9.6m4.7-11.5c-.1 0-.3 0-.4-.1-.5-.2-.8-.8-.5-1.3l1.9-4.6c.2-.5.8-.8 1.3-.5.5.2.8.8.5 1.3l-1.9 4.6c-.1.4-.5.6-.9.6m5.7-13.7c-.1 0-.3 0-.4-.1-.5-.2-.8-.8-.5-1.3l1.9-4.6c.2-.5.8-.8 1.3-.5.5.2.8.8.5 1.3l-1.9 4.6c-.1.4-.5.6-.9.6m5.7-13.7c-.1 0-.3 0-.4-.1-.5-.2-.8-.8-.5-1.3l1.9-4.6c.2-.5.8-.8 1.3-.5.5.2.8.8.5 1.3l-1.9 4.6c-.1.4-.5.6-.9.6m5.7-13.7c-.1 0-.3 0-.4-.1-.5-.2-.8-.8-.5-1.3l1.9-4.6c.2-.5.8-.8 1.3-.5.5.2.8.8.5 1.3l-1.9 4.6c-.1.3-.5.6-.9.6m5.7-13.7c-.1 0-.3 0-.4-.1-.5-.2-.8-.8-.5-1.3l1.9-4.6c.2-.5.8-.8 1.3-.5.5.2.8.8.5 1.3l-1.9 4.6c-.2.3-.5.6-.9.6m5.7-13.8c-.1 0-.3 0-.4-.1-.5-.2-.8-.8-.5-1.3l1.9-4.6c.2-.5.8-.8 1.3-.5.5.2.8.8.5 1.3l-1.9 4.6c-.2.4-.6.6-.9.6m5.6-13.7c-.1 0-.3 0-.4-.1-.5-.2-.8-.8-.5-1.3l1.9-4.6c.2-.5.8-.8 1.3-.5.5.2.8.8.5 1.3l-1.9 4.6c-.1.4-.5.6-.9.6m5.7-13.7c-.1 0-.3 0-.4-.1-.5-.2-.8-.8-.5-1.3l1.9-4.6c.2-.5.8-.8 1.3-.5.5.2.8.8.5 1.3l-1.9 4.6c-.1.4-.5.6-.9.6m5.7-13.7c-.1 0-.3 0-.4-.1-.5-.2-.8-.8-.5-1.3l1.9-4.6c.2-.5.8-.8 1.3-.5.5.2.8.8.5 1.3l-1.9 4.6c-.1.3-.5.6-.9.6m5.7-13.7c-.1 0-.3 0-.4-.1-.5-.2-.8-.8-.5-1.3l1.9-4.6c.2-.5.8-.8 1.3-.5.5.2.8.8.5 1.3l-1.9 4.6c-.1.3-.5.6-.9.6m5.7-13.8c-.1 0-.3 0-.4-.1-.5-.2-.8-.8-.5-1.3l1.9-4.6c.2-.5.8-.8 1.3-.5.5.2.8.8.5 1.3l-1.9 4.6q-.3.6-.9.6m5.7-13.7c-.1 0-.3 0-.4-.1-.5-.2-.8-.8-.5-1.3l1.9-4.6c.2-.5.8-.8 1.3-.5.5.2.8.8.5 1.3l-1.9 4.6c-.2.4-.6.6-.9.6m5.6-13.7c-.1 0-.3 0-.4-.1-.5-.2-.8-.8-.5-1.3l1.9-4.6c.2-.5.8-.8 1.3-.5.5.2.8.8.5 1.3l-1.9 4.6c-.1.4-.5.6-.9.6m5.7-13.7c-.1 0-.3 0-.4-.1-.5-.2-.8-.8-.5-1.3l1.9-4.6c.2-.5.8-.8 1.3-.5.5.2.8.8.5 1.3l-1.9 4.6c-.1.3-.5.6-.9.6m5.7-13.7c-.1 0-.3 0-.4-.1-.5-.2-.8-.8-.5-1.3l1.9-4.6c.2-.5.8-.8 1.3-.5.5.2.8.8.5 1.3l-1.9 4.6c-.1.3-.5.6-.9.6m5.7-13.8c-.1 0-.3 0-.4-.1-.5-.2-.8-.8-.5-1.3l1.9-4.6c.2-.5.8-.8 1.3-.5.5.2.8.8.5 1.3l-1.9 4.6c-.1.4-.5.6-.9.6m5.7-13.7c-.1 0-.3 0-.4-.1-.5-.2-.8-.8-.5-1.3l1.9-4.6c.2-.5.8-.8 1.3-.5.5.2.8.8.5 1.3l-1.9 4.6q-.3.6-.9.6m5.7-13.7c-.1 0-.3 0-.4-.1-.5-.2-.8-.8-.5-1.3l1.9-4.6c.2-.5.8-.8 1.3-.5.5.2.8.8.5 1.3l-1.9 4.6c-.2.4-.6.6-.9.6m5.6-13.7c-.1 0-.3 0-.4-.1-.5-.2-.8-.8-.5-1.3l1.9-4.6c.2-.5.8-.8 1.3-.5.5.2.8.8.5 1.3l-1.9 4.6c-.1.3-.5.6-.9.6m5.7-13.7c-.1 0-.3 0-.4-.1-.5-.2-.8-.8-.5-1.3l1.9-4.6c.2-.5.8-.8 1.3-.5.5.2.8.8.5 1.3l-1.9 4.6c-.1.3-.5.6-.9.6m5.7-13.8c-.1 0-.3 0-.4-.1-.5-.2-.8-.8-.5-1.3l1.9-4.6c.2-.5.8-.8 1.3-.5.5.2.8.8.5 1.3l-1.9 4.6c-.1.4-.5.6-.9.6m5.7-13.7c-.1 0-.3 0-.4-.1-.5-.2-.8-.8-.5-1.3l1.9-4.6c.2-.5.8-.8 1.3-.5.5.2.8.8.5 1.3l-1.9 4.6q-.3.6-.9.6m5.7-13.7c-.1 0-.3 0-.4-.1-.5-.2-.8-.8-.5-1.3l1.9-4.6c.2-.5.8-.8 1.3-.5.5.2.8.8.5 1.3l-1.9 4.6q-.3.6-.9.6m5.7-13.7c-.1 0-.3 0-.4-.1-.5-.2-.8-.8-.5-1.3l1.9-4.6c.2-.5.8-.8 1.3-.5.5.2.8.8.5 1.3l-1.9 4.6c-.2.3-.6.6-.9.6m5.6-13.7c-.1 0-.3 0-.4-.1-.5-.2-.8-.8-.5-1.3l1.9-4.6c.2-.5.8-.8 1.3-.5.5.2.8.8.5 1.3l-1.9 4.6c-.1.3-.5.6-.9.6m5.7-13.8c-.1 0-.3 0-.4-.1-.5-.2-.8-.8-.5-1.3l1.9-4.6c.2-.5.8-.8 1.3-.5.5.2.8.8.5 1.3l-1.9 4.6c-.1.4-.5.6-.9.6m5.7-13.7c-.1 0-.3 0-.4-.1-.5-.2-.8-.8-.5-1.3l1.9-4.6c.2-.5.8-.8 1.3-.5.5.2.8.8.5 1.3l-1.9 4.6c-.1.4-.5.6-.9.6m5.7-13.7c-.1 0-.3 0-.4-.1-.5-.2-.8-.8-.5-1.3l1.9-4.6c.2-.5.8-.8 1.3-.5.5.2.8.8.5 1.3l-1.9 4.6q-.3.6-.9.6m5.7-13.7c-.1 0-.3 0-.4-.1-.5-.2-.8-.8-.5-1.3l1.9-4.6c.2-.5.8-.8 1.3-.5.5.2.8.8.5 1.3l-1.9 4.6c-.2.3-.5.6-.9.6m5.7-13.8c-.1 0-.3 0-.4-.1-.5-.2-.8-.8-.5-1.3l1.9-4.6c.2-.5.8-.8 1.3-.5.5.2.8.8.5 1.3l-1.9 4.6c-.2.4-.6.6-.9.6m5.6-13.7c-.1 0-.3 0-.4-.1-.5-.2-.8-.8-.5-1.3l1.9-4.6c.2-.5.8-.8 1.3-.5.5.2.8.8.5 1.3l-1.9 4.6c-.1.4-.5.6-.9.6m5.7-13.7c-.1 0-.3 0-.4-.1-.5-.2-.8-.8-.5-1.3l1.9-4.6c.2-.5.8-.8 1.3-.5.5.2.8.8.5 1.3l-1.9 4.6c-.1.4-.5.6-.9.6m5.7-13.7c-.1 0-.3 0-.4-.1-.5-.2-.8-.8-.5-1.3l1.9-4.6c.2-.5.8-.8 1.3-.5.5.2.8.8.5 1.3l-1.9 4.6c-.1.4-.5.6-.9.6M770 170c-.1 0-.3 0-.4-.1-.5-.2-.8-.8-.5-1.3l1.9-4.6c.2-.5.8-.8 1.3-.5.5.2.8.8.5 1.3l-1.9 4.6c-.2.3-.5.6-.9.6m5.7-13.8c-.1 0-.3 0-.4-.1-.5-.2-.8-.8-.5-1.3l1.9-4.6c.2-.5.8-.8 1.3-.5.5.2.8.8.5 1.3l-1.9 4.6q-.3.6-.9.6m5.7-13.7c-.1 0-.3 0-.4-.1-.5-.2-.8-.8-.5-1.3l1.9-4.6c.2-.5.8-.8 1.3-.5.5.2.8.8.5 1.3l-1.9 4.6c-.2.4-.6.6-.9.6m5.6-13.7c-.1 0-.3 0-.4-.1-.5-.2-.8-.8-.5-1.3l1-2.3c.2-.5.8-.8 1.3-.5.5.2.8.8.5 1.3l-1 2.3c-.1.4-.5.6-.9.6"/><path fill="#f4b8dd" d="M788.3 633.2 577.8 125.1"/><path fill="#f998d0" d="M788.3 634.2c-.4 0-.8-.2-.9-.6l-1-2.3c-.2-.5 0-1.1.5-1.3s1.1 0 1.3.5l1 2.3c.2.5 0 1.1-.5 1.3-.1.1-.3.1-.4.1m-4.7-11.5c-.4 0-.8-.2-.9-.6l-1.9-4.6c-.2-.5 0-1.1.5-1.3s1.1 0 1.3.5l1.9 4.6c.2.5 0 1.1-.5 1.3-.2.1-.3.1-.4.1m-5.7-13.7c-.4 0-.8-.2-.9-.6l-1.9-4.6c-.2-.5 0-1.1.5-1.3s1.1 0 1.3.5l1.9 4.6c.2.5 0 1.1-.5 1.3-.2.1-.3.1-.4.1m-5.7-13.7c-.4 0-.8-.2-.9-.6l-1.9-4.6c-.2-.5 0-1.1.5-1.3s1.1 0 1.3.5l1.9 4.6c.2.5 0 1.1-.5 1.3-.2 0-.3.1-.4.1m-5.7-13.8c-.4 0-.8-.2-.9-.6l-1.9-4.6c-.2-.5 0-1.1.5-1.3s1.1 0 1.3.5l1.9 4.6c.2.5 0 1.1-.5 1.3-.1.1-.3.1-.4.1m-5.7-13.7c-.4 0-.8-.2-.9-.6l-1.9-4.6c-.2-.5 0-1.1.5-1.3s1.1 0 1.3.5l1.9 4.6c.2.5 0 1.1-.5 1.3-.1.1-.3.1-.4.1m-5.7-13.7c-.4 0-.8-.2-.9-.6l-1.9-4.6c-.2-.5 0-1.1.5-1.3s1.1 0 1.3.5l1.9 4.6c.2.5 0 1.1-.5 1.3-.1.1-.3.1-.4.1m-5.7-13.8c-.4 0-.8-.2-.9-.6l-1.9-4.6c-.2-.5 0-1.1.5-1.3s1.1 0 1.3.5l1.9 4.6c.2.5 0 1.1-.5 1.3-.1.1-.2.1-.4.1m-5.7-13.7c-.4 0-.8-.2-.9-.6l-1.9-4.6c-.2-.5 0-1.1.5-1.3s1.1 0 1.3.5l1.9 4.6c.2.5 0 1.1-.5 1.3-.1.1-.2.1-.4.1m-5.6-13.7c-.4 0-.8-.2-.9-.6l-1.9-4.6c-.2-.5 0-1.1.5-1.3s1.1 0 1.3.5l1.9 4.6c.2.5 0 1.1-.5 1.3-.2.1-.3.1-.4.1m-5.7-13.7c-.4 0-.8-.2-.9-.6l-1.9-4.6c-.2-.5 0-1.1.5-1.3s1.1 0 1.3.5l1.9 4.6c.2.5 0 1.1-.5 1.3-.2 0-.3.1-.4.1m-5.7-13.8c-.4 0-.8-.2-.9-.6l-1.9-4.6c-.2-.5 0-1.1.5-1.3s1.1 0 1.3.5l1.9 4.6c.2.5 0 1.1-.5 1.3-.2.1-.3.1-.4.1m-5.7-13.7c-.4 0-.8-.2-.9-.6l-1.9-4.6c-.2-.5 0-1.1.5-1.3s1.1 0 1.3.5l1.9 4.6c.2.5 0 1.1-.5 1.3-.1.1-.3.1-.4.1m-5.7-13.7c-.4 0-.8-.2-.9-.6l-1.9-4.6c-.2-.5 0-1.1.5-1.3s1.1 0 1.3.5l1.9 4.6c.2.5 0 1.1-.5 1.3-.1 0-.3.1-.4.1m-5.7-13.8c-.4 0-.8-.2-.9-.6l-1.9-4.6c-.2-.5 0-1.1.5-1.3s1.1 0 1.3.5l1.9 4.6c.2.5 0 1.1-.5 1.3-.1.1-.3.1-.4.1m-5.7-13.7c-.4 0-.8-.2-.9-.6l-1.9-4.6c-.2-.5 0-1.1.5-1.3s1.1 0 1.3.5l1.9 4.6c.2.5 0 1.1-.5 1.3-.1.1-.2.1-.4.1m-5.7-13.7c-.4 0-.8-.2-.9-.6l-1.9-4.6c-.2-.5 0-1.1.5-1.3s1.1 0 1.3.5l1.9 4.6c.2.5 0 1.1-.5 1.3-.1 0-.2.1-.4.1m-5.6-13.8c-.4 0-.8-.2-.9-.6l-1.9-4.6c-.2-.5 0-1.1.5-1.3s1.1 0 1.3.5l1.9 4.6c.2.5 0 1.1-.5 1.3-.2.1-.3.1-.4.1m-5.7-13.7c-.4 0-.8-.2-.9-.6l-1.9-4.6c-.2-.5 0-1.1.5-1.3s1.1 0 1.3.5l1.9 4.6c.2.5 0 1.1-.5 1.3-.2.1-.3.1-.4.1m-5.7-13.7c-.4 0-.8-.2-.9-.6l-1.9-4.6c-.2-.5 0-1.1.5-1.3s1.1 0 1.3.5l1.9 4.6c.2.5 0 1.1-.5 1.3-.2 0-.3.1-.4.1m-5.7-13.8c-.4 0-.8-.2-.9-.6l-1.9-4.6c-.2-.5 0-1.1.5-1.3s1.1 0 1.3.5l1.9 4.6c.2.5 0 1.1-.5 1.3-.2.1-.3.1-.4.1m-5.7-13.7c-.4 0-.8-.2-.9-.6l-1.9-4.6c-.2-.5 0-1.1.5-1.3s1.1 0 1.3.5l1.9 4.6c.2.5 0 1.1-.5 1.3-.1.1-.3.1-.4.1m-5.7-13.7c-.4 0-.8-.2-.9-.6l-1.9-4.6c-.2-.5 0-1.1.5-1.3s1.1 0 1.3.5l1.9 4.6c.2.5 0 1.1-.5 1.3-.1 0-.3.1-.4.1m-5.7-13.8c-.4 0-.8-.2-.9-.6l-1.9-4.6c-.2-.5 0-1.1.5-1.3s1.1 0 1.3.5l1.9 4.6c.2.5 0 1.1-.5 1.3-.1.1-.2.1-.4.1m-5.7-13.7c-.4 0-.8-.2-.9-.6l-1.9-4.6c-.2-.5 0-1.1.5-1.3s1.1 0 1.3.5l1.9 4.6c.2.5 0 1.1-.5 1.3-.1.1-.2.1-.4.1m-5.6-13.7c-.4 0-.8-.2-.9-.6l-1.9-4.6c-.2-.5 0-1.1.5-1.3s1.1 0 1.3.5l1.9 4.6c.2.5 0 1.1-.5 1.3-.2.1-.3.1-.4.1m-5.7-13.8c-.4 0-.8-.2-.9-.6l-1.9-4.6c-.2-.5 0-1.1.5-1.3s1.1 0 1.3.5l1.9 4.6c.2.5 0 1.1-.5 1.3-.2.1-.3.1-.4.1m-5.7-13.7c-.4 0-.8-.2-.9-.6l-1.9-4.6c-.2-.5 0-1.1.5-1.3s1.1 0 1.3.5l1.9 4.6c.2.5 0 1.1-.5 1.3-.2.1-.3.1-.4.1M630 252c-.4 0-.8-.2-.9-.6l-1.9-4.6c-.2-.5 0-1.1.5-1.3s1.1 0 1.3.5l1.9 4.6c.2.5 0 1.1-.5 1.3-.2.1-.3.1-.4.1m-5.7-13.7c-.4 0-.8-.2-.9-.6l-1.9-4.6c-.2-.5 0-1.1.5-1.3s1.1 0 1.3.5l1.9 4.6c.2.5 0 1.1-.5 1.3-.1 0-.3.1-.4.1m-5.7-13.8c-.4 0-.8-.2-.9-.6l-1.9-4.6c-.2-.5 0-1.1.5-1.3s1.1 0 1.3.5l1.9 4.6c.2.5 0 1.1-.5 1.3-.1.1-.3.1-.4.1m-5.7-13.7c-.4 0-.8-.2-.9-.6l-1.9-4.6c-.2-.5 0-1.1.5-1.3s1.1 0 1.3.5l1.9 4.6c.2.5 0 1.1-.5 1.3-.1.1-.2.1-.4.1m-5.7-13.7c-.4 0-.8-.2-.9-.6l-1.9-4.6c-.2-.5 0-1.1.5-1.3s1.1 0 1.3.5l1.9 4.6c.2.5 0 1.1-.5 1.3-.1 0-.2.1-.4.1m-5.6-13.8c-.4 0-.8-.2-.9-.6l-1.9-4.6c-.2-.5 0-1.1.5-1.3s1.1 0 1.3.5l1.9 4.6c.2.5 0 1.1-.5 1.3-.2.1-.3.1-.4.1m-5.7-13.7c-.4 0-.8-.2-.9-.6l-1.9-4.6c-.2-.5 0-1.1.5-1.3s1.1 0 1.3.5l1.9 4.6c.2.5 0 1.1-.5 1.3-.2.1-.3.1-.4.1m-5.7-13.7c-.4 0-.8-.2-.9-.6l-1.9-4.6c-.2-.5 0-1.1.5-1.3s1.1 0 1.3.5l1.9 4.6c.2.5 0 1.1-.5 1.3-.2 0-.3.1-.4.1m-5.7-13.8c-.4 0-.8-.2-.9-.6l-1.9-4.6c-.2-.5 0-1.1.5-1.3s1.1 0 1.3.5l1.9 4.6c.2.5 0 1.1-.5 1.3-.2.1-.3.1-.4.1m-5.7-13.7c-.4 0-.8-.2-.9-.6l-1-2.3c-.2-.5 0-1.1.5-1.3s1.1 0 1.3.5l1 2.3c.2.5 0 1.1-.5 1.3-.1.1-.3.1-.4.1"/><path fill="#f4b8dd" d="M934.3 630.3 429.1 125.1"/><path fill="#f998d0" d="M934.3 631.3c-.3 0-.5-.1-.7-.3l-1.8-1.8c-.4-.4-.4-1 0-1.4s1-.4 1.4 0l1.8 1.8c.4.4.4 1 0 1.4-.2.2-.4.3-.7.3m-8.8-8.8c-.3 0-.5-.1-.7-.3l-3.5-3.5c-.4-.4-.4-1 0-1.4s1-.4 1.4 0l3.5 3.5c.4.4.4 1 0 1.4-.1.2-.4.3-.7.3M915 612c-.3 0-.5-.1-.7-.3l-3.5-3.5c-.4-.4-.4-1 0-1.4s1-.4 1.4 0l3.5 3.5c.4.4.4 1 0 1.4-.2.2-.4.3-.7.3m-10.5-10.5c-.3 0-.5-.1-.7-.3l-3.5-3.5c-.4-.4-.4-1 0-1.4s1-.4 1.4 0l3.5 3.5c.4.4.4 1 0 1.4-.2.2-.5.3-.7.3M894 590.9c-.3 0-.5-.1-.7-.3l-3.5-3.5c-.4-.4-.4-1 0-1.4s1-.4 1.4 0l3.5 3.5c.4.4.4 1 0 1.4-.2.2-.5.3-.7.3m-10.6-10.5c-.3 0-.5-.1-.7-.3l-3.5-3.5c-.4-.4-.4-1 0-1.4s1-.4 1.4 0l3.5 3.5c.4.4.4 1 0 1.4-.1.2-.4.3-.7.3m-10.5-10.5c-.3 0-.5-.1-.7-.3l-3.5-3.5c-.4-.4-.4-1 0-1.4s1-.4 1.4 0l3.5 3.5c.4.4.4 1 0 1.4-.2.2-.4.3-.7.3m-10.5-10.5c-.3 0-.5-.1-.7-.3l-3.5-3.5c-.4-.4-.4-1 0-1.4s1-.4 1.4 0l3.5 3.5c.4.4.4 1 0 1.4-.2.2-.5.3-.7.3m-10.5-10.6c-.3 0-.5-.1-.7-.3l-3.5-3.5c-.4-.4-.4-1 0-1.4s1-.4 1.4 0l3.5 3.5c.4.4.4 1 0 1.4-.2.2-.5.3-.7.3m-10.6-10.5c-.3 0-.5-.1-.7-.3l-3.5-3.5c-.4-.4-.4-1 0-1.4s1-.4 1.4 0l3.5 3.5c.4.4.4 1 0 1.4-.1.2-.4.3-.7.3m-10.5-10.5c-.3 0-.5-.1-.7-.3l-3.5-3.5c-.4-.4-.4-1 0-1.4s1-.4 1.4 0l3.5 3.5c.4.4.4 1 0 1.4-.2.2-.4.3-.7.3m-10.5-10.5c-.3 0-.5-.1-.7-.3l-3.5-3.5c-.4-.4-.4-1 0-1.4s1-.4 1.4 0l3.5 3.5c.4.4.4 1 0 1.4-.2.2-.4.3-.7.3m-10.5-10.6c-.3 0-.5-.1-.7-.3l-3.5-3.5c-.4-.4-.4-1 0-1.4s1-.4 1.4 0l3.5 3.5c.4.4.4 1 0 1.4-.2.2-.5.3-.7.3m-10.6-10.5c-.3 0-.5-.1-.7-.3l-3.5-3.5c-.4-.4-.4-1 0-1.4s1-.4 1.4 0l3.5 3.5c.4.4.4 1 0 1.4-.1.2-.4.3-.7.3m-10.5-10.5c-.3 0-.5-.1-.7-.3l-3.5-3.5c-.4-.4-.4-1 0-1.4s1-.4 1.4 0l3.5 3.5c.4.4.4 1 0 1.4-.2.2-.4.3-.7.3m-10.5-10.5c-.3 0-.5-.1-.7-.3l-3.5-3.5c-.4-.4-.4-1 0-1.4s1-.4 1.4 0l3.5 3.5c.4.4.4 1 0 1.4-.2.2-.4.3-.7.3m-10.5-10.6c-.3 0-.5-.1-.7-.3l-3.5-3.5c-.4-.4-.4-1 0-1.4s1-.4 1.4 0l3.5 3.5c.4.4.4 1 0 1.4-.2.2-.5.3-.7.3m-10.6-10.5c-.3 0-.5-.1-.7-.3l-3.5-3.5c-.4-.4-.4-1 0-1.4s1-.4 1.4 0l3.5 3.5c.4.4.4 1 0 1.4-.1.2-.4.3-.7.3m-10.5-10.5c-.3 0-.5-.1-.7-.3l-3.5-3.5c-.4-.4-.4-1 0-1.4s1-.4 1.4 0l3.5 3.5c.4.4.4 1 0 1.4-.2.2-.4.3-.7.3m-10.5-10.5c-.3 0-.5-.1-.7-.3l-3.5-3.5c-.4-.4-.4-1 0-1.4s1-.4 1.4 0l3.5 3.5c.4.4.4 1 0 1.4-.2.2-.4.3-.7.3m-10.5-10.6c-.3 0-.5-.1-.7-.3l-3.5-3.5c-.4-.4-.4-1 0-1.4s1-.4 1.4 0l3.5 3.5c.4.4.4 1 0 1.4-.2.2-.5.3-.7.3M715.1 412c-.3 0-.5-.1-.7-.3l-3.5-3.5c-.4-.4-.4-1 0-1.4s1-.4 1.4 0l3.5 3.5c.4.4.4 1 0 1.4-.2.2-.5.3-.7.3m-10.6-10.5c-.3 0-.5-.1-.7-.3l-3.5-3.5c-.4-.4-.4-1 0-1.4s1-.4 1.4 0l3.5 3.5c.4.4.4 1 0 1.4-.2.2-.4.3-.7.3M694 391c-.3 0-.5-.1-.7-.3l-3.5-3.5c-.4-.4-.4-1 0-1.4s1-.4 1.4 0l3.5 3.5c.4.4.4 1 0 1.4-.2.2-.4.3-.7.3m-10.5-10.6c-.3 0-.5-.1-.7-.3l-3.5-3.5c-.4-.4-.4-1 0-1.4s1-.4 1.4 0l3.5 3.5c.4.4.4 1 0 1.4-.2.2-.5.3-.7.3M673 369.9c-.3 0-.5-.1-.7-.3l-3.5-3.5c-.4-.4-.4-1 0-1.4s1-.4 1.4 0l3.5 3.5c.4.4.4 1 0 1.4-.2.2-.5.3-.7.3m-10.6-10.5c-.3 0-.5-.1-.7-.3l-3.5-3.5c-.4-.4-.4-1 0-1.4s1-.4 1.4 0l3.5 3.5c.4.4.4 1 0 1.4-.2.2-.4.3-.7.3m-10.5-10.5c-.3 0-.5-.1-.7-.3l-3.5-3.5c-.4-.4-.4-1 0-1.4s1-.4 1.4 0l3.5 3.5c.4.4.4 1 0 1.4-.2.2-.4.3-.7.3m-10.5-10.6c-.3 0-.5-.1-.7-.3l-3.5-3.5c-.4-.4-.4-1 0-1.4s1-.4 1.4 0l3.5 3.5c.4.4.4 1 0 1.4-.2.2-.5.3-.7.3m-10.5-10.5c-.3 0-.5-.1-.7-.3l-3.5-3.5c-.4-.4-.4-1 0-1.4s1-.4 1.4 0l3.5 3.5c.4.4.4 1 0 1.4-.2.2-.5.3-.7.3m-10.6-10.5c-.3 0-.5-.1-.7-.3l-3.5-3.5c-.4-.4-.4-1 0-1.4s1-.4 1.4 0l3.5 3.5c.4.4.4 1 0 1.4-.2.2-.4.3-.7.3m-10.5-10.5c-.3 0-.5-.1-.7-.3l-3.5-3.5c-.4-.4-.4-1 0-1.4s1-.4 1.4 0l3.5 3.5c.4.4.4 1 0 1.4-.2.2-.4.3-.7.3m-10.5-10.6c-.3 0-.5-.1-.7-.3l-3.5-3.5c-.4-.4-.4-1 0-1.4s1-.4 1.4 0l3.5 3.5c.4.4.4 1 0 1.4-.2.3-.5.3-.7.3m-10.5-10.5c-.3 0-.5-.1-.7-.3l-3.5-3.5c-.4-.4-.4-1 0-1.4s1-.4 1.4 0l3.5 3.5c.4.4.4 1 0 1.4-.2.2-.5.3-.7.3m-10.6-10.5c-.3 0-.5-.1-.7-.3l-3.5-3.5c-.4-.4-.4-1 0-1.4s1-.4 1.4 0l3.5 3.5c.4.4.4 1 0 1.4-.2.2-.4.3-.7.3m-10.5-10.5c-.3 0-.5-.1-.7-.3l-3.5-3.5c-.4-.4-.4-1 0-1.4s1-.4 1.4 0l3.5 3.5c.4.4.4 1 0 1.4-.2.2-.4.3-.7.3m-10.5-10.5c-.3 0-.5-.1-.7-.3l-3.5-3.5c-.4-.4-.4-1 0-1.4s1-.4 1.4 0l3.5 3.5c.4.4.4 1 0 1.4-.2.2-.5.3-.7.3m-10.5-10.6c-.3 0-.5-.1-.7-.3l-3.5-3.5c-.4-.4-.4-1 0-1.4s1-.4 1.4 0l3.5 3.5c.4.4.4 1 0 1.4-.2.2-.5.3-.7.3m-10.6-10.5c-.3 0-.5-.1-.7-.3l-3.5-3.5c-.4-.4-.4-1 0-1.4s1-.4 1.4 0l3.5 3.5c.4.4.4 1 0 1.4-.1.2-.4.3-.7.3m-10.5-10.5c-.3 0-.5-.1-.7-.3l-3.5-3.5c-.4-.4-.4-1 0-1.4s1-.4 1.4 0l3.5 3.5c.4.4.4 1 0 1.4-.2.2-.4.3-.7.3m-10.5-10.5c-.3 0-.5-.1-.7-.3l-3.5-3.5c-.4-.4-.4-1 0-1.4s1-.4 1.4 0l3.5 3.5c.4.4.4 1 0 1.4-.2.2-.5.3-.7.3m-10.5-10.6c-.3 0-.5-.1-.7-.3l-3.5-3.5c-.4-.4-.4-1 0-1.4s1-.4 1.4 0l3.5 3.5c.4.4.4 1 0 1.4-.2.2-.5.3-.7.3M494 191c-.3 0-.5-.1-.7-.3l-3.5-3.5c-.4-.4-.4-1 0-1.4s1-.4 1.4 0l3.5 3.5c.4.4.4 1 0 1.4-.1.2-.4.3-.7.3m-10.5-10.5c-.3 0-.5-.1-.7-.3l-3.5-3.5c-.4-.4-.4-1 0-1.4s1-.4 1.4 0l3.5 3.5c.4.4.4 1 0 1.4-.2.2-.4.3-.7.3M473 170c-.3 0-.5-.1-.7-.3l-3.5-3.5c-.4-.4-.4-1 0-1.4s1-.4 1.4 0l3.5 3.5c.4.4.4 1 0 1.4-.2.2-.5.3-.7.3m-10.5-10.6c-.3 0-.5-.1-.7-.3l-3.5-3.5c-.4-.4-.4-1 0-1.4s1-.4 1.4 0l3.5 3.5c.4.4.4 1 0 1.4-.2.2-.5.3-.7.3m-10.6-10.5c-.3 0-.5-.1-.7-.3l-3.5-3.5c-.4-.4-.4-1 0-1.4s1-.4 1.4 0l3.5 3.5c.4.4.4 1 0 1.4-.1.2-.4.3-.7.3m-10.5-10.5c-.3 0-.5-.1-.7-.3l-3.5-3.5c-.4-.4-.4-1 0-1.4s1-.4 1.4 0l3.5 3.5c.4.4.4 1 0 1.4-.2.2-.4.3-.7.3m-10.5-10.5c-.3 0-.5-.1-.7-.3l-1.8-1.8c-.4-.4-.4-1 0-1.4s1-.4 1.4 0l1.8 1.8c.4.4.4 1 0 1.4-.2.2-.4.3-.7.3"/><path fill="#f4b8dd" d="M937.1 484.2 428.9 273.7"/><path fill="#f998d0" d="M937.1 485.2c-.1 0-.3 0-.4-.1l-2.3-1c-.5-.2-.8-.8-.5-1.3.2-.5.8-.8 1.3-.5l2.3 1c.5.2.8.8.5 1.3-.2.4-.6.6-.9.6m-11.5-4.8c-.1 0-.3 0-.4-.1l-4.6-1.9c-.5-.2-.8-.8-.5-1.3s.8-.8 1.3-.5l4.6 1.9c.5.2.8.8.5 1.3-.1.4-.5.6-.9.6m-13.7-5.6c-.1 0-.3 0-.4-.1l-4.6-1.9c-.5-.2-.8-.8-.5-1.3.2-.5.8-.8 1.3-.5l4.6 1.9c.5.2.8.8.5 1.3-.2.3-.5.6-.9.6m-13.8-5.7c-.1 0-.3 0-.4-.1l-4.6-1.9c-.5-.2-.8-.8-.5-1.3.2-.5.8-.8 1.3-.5l4.6 1.9c.5.2.8.8.5 1.3-.1.3-.5.6-.9.6m-13.7-5.7c-.1 0-.3 0-.4-.1l-4.6-1.9c-.5-.2-.8-.8-.5-1.3s.8-.8 1.3-.5l4.6 1.9c.5.2.8.8.5 1.3-.1.4-.5.6-.9.6m-13.7-5.7c-.1 0-.3 0-.4-.1l-4.6-1.9c-.5-.2-.8-.8-.5-1.3s.8-.8 1.3-.5l4.6 1.9c.5.2.8.8.5 1.3q-.3.6-.9.6m-13.8-5.7c-.1 0-.3 0-.4-.1L852 450c-.5-.2-.8-.8-.5-1.3s.8-.8 1.3-.5l4.6 1.9c.5.2.8.8.5 1.3-.2.4-.6.6-1 .6m-13.7-5.7c-.1 0-.3 0-.4-.1l-4.6-1.9c-.5-.2-.8-.8-.5-1.3.2-.5.8-.8 1.3-.5l4.6 1.9c.5.2.8.8.5 1.3-.1.4-.5.6-.9.6m-13.7-5.7c-.1 0-.3 0-.4-.1l-4.6-1.9c-.5-.2-.8-.8-.5-1.3.2-.5.8-.8 1.3-.5l4.6 1.9c.5.2.8.8.5 1.3q-.3.6-.9.6m-13.8-5.7c-.1 0-.3 0-.4-.1l-4.6-1.9c-.5-.2-.8-.8-.5-1.3.2-.5.8-.8 1.3-.5l4.6 1.9c.5.2.8.8.5 1.3-.1.4-.5.6-.9.6m-13.7-5.6c-.1 0-.3 0-.4-.1l-4.6-1.9c-.5-.2-.8-.8-.5-1.3s.8-.8 1.3-.5l4.6 1.9c.5.2.8.8.5 1.3-.1.3-.5.6-.9.6m-13.7-5.7c-.1 0-.3 0-.4-.1l-4.6-1.9c-.5-.2-.8-.8-.5-1.3s.8-.8 1.3-.5l4.6 1.9c.5.2.8.8.5 1.3-.2.3-.5.6-.9.6m-13.8-5.7c-.1 0-.3 0-.4-.1l-4.6-1.9c-.5-.2-.8-.8-.5-1.3s.8-.8 1.3-.5l4.6 1.9c.5.2.8.8.5 1.3-.1.3-.5.6-.9.6m-13.7-5.7c-.1 0-.3 0-.4-.1l-4.6-1.9c-.5-.2-.8-.8-.5-1.3.2-.5.8-.8 1.3-.5l4.6 1.9c.5.2.8.8.5 1.3-.1.4-.5.6-.9.6m-13.7-5.7c-.1 0-.3 0-.4-.1l-4.6-1.9c-.5-.2-.8-.8-.5-1.3s.8-.8 1.3-.5l4.6 1.9c.5.2.8.8.5 1.3q-.3.6-.9.6m-13.8-5.7c-.1 0-.3 0-.4-.1l-4.6-1.9c-.5-.2-.8-.8-.5-1.3s.8-.8 1.3-.5l4.6 1.9c.5.2.8.8.5 1.3-.1.4-.5.6-.9.6m-13.7-5.7c-.1 0-.3 0-.4-.1l-4.6-1.9c-.5-.2-.8-.8-.5-1.3s.8-.8 1.3-.5l4.6 1.9c.5.2.8.8.5 1.3-.1.4-.5.6-.9.6m-13.7-5.7c-.1 0-.3 0-.4-.1l-4.6-1.9c-.5-.2-.8-.8-.5-1.3s.8-.8 1.3-.5l4.6 1.9c.5.2.8.8.5 1.3-.1.4-.5.6-.9.6m-13.7-5.6c-.1 0-.3 0-.4-.1l-4.6-1.9c-.5-.2-.8-.8-.5-1.3.2-.5.8-.8 1.3-.5l4.6 1.9c.5.2.8.8.5 1.3-.2.3-.6.6-.9.6m-13.8-5.7c-.1 0-.3 0-.4-.1l-4.6-1.9c-.5-.2-.8-.8-.5-1.3.2-.5.8-.8 1.3-.5l4.6 1.9c.5.2.8.8.5 1.3-.1.3-.5.6-.9.6m-13.7-5.7c-.1 0-.3 0-.4-.1l-4.6-1.9c-.5-.2-.8-.8-.5-1.3.2-.5.8-.8 1.3-.5l4.6 1.9c.5.2.8.8.5 1.3-.1.3-.5.6-.9.6m-13.7-5.7c-.1 0-.3 0-.4-.1l-4.6-1.9c-.5-.2-.8-.8-.5-1.3s.8-.8 1.3-.5l4.6 1.9c.5.2.8.8.5 1.3q-.3.6-.9.6m-13.8-5.7c-.1 0-.3 0-.4-.1l-4.6-1.9c-.5-.2-.8-.8-.5-1.3.2-.5.8-.8 1.3-.5l4.6 1.9c.5.2.8.8.5 1.3-.1.4-.5.6-.9.6m-13.7-5.7c-.1 0-.3 0-.4-.1l-4.6-1.9c-.5-.2-.8-.8-.5-1.3.2-.5.8-.8 1.3-.5l4.6 1.9c.5.2.8.8.5 1.3-.1.4-.5.6-.9.6m-13.7-5.7c-.1 0-.3 0-.4-.1l-4.6-1.9c-.5-.2-.8-.8-.5-1.3.2-.5.8-.8 1.3-.5l4.6 1.9c.5.2.8.8.5 1.3q-.3.6-.9.6m-13.8-5.7c-.1 0-.3 0-.4-.1l-4.6-1.9c-.5-.2-.8-.8-.5-1.3s.8-.8 1.3-.5l4.6 1.9c.5.2.8.8.5 1.3-.1.4-.5.6-.9.6m-13.7-5.6c-.1 0-.3 0-.4-.1l-4.6-1.9c-.5-.2-.8-.8-.5-1.3.2-.5.8-.8 1.3-.5l4.6 1.9c.5.2.8.8.5 1.3-.1.3-.5.6-.9.6m-13.7-5.7c-.1 0-.3 0-.4-.1l-4.6-1.9c-.5-.2-.8-.8-.5-1.3.2-.5.8-.8 1.3-.5l4.6 1.9c.5.2.8.8.5 1.3-.2.3-.5.6-.9.6m-13.8-5.7c-.1 0-.3 0-.4-.1l-4.6-1.9c-.5-.2-.8-.8-.5-1.3.2-.5.8-.8 1.3-.5l4.6 1.9c.5.2.8.8.5 1.3-.1.3-.5.6-.9.6m-13.7-5.7c-.1 0-.3 0-.4-.1l-4.6-1.9c-.5-.2-.8-.8-.5-1.3.2-.5.8-.8 1.3-.5l4.6 1.9c.5.2.8.8.5 1.3-.1.4-.5.6-.9.6m-13.7-5.7c-.1 0-.3 0-.4-.1l-4.6-1.9c-.5-.2-.8-.8-.5-1.3.2-.5.8-.8 1.3-.5l4.6 1.9c.5.2.8.8.5 1.3q-.3.6-.9.6m-13.8-5.7c-.1 0-.3 0-.4-.1l-4.6-1.9c-.5-.2-.8-.8-.5-1.3s.8-.8 1.3-.5l4.6 1.9c.5.2.8.8.5 1.3-.1.4-.5.6-.9.6m-13.7-5.7c-.1 0-.3 0-.4-.1l-4.6-1.9c-.5-.2-.8-.8-.5-1.3s.8-.8 1.3-.5l4.6 1.9c.5.2.8.8.5 1.3-.1.4-.5.6-.9.6m-13.7-5.7c-.1 0-.3 0-.4-.1l-4.6-1.9c-.5-.2-.8-.8-.5-1.3.2-.5.8-.8 1.3-.5l4.6 1.9c.5.2.8.8.5 1.3q-.3.6-.9.6m-13.8-5.6c-.1 0-.3 0-.4-.1l-4.6-1.9c-.5-.2-.8-.8-.5-1.3.2-.5.8-.8 1.3-.5l4.6 1.9c.5.2.8.8.5 1.3-.1.3-.5.6-.9.6m-13.7-5.7c-.1 0-.3 0-.4-.1l-4.6-1.9c-.5-.2-.8-.8-.5-1.3.2-.5.8-.8 1.3-.5l4.6 1.9c.5.2.8.8.5 1.3-.1.3-.5.6-.9.6m-13.7-5.7c-.1 0-.3 0-.4-.1l-4.6-1.9c-.5-.2-.8-.8-.5-1.3.2-.5.8-.8 1.3-.5l4.6 1.9c.5.2.8.8.5 1.3-.1.3-.5.6-.9.6m-13.7-5.7c-.1 0-.3 0-.4-.1l-2.3-1c-.5-.2-.8-.8-.5-1.3.2-.5.8-.8 1.3-.5l2.3 1c.5.2.8.8.5 1.3-.2.4-.6.6-.9.6"/><circle cx="683" cy="379" r="23.2" fill="#f9d2ec"/><path fill="#ff1493" d="M434.9 380.5h-6c-.8 0-1.5-.7-1.5-1.5s.7-1.5 1.5-1.5h6c.8 0 1.5.7 1.5 1.5s-.6 1.5-1.5 1.5m484.1 0h-12.1c-.8 0-1.5-.7-1.5-1.5s.7-1.5 1.5-1.5H919c.8 0 1.5.7 1.5 1.5s-.7 1.5-1.5 1.5m-24.2 0h-12.1c-.8 0-1.5-.7-1.5-1.5s.7-1.5 1.5-1.5h12.1c.8 0 1.5.7 1.5 1.5s-.7 1.5-1.5 1.5m-24.2 0h-12.1c-.8 0-1.5-.7-1.5-1.5s.7-1.5 1.5-1.5h12.1c.8 0 1.5.7 1.5 1.5s-.7 1.5-1.5 1.5m-24.2 0h-12.1c-.8 0-1.5-.7-1.5-1.5s.7-1.5 1.5-1.5h12.1c.8 0 1.5.7 1.5 1.5s-.7 1.5-1.5 1.5m-24.2 0h-12.1c-.8 0-1.5-.7-1.5-1.5s.7-1.5 1.5-1.5h12.1c.8 0 1.5.7 1.5 1.5s-.7 1.5-1.5 1.5m-24.2 0h-12.1c-.8 0-1.5-.7-1.5-1.5s.7-1.5 1.5-1.5H798c.8 0 1.5.7 1.5 1.5s-.7 1.5-1.5 1.5m-24.2 0h-12.1c-.8 0-1.5-.7-1.5-1.5s.7-1.5 1.5-1.5h12.1c.8 0 1.5.7 1.5 1.5s-.7 1.5-1.5 1.5m-24.2 0h-12.1c-.8 0-1.5-.7-1.5-1.5s.7-1.5 1.5-1.5h12.1c.8 0 1.5.7 1.5 1.5s-.7 1.5-1.5 1.5m-24.2 0h-12.1c-.8 0-1.5-.7-1.5-1.5s.7-1.5 1.5-1.5h12.1c.8 0 1.5.7 1.5 1.5s-.7 1.5-1.5 1.5m-24.2 0H689c-.8 0-1.5-.7-1.5-1.5s.7-1.5 1.5-1.5h12.1c.8 0 1.5.7 1.5 1.5s-.6 1.5-1.4 1.5m-24.2 0h-12.1c-.8 0-1.5-.7-1.5-1.5s.7-1.5 1.5-1.5H677c.8 0 1.5.7 1.5 1.5s-.7 1.5-1.5 1.5m-24.3 0h-12.1c-.8 0-1.5-.7-1.5-1.5s.7-1.5 1.5-1.5h12.1c.8 0 1.5.7 1.5 1.5s-.6 1.5-1.5 1.5m-24.2 0h-12.1c-.8 0-1.5-.7-1.5-1.5s.7-1.5 1.5-1.5h12.1c.8 0 1.5.7 1.5 1.5s-.6 1.5-1.5 1.5m-24.2 0h-12.1c-.8 0-1.5-.7-1.5-1.5s.7-1.5 1.5-1.5h12.1c.8 0 1.5.7 1.5 1.5s-.6 1.5-1.5 1.5m-24.2 0H568c-.8 0-1.5-.7-1.5-1.5s.7-1.5 1.5-1.5h12.1c.8 0 1.5.7 1.5 1.5s-.6 1.5-1.5 1.5m-24.2 0h-12.1c-.8 0-1.5-.7-1.5-1.5s.7-1.5 1.5-1.5h12.1c.8 0 1.5.7 1.5 1.5s-.6 1.5-1.5 1.5m-24.2 0h-12.1c-.8 0-1.5-.7-1.5-1.5s.7-1.5 1.5-1.5h12.1c.8 0 1.5.7 1.5 1.5s-.6 1.5-1.5 1.5m-24.2 0h-12.1c-.8 0-1.5-.7-1.5-1.5s.7-1.5 1.5-1.5h12.1c.8 0 1.5.7 1.5 1.5s-.6 1.5-1.5 1.5m-24.2 0h-12.1c-.8 0-1.5-.7-1.5-1.5s.7-1.5 1.5-1.5h12.1c.8 0 1.5.7 1.5 1.5s-.6 1.5-1.5 1.5m-24.2 0H447c-.8 0-1.5-.7-1.5-1.5s.7-1.5 1.5-1.5h12.1c.8 0 1.5.7 1.5 1.5s-.6 1.5-1.5 1.5m478 0h-6c-.8 0-1.5-.7-1.5-1.5s.7-1.5 1.5-1.5h6c.8 0 1.5.7 1.5 1.5s-.7 1.5-1.5 1.5"/><path fill="#f4b8dd" d="M683 630.3V127.6"/><path fill="#ff1493" d="M683 631.8c-.8 0-1.5-.7-1.5-1.5v-6c0-.8.7-1.5 1.5-1.5s1.5.7 1.5 1.5v6c0 .8-.7 1.5-1.5 1.5m0-18c-.8 0-1.5-.7-1.5-1.5v-12c0-.8.7-1.5 1.5-1.5s1.5.7 1.5 1.5v12c0 .8-.7 1.5-1.5 1.5m0-23.9c-.8 0-1.5-.7-1.5-1.5v-12c0-.8.7-1.5 1.5-1.5s1.5.7 1.5 1.5v12c0 .8-.7 1.5-1.5 1.5m0-23.9c-.8 0-1.5-.7-1.5-1.5v-12c0-.8.7-1.5 1.5-1.5s1.5.7 1.5 1.5v12c0 .8-.7 1.5-1.5 1.5m0-24c-.8 0-1.5-.7-1.5-1.5v-12c0-.8.7-1.5 1.5-1.5s1.5.7 1.5 1.5v12c0 .8-.7 1.5-1.5 1.5m0-23.9c-.8 0-1.5-.7-1.5-1.5v-12c0-.8.7-1.5 1.5-1.5s1.5.7 1.5 1.5v12c0 .8-.7 1.5-1.5 1.5m0-24c-.8 0-1.5-.7-1.5-1.5v-12c0-.8.7-1.5 1.5-1.5s1.5.7 1.5 1.5v12c0 .9-.7 1.5-1.5 1.5m0-23.9c-.8 0-1.5-.7-1.5-1.5v-12c0-.8.7-1.5 1.5-1.5s1.5.7 1.5 1.5v12c0 .8-.7 1.5-1.5 1.5m0-23.9c-.8 0-1.5-.7-1.5-1.5v-12c0-.8.7-1.5 1.5-1.5s1.5.7 1.5 1.5v12c0 .8-.7 1.5-1.5 1.5m0-24c-.8 0-1.5-.7-1.5-1.5v-12c0-.8.7-1.5 1.5-1.5s1.5.7 1.5 1.5v12c0 .9-.7 1.5-1.5 1.5m0-23.9c-.8 0-1.5-.7-1.5-1.5v-12c0-.8.7-1.5 1.5-1.5s1.5.7 1.5 1.5v12c0 .8-.7 1.5-1.5 1.5m0-23.9c-.8 0-1.5-.7-1.5-1.5v-12c0-.8.7-1.5 1.5-1.5s1.5.7 1.5 1.5v12c0 .8-.7 1.5-1.5 1.5m0-24c-.8 0-1.5-.7-1.5-1.5v-12c0-.8.7-1.5 1.5-1.5s1.5.7 1.5 1.5v12c0 .9-.7 1.5-1.5 1.5m0-23.9c-.8 0-1.5-.7-1.5-1.5v-12c0-.8.7-1.5 1.5-1.5s1.5.7 1.5 1.5v12c0 .8-.7 1.5-1.5 1.5m0-23.9c-.8 0-1.5-.7-1.5-1.5v-12c0-.8.7-1.5 1.5-1.5s1.5.7 1.5 1.5v12c0 .8-.7 1.5-1.5 1.5m0-24c-.8 0-1.5-.7-1.5-1.5v-12c0-.8.7-1.5 1.5-1.5s1.5.7 1.5 1.5v12c0 .9-.7 1.5-1.5 1.5m0-23.9c-.8 0-1.5-.7-1.5-1.5v-12c0-.8.7-1.5 1.5-1.5s1.5.7 1.5 1.5v12c0 .8-.7 1.5-1.5 1.5m0-23.9c-.8 0-1.5-.7-1.5-1.5v-12c0-.8.7-1.5 1.5-1.5s1.5.7 1.5 1.5v12c0 .8-.7 1.5-1.5 1.5m0-24c-.8 0-1.5-.7-1.5-1.5v-12c0-.8.7-1.5 1.5-1.5s1.5.7 1.5 1.5v12c0 .9-.7 1.5-1.5 1.5m0-23.9c-.8 0-1.5-.7-1.5-1.5v-12c0-.8.7-1.5 1.5-1.5s1.5.7 1.5 1.5v12c0 .8-.7 1.5-1.5 1.5m0-23.9c-.8 0-1.5-.7-1.5-1.5v-12c0-.8.7-1.5 1.5-1.5s1.5.7 1.5 1.5v12c0 .8-.7 1.5-1.5 1.5m0-24c-.8 0-1.5-.7-1.5-1.5v-6c0-.8.7-1.5 1.5-1.5s1.5.7 1.5 1.5v6c0 .9-.7 1.5-1.5 1.5"/><path fill="#ff1493" d="M936.6 635.3H429.4c-1.4 0-2.5-1.1-2.5-2.5V125.5c0-1.4 1.1-2.5 2.5-2.5h507.3c1.4 0 2.5 1.1 2.5 2.5v507.3c-.1 1.4-1.2 2.5-2.6 2.5m-504.7-5h502.3V128H431.9Z"/><path d="M100.6 150.8c-1.6-.8-2.8-2-3.7-3.5s-1.3-3.2-1.3-5.1.4-3.6 1.3-5.1 2.1-2.7 3.7-3.5 3.4-1.3 5.4-1.3c1.9 0 3.6.4 5 1.2s2.5 1.9 3.2 3.3l-3.5 2c-.6-.9-1.2-1.6-2.1-2-.8-.4-1.7-.7-2.7-.7-1.7 0-3.1.5-4.2 1.6s-1.7 2.6-1.7 4.4.5 3.3 1.6 4.4 2.5 1.6 4.2 1.6c1 0 1.9-.2 2.7-.7.8-.4 1.5-1.1 2.1-2l3.5 2c-.7 1.4-1.8 2.6-3.3 3.3-1.4.8-3.1 1.2-5 1.2-1.8.2-3.6-.3-5.2-1.1m20.6 0c-1.6-.8-2.8-2-3.7-3.5s-1.3-3.2-1.3-5.1.4-3.6 1.3-5.1 2.1-2.7 3.7-3.5 3.3-1.3 5.3-1.3 3.7.4 5.3 1.3c1.6.8 2.8 2 3.7 3.5s1.3 3.2 1.3 5.1-.4 3.6-1.3 5.1-2.1 2.7-3.7 3.5-3.3 1.3-5.3 1.3-3.8-.5-5.3-1.3m9.3-4.3c1.1-1.1 1.6-2.6 1.6-4.4s-.5-3.3-1.6-4.4-2.4-1.7-4.1-1.7-3 .6-4.1 1.7-1.6 2.6-1.6 4.4.5 3.3 1.6 4.4 2.4 1.7 4.1 1.7 3-.6 4.1-1.7m27.2-12c1.5 1.4 2.2 3.5 2.2 6.3v11h-4.5v-10.4c0-1.7-.4-2.9-1.2-3.8s-1.9-1.3-3.4-1.3q-2.55 0-3.9 1.5c-1 1-1.4 2.4-1.4 4.3v9.7H141v-19.2h4.3v2.5c.7-.9 1.7-1.6 2.8-2 1.1-.5 2.4-.7 3.8-.7 2.4 0 4.4.7 5.8 2.1m19.5 16.3c-.5.4-1.2.8-1.9 1q-1.2.3-2.4.3c-2.1 0-3.7-.6-4.9-1.7s-1.7-2.7-1.7-4.8v-9.3h-3.2v-3.6h3.2v-4.4h4.5v4.4h5.1v3.6h-5.1v9.1c0 .9.2 1.7.7 2.1.5.5 1.1.7 2 .7 1 0 1.8-.3 2.5-.8Zm17.6-16.4c1.5 1.4 2.2 3.4 2.2 6.1v11.3h-4.2v-2.3c-.6.8-1.3 1.5-2.4 1.9-1 .4-2.2.7-3.7.7s-2.7-.2-3.8-.7-1.9-1.2-2.5-2.1q-.9-1.35-.9-3c0-1.7.6-3.1 1.9-4.2 1.3-1 3.3-1.6 6.1-1.6h5v-.3c0-1.3-.4-2.4-1.2-3.1s-2-1.1-3.6-1.1c-1.1 0-2.1.2-3.2.5-1 .3-1.9.8-2.6 1.4l-1.8-3.3q1.5-1.2 3.6-1.8t4.5-.6c2.9.2 5.1.8 6.6 2.2m-4.2 13.6c.9-.5 1.5-1.3 1.9-2.2v-2.2h-4.6c-2.6 0-3.9.9-3.9 2.6 0 .8.3 1.5 1 1.9.6.5 1.5.7 2.7.7 1.1 0 2.1-.3 2.9-.8m12.4-19.4c-.6-.5-.8-1.2-.8-1.9s.3-1.4.8-1.9c.6-.5 1.2-.8 2.1-.8.8 0 1.5.2 2.1.7s.8 1.1.8 1.9-.3 1.5-.8 2-1.2.8-2.1.8-1.6-.2-2.1-.8m-.2 4h4.5v19.2h-4.5Zm27.1 1.9c1.5 1.4 2.2 3.5 2.2 6.3v11h-4.5v-10.4c0-1.7-.4-2.9-1.2-3.8s-1.9-1.3-3.4-1.3q-2.55 0-3.9 1.5c-1 1-1.4 2.4-1.4 4.3v9.7h-4.5v-19.2h4.3v2.5c.7-.9 1.7-1.6 2.8-2 1.1-.5 2.4-.7 3.8-.7 2.4 0 4.3.7 5.8 2.1m26.1 9.1h-15.1c.3 1.4 1 2.5 2.1 3.4q1.65 1.2 4.2 1.2c2.1 0 3.9-.7 5.2-2.1l2.4 2.8c-.9 1-2 1.8-3.3 2.3s-2.8.8-4.5.8c-2.1 0-4-.4-5.6-1.3-1.6-.8-2.9-2-3.7-3.5-.9-1.5-1.3-3.2-1.3-5.1s.4-3.6 1.3-5.1 2-2.7 3.5-3.5 3.2-1.3 5.1-1.3 3.5.4 5 1.2 2.6 2 3.5 3.5c.8 1.5 1.2 3.2 1.2 5.2q.15.75 0 1.5m-13.3-6.4c-1 .9-1.6 2-1.8 3.4h10.9c-.2-1.4-.8-2.5-1.8-3.4s-2.2-1.3-3.7-1.3c-1.4.1-2.6.5-3.6 1.3m28.8-4.8v4.3c-.4-.1-.7-.1-1-.1-1.8 0-3.1.5-4.1 1.5s-1.5 2.5-1.5 4.4v9.3h-4.5v-19.2h4.3v2.8c1.3-2 3.6-3 6.8-3M283.413 144.944l.237-2.99 145.547 11.503-.236 2.991Z"/><path fill="#cfd9ff" d="M683 130h249v249H683Z"/><path fill="#3976b2" d="M932 381H683c-1.1 0-2-.9-2-2V130c0-1.1.9-2 2-2h249c1.1 0 2 .9 2 2v249c0 1.1-.9 2-2 2m-247-4h245V132H685Z"/><path d="M994 468.2q-2.25-.6-3.6-1.5l1.7-3.4c.9.6 1.9 1 3.1 1.4 1.2.3 2.4.5 3.6.5 2.7 0 4-.7 4-2.1 0-.7-.3-1.1-1-1.4s-1.8-.5-3.3-.8c-1.6-.2-2.9-.5-3.9-.8s-1.9-.9-2.6-1.6c-.7-.8-1.1-1.9-1.1-3.3 0-1.8.8-3.3 2.3-4.4s3.6-1.6 6.2-1.6c1.3 0 2.6.1 4 .4 1.3.3 2.4.7 3.2 1.2l-1.7 3.4c-1.6-1-3.5-1.4-5.5-1.4q-1.95 0-3 .6c-.7.4-1 .9-1 1.6s.4 1.2 1.1 1.5 1.9.6 3.4.8 2.8.5 3.8.8 1.8.8 2.5 1.6 1.1 1.8 1.1 3.2c0 1.8-.8 3.2-2.3 4.3-1.6 1.1-3.7 1.6-6.4 1.6-1.5 0-3.1-.2-4.6-.6m17.4-22.8c-.6-.5-.8-1.2-.8-1.9 0-.8.3-1.4.8-1.9.6-.5 1.2-.8 2.1-.8.8 0 1.5.2 2.1.7s.8 1.1.8 1.9-.3 1.5-.8 2-1.2.8-2.1.8c-.8 0-1.5-.3-2.1-.8m-.2 4h4.5v19.2h-4.5Zm27.2 1.9c1.5 1.4 2.2 3.5 2.2 6.3v11h-4.5v-10.4c0-1.7-.4-2.9-1.2-3.8s-1.9-1.3-3.4-1.3q-2.55 0-3.9 1.5c-1 1-1.4 2.4-1.4 4.3v9.7h-4.5v-19.2h4.3v2.5c.7-.9 1.7-1.6 2.8-2 1.1-.5 2.4-.7 3.8-.7 2.4 0 4.3.7 5.8 2.1m27.1-1.9v16.3c0 6.8-3.5 10.2-10.4 10.2-1.8 0-3.6-.2-5.3-.7s-3-1.1-4.1-2l2-3.4c.8.7 1.9 1.3 3.2 1.7q1.95.6 3.9.6c2.1 0 3.7-.5 4.6-1.4 1-1 1.5-2.4 1.5-4.4v-1c-.8.8-1.7 1.5-2.8 1.9q-1.65.6-3.6.6c-1.8 0-3.5-.4-5-1.2s-2.6-1.9-3.5-3.3-1.3-3-1.3-4.9.4-3.4 1.3-4.8 2-2.5 3.5-3.3 3.1-1.2 5-1.2c1.4 0 2.7.2 3.8.7s2.1 1.2 2.9 2.1v-2.6h4.3Zm-6 13c1.1-1 1.6-2.3 1.6-4 0-1.6-.5-2.9-1.6-3.9s-2.5-1.5-4.2-1.5q-2.55 0-4.2 1.5c-1.65 1.5-1.6 2.3-1.6 3.9s.5 3 1.6 4 2.5 1.5 4.2 1.5q2.55 0 4.2-1.5m11.9-20.5h4.5v26.7h-4.5Zm28.4 18.5h-15.1c.3 1.4 1 2.5 2.1 3.4s2.5 1.2 4.2 1.2c2.1 0 3.9-.7 5.2-2.1l2.4 2.8c-.9 1-2 1.8-3.3 2.3s-2.8.8-4.5.8c-2.1 0-4-.4-5.6-1.3-1.6-.8-2.9-2-3.7-3.5s-1.3-3.2-1.3-5.1.4-3.6 1.3-5.1 2-2.7 3.5-3.5 3.2-1.3 5.1-1.3 3.5.4 5 1.2 2.6 2 3.5 3.5c.8 1.5 1.2 3.2 1.2 5.2.1.5.1.9 0 1.5m-13.3-6.4c-1 .9-1.6 2-1.8 3.4h10.9c-.2-1.4-.8-2.5-1.8-3.4s-2.2-1.3-3.7-1.3c-1.3.1-2.6.5-3.6 1.3m45.7 6.4h-15.1c.3 1.4 1 2.5 2.1 3.4s2.5 1.2 4.2 1.2c2.1 0 3.9-.7 5.2-2.1l2.4 2.8c-.9 1-2 1.8-3.3 2.3s-2.8.8-4.5.8c-2.1 0-4-.4-5.6-1.3-1.6-.8-2.9-2-3.7-3.5s-1.3-3.2-1.3-5.1.4-3.6 1.3-5.1 2-2.7 3.5-3.5 3.2-1.3 5.1-1.3 3.5.4 5 1.2 2.6 2 3.5 3.5c.8 1.5 1.2 3.2 1.2 5.2Zm-13.3-6.4c-1 .9-1.6 2-1.8 3.4h10.9c-.2-1.4-.8-2.5-1.8-3.4s-2.2-1.3-3.7-1.3c-1.4.1-2.6.5-3.6 1.3m17.7-12.1h4.5v26.7h-4.5Zm28.4 18.5h-15.1c.3 1.4 1 2.5 2.1 3.4s2.5 1.2 4.2 1.2c2.1 0 3.9-.7 5.2-2.1l2.4 2.8c-.9 1-2 1.8-3.3 2.3s-2.8.8-4.5.8c-2.1 0-4-.4-5.6-1.3-1.6-.8-2.9-2-3.7-3.5s-1.3-3.2-1.3-5.1.4-3.6 1.3-5.1 2-2.7 3.5-3.5 3.2-1.3 5.1-1.3 3.5.4 5 1.2 2.6 2 3.5 3.5c.8 1.5 1.2 3.2 1.2 5.2Zm-13.3-6.4c-1 .9-1.6 2-1.8 3.4h10.9c-.2-1.4-.8-2.5-1.8-3.4s-2.2-1.3-3.7-1.3c-1.4.1-2.6.5-3.6 1.3m47.7-2.7q2.1 2.1 2.1 6.3v11h-4.5v-10.4c0-1.7-.4-2.9-1.1-3.8s-1.8-1.3-3.2-1.3q-2.25 0-3.6 1.5c-1.35 1.5-1.4 2.4-1.4 4.3v9.8h-4.5v-10.4c0-1.7-.4-2.9-1.1-3.8s-1.8-1.3-3.2-1.3c-1.5 0-2.8.5-3.7 1.5s-1.3 2.4-1.3 4.3v9.8h-4.5v-19.2h4.3v2.4c.7-.9 1.6-1.5 2.7-2s2.3-.7 3.6-.7c1.4 0 2.7.3 3.8.8s2 1.3 2.6 2.4c.8-1 1.8-1.8 3.1-2.4 1.2-.6 2.6-.8 4.1-.8 2.4-.1 4.4.6 5.8 2m26 9.1h-15.1c.3 1.4 1 2.5 2.1 3.4s2.5 1.2 4.2 1.2c2.1 0 3.9-.7 5.2-2.1l2.4 2.8c-.9 1-2 1.8-3.3 2.3s-2.8.8-4.5.8c-2.1 0-4-.4-5.6-1.3-1.6-.8-2.9-2-3.7-3.5-.9-1.5-1.3-3.2-1.3-5.1s.4-3.6 1.3-5.1 2-2.7 3.5-3.5 3.2-1.3 5.1-1.3 3.5.4 5 1.2 2.6 2 3.5 3.5c.8 1.5 1.2 3.2 1.2 5.2.1.5.1.9 0 1.5m-13.3-6.4c-1 .9-1.6 2-1.8 3.4h10.9c-.2-1.4-.8-2.5-1.8-3.4s-2.2-1.3-3.7-1.3c-1.3.1-2.6.5-3.6 1.3m34.5-2.7c1.5 1.4 2.2 3.5 2.2 6.3v11h-4.5v-10.4c0-1.7-.4-2.9-1.2-3.8s-1.9-1.3-3.4-1.3q-2.55 0-3.9 1.5c-1 1-1.4 2.4-1.4 4.3v9.7h-4.5v-19.2h4.3v2.5c.7-.9 1.7-1.6 2.8-2 1.1-.5 2.4-.7 3.8-.7 2.4 0 4.3.7 5.8 2.1m19.5 16.2c-.5.4-1.2.8-1.9 1q-1.2.3-2.4.3c-2.1 0-3.7-.6-4.9-1.7s-1.7-2.7-1.7-4.8V453h-3.2v-3.6h3.2V445h4.5v4.4h5.1v3.6h-5.1v9.1c0 .9.2 1.7.7 2.1.5.5 1.1.7 2 .7 1 0 1.8-.3 2.5-.8Zm7.6-3.8c.6.6.8 1.3.8 2.2 0 .4-.1.8-.2 1.2s-.3 1-.7 1.9l-1.8 5.1h-2.9l1.4-5.5c-.5-.2-.9-.6-1.2-1s-.4-1-.4-1.6c0-.9.3-1.6.8-2.2s1.2-.8 2.1-.8c.8-.1 1.5.1 2.1.7m-267.2 30.7c1.5 1.4 2.2 3.4 2.2 6.1v11.3h-4.2v-2.3c-.6.8-1.3 1.5-2.4 1.9-1 .4-2.2.7-3.7.7-1.4 0-2.7-.2-3.8-.7s-1.9-1.2-2.5-2.1q-.9-1.35-.9-3c0-1.7.6-3.1 1.9-4.2s3.3-1.6 6.1-1.6h5v-.3c0-1.3-.4-2.4-1.2-3.1s-2-1.1-3.6-1.1c-1.1 0-2.1.2-3.2.5s-1.9.8-2.6 1.4l-1.8-3.3q1.5-1.2 3.6-1.8t4.5-.6c3 .2 5.1.8 6.6 2.2m-4.1 13.6c.9-.5 1.5-1.3 1.9-2.2v-2.2h-4.6c-2.6 0-3.9.9-3.9 2.6 0 .8.3 1.5 1 1.9.6.5 1.5.7 2.7.7 1 0 2-.3 2.9-.8m27.8-14.4c1.5.8 2.6 2 3.5 3.5s1.3 3.2 1.3 5.1-.4 3.7-1.3 5.2-2 2.7-3.5 3.5-3.2 1.2-5 1.2c-1.3 0-2.5-.2-3.6-.7s-2-1.1-2.8-2.1v2.5h-4.3v-26.7h4.5v9.8c.8-.8 1.7-1.5 2.7-1.9s2.2-.6 3.4-.6c2 0 3.6.4 5.1 1.2m-1.4 12.9c1.1-1.1 1.6-2.6 1.6-4.4s-.5-3.3-1.6-4.4-2.4-1.7-4.1-1.7c-1.1 0-2.1.2-2.9.7-.9.5-1.5 1.2-2.1 2.1s-.8 2-.8 3.2.3 2.3.8 3.2 1.2 1.6 2.1 2.1 1.8.7 2.9.7c1.6.2 3-.4 4.1-1.5m11.8 4.9q-2.25-.6-3.6-1.5l1.7-3.4c.9.6 1.9 1 3.1 1.4 1.2.3 2.4.5 3.6.5 2.7 0 4-.7 4-2.1 0-.7-.3-1.1-1-1.4s-1.8-.5-3.3-.8c-1.6-.2-2.9-.5-3.9-.8s-1.9-.9-2.6-1.6c-.7-.8-1.1-1.9-1.1-3.3 0-1.8.8-3.3 2.3-4.4s3.6-1.6 6.2-1.6c1.3 0 2.6.1 4 .4 1.3.3 2.4.7 3.2 1.2l-1.7 3.4c-1.6-1-3.5-1.4-5.5-1.4q-1.95 0-3 .6c-.7.4-1 .9-1 1.6s.4 1.2 1.1 1.5 1.9.6 3.4.8 2.8.5 3.8.8 1.8.8 2.5 1.6 1.1 1.8 1.1 3.2c0 1.8-.8 3.2-2.3 4.3-1.6 1.1-3.7 1.6-6.4 1.6-1.6 0-3.1-.2-4.6-.6m20.5-.6c-1.6-.8-2.8-2-3.7-3.5s-1.3-3.2-1.3-5.1.4-3.6 1.3-5.1 2.1-2.7 3.7-3.5 3.3-1.3 5.3-1.3 3.7.4 5.3 1.3c1.6.8 2.8 2 3.7 3.5s1.3 3.2 1.3 5.1-.4 3.6-1.3 5.1-2.1 2.7-3.7 3.5-3.3 1.3-5.3 1.3c-1.9-.1-3.7-.5-5.3-1.3m9.4-4.3c1.1-1.1 1.6-2.6 1.6-4.4s-.5-3.3-1.6-4.4-2.4-1.7-4.1-1.7-3 .6-4.1 1.7-1.6 2.6-1.6 4.4.5 3.3 1.6 4.4 2.4 1.7 4.1 1.7 3-.6 4.1-1.7m10.5-21.4h4.5v26.7h-4.5Zm29 7.5v19.2h-4.3v-2.4c-.7.9-1.6 1.5-2.7 2s-2.2.7-3.5.7c-2.6 0-4.6-.7-6.1-2.1s-2.2-3.5-2.2-6.4v-11h4.5V503q0 2.55 1.2 3.9c.8.9 1.9 1.3 3.3 1.3 1.6 0 2.9-.5 3.8-1.5s1.4-2.4 1.4-4.3v-9.7h4.6Zm17.5 18.2c-.5.4-1.2.8-1.9 1q-1.2.3-2.4.3c-2.1 0-3.7-.6-4.9-1.7s-1.7-2.7-1.7-4.8v-9.3h-3.2v-3.6h3.2v-4.4h4.5v4.4h5.1v3.6h-5.1v9.1c0 .9.2 1.7.7 2.1.5.5 1.1.7 2 .7 1 0 1.8-.3 2.5-.8Zm21-7.2h-15.1c.3 1.4 1 2.5 2.1 3.4s2.5 1.2 4.2 1.2c2.1 0 3.9-.7 5.2-2.1l2.4 2.8c-.9 1-2 1.8-3.3 2.3s-2.8.8-4.5.8c-2.1 0-4-.4-5.6-1.3-1.6-.8-2.9-2-3.7-3.5s-1.3-3.2-1.3-5.1.4-3.6 1.3-5.1 2-2.7 3.5-3.5 3.2-1.3 5.1-1.3 3.5.4 5 1.2 2.6 2 3.5 3.5c.8 1.5 1.2 3.2 1.2 5.2.1.5.1.9 0 1.5m-13.3-6.4c-1 .9-1.6 2-1.8 3.4h10.9c-.2-1.4-.8-2.5-1.8-3.4s-2.2-1.3-3.7-1.3c-1.4.1-2.6.5-3.6 1.3m-126.8 39.6c1.5.8 2.6 2 3.5 3.5.8 1.5 1.3 3.2 1.3 5.1s-.4 3.7-1.3 5.2c-.8 1.5-2 2.7-3.5 3.5s-3.1 1.2-5 1.2c-2.6 0-4.6-.9-6.2-2.6v9.3h-4.5v-26.2h4.3v2.5c.7-.9 1.7-1.6 2.8-2.1s2.3-.7 3.6-.7c1.8.1 3.5.5 5 1.3m-1.5 12.9c1.1-1.1 1.6-2.6 1.6-4.4s-.5-3.3-1.6-4.4-2.4-1.7-4.1-1.7c-1.1 0-2.1.2-2.9.7-.9.5-1.5 1.2-2.1 2.1-.5.9-.8 2-.8 3.2s.3 2.3.8 3.2q.75 1.35 2.1 2.1c.9.5 1.8.7 2.9.7 1.7.2 3-.4 4.1-1.5m13.9 4.3c-1.6-.8-2.8-2-3.7-3.5s-1.3-3.2-1.3-5.1.4-3.6 1.3-5.1 2.1-2.7 3.7-3.5 3.3-1.3 5.3-1.3 3.7.4 5.3 1.3c1.6.8 2.8 2 3.7 3.5s1.3 3.2 1.3 5.1-.4 3.6-1.3 5.1-2.1 2.7-3.7 3.5-3.3 1.3-5.3 1.3c-2-.1-3.8-.5-5.3-1.3m9.3-4.3c1.1-1.1 1.6-2.6 1.6-4.4s-.5-3.3-1.6-4.4-2.4-1.7-4.1-1.7-3 .6-4.1 1.7-1.6 2.6-1.6 4.4.5 3.3 1.6 4.4 2.4 1.7 4.1 1.7 3-.6 4.1-1.7m11.9 4.9q-2.25-.6-3.6-1.5l1.7-3.4c.9.6 1.9 1 3.1 1.4s2.4.5 3.6.5c2.7 0 4-.7 4-2.1 0-.7-.3-1.1-1-1.4s-1.8-.5-3.3-.8c-1.6-.2-2.9-.5-3.9-.8s-1.9-.9-2.6-1.6c-.7-.8-1.1-1.9-1.1-3.3 0-1.8.8-3.3 2.3-4.4s3.6-1.6 6.2-1.6c1.3 0 2.6.1 4 .4 1.3.3 2.4.7 3.2 1.2l-1.7 3.4c-1.6-1-3.5-1.4-5.5-1.4q-1.95 0-3 .6c-.7.4-1 .9-1 1.6s.4 1.2 1.1 1.5 1.9.6 3.4.8 2.8.5 3.8.8 1.8.8 2.5 1.6c.7.7 1.1 1.8 1.1 3.2 0 1.8-.8 3.2-2.3 4.3-1.6 1.1-3.7 1.6-6.4 1.6-1.6 0-3.2-.2-4.6-.6m17.3-22.8c-.6-.5-.8-1.2-.8-1.9 0-.8.3-1.4.8-1.9.6-.5 1.2-.8 2.1-.8.8 0 1.5.2 2.1.7s.8 1.1.8 1.9-.3 1.5-.8 2-1.2.8-2.1.8c-.8 0-1.5-.3-2.1-.8m-.2 4h4.5V555h-4.5Zm22 18.2c-.5.4-1.2.8-1.9 1q-1.2.3-2.4.3c-2.1 0-3.7-.6-4.9-1.7s-1.7-2.7-1.7-4.8v-9.3h-3.2v-3.6h3.2v-4.4h4.5v4.4h5.1v3.6h-5.1v9.1c0 .9.2 1.7.7 2.1.5.5 1.1.7 2 .7 1 0 1.8-.3 2.5-.8Zm3.9-22.2c-.6-.5-.8-1.2-.8-1.9 0-.8.3-1.4.8-1.9.6-.5 1.2-.8 2.1-.8.8 0 1.5.2 2.1.7s.8 1.1.8 1.9-.3 1.5-.8 2-1.2.8-2.1.8c-.8 0-1.5-.3-2.1-.8m-.2 4h4.5V555h-4.5Zm13.8 18.2c-1.6-.8-2.8-2-3.7-3.5s-1.3-3.2-1.3-5.1.4-3.6 1.3-5.1 2.1-2.7 3.7-3.5 3.3-1.3 5.3-1.3 3.7.4 5.3 1.3c1.6.8 2.8 2 3.7 3.5s1.3 3.2 1.3 5.1-.4 3.6-1.3 5.1-2.1 2.7-3.7 3.5-3.3 1.3-5.3 1.3c-2-.1-3.8-.5-5.3-1.3m9.3-4.3c1.1-1.1 1.6-2.6 1.6-4.4s-.5-3.3-1.6-4.4-2.4-1.7-4.1-1.7-3 .6-4.1 1.7-1.6 2.6-1.6 4.4.5 3.3 1.6 4.4 2.4 1.7 4.1 1.7 3.1-.6 4.1-1.7m27.3-12c1.5 1.4 2.2 3.5 2.2 6.3v11h-4.5v-10.4c0-1.7-.4-2.9-1.2-3.8s-1.9-1.3-3.4-1.3q-2.55 0-3.9 1.5c-1.35 1.5-1.4 2.4-1.4 4.3v9.7h-4.5v-19.2h4.3v2.5c.7-.9 1.7-1.6 2.8-2 1.1-.5 2.4-.7 3.8-.7 2.4 0 4.3.7 5.8 2.1m26.1 9.1h-15.1c.3 1.4 1 2.5 2.1 3.4s2.5 1.2 4.2 1.2c2.1 0 3.9-.7 5.2-2.1l2.4 2.8c-.9 1-2 1.8-3.3 2.3s-2.8.8-4.5.8c-2.1 0-4-.4-5.6-1.3-1.6-.8-2.9-2-3.7-3.5s-1.3-3.2-1.3-5.1.4-3.6 1.3-5.1 2-2.7 3.5-3.5 3.2-1.3 5.1-1.3 3.5.4 5 1.2 2.6 2 3.5 3.5c.8 1.5 1.2 3.2 1.2 5.2Zm-13.3-6.4c-1 .9-1.6 2-1.8 3.4h10.9c-.2-1.4-.8-2.5-1.8-3.4s-2.2-1.3-3.7-1.3c-1.4.1-2.6.5-3.6 1.3m36.5-12.1V555h-4.3v-2.5c-.7.9-1.7 1.6-2.8 2.1s-2.3.7-3.6.7c-1.8 0-3.5-.4-5-1.2s-2.6-2-3.5-3.5c-.8-1.5-1.3-3.2-1.3-5.2 0-1.9.4-3.7 1.3-5.1.8-1.5 2-2.6 3.5-3.5 1.5-.8 3.1-1.2 5-1.2 1.3 0 2.4.2 3.5.6s2 1.1 2.7 1.9v-9.9h4.5Zm-7.3 22.4c.9-.5 1.5-1.2 2.1-2.1s.8-2 .8-3.2-.3-2.3-.8-3.2-1.2-1.6-2.1-2.1-1.8-.7-2.9-.7-2.1.2-2.9.7c-.9.5-1.5 1.2-2.1 2.1-.5.9-.8 2-.8 3.2s.3 2.3.8 3.2q.75 1.35 2.1 2.1c.9.5 1.8.7 2.9.7s2.1-.3 2.9-.7M806.529 298.619l2-2.236 171.522 153.52-2 2.236ZM973 138.4h3v226.2h-3Z"/><path d="m965.5 141 9-15.5 9 15.5Zm0 221 9 15.5 9-15.5ZM1011.4 247.6c1.4 1.2 2.1 2.7 2.1 4.7 0 1.3-.3 2.4-.9 3.4s-1.6 1.8-2.8 2.4-2.8.9-4.6.9c-1.5 0-2.9-.2-4.3-.6s-2.6-1-3.5-1.8l1.6-3c.8.6 1.7 1.1 2.8 1.5s2.2.6 3.4.6q2.1 0 3.3-.9t1.2-2.4c0-1.1-.4-1.9-1.3-2.4-.8-.5-2.3-.8-4.4-.8h-5.1l1.1-11.4h12.3v3.3h-9l-.5 4.9h2c3-.2 5.2.4 6.6 1.6m8.7 10.1c-1.3-.8-2.4-2.1-3.1-3.7-.8-1.6-1.1-3.6-1.1-5.8s.4-4.2 1.1-5.8c.8-1.6 1.8-2.9 3.1-3.7s2.8-1.3 4.5-1.3 3.2.4 4.5 1.3 2.4 2.1 3.1 3.7c.8 1.6 1.1 3.6 1.1 5.8s-.4 4.2-1.1 5.8c-.8 1.6-1.8 2.9-3.1 3.7-1.3.9-2.8 1.3-4.5 1.3s-3.2-.4-4.5-1.3m8-3.9c.9-1.2 1.3-3.1 1.3-5.5s-.4-4.3-1.3-5.5-2.1-1.9-3.6-1.9-2.7.6-3.5 1.9-1.3 3.1-1.3 5.5.4 4.3 1.3 5.5 2 1.9 3.5 1.9c1.6-.1 2.8-.7 3.6-1.9m9-6.4c-.9-1.1-1.4-2.4-1.4-4.2 0-1.7.5-3.1 1.4-4.2s2.1-1.6 3.6-1.6 2.7.5 3.6 1.6c.9 1 1.4 2.4 1.4 4.2 0 1.7-.5 3.1-1.4 4.2s-2.1 1.6-3.6 1.6-2.7-.5-3.6-1.6m5.5-1.4c.5-.6.7-1.5.7-2.7s-.2-2.1-.7-2.7-1.1-1-1.9-1-1.4.3-1.9 1c-.5.6-.7 1.5-.7 2.7 0 1.1.2 2 .7 2.7s1.1 1 1.9 1c.8-.1 1.4-.4 1.9-1m10.7-8.3h2.9l-14.3 21h-2.9Zm-2.5 19.6c-.9-1.1-1.4-2.4-1.4-4.2s.5-3.1 1.4-4.2 2.1-1.6 3.6-1.6 2.7.5 3.6 1.6 1.4 2.5 1.4 4.2-.5 3.1-1.4 4.2-2.1 1.6-3.6 1.6-2.7-.5-3.6-1.6m5.5-1.4c.5-.6.7-1.5.7-2.7 0-1.1-.2-2-.7-2.7s-1.1-1-1.9-1-1.4.3-1.9 1c-.5.6-.7 1.5-.7 2.7s.2 2.1.7 2.7 1.1 1 1.9 1 1.5-.4 1.9-1"/></svg>