<svg xmlns="http://www.w3.org/2000/svg" viewBox="0 0 1366 768"><path fill="#fff" d="M0 0h1366v768H0Z"/><path d="M909.4 342.2c-1.1.3-2.3.5-3.6.5-2.5 0-4.4-.6-5.7-1.9s-1.9-3.1-1.9-5.4v-8.9h-4.1v-4h4.1v-4.2l5.8-.7v4.9h6.3l-.6 4H904v8.9c0 1 .2 1.7.7 2.1q.6.6 2.1.6c1.2 0 2.4-.3 3.4-.9l1.9 3.7c-.7.5-1.6.9-2.7 1.3m25.6-19.8-1.1 8.2h-3.7V327c-1.1.2-2 .8-2.9 1.8-.8 1-1.5 2.2-2 3.7v5.6h3.9v3.9h-12.3v-3.9h2.6v-11.8h-2.6v-3.9h7l1.1 4.4c.7-1.7 1.6-2.9 2.7-3.8 1.1-.8 2.4-1.2 4-1.2q1.8 0 3.3.6m20.7 15.6c.2.3.5.6 1 .8l-1.2 3.8c-1.2-.1-2.2-.4-3-.8q-1.2-.6-1.8-1.8c-.7.9-1.7 1.5-2.8 2-1.2.4-2.4.7-3.6.7-1.3 0-2.5-.3-3.5-.8s-1.8-1.2-2.3-2.2c-.5-.9-.8-2-.8-3.2 0-1.4.4-2.6 1.1-3.6.8-1 1.8-1.8 3.3-2.3 1.4-.5 3.1-.8 5.2-.8h2.6v-.7q0-3-3.9-3c-.7 0-1.5.1-2.5.3s-2 .4-2.9.8l-1.3-3.9c1.2-.5 2.5-.8 3.9-1.1s2.6-.4 3.7-.4c2.9 0 5 .6 6.4 1.8s2.1 2.9 2.1 5.2v7.7q0 .9.3 1.5m-7.4-.1c.7-.4 1.2-.9 1.5-1.6v-3.2h-1.4c-1.6 0-2.8.2-3.6.7s-1.2 1.2-1.2 2.2c0 .8.2 1.4.7 1.8s1.1.6 1.9.6c.7.1 1.4-.1 2.1-.5m12.8-15.5h5.1l.4 2.3c.9-1 1.8-1.7 2.8-2.2s2.1-.7 3.3-.7c1.7 0 3 .5 4 1.5s1.4 2.5 1.4 4.3V342h-5.8v-12.7c0-.8-.1-1.5-.2-1.9-.1-.5-.3-.8-.6-1s-.6-.3-1.1-.3c-.6 0-1.2.2-1.7.6-.6.4-1.1.9-1.7 1.7V342h-5.8v-19.6Zm32.3 15.6c.6-.3.9-.8.9-1.4 0-.4-.1-.8-.4-1.1-.2-.3-.7-.5-1.3-.8q-.9-.45-3-.9c-2-.5-3.5-1.3-4.5-2.2s-1.6-2.2-1.6-3.8c0-1.2.3-2.2 1-3.1s1.6-1.6 2.9-2.1 2.8-.8 4.6-.8c3.1 0 5.8.8 7.9 2.4l-2.3 3.4q-1.2-.75-2.7-1.2c-.9-.3-1.9-.4-2.8-.4s-1.7.1-2.1.4c-.5.3-.7.6-.7 1.1 0 .3.1.6.4.9s.7.5 1.3.7 1.6.6 3 .9c1.4.4 2.6.8 3.5 1.3s1.6 1.1 2.1 1.9.7 1.8.7 3c0 1.4-.4 2.6-1.2 3.5-.8 1-1.9 1.7-3.4 2.2-1.4.5-3 .7-4.7.7-1.8 0-3.5-.3-4.9-.8-1.5-.5-2.7-1.2-3.8-2.2l2.9-3.3q1.2.9 2.7 1.5c1 .4 2 .6 3.1.6 1.1.1 1.9-.1 2.4-.4m31.2-22.8-1.6 3.8c-1.3-.5-2.7-.7-4.2-.7-1.2 0-2 .2-2.5.6s-.7 1.1-.7 2.1v2.6h6.4l-.6 4h-5.7V342h-5.8v-14.3h-4.1v-4h4.1v-2.8c0-1.3.3-2.5.9-3.5s1.5-1.8 2.8-2.4c1.2-.6 2.7-.9 4.4-.9 2.4-.1 4.6.3 6.6 1.1m16.5 7.9q2.1 1.35 3.3 3.6c.8 1.6 1.1 3.4 1.1 5.5 0 2.2-.4 4.1-1.1 5.6s-1.8 2.8-3.3 3.6-3.1 1.3-5.1 1.3q-3 0-5.1-1.2c-2.1-1.2-2.5-2-3.3-3.6s-1.1-3.4-1.1-5.6c0-2.1.4-3.9 1.1-5.5.8-1.6 1.9-2.8 3.3-3.7s3.1-1.3 5.1-1.3 3.7.4 5.1 1.3m-7.7 4.4c-.6 1-.9 2.5-.9 4.7s.3 3.7.8 4.7q.9 1.5 2.7 1.5t2.7-1.5c.6-1 .8-2.6.8-4.7s-.3-3.6-.9-4.6-1.5-1.5-2.6-1.5c-1.2 0-2.1.5-2.6 1.4m34.5-5.1-1.1 8.2h-3.7V327c-1.1.2-2 .8-2.9 1.8-.8 1-1.5 2.2-2 3.7v5.6h3.9v3.9h-12.3v-3.9h2.6v-11.8h-2.6v-3.9h7l1.1 4.4c.7-1.7 1.6-2.9 2.7-3.8 1.1-.8 2.4-1.2 4-1.2q1.8 0 3.3.6m21.5.7c.7.9 1 2.4 1 4.4V342h-5v-13.8c0-.7-.1-1.2-.2-1.5s-.4-.4-.8-.4c-.3 0-.7.1-1 .3s-.7.5-1 1V342h-4.1v-13.8c0-.7-.1-1.2-.2-1.5s-.4-.4-.8-.4c-.3 0-.7.1-1 .3s-.7.5-1 1V342h-5.1v-19.6h4.3l.4 1.9c.6-.9 1.3-1.5 1.9-1.9s1.4-.6 2.2-.6 1.4.2 1.9.6.9 1 1.1 1.8c1.3-1.6 2.8-2.3 4.3-2.3 1.4-.1 2.5.3 3.1 1.2m9.7 1c.4-.6.8-1.1 1.4-1.4.6-.4 1.2-.5 1.9-.5s1.3.2 1.9.5c.6.4 1.1.8 1.4 1.4s.5 1.2.5 1.9-.2 1.3-.5 1.9-.8 1.1-1.4 1.4-1.2.5-1.9.5-1.4-.2-1.9-.5-1.1-.8-1.4-1.4c-.4-.6-.5-1.2-.5-1.9s.1-1.3.5-1.9m0 12.7c.4-.6.8-1 1.4-1.4s1.2-.5 1.9-.5 1.3.2 1.9.5 1.1.8 1.4 1.4.5 1.2.5 1.9-.2 1.4-.5 1.9c-.3.6-.8 1.1-1.4 1.4s-1.2.5-1.9.5-1.4-.2-1.9-.5-1.1-.8-1.4-1.4c-.4-.6-.5-1.2-.5-1.9 0-.6.1-1.3.5-1.9m-186.3 28.8-1.1 8.2H908v-3.6c-1.1.2-2 .8-2.9 1.8-.8 1-1.5 2.2-2 3.7v5.6h3.9v3.9h-12.3v-3.9h2.6v-11.8h-2.6v-3.9h7l1.1 4.4c.7-1.7 1.6-2.9 2.7-3.8 1.1-.8 2.4-1.2 4-1.2q1.8 0 3.3.6m17.6.7q2.1 1.35 3.3 3.6c.8 1.6 1.1 3.4 1.1 5.5 0 2.2-.4 4.1-1.1 5.6s-1.8 2.8-3.3 3.6c-1.4.8-3.1 1.3-5.1 1.3q-3 0-5.1-1.2t-3.3-3.6c-1.2-2.4-1.1-3.4-1.1-5.6 0-2.1.4-3.9 1.1-5.5.8-1.6 1.9-2.8 3.3-3.7s3.1-1.3 5.1-1.3c1.9 0 3.6.4 5.1 1.3m-7.8 4.4c-.6 1-.9 2.5-.9 4.7s.3 3.7.8 4.7q.9 1.5 2.7 1.5t2.7-1.5c.6-1 .8-2.6.8-4.7s-.3-3.6-.9-4.6-1.5-1.5-2.6-1.5c-1.2 0-2 .5-2.6 1.4m31.1 14.7c-1.1.3-2.3.5-3.6.5-2.5 0-4.4-.6-5.7-1.9s-1.9-3.1-1.9-5.4v-8.9h-4.1v-4h4.1v-4.2l5.8-.7v4.9h6.3l-.6 4h-5.7v8.9c0 1 .2 1.7.7 2.1q.6.6 2.1.6c1.2 0 2.4-.3 3.4-.9l1.9 3.7c-.7.5-1.6.9-2.7 1.3m24.2-4.2c.2.3.5.6 1 .8l-1.2 3.8c-1.2-.1-2.2-.4-3-.8q-1.2-.6-1.8-1.8c-.7.9-1.7 1.5-2.8 2-1.2.4-2.4.7-3.6.7-1.3 0-2.5-.3-3.5-.8s-1.8-1.2-2.3-2.2c-.5-.9-.8-2-.8-3.2 0-1.4.4-2.6 1.1-3.6.8-1 1.8-1.8 3.3-2.3 1.4-.5 3.1-.8 5.2-.8h2.6v-.7q0-3-3.9-3c-.7 0-1.5.1-2.5.3s-2 .4-2.9.8l-1.3-3.9c1.2-.5 2.5-.8 3.9-1.1s2.6-.4 3.7-.4c2.9 0 5 .6 6.4 1.8s2.1 2.9 2.1 5.2v7.7q0 .9.3 1.5m-7.5-.1c.7-.4 1.2-.9 1.5-1.6v-3.2h-1.4c-1.6 0-2.8.2-3.6.7s-1.2 1.2-1.2 2.2c0 .8.2 1.4.7 1.8s1.1.6 1.9.6c.8.1 1.4-.1 2.1-.5m27.6 4.3c-1.1.3-2.3.5-3.6.5-2.5 0-4.4-.6-5.7-1.9s-1.9-3.1-1.9-5.4v-8.9h-4.1v-4h4.1v-4.2l5.8-.7v4.9h6.3l-.6 4h-5.7v8.9c0 1 .2 1.7.7 2.1q.6.6 2.1.6c1.2 0 2.4-.3 3.4-.9l1.9 3.7c-.7.5-1.6.9-2.7 1.3m13.9-4.9c.8.7 1.9 1.1 3.2 1.1 1.7 0 3.3-.5 5-1.6l2.3 3.2c-1 .8-2.1 1.5-3.4 2s-2.8.7-4.4.7c-2.2 0-4-.4-5.6-1.3-1.5-.9-2.7-2.1-3.5-3.7s-1.2-3.4-1.2-5.4.4-3.7 1.1-5.3c.8-1.6 1.8-2.8 3.3-3.8 1.4-.9 3.2-1.4 5.2-1.4 1.9 0 3.5.4 4.9 1.2s2.5 2 3.2 3.5c.8 1.5 1.1 3.3 1.1 5.4 0 .8 0 1.5-.1 2.1h-12.7c.3 1.5.8 2.6 1.6 3.3m-.4-10.5c-.6.8-1 2-1.1 3.6h7.2c0-3.2-1.2-4.7-3.5-4.7-1.1 0-2 .4-2.6 1.1m27.5 15.2h-6.1v-9.6l-8.3-16h6.6l4.9 11 4.9-11h6.4l-8.3 16v9.6Zm18.3-7.4c.4 1.6 1.2 3.2 2.2 4.8s2.4 3.4 4.2 5.3l-3.4 3.1c-2-1.8-3.8-3.6-5.2-5.4-1.4-1.9-2.5-3.9-3.2-6.1-.8-2.2-1.1-4.6-1.1-7.2s.4-5 1.1-7.2c.8-2.2 1.8-4.2 3.2-6.1s3.1-3.7 5.2-5.4l3.4 3.1c-1.7 1.8-3.1 3.6-4.1 5.2s-1.8 3.2-2.2 4.9-.7 3.5-.7 5.6q0 3 .6 5.4m32.3 3v4.4H1073v-4.4h6.2v-15.4l-5.3 3.3-2.5-4 8.3-5h5.2v21.2h4.7Zm20.4-12c-.6.9-1.6 1.7-3 2.5 3.3 1.7 5 4 5 7 0 1.4-.4 2.6-1.1 3.8s-1.8 2.1-3.3 2.8c-1.4.7-3.2 1-5.2 1s-3.7-.3-5.1-1-2.5-1.6-3.2-2.7-1.1-2.4-1.1-3.7c0-1.4.4-2.7 1.2-3.8s2-2 3.5-2.6c-.9-.6-1.6-1.1-2.2-1.7-.5-.5-.9-1.2-1.2-1.8-.3-.7-.4-1.5-.4-2.4 0-1.4.4-2.7 1.1-3.7.7-1.1 1.8-1.9 3.1-2.5s2.8-.9 4.4-.9c1.7 0 3.1.3 4.4.8 1.3.6 2.3 1.3 3 2.4s1.1 2.2 1.1 3.6c0 1-.3 2.1-1 2.9m-4.3 7.4c-.3-.5-.8-1-1.5-1.4s-1.6-.8-2.9-1.2c-.8.5-1.4 1.1-1.8 1.9-.4.7-.6 1.6-.6 2.6 0 1.1.3 2 1 2.6.6.7 1.6 1 2.8 1s2.1-.3 2.7-1c.6-.6.9-1.5.9-2.5-.2-.8-.3-1.5-.6-2m-5.3-7.9c.6.6 1.5 1.1 2.9 1.6.8-.6 1.4-1.2 1.7-1.8s.5-1.3.5-2c0-.9-.3-1.7-.8-2.3s-1.2-.9-2.2-.9-1.7.3-2.2.8-.8 1.3-.8 2.3c0 .9.3 1.7.9 2.3m29.3-7.7c1.4 1.1 2.4 2.6 3.1 4.6s1 4.4 1 7.2-.3 5.3-1 7.3-1.7 3.6-3.1 4.6c-1.4 1.1-3.1 1.6-5.1 1.6s-3.7-.5-5.1-1.6-2.4-2.6-3.1-4.6-1-4.4-1-7.3c0-2.8.3-5.2 1-7.2s1.7-3.5 3.1-4.6 3.1-1.6 5.1-1.6 3.7.5 5.1 1.6m-7.2 3.5c-.5.6-1 1.6-1.2 2.9s-.4 3.1-.4 5.3c0 2.1.1 3.8.2 5.1l6.2-13.1c-.3-.5-.6-.8-1.1-1s-1-.3-1.6-.3c-.9.2-1.6.5-2.1 1.1m4.3 16.6c.5-.6.9-1.6 1.2-2.9.3-1.4.4-3.2.4-5.4 0-1.3 0-2.4-.1-3.6l-5.9 12.2c.3.2.6.4 1 .5s.8.2 1.3.2c.8-.1 1.5-.4 2.1-1m28.5-22.9v27.4h-5.2l-.3-2.2c-.6.8-1.3 1.5-2.3 2-.9.5-2 .8-3.2.8-1.6 0-2.9-.4-4-1.3s-1.9-2.1-2.4-3.6-.8-3.4-.8-5.6c0-2 .3-3.8 1-5.4s1.5-2.8 2.7-3.7 2.6-1.3 4.1-1.3c1.8 0 3.2.6 4.4 1.8v-9.6Zm-11.2 12.9c-.6 1-.9 2.6-.9 4.7 0 2.3.3 3.9.8 4.8s1.3 1.4 2.2 1.4c1.2 0 2.3-.8 3.2-2.3v-8.5c-.4-.5-.9-.9-1.3-1.2-.5-.3-1-.4-1.6-.4q-1.5 0-2.4 1.5m22.9 9.8c.8.7 1.9 1.1 3.2 1.1 1.7 0 3.3-.5 5-1.6l2.3 3.2c-1 .8-2.1 1.5-3.4 2s-2.8.7-4.4.7c-2.2 0-4-.4-5.6-1.3-1.5-.9-2.7-2.1-3.5-3.7s-1.2-3.4-1.2-5.4.4-3.7 1.1-5.3c.8-1.6 1.8-2.8 3.3-3.8 1.4-.9 3.2-1.4 5.2-1.4 1.9 0 3.5.4 4.9 1.2s2.5 2 3.2 3.5c.8 1.5 1.1 3.3 1.1 5.4 0 .8 0 1.5-.1 2.1h-12.7c.3 1.5.8 2.6 1.6 3.3m-.4-10.5c-.6.8-1 2-1.1 3.6h7.2c0-3.2-1.2-4.7-3.5-4.7-1.2 0-2 .4-2.6 1.1m34.8-3.2q-1.05.45-2.4.6c-1.35.15-2 .2-3.3.2 1.3.5 2.2 1.2 2.8 2q.9 1.2.9 3c0 1.3-.3 2.4-1 3.4s-1.7 1.8-2.9 2.3c-1.3.6-2.7.8-4.4.8-.8 0-1.6-.1-2.3-.2-.2.1-.4.3-.5.5s-.2.4-.2.7c0 .4.1.7.4.9s.9.3 1.7.3h3.2c1.5 0 2.8.2 3.9.7s2 1.2 2.6 2c.6.9.9 1.8.9 2.9 0 1.4-.4 2.5-1.2 3.5s-2 1.7-3.5 2.2c-1.6.5-3.5.8-5.8.8-2.4 0-4.3-.2-5.7-.7s-2.4-1.2-2.9-2.1c-.6-.9-.8-2.1-.8-3.4h5.2c0 .6.1 1.1.4 1.4s.7.6 1.3.8 1.6.2 2.8.2q2.55 0 3.6-.6c.7-.4 1-.9 1-1.7 0-.6-.2-1.1-.7-1.4s-1.2-.5-2.1-.5h-3.1c-1.4 0-2.5-.2-3.4-.5-.9-.4-1.6-.8-2-1.4s-.6-1.2-.6-2q0-1.05.6-2.1c.6-1.05.9-1.2 1.6-1.6-1.2-.7-2.1-1.4-2.7-2.3-.5-.9-.8-2-.8-3.3 0-1.4.4-2.7 1.1-3.8s1.8-1.9 3.1-2.5q1.95-.9 4.5-.9c1.4 0 2.6-.1 3.7-.3s2-.5 2.9-.9c.8-.4 1.7-.8 2.7-1.4Zm-12.7 2.9c-.5.6-.8 1.4-.8 2.4 0 1.1.3 1.9.8 2.5s1.3.9 2.2.9c1 0 1.7-.3 2.2-.9s.8-1.4.8-2.6c0-1.1-.2-1.9-.7-2.4s-1.2-.8-2.2-.8-1.7.3-2.3.9m25.3-3c-.5-1.7-1.2-3.3-2.2-4.9s-2.4-3.3-4.1-5.2l3.4-3.1c2 1.8 3.8 3.6 5.2 5.4 1.4 1.9 2.5 3.9 3.2 6.1.8 2.2 1.1 4.6 1.1 7.2s-.4 5-1.1 7.2-1.8 4.2-3.2 6.1-3.1 3.7-5.2 5.4l-3.4-3.1c1.8-2 3.2-3.7 4.2-5.3s1.7-3.2 2.2-4.8c.4-1.6.6-3.5.6-5.5 0-1.9-.2-3.8-.7-5.5m23.4 11.7c.6.3 1 .8 1.4 1.4.3.6.5 1.2.5 2 0 .6-.1 1.3-.3 1.9q-.3.9-1.2 3l-2.6 5.8h-3.8l1.8-7.6c-.5-.3-1-.8-1.3-1.3-.3-.6-.4-1.2-.4-1.8 0-.7.2-1.4.5-1.9s.8-1 1.4-1.4 1.2-.5 2-.5c.7-.1 1.4.1 2 .4m-.1-12.5c.6.4 1.1.8 1.4 1.4s.5 1.2.5 1.9-.2 1.3-.5 1.9-.8 1.1-1.4 1.4-1.2.5-1.9.5-1.4-.2-1.9-.5-1.1-.8-1.4-1.4c-.4-.6-.5-1.2-.5-1.9s.2-1.3.5-1.9c.4-.6.8-1.1 1.4-1.4.6-.4 1.2-.5 1.9-.5.7-.1 1.3.1 1.9.5"/><path fill="#f9d2ec" d="M317.9 131H826v508.1H317.9Z"/><path fill="#ff1493" d="M826.1 640.6H317.9c-.8 0-1.5-.7-1.5-1.5V131c0-.8.7-1.5 1.5-1.5H826c.8 0 1.5.7 1.5 1.5v508.1c.1.8-.6 1.5-1.4 1.5m-506.7-3h505.1V132.5H319.4Z"/><path fill="#f4b8dd" d="m317.9 490.1 508.2-210.5"/><path fill="#f998d0" d="M317.9 491.1c-.4 0-.8-.2-.9-.6-.2-.5 0-1.1.5-1.3l2.3-1c.5-.2 1.1 0 1.3.5s0 1.1-.5 1.3l-2.3 1c-.1.1-.2.1-.4.1m11.5-4.8c-.4 0-.8-.2-.9-.6-.2-.5 0-1.1.5-1.3l4.6-1.9c.5-.2 1.1 0 1.3.5s0 1.1-.5 1.3l-4.6 1.9c-.1.1-.3.1-.4.1m13.7-5.6c-.4 0-.8-.2-.9-.6-.2-.5 0-1.1.5-1.3l4.6-1.9c.5-.2 1.1 0 1.3.5s0 1.1-.5 1.3l-4.6 1.9c-.1 0-.2.1-.4.1m13.8-5.7c-.4 0-.8-.2-.9-.6-.2-.5 0-1.1.5-1.3l4.6-1.9c.5-.2 1.1 0 1.3.5s0 1.1-.5 1.3l-4.6 1.9c-.2 0-.3.1-.4.1m13.7-5.7c-.4 0-.8-.2-.9-.6-.2-.5 0-1.1.5-1.3l4.6-1.9c.5-.2 1.1 0 1.3.5s0 1.1-.5 1.3l-4.6 1.9c-.1.1-.3.1-.4.1m13.7-5.7c-.4 0-.8-.2-.9-.6-.2-.5 0-1.1.5-1.3l4.6-1.9c.5-.2 1.1 0 1.3.5s0 1.1-.5 1.3l-4.6 1.9c-.1.1-.2.1-.4.1m13.8-5.7c-.4 0-.8-.2-.9-.6-.2-.5 0-1.1.5-1.3l4.6-1.9c.5-.2 1.1 0 1.3.5s0 1.1-.5 1.3l-4.6 1.9c-.2.1-.3.1-.4.1m13.7-5.7c-.4 0-.8-.2-.9-.6-.2-.5 0-1.1.5-1.3l4.6-1.9c.5-.2 1.1 0 1.3.5s0 1.1-.5 1.3l-4.6 1.9c-.1.1-.3.1-.4.1m13.7-5.7c-.4 0-.8-.2-.9-.6-.2-.5 0-1.1.5-1.3l4.6-1.9c.5-.2 1.1 0 1.3.5s0 1.1-.5 1.3l-4.6 1.9c-.1.1-.2.1-.4.1m13.8-5.7c-.4 0-.8-.2-.9-.6-.2-.5 0-1.1.5-1.3l4.6-1.9c.5-.2 1.1 0 1.3.5s0 1.1-.5 1.3l-4.6 1.9c-.2.1-.3.1-.4.1m13.7-5.6c-.4 0-.8-.2-.9-.6-.2-.5 0-1.1.5-1.3l4.6-1.9c.5-.2 1.1 0 1.3.5s0 1.1-.5 1.3l-4.6 1.9c-.1 0-.3.1-.4.1m13.7-5.7c-.4 0-.8-.2-.9-.6-.2-.5 0-1.1.5-1.3l4.6-1.9c.5-.2 1.1 0 1.3.5s0 1.1-.5 1.3l-4.6 1.9c-.1 0-.2.1-.4.1m13.8-5.7c-.4 0-.8-.2-.9-.6-.2-.5 0-1.1.5-1.3l4.6-1.9c.5-.2 1.1 0 1.3.5s0 1.1-.5 1.3l-4.6 1.9c-.2.1-.3.1-.4.1m13.7-5.7c-.4 0-.8-.2-.9-.6-.2-.5 0-1.1.5-1.3l4.6-1.9c.5-.2 1.1 0 1.3.5s0 1.1-.5 1.3l-4.6 1.9c-.2.1-.3.1-.4.1m13.7-5.7c-.4 0-.8-.2-.9-.6-.2-.5 0-1.1.5-1.3l4.6-1.9c.5-.2 1.1 0 1.3.5s0 1.1-.5 1.3l-4.6 1.9c-.1.1-.3.1-.4.1m13.8-5.7c-.4 0-.8-.2-.9-.6-.2-.5 0-1.1.5-1.3l4.6-1.9c.5-.2 1.1 0 1.3.5s0 1.1-.5 1.3l-4.6 1.9c-.2.1-.3.1-.4.1m13.7-5.7c-.4 0-.8-.2-.9-.6-.2-.5 0-1.1.5-1.3l4.6-1.9c.5-.2 1.1 0 1.3.5s0 1.1-.5 1.3l-4.6 1.9c-.2.1-.3.1-.4.1m13.7-5.7c-.4 0-.8-.2-.9-.6-.2-.5 0-1.1.5-1.3l4.6-1.9c.5-.2 1.1 0 1.3.5s0 1.1-.5 1.3l-4.6 1.9c-.1.1-.3.1-.4.1m13.7-5.6c-.4 0-.8-.2-.9-.6-.2-.5 0-1.1.5-1.3l4.6-1.9c.5-.2 1.1 0 1.3.5s0 1.1-.5 1.3l-4.6 1.9c-.1 0-.2.1-.4.1m13.8-5.7c-.4 0-.8-.2-.9-.6-.2-.5 0-1.1.5-1.3l4.6-1.9c.5-.2 1.1 0 1.3.5s0 1.1-.5 1.3l-4.6 1.9c-.2 0-.3.1-.4.1m13.7-5.7c-.4 0-.8-.2-.9-.6-.2-.5 0-1.1.5-1.3l4.6-1.9c.5-.2 1.1 0 1.3.5s0 1.1-.5 1.3l-4.6 1.9c-.1.1-.3.1-.4.1m13.7-5.7c-.4 0-.8-.2-.9-.6-.2-.5 0-1.1.5-1.3l4.6-1.9c.5-.2 1.1 0 1.3.5s0 1.1-.5 1.3l-4.6 1.9c-.1.1-.2.1-.4.1m13.8-5.7c-.4 0-.8-.2-.9-.6-.2-.5 0-1.1.5-1.3l4.6-1.9c.5-.2 1.1 0 1.3.5s0 1.1-.5 1.3l-4.6 1.9c-.2.1-.3.1-.4.1m13.7-5.7c-.4 0-.8-.2-.9-.6-.2-.5 0-1.1.5-1.3l4.6-1.9c.5-.2 1.1 0 1.3.5s0 1.1-.5 1.3l-4.6 1.9c-.1.1-.3.1-.4.1m13.7-5.7c-.4 0-.8-.2-.9-.6-.2-.5 0-1.1.5-1.3l4.6-1.9c.5-.2 1.1 0 1.3.5s0 1.1-.5 1.3l-4.6 1.9c-.1.1-.2.1-.4.1m13.8-5.7c-.4 0-.8-.2-.9-.6-.2-.5 0-1.1.5-1.3l4.6-1.9c.5-.2 1.1 0 1.3.5s0 1.1-.5 1.3l-4.6 1.9c-.2.1-.3.1-.4.1m13.7-5.6c-.4 0-.8-.2-.9-.6-.2-.5 0-1.1.5-1.3l4.6-1.9c.5-.2 1.1 0 1.3.5s0 1.1-.5 1.3l-4.6 1.9c-.1 0-.3.1-.4.1m13.7-5.7c-.4 0-.8-.2-.9-.6-.2-.5 0-1.1.5-1.3l4.6-1.9c.5-.2 1.1 0 1.3.5s0 1.1-.5 1.3l-4.6 1.9c-.1 0-.2.1-.4.1m13.8-5.7c-.4 0-.8-.2-.9-.6-.2-.5 0-1.1.5-1.3l4.6-1.9c.5-.2 1.1 0 1.3.5s0 1.1-.5 1.3l-4.6 1.9c-.2.1-.3.1-.4.1m13.7-5.7c-.4 0-.8-.2-.9-.6-.2-.5 0-1.1.5-1.3l4.6-1.9c.5-.2 1.1 0 1.3.5s0 1.1-.5 1.3l-4.6 1.9c-.1.1-.3.1-.4.1m13.7-5.7c-.4 0-.8-.2-.9-.6-.2-.5 0-1.1.5-1.3l4.6-1.9c.5-.2 1.1 0 1.3.5s0 1.1-.5 1.3l-4.6 1.9c-.1.1-.2.1-.4.1m13.8-5.7c-.4 0-.8-.2-.9-.6-.2-.5 0-1.1.5-1.3l4.6-1.9c.5-.2 1.1 0 1.3.5s0 1.1-.5 1.3l-4.6 1.9c-.2.1-.3.1-.4.1m13.7-5.7c-.4 0-.8-.2-.9-.6-.2-.5 0-1.1.5-1.3l4.6-1.9c.5-.2 1.1 0 1.3.5s0 1.1-.5 1.3l-4.6 1.9c-.2.1-.3.1-.4.1m13.7-5.7c-.4 0-.8-.2-.9-.6-.2-.5 0-1.1.5-1.3l4.6-1.9c.5-.2 1.1 0 1.3.5s0 1.1-.5 1.3l-4.6 1.9c-.1.1-.3.1-.4.1m13.8-5.6c-.4 0-.8-.2-.9-.6-.2-.5 0-1.1.5-1.3l4.6-1.9c.5-.2 1.1 0 1.3.5s0 1.1-.5 1.3l-4.6 1.9c-.2 0-.3.1-.4.1m13.7-5.7c-.4 0-.8-.2-.9-.6-.2-.5 0-1.1.5-1.3l4.6-1.9c.5-.2 1.1 0 1.3.5s0 1.1-.5 1.3l-4.6 1.9c-.2 0-.3.1-.4.1m13.7-5.7c-.4 0-.8-.2-.9-.6-.2-.5 0-1.1.5-1.3l4.6-1.9c.5-.2 1.1 0 1.3.5s0 1.1-.5 1.3l-4.6 1.9c-.1.1-.3.1-.4.1m13.7-5.7c-.4 0-.8-.2-.9-.6-.2-.5 0-1.1.5-1.3l2.3-1c.5-.2 1.1 0 1.3.5s0 1.1-.5 1.3l-2.3 1c-.1.1-.2.1-.4.1"/><path fill="#f4b8dd" d="M319.3 637.6 826 130.9"/><path fill="#f998d0" d="M319.3 638.6c-.3 0-.5-.1-.7-.3-.4-.4-.4-1 0-1.4l1.8-1.8C320.8 634.7 321.4 634.7 321.8 635.1s.4 1 0 1.4l-1.8 1.8c-.2.2-.4.3-.7.3m8.8-8.9c-.3 0-.5-.1-.7-.3-.4-.4-.4-1 0-1.4l3.5-3.5C331.3 624.1 331.9 624.1 332.3 624.5s.4 1 0 1.4l-3.5 3.5c-.2.3-.4.3-.7.3m10.6-10.5c-.3 0-.5-.1-.7-.3-.4-.4-.4-1 0-1.4l3.5-3.5C341.9 613.6 342.5 613.6 342.9 614s.4 1 0 1.4l-3.5 3.5c-.2.2-.5.3-.7.3m10.5-10.6c-.3 0-.5-.1-.7-.3-.4-.4-.4-1 0-1.4l3.5-3.5C352.4 603 353 603 353.4 603.4s.4 1 0 1.4l-3.5 3.5c-.2.2-.4.3-.7.3m10.6-10.5c-.3 0-.5-.1-.7-.3-.4-.4-.4-1 0-1.4l3.5-3.5C363 592.5 363.6 592.5 364 592.9s.4 1 0 1.4l-3.5 3.5c-.2.2-.5.3-.7.3m10.5-10.6c-.3 0-.5-.1-.7-.3-.4-.4-.4-1 0-1.4l3.5-3.5C373.5 581.9 374.1 581.9 374.5 582.3s.4 1 0 1.4l-3.5 3.5c-.2.2-.4.3-.7.3m10.6-10.5c-.3 0-.5-.1-.7-.3-.4-.4-.4-1 0-1.4l3.5-3.5C384.1 571.4 384.7 571.4 385.1 571.8s.4 1 0 1.4l-3.5 3.5c-.2.2-.5.3-.7.3m10.5-10.6c-.3 0-.5-.1-.7-.3-.4-.4-.4-1 0-1.4l3.5-3.5c.4-.4 1-.4 1.4 0s.4 1 0 1.4l-3.5 3.5c-.1.2-.4.3-.7.3m10.6-10.5c-.3 0-.5-.1-.7-.3-.4-.4-.4-1 0-1.4l3.5-3.5c.4-.4 1-.4 1.4 0s.4 1 0 1.4l-3.5 3.5c-.2.2-.4.3-.7.3m10.6-10.6c-.3 0-.5-.1-.7-.3-.4-.4-.4-1 0-1.4l3.5-3.5c.4-.4 1-.4 1.4 0s.4 1 0 1.4l-3.5 3.5c-.2.2-.5.3-.7.3m10.5-10.5c-.3 0-.5-.1-.7-.3-.4-.4-.4-1 0-1.4l3.5-3.5c.4-.4 1-.4 1.4 0s.4 1 0 1.4l-3.5 3.5c-.2.2-.4.3-.7.3m10.6-10.6c-.3 0-.5-.1-.7-.3-.4-.4-.4-1 0-1.4l3.5-3.5c.4-.4 1-.4 1.4 0s.4 1 0 1.4l-3.5 3.5c-.2.2-.5.3-.7.3m10.5-10.6c-.3 0-.5-.1-.7-.3-.4-.4-.4-1 0-1.4l3.5-3.5c.4-.4 1-.4 1.4 0s.4 1 0 1.4l-3.5 3.5c-.2.2-.4.3-.7.3m10.6-10.5c-.3 0-.5-.1-.7-.3-.4-.4-.4-1 0-1.4l3.5-3.5C458 497.5 458.6 497.5 459 497.9s.4 1 0 1.4l-3.5 3.5c-.2.2-.5.3-.7.3m10.5-10.6c-.3 0-.5-.1-.7-.3-.4-.4-.4-1 0-1.4l3.5-3.5C468.5 486.9 469.1 486.9 469.5 487.3s.4 1 0 1.4l-3.5 3.5c-.2.2-.4.3-.7.3m10.6-10.5c-.3 0-.5-.1-.7-.3-.4-.4-.4-1 0-1.4l3.5-3.5C479.1 476.4 479.7 476.4 480.1 476.8s.4 1 0 1.4l-3.5 3.5c-.2.2-.5.3-.7.3m10.5-10.6c-.3 0-.5-.1-.7-.3-.4-.4-.4-1 0-1.4l3.5-3.5C489.6 465.8 490.2 465.8 490.6 466.2s.4 1 0 1.4l-3.5 3.5c-.1.2-.4.3-.7.3m10.6-10.5c-.3 0-.5-.1-.7-.3-.4-.4-.4-1 0-1.4l3.5-3.5C500.2 455.3 500.8 455.3 501.2 455.7s.4 1 0 1.4l-3.5 3.5c-.2.2-.5.3-.7.3m10.5-10.6c-.3 0-.5-.1-.7-.3-.4-.4-.4-1 0-1.4l3.5-3.5C510.7 444.7 511.3 444.7 511.7 445.1s.4 1 0 1.4l-3.5 3.5c-.1.2-.4.3-.7.3m10.6-10.5c-.3 0-.5-.1-.7-.3-.4-.4-.4-1 0-1.4l3.5-3.5C521.3 434.2 521.9 434.2 522.3 434.6s.4 1 0 1.4l-3.5 3.5c-.2.2-.4.3-.7.3m10.6-10.6c-.3 0-.5-.1-.7-.3-.4-.4-.4-1 0-1.4l3.5-3.5C531.9 423.6 532.5 423.6 532.9 424s.4 1 0 1.4l-3.5 3.5c-.2.2-.5.3-.7.3m10.5-10.5c-.3 0-.5-.1-.7-.3-.4-.4-.4-1 0-1.4l3.5-3.5C542.4 413.1 543 413.1 543.4 413.5s.4 1 0 1.4l-3.5 3.5c-.2.2-.4.3-.7.3m10.6-10.6c-.3 0-.5-.1-.7-.3-.4-.4-.4-1 0-1.4l3.5-3.5C553 402.5 553.6 402.5 554 402.9s.4 1 0 1.4l-3.5 3.5c-.2.2-.5.3-.7.3m10.5-10.6c-.3 0-.5-.1-.7-.3-.4-.4-.4-1 0-1.4l3.5-3.5C563.5 391.9 564.1 391.9 564.5 392.3s.4 1 0 1.4l-3.5 3.5c-.2.2-.4.3-.7.3m10.6-10.5c-.3 0-.5-.1-.7-.3-.4-.4-.4-1 0-1.4l3.5-3.5C574.1 381.4 574.7 381.4 575.1 381.8s.4 1 0 1.4l-3.5 3.5c-.2.2-.5.3-.7.3m10.5-10.6c-.3 0-.5-.1-.7-.3-.4-.4-.4-1 0-1.4l3.5-3.5C584.6 370.8 585.2 370.8 585.6 371.2s.4 1 0 1.4l-3.5 3.5c-.2.2-.4.3-.7.3m10.6-10.5c-.3 0-.5-.1-.7-.3-.4-.4-.4-1 0-1.4l3.5-3.5C595.2 360.3 595.8 360.3 596.2 360.7s.4 1 0 1.4l-3.5 3.5c-.2.2-.5.3-.7.3m10.5-10.6c-.3 0-.5-.1-.7-.3-.4-.4-.4-1 0-1.4l3.5-3.5C605.7 349.7 606.3 349.7 606.7 350.1s.4 1 0 1.4l-3.5 3.5c-.1.2-.4.3-.7.3m10.6-10.5c-.3 0-.5-.1-.7-.3-.4-.4-.4-1 0-1.4l3.5-3.5C616.3 339.2 616.9 339.2 617.3 339.6s.4 1 0 1.4l-3.5 3.5c-.2.2-.4.3-.7.3m10.6-10.6c-.3 0-.5-.1-.7-.3-.4-.4-.4-1 0-1.4l3.5-3.5C626.9 328.6 627.5 328.6 627.9 329s.4 1 0 1.4l-3.5 3.5c-.2.2-.5.3-.7.3m10.5-10.5c-.3 0-.5-.1-.7-.3-.4-.4-.4-1 0-1.4l3.5-3.5C637.4 318.1 638 318.1 638.4 318.5s.4 1 0 1.4l-3.5 3.5c-.2.2-.4.3-.7.3m10.6-10.6c-.3 0-.5-.1-.7-.3-.4-.4-.4-1 0-1.4l3.5-3.5C648 307.5 648.6 307.5 649 307.9s.4 1 0 1.4l-3.5 3.5c-.2.2-.5.3-.7.3m10.5-10.6c-.3 0-.5-.1-.7-.3-.4-.4-.4-1 0-1.4l3.5-3.5C658.5 296.9 659.1 296.9 659.5 297.3s.4 1 0 1.4l-3.5 3.5c-.2.2-.4.3-.7.3m10.6-10.5c-.3 0-.5-.1-.7-.3-.4-.4-.4-1 0-1.4l3.5-3.5C669.1 286.4 669.7 286.4 670.1 286.8s.4 1 0 1.4l-3.5 3.5c-.2.2-.5.3-.7.3m10.5-10.6c-.3 0-.5-.1-.7-.3-.4-.4-.4-1 0-1.4l3.5-3.5C679.6 275.8 680.2 275.8 680.6 276.2s.4 1 0 1.4l-3.5 3.5c-.2.2-.4.3-.7.3m10.6-10.5c-.3 0-.5-.1-.7-.3-.4-.4-.4-1 0-1.4l3.5-3.5C690.2 265.3 690.8 265.3 691.2 265.7s.4 1 0 1.4l-3.5 3.5c-.2.2-.5.3-.7.3m10.5-10.6c-.3 0-.5-.1-.7-.3-.4-.4-.4-1 0-1.4l3.5-3.5C700.7 254.7 701.3 254.7 701.7 255.1s.4 1 0 1.4l-3.5 3.5c-.2.2-.4.3-.7.3m10.6-10.5c-.3 0-.5-.1-.7-.3-.4-.4-.4-1 0-1.4l3.5-3.5C711.3 244.2 711.9 244.2 712.3 244.6s.4 1 0 1.4l-3.5 3.5c-.2.2-.5.3-.7.3m10.5-10.6c-.3 0-.5-.1-.7-.3-.4-.4-.4-1 0-1.4l3.5-3.5C721.8 233.6 722.4 233.6 722.8 234s.4 1 0 1.4l-3.5 3.5c-.1.2-.4.3-.7.3m10.6-10.5c-.3 0-.5-.1-.7-.3-.4-.4-.4-1 0-1.4l3.5-3.5C732.4 223.1 733 223.1 733.4 223.5s.4 1 0 1.4l-3.5 3.5c-.2.2-.4.3-.7.3m10.6-10.6c-.3 0-.5-.1-.7-.3-.4-.4-.4-1 0-1.4l3.5-3.5C743 212.5 743.6 212.5 744 212.9s.4 1 0 1.4l-3.5 3.5c-.2.2-.5.3-.7.3m10.5-10.5c-.3 0-.5-.1-.7-.3-.4-.4-.4-1 0-1.4l3.5-3.5C753.5 202 754.1 202 754.5 202.4s.4 1 0 1.4l-3.5 3.5c-.2.2-.4.3-.7.3m10.6-10.6c-.3 0-.5-.1-.7-.3-.4-.4-.4-1 0-1.4l3.5-3.5C764.1 191.4 764.7 191.4 765.1 191.8s.4 1 0 1.4l-3.5 3.5c-.2.2-.5.3-.7.3m10.5-10.6c-.3 0-.5-.1-.7-.3-.4-.4-.4-1 0-1.4l3.5-3.5C774.6 180.8 775.2 180.8 775.6 181.2s.4 1 0 1.4l-3.5 3.5c-.2.2-.4.3-.7.3m10.6-10.5c-.3 0-.5-.1-.7-.3-.4-.4-.4-1 0-1.4l3.5-3.5C785.2 170.3 785.8 170.3 786.2 170.7s.4 1 0 1.4l-3.5 3.5c-.2.2-.5.3-.7.3m10.5-10.6c-.3 0-.5-.1-.7-.3-.4-.4-.4-1 0-1.4l3.5-3.5C795.7 159.7 796.3 159.7 796.7 160.1s.4 1 0 1.4l-3.5 3.5c-.2.2-.4.3-.7.3m10.6-10.5c-.3 0-.5-.1-.7-.3-.4-.4-.4-1 0-1.4l3.5-3.5C806.3 149.2 806.9 149.2 807.3 149.6s.4 1 0 1.4l-3.5 3.5c-.2.2-.5.3-.7.3m10.5-10.6c-.3 0-.5-.1-.7-.3-.4-.4-.4-1 0-1.4l3.5-3.5C816.8 138.6 817.4 138.6 817.8 139s.4 1 0 1.4l-3.5 3.5c-.1.2-.4.3-.7.3m10.6-10.5c-.3 0-.5-.1-.7-.3-.4-.4-.4-1 0-1.4l1.8-1.8C825.7 129.8 826.3 129.8 826.7 130.2s.4 1 0 1.4l-1.8 1.8c-.2.2-.4.3-.7.3"/><path fill="#f4b8dd" d="M466.7 639.1 677 131.4"/><path fill="#f998d0" d="M466.7 640.1c-.1 0-.3 0-.4-.1-.5-.2-.8-.8-.5-1.3l1-2.3c.2-.5.8-.8 1.3-.5.5.2.8.8.5 1.3l-1 2.3c-.1.4-.5.6-.9.6m4.7-11.5c-.1 0-.3 0-.4-.1-.5-.2-.8-.8-.5-1.3l1.9-4.6c.2-.5.8-.8 1.3-.5.5.2.8.8.5 1.3l-1.9 4.6c-.1.4-.5.6-.9.6m5.7-13.7c-.1 0-.3 0-.4-.1-.5-.2-.8-.8-.5-1.3l1.9-4.6c.2-.5.8-.8 1.3-.5.5.2.8.8.5 1.3l-1.9 4.6c-.1.4-.5.6-.9.6m5.7-13.7c-.1 0-.3 0-.4-.1-.5-.2-.8-.8-.5-1.3l1.9-4.6c.2-.5.8-.8 1.3-.5.5.2.8.8.5 1.3l-1.9 4.6c-.1.4-.5.6-.9.6m5.7-13.7c-.1 0-.3 0-.4-.1-.5-.2-.8-.8-.5-1.3l1.9-4.6c.2-.5.8-.8 1.3-.5.5.2.8.8.5 1.3l-1.9 4.6c-.1.3-.5.6-.9.6m5.7-13.7c-.1 0-.3 0-.4-.1-.5-.2-.8-.8-.5-1.3l1.9-4.6c.2-.5.8-.8 1.3-.5.5.2.8.8.5 1.3l-1.9 4.6c-.2.3-.5.6-.9.6m5.7-13.8c-.1 0-.3 0-.4-.1-.5-.2-.8-.8-.5-1.3l1.9-4.6c.2-.5.8-.8 1.3-.5.5.2.8.8.5 1.3l-1.9 4.6c-.2.4-.6.6-.9.6m5.6-13.7c-.1 0-.3 0-.4-.1-.5-.2-.8-.8-.5-1.3l1.9-4.6c.2-.5.8-.8 1.3-.5.5.2.8.8.5 1.3l-1.9 4.6c-.1.4-.5.6-.9.6m5.7-13.7c-.1 0-.3 0-.4-.1-.5-.2-.8-.8-.5-1.3l1.9-4.6c.2-.5.8-.8 1.3-.5.5.2.8.8.5 1.3l-1.9 4.6c-.1.4-.5.6-.9.6m5.7-13.7c-.1 0-.3 0-.4-.1-.5-.2-.8-.8-.5-1.3l1.9-4.6c.2-.5.8-.8 1.3-.5.5.2.8.8.5 1.3l-1.9 4.6c-.1.3-.5.6-.9.6m5.7-13.7c-.1 0-.3 0-.4-.1-.5-.2-.8-.8-.5-1.3l1.9-4.6c.2-.5.8-.8 1.3-.5.5.2.8.8.5 1.3l-1.9 4.6c-.1.3-.5.6-.9.6m5.7-13.8c-.1 0-.3 0-.4-.1-.5-.2-.8-.8-.5-1.3l1.9-4.6c.2-.5.8-.8 1.3-.5.5.2.8.8.5 1.3l-1.9 4.6q-.3.6-.9.6m5.7-13.7c-.1 0-.3 0-.4-.1-.5-.2-.8-.8-.5-1.3l1.9-4.6c.2-.5.8-.8 1.3-.5.5.2.8.8.5 1.3l-1.9 4.6c-.2.4-.6.6-.9.6m5.6-13.7c-.1 0-.3 0-.4-.1-.5-.2-.8-.8-.5-1.3l1.9-4.6c.2-.5.8-.8 1.3-.5.5.2.8.8.5 1.3l-1.9 4.6c-.1.4-.5.6-.9.6m5.7-13.7c-.1 0-.3 0-.4-.1-.5-.2-.8-.8-.5-1.3l1.9-4.6c.2-.5.8-.8 1.3-.5.5.2.8.8.5 1.3l-1.9 4.6c-.1.3-.5.6-.9.6m5.7-13.7c-.1 0-.3 0-.4-.1-.5-.2-.8-.8-.5-1.3l1.9-4.6c.2-.5.8-.8 1.3-.5.5.2.8.8.5 1.3l-1.9 4.6c-.1.3-.5.6-.9.6m5.7-13.8c-.1 0-.3 0-.4-.1-.5-.2-.8-.8-.5-1.3l1.9-4.6c.2-.5.8-.8 1.3-.5.5.2.8.8.5 1.3l-1.9 4.6c-.1.4-.5.6-.9.6m5.7-13.7c-.1 0-.3 0-.4-.1-.5-.2-.8-.8-.5-1.3l1.9-4.6c.2-.5.8-.8 1.3-.5.5.2.8.8.5 1.3l-1.9 4.6q-.3.6-.9.6m5.7-13.7c-.1 0-.3 0-.4-.1-.5-.2-.8-.8-.5-1.3l1.9-4.6c.2-.5.8-.8 1.3-.5.5.2.8.8.5 1.3l-1.9 4.6c-.2.4-.6.6-.9.6m5.6-13.7c-.1 0-.3 0-.4-.1-.5-.2-.8-.8-.5-1.3l1.9-4.6c.2-.5.8-.8 1.3-.5.5.2.8.8.5 1.3l-1.9 4.6c-.1.3-.5.6-.9.6m5.7-13.7c-.1 0-.3 0-.4-.1-.5-.2-.8-.8-.5-1.3l1.9-4.6c.2-.5.8-.8 1.3-.5.5.2.8.8.5 1.3l-1.9 4.6c-.1.3-.5.6-.9.6m5.7-13.8c-.1 0-.3 0-.4-.1-.5-.2-.8-.8-.5-1.3l1.9-4.6c.2-.5.8-.8 1.3-.5.5.2.8.8.5 1.3l-1.9 4.6c-.1.4-.5.6-.9.6m5.7-13.7c-.1 0-.3 0-.4-.1-.5-.2-.8-.8-.5-1.3l1.9-4.6c.2-.5.8-.8 1.3-.5.5.2.8.8.5 1.3l-1.9 4.6q-.3.6-.9.6m5.7-13.7c-.1 0-.3 0-.4-.1-.5-.2-.8-.8-.5-1.3l1.9-4.6c.2-.5.8-.8 1.3-.5.5.2.8.8.5 1.3l-1.9 4.6q-.3.6-.9.6m5.7-13.7c-.1 0-.3 0-.4-.1-.5-.2-.8-.8-.5-1.3l1.9-4.6c.2-.5.8-.8 1.3-.5.5.2.8.8.5 1.3l-1.9 4.6c-.2.3-.6.6-.9.6m5.6-13.7c-.1 0-.3 0-.4-.1-.5-.2-.8-.8-.5-1.3l1.9-4.6c.2-.5.8-.8 1.3-.5.5.2.8.8.5 1.3l-1.9 4.6c-.1.3-.5.6-.9.6m5.7-13.8c-.1 0-.3 0-.4-.1-.5-.2-.8-.8-.5-1.3l1.9-4.6c.2-.5.8-.8 1.3-.5.5.2.8.8.5 1.3l-1.9 4.6c-.1.4-.5.6-.9.6m5.7-13.7c-.1 0-.3 0-.4-.1-.5-.2-.8-.8-.5-1.3l1.9-4.6c.2-.5.8-.8 1.3-.5.5.2.8.8.5 1.3l-1.9 4.6c-.1.4-.5.6-.9.6m5.7-13.7c-.1 0-.3 0-.4-.1-.5-.2-.8-.8-.5-1.3l1.9-4.6c.2-.5.8-.8 1.3-.5.5.2.8.8.5 1.3l-1.9 4.6q-.3.6-.9.6m5.7-13.7c-.1 0-.3 0-.4-.1-.5-.2-.8-.8-.5-1.3l1.9-4.6c.2-.5.8-.8 1.3-.5.5.2.8.8.5 1.3l-1.9 4.6c-.2.3-.5.6-.9.6m5.7-13.8c-.1 0-.3 0-.4-.1-.5-.2-.8-.8-.5-1.3l1.9-4.6c.2-.5.8-.8 1.3-.5.5.2.8.8.5 1.3l-1.9 4.6c-.2.4-.6.6-.9.6m5.6-13.7c-.1 0-.3 0-.4-.1-.5-.2-.8-.8-.5-1.3l1.9-4.6c.2-.5.8-.8 1.3-.5.5.2.8.8.5 1.3l-1.9 4.6c-.1.4-.5.6-.9.6m5.7-13.7c-.1 0-.3 0-.4-.1-.5-.2-.8-.8-.5-1.3l1.9-4.6c.2-.5.8-.8 1.3-.5.5.2.8.8.5 1.3l-1.9 4.6c-.1.4-.5.6-.9.6m5.7-13.7c-.1 0-.3 0-.4-.1-.5-.2-.8-.8-.5-1.3l1.9-4.6c.2-.5.8-.8 1.3-.5.5.2.8.8.5 1.3l-1.9 4.6c-.1.4-.5.6-.9.6m5.7-13.7c-.1 0-.3 0-.4-.1-.5-.2-.8-.8-.5-1.3l1.9-4.6c.2-.5.8-.8 1.3-.5.5.2.8.8.5 1.3l-1.9 4.6c-.2.3-.5.6-.9.6m5.7-13.8c-.1 0-.3 0-.4-.1-.5-.2-.8-.8-.5-1.3l1.9-4.6c.2-.5.8-.8 1.3-.5.5.2.8.8.5 1.3l-1.9 4.6q-.3.6-.9.6m5.6-13.7c-.1 0-.3 0-.4-.1-.5-.2-.8-.8-.5-1.3l1.9-4.6c.2-.5.8-.8 1.3-.5.5.2.8.8.5 1.3l-1.9 4.6c-.1.4-.5.6-.9.6m5.7-13.7c-.1 0-.3 0-.4-.1-.5-.2-.8-.8-.5-1.3l1-2.3c.2-.5.8-.8 1.3-.5.5.2.8.8.5 1.3l-1 2.3c-.1.4-.5.6-.9.6"/><path fill="#f4b8dd" d="M677.3 639.1 466.8 131"/><path fill="#f998d0" d="M677.3 640.1c-.4 0-.8-.2-.9-.6l-1-2.3c-.2-.5 0-1.1.5-1.3s1.1 0 1.3.5l1 2.3c.2.5 0 1.1-.5 1.3-.1.1-.3.1-.4.1m-4.7-11.5c-.4 0-.8-.2-.9-.6l-1.9-4.6c-.2-.5 0-1.1.5-1.3s1.1 0 1.3.5l1.9 4.6c.2.5 0 1.1-.5 1.3-.2.1-.3.1-.4.1m-5.7-13.7c-.4 0-.8-.2-.9-.6l-1.9-4.6c-.2-.5 0-1.1.5-1.3s1.1 0 1.3.5l1.9 4.6c.2.5 0 1.1-.5 1.3-.2.1-.3.1-.4.1m-5.7-13.7c-.4 0-.8-.2-.9-.6l-1.9-4.6c-.2-.5 0-1.1.5-1.3s1.1 0 1.3.5l1.9 4.6c.2.5 0 1.1-.5 1.3-.2 0-.3.1-.4.1m-5.7-13.8c-.4 0-.8-.2-.9-.6l-1.9-4.6c-.2-.5 0-1.1.5-1.3s1.1 0 1.3.5l1.9 4.6c.2.5 0 1.1-.5 1.3-.1.1-.3.1-.4.1m-5.7-13.7c-.4 0-.8-.2-.9-.6l-1.9-4.6c-.2-.5 0-1.1.5-1.3s1.1 0 1.3.5l1.9 4.6c.2.5 0 1.1-.5 1.3-.1.1-.3.1-.4.1m-5.7-13.7c-.4 0-.8-.2-.9-.6l-1.9-4.6c-.2-.5 0-1.1.5-1.3s1.1 0 1.3.5l1.9 4.6c.2.5 0 1.1-.5 1.3-.1.1-.3.1-.4.1m-5.7-13.8c-.4 0-.8-.2-.9-.6l-1.9-4.6c-.2-.5 0-1.1.5-1.3s1.1 0 1.3.5l1.9 4.6c.2.5 0 1.1-.5 1.3-.1.1-.2.1-.4.1m-5.7-13.7c-.4 0-.8-.2-.9-.6l-1.9-4.6c-.2-.5 0-1.1.5-1.3s1.1 0 1.3.5l1.9 4.6c.2.5 0 1.1-.5 1.3-.1.1-.2.1-.4.1m-5.6-13.7c-.4 0-.8-.2-.9-.6l-1.9-4.6c-.2-.5 0-1.1.5-1.3s1.1 0 1.3.5l1.9 4.6c.2.5 0 1.1-.5 1.3-.2.1-.3.1-.4.1m-5.7-13.7c-.4 0-.8-.2-.9-.6l-1.9-4.6c-.2-.5 0-1.1.5-1.3s1.1 0 1.3.5l1.9 4.6c.2.5 0 1.1-.5 1.3-.2 0-.3.1-.4.1m-5.7-13.8c-.4 0-.8-.2-.9-.6l-1.9-4.6c-.2-.5 0-1.1.5-1.3s1.1 0 1.3.5l1.9 4.6c.2.5 0 1.1-.5 1.3-.2.1-.3.1-.4.1m-5.7-13.7c-.4 0-.8-.2-.9-.6l-1.9-4.6c-.2-.5 0-1.1.5-1.3s1.1 0 1.3.5l1.9 4.6c.2.5 0 1.1-.5 1.3-.1.1-.3.1-.4.1m-5.7-13.7c-.4 0-.8-.2-.9-.6l-1.9-4.6c-.2-.5 0-1.1.5-1.3s1.1 0 1.3.5l1.9 4.6c.2.5 0 1.1-.5 1.3-.1 0-.3.1-.4.1m-5.7-13.8c-.4 0-.8-.2-.9-.6l-1.9-4.6c-.2-.5 0-1.1.5-1.3s1.1 0 1.3.5l1.9 4.6c.2.5 0 1.1-.5 1.3-.1.1-.3.1-.4.1m-5.7-13.7c-.4 0-.8-.2-.9-.6l-1.9-4.6c-.2-.5 0-1.1.5-1.3s1.1 0 1.3.5l1.9 4.6c.2.5 0 1.1-.5 1.3-.1.1-.2.1-.4.1m-5.7-13.7c-.4 0-.8-.2-.9-.6l-1.9-4.6c-.2-.5 0-1.1.5-1.3s1.1 0 1.3.5l1.9 4.6c.2.5 0 1.1-.5 1.3-.1 0-.2.1-.4.1m-5.6-13.8c-.4 0-.8-.2-.9-.6l-1.9-4.6c-.2-.5 0-1.1.5-1.3s1.1 0 1.3.5l1.9 4.6c.2.5 0 1.1-.5 1.3-.2.1-.3.1-.4.1m-5.7-13.7c-.4 0-.8-.2-.9-.6l-2-4.6c-.2-.5 0-1.1.5-1.3s1.1 0 1.3.5l1.9 4.6c.2.5 0 1.1-.5 1.3-.1.1-.2.1-.3.1m-5.7-13.7c-.4 0-.8-.2-.9-.6l-1.9-4.6c-.2-.5 0-1.1.5-1.3s1.1 0 1.3.5l1.9 4.6c.2.5 0 1.1-.5 1.3-.2 0-.3.1-.4.1m-5.7-13.8c-.4 0-.8-.2-.9-.6l-1.9-4.6c-.2-.5 0-1.1.5-1.3s1.1 0 1.3.5l1.9 4.6c.2.5 0 1.1-.5 1.3-.2.1-.3.1-.4.1m-5.7-13.7c-.4 0-.8-.2-.9-.6l-1.9-4.6c-.2-.5 0-1.1.5-1.3s1.1 0 1.3.5l1.9 4.6c.2.5 0 1.1-.5 1.3-.1.1-.3.1-.4.1m-5.7-13.7c-.4 0-.8-.2-.9-.6l-1.9-4.6c-.2-.5 0-1.1.5-1.3s1.1 0 1.3.5l1.9 4.6c.2.5 0 1.1-.5 1.3-.1 0-.3.1-.4.1m-5.7-13.8c-.4 0-.8-.2-.9-.6l-1.9-4.6c-.2-.5 0-1.1.5-1.3s1.1 0 1.3.5l1.9 4.6c.2.5 0 1.1-.5 1.3-.1.1-.2.1-.4.1m-5.7-13.7c-.4 0-.8-.2-.9-.6l-1.9-4.6c-.2-.5 0-1.1.5-1.3s1.1 0 1.3.5l1.9 4.6c.2.5 0 1.1-.5 1.3-.1.1-.2.1-.4.1m-5.6-13.7c-.4 0-.8-.2-.9-.6l-1.9-4.6c-.2-.5 0-1.1.5-1.3s1.1 0 1.3.5l1.9 4.6c.2.5 0 1.1-.5 1.3-.2.1-.3.1-.4.1m-5.7-13.8c-.4 0-.8-.2-.9-.6l-1.9-4.6c-.2-.5 0-1.1.5-1.3s1.1 0 1.3.5l1.9 4.6c.2.5 0 1.1-.5 1.3-.2.1-.3.1-.4.1m-5.7-13.7c-.4 0-.8-.2-.9-.6l-1.9-4.6c-.2-.5 0-1.1.5-1.3s1.1 0 1.3.5l1.9 4.6c.2.5 0 1.1-.5 1.3-.2.1-.3.1-.4.1m-5.7-13.7c-.4 0-.8-.2-.9-.6l-1.9-4.6c-.2-.5 0-1.1.5-1.3s1.1 0 1.3.5l1.9 4.6c.2.5 0 1.1-.5 1.3-.2.1-.3.1-.4.1m-5.7-13.7c-.4 0-.8-.2-.9-.6l-1.9-4.6c-.2-.5 0-1.1.5-1.3s1.1 0 1.3.5l1.9 4.6c.2.5 0 1.1-.5 1.3-.1 0-.3.1-.4.1m-5.7-13.8c-.4 0-.8-.2-.9-.6l-1.9-4.6c-.2-.5 0-1.1.5-1.3s1.1 0 1.3.5l1.9 4.6c.2.5 0 1.1-.5 1.3-.1.1-.3.1-.4.1m-5.7-13.7c-.4 0-.8-.2-.9-.6l-1.9-4.6c-.2-.5 0-1.1.5-1.3s1.1 0 1.3.5l1.9 4.6c.2.5 0 1.1-.5 1.3-.1.1-.2.1-.4.1m-5.7-13.7c-.4 0-.8-.2-.9-.6l-1.9-4.6c-.2-.5 0-1.1.5-1.3s1.1 0 1.3.5l1.9 4.6c.2.5 0 1.1-.5 1.3-.1 0-.2.1-.4.1m-5.6-13.8c-.4 0-.8-.2-.9-.6l-1.9-4.6c-.2-.5 0-1.1.5-1.3s1.1 0 1.3.5l1.9 4.6c.2.5 0 1.1-.5 1.3-.2.1-.3.1-.4.1m-5.7-13.7c-.4 0-.8-.2-.9-.6l-1.9-4.6c-.2-.5 0-1.1.5-1.3s1.1 0 1.3.5l1.9 4.6c.2.5 0 1.1-.5 1.3-.2.1-.3.1-.4.1m-5.7-13.7c-.4 0-.8-.2-.9-.6l-1.9-4.6c-.2-.5 0-1.1.5-1.3s1.1 0 1.3.5l1.9 4.6c.2.5 0 1.1-.5 1.3-.2 0-.3.1-.4.1m-5.7-13.8c-.4 0-.8-.2-.9-.6l-1.9-4.6c-.2-.5 0-1.1.5-1.3s1.1 0 1.3.5l1.9 4.6c.2.5 0 1.1-.5 1.3-.2.1-.3.1-.4.1m-5.7-13.7c-.4 0-.8-.2-.9-.6l-1-2.3c-.2-.5 0-1.1.5-1.3s1.1 0 1.3.5l1 2.3c.2.5 0 1.1-.5 1.3-.1.1-.3.1-.4.1"/><path fill="#f4b8dd" d="M823.3 636.2 318.1 131"/><path fill="#f998d0" d="M823.3 637.2c-.3 0-.5-.1-.7-.3l-1.8-1.8c-.4-.4-.4-1 0-1.4s1-.4 1.4 0l1.8 1.8c.4.4.4 1 0 1.4-.2.2-.4.3-.7.3m-8.8-8.8c-.3 0-.5-.1-.7-.3l-3.5-3.5c-.4-.4-.4-1 0-1.4s1-.4 1.4 0l3.5 3.5c.4.4.4 1 0 1.4-.1.2-.4.3-.7.3M804 617.9c-.3 0-.5-.1-.7-.3l-3.5-3.5c-.4-.4-.4-1 0-1.4s1-.4 1.4 0l3.5 3.5c.4.4.4 1 0 1.4-.2.2-.4.3-.7.3m-10.5-10.5c-.3 0-.5-.1-.7-.3l-3.5-3.5c-.4-.4-.4-1 0-1.4s1-.4 1.4 0l3.5 3.5c.4.4.4 1 0 1.4-.2.2-.5.3-.7.3M783 596.8c-.3 0-.5-.1-.7-.3l-3.5-3.5c-.4-.4-.4-1 0-1.4s1-.4 1.4 0l3.5 3.5c.4.4.4 1 0 1.4-.2.2-.5.3-.7.3m-10.6-10.5c-.3 0-.5-.1-.7-.3l-3.5-3.5c-.4-.4-.4-1 0-1.4s1-.4 1.4 0l3.5 3.5c.4.4.4 1 0 1.4-.1.2-.4.3-.7.3m-10.5-10.5c-.3 0-.5-.1-.7-.3l-3.5-3.5c-.4-.4-.4-1 0-1.4s1-.4 1.4 0l3.5 3.5c.4.4.4 1 0 1.4-.2.2-.4.3-.7.3m-10.5-10.5c-.3 0-.5-.1-.7-.3l-3.5-3.5c-.4-.4-.4-1 0-1.4s1-.4 1.4 0l3.5 3.5c.4.4.4 1 0 1.4-.2.2-.5.3-.7.3m-10.5-10.6c-.3 0-.5-.1-.7-.3l-3.5-3.5c-.4-.4-.4-1 0-1.4s1-.4 1.4 0l3.5 3.5c.4.4.4 1 0 1.4-.2.2-.5.3-.7.3m-10.6-10.5c-.3 0-.5-.1-.7-.3l-3.5-3.5c-.4-.4-.4-1 0-1.4s1-.4 1.4 0l3.5 3.5c.4.4.4 1 0 1.4-.1.2-.4.3-.7.3m-10.5-10.5c-.3 0-.5-.1-.7-.3l-3.5-3.5c-.4-.4-.4-1 0-1.4s1-.4 1.4 0l3.5 3.5c.4.4.4 1 0 1.4-.2.2-.4.3-.7.3m-10.5-10.5c-.3 0-.5-.1-.7-.3l-3.5-3.5c-.4-.4-.4-1 0-1.4s1-.4 1.4 0l3.5 3.5c.4.4.4 1 0 1.4-.2.2-.4.3-.7.3m-10.5-10.6c-.3 0-.5-.1-.7-.3l-3.5-3.5c-.4-.4-.4-1 0-1.4s1-.4 1.4 0l3.5 3.5c.4.4.4 1 0 1.4-.2.2-.5.3-.7.3m-10.6-10.5c-.3 0-.5-.1-.7-.3l-3.5-3.5c-.4-.4-.4-1 0-1.4s1-.4 1.4 0l3.5 3.5c.4.4.4 1 0 1.4-.1.2-.4.3-.7.3m-10.5-10.5c-.3 0-.5-.1-.7-.3l-3.5-3.5c-.4-.4-.4-1 0-1.4s1-.4 1.4 0l3.5 3.5c.4.4.4 1 0 1.4-.2.2-.4.3-.7.3m-10.5-10.5c-.3 0-.5-.1-.7-.3l-3.5-3.5c-.4-.4-.4-1 0-1.4s1-.4 1.4 0l3.5 3.5c.4.4.4 1 0 1.4-.2.2-.4.3-.7.3m-10.5-10.6c-.3 0-.5-.1-.7-.3l-3.5-3.5c-.4-.4-.4-1 0-1.4s1-.4 1.4 0l3.5 3.5c.4.4.4 1 0 1.4-.2.2-.5.3-.7.3M646.1 460c-.3 0-.5-.1-.7-.3l-3.5-3.5c-.4-.4-.4-1 0-1.4s1-.4 1.4 0l3.5 3.5c.4.4.4 1 0 1.4-.1.2-.4.3-.7.3m-10.5-10.5c-.3 0-.5-.1-.7-.3l-3.5-3.5c-.4-.4-.4-1 0-1.4s1-.4 1.4 0l3.5 3.5c.4.4.4 1 0 1.4-.2.2-.4.3-.7.3M625.1 439c-.3 0-.5-.1-.7-.3l-3.5-3.5c-.4-.4-.4-1 0-1.4s1-.4 1.4 0l3.5 3.5c.4.4.4 1 0 1.4-.2.2-.4.3-.7.3m-10.5-10.6c-.3 0-.5-.1-.7-.3l-3.5-3.5c-.4-.4-.4-1 0-1.4s1-.4 1.4 0l3.5 3.5c.4.4.4 1 0 1.4-.2.2-.5.3-.7.3m-10.5-10.5c-.3 0-.5-.1-.7-.3l-3.5-3.5c-.4-.4-.4-1 0-1.4s1-.4 1.4 0l3.5 3.5c.4.4.4 1 0 1.4-.2.2-.5.3-.7.3m-10.6-10.5c-.3 0-.5-.1-.7-.3l-3.5-3.5c-.4-.4-.4-1 0-1.4s1-.4 1.4 0l3.5 3.5c.4.4.4 1 0 1.4-.2.2-.4.3-.7.3M583 396.9c-.3 0-.5-.1-.7-.3l-3.5-3.5c-.4-.4-.4-1 0-1.4s1-.4 1.4 0l3.5 3.5c.4.4.4 1 0 1.4-.2.2-.4.3-.7.3m-10.5-10.6c-.3 0-.5-.1-.7-.3l-3.5-3.5c-.4-.4-.4-1 0-1.4s1-.4 1.4 0l3.5 3.5c.4.4.4 1 0 1.4-.2.2-.5.3-.7.3M562 375.8c-.3 0-.5-.1-.7-.3l-3.5-3.5c-.4-.4-.4-1 0-1.4s1-.4 1.4 0l3.5 3.5c.4.4.4 1 0 1.4-.2.2-.5.3-.7.3m-10.6-10.5c-.3 0-.5-.1-.7-.3l-3.5-3.5c-.4-.4-.4-1 0-1.4s1-.4 1.4 0l3.5 3.5c.4.4.4 1 0 1.4-.2.2-.4.3-.7.3m-10.5-10.5c-.3 0-.5-.1-.7-.3l-3.5-3.5c-.4-.4-.4-1 0-1.4s1-.4 1.4 0l3.5 3.5c.4.4.4 1 0 1.4-.2.2-.4.3-.7.3m-10.5-10.6c-.3 0-.5-.1-.7-.3l-3.5-3.5c-.4-.4-.4-1 0-1.4s1-.4 1.4 0l3.5 3.5c.4.4.4 1 0 1.4-.2.2-.5.3-.7.3m-10.5-10.5c-.3 0-.5-.1-.7-.3l-3.5-3.5c-.4-.4-.4-1 0-1.4s1-.4 1.4 0l3.5 3.5c.4.4.4 1 0 1.4-.2.2-.5.3-.7.3m-10.6-10.5c-.3 0-.5-.1-.7-.3l-3.5-3.5c-.4-.4-.4-1 0-1.4s1-.4 1.4 0l3.5 3.5c.4.4.4 1 0 1.4-.2.2-.4.3-.7.3m-10.5-10.5c-.3 0-.5-.1-.7-.3l-3.5-3.5c-.4-.4-.4-1 0-1.4s1-.4 1.4 0l3.5 3.5c.4.4.4 1 0 1.4-.2.2-.4.3-.7.3m-10.5-10.6c-.3 0-.5-.1-.7-.3l-3.5-3.5c-.4-.4-.4-1 0-1.4s1-.4 1.4 0l3.5 3.5c.4.4.4 1 0 1.4-.2.3-.5.3-.7.3m-10.5-10.5c-.3 0-.5-.1-.7-.3l-3.5-3.5c-.4-.4-.4-1 0-1.4s1-.4 1.4 0l3.5 3.5c.4.4.4 1 0 1.4-.2.2-.5.3-.7.3m-10.6-10.5c-.3 0-.5-.1-.7-.3l-3.5-3.5c-.4-.4-.4-1 0-1.4s1-.4 1.4 0l3.5 3.5c.4.4.4 1 0 1.4-.2.2-.4.3-.7.3m-10.5-10.5c-.3 0-.5-.1-.7-.3l-3.5-3.5c-.4-.4-.4-1 0-1.4s1-.4 1.4 0l3.5 3.5c.4.4.4 1 0 1.4-.2.2-.4.3-.7.3m-10.5-10.5c-.3 0-.5-.1-.7-.3l-3.5-3.5c-.4-.4-.4-1 0-1.4s1-.4 1.4 0l3.5 3.5c.4.4.4 1 0 1.4-.2.2-.5.3-.7.3m-10.5-10.6c-.3 0-.5-.1-.7-.3l-3.5-3.5c-.4-.4-.4-1 0-1.4s1-.4 1.4 0l3.5 3.5c.4.4.4 1 0 1.4-.2.2-.5.3-.7.3M425.1 239c-.3 0-.5-.1-.7-.3l-3.5-3.5c-.4-.4-.4-1 0-1.4s1-.4 1.4 0l3.5 3.5c.4.4.4 1 0 1.4-.1.2-.4.3-.7.3m-10.5-10.5c-.3 0-.5-.1-.7-.3l-3.5-3.5c-.4-.4-.4-1 0-1.4s1-.4 1.4 0l3.5 3.5c.4.4.4 1 0 1.4-.2.2-.4.3-.7.3M404.1 218c-.3 0-.5-.1-.7-.3l-3.5-3.5c-.4-.4-.4-1 0-1.4s1-.4 1.4 0l3.5 3.5c.4.4.4 1 0 1.4-.2.2-.5.3-.7.3m-10.5-10.6c-.3 0-.5-.1-.7-.3l-3.5-3.5c-.4-.4-.4-1 0-1.4s1-.4 1.4 0l3.5 3.5c.4.4.4 1 0 1.4-.2.2-.5.3-.7.3M383 196.9c-.3 0-.5-.1-.7-.3l-3.5-3.5c-.4-.4-.4-1 0-1.4s1-.4 1.4 0l3.5 3.5c.4.4.4 1 0 1.4-.1.2-.4.3-.7.3m-10.5-10.5c-.3 0-.5-.1-.7-.3l-3.5-3.5c-.4-.4-.4-1 0-1.4s1-.4 1.4 0l3.5 3.5c.4.4.4 1 0 1.4-.2.2-.4.3-.7.3M362 175.9c-.3 0-.5-.1-.7-.3l-3.5-3.5c-.4-.4-.4-1 0-1.4s1-.4 1.4 0l3.5 3.5c.4.4.4 1 0 1.4-.2.2-.5.3-.7.3m-10.5-10.6c-.3 0-.5-.1-.7-.3l-3.5-3.5c-.4-.4-.4-1 0-1.4s1-.4 1.4 0l3.5 3.5c.4.4.4 1 0 1.4-.2.2-.5.3-.7.3m-10.6-10.5c-.3 0-.5-.1-.7-.3l-3.5-3.5c-.4-.4-.4-1 0-1.4s1-.4 1.4 0l3.5 3.5c.4.4.4 1 0 1.4-.1.2-.4.3-.7.3m-10.5-10.5c-.3 0-.5-.1-.7-.3l-3.5-3.5c-.4-.4-.4-1 0-1.4s1-.4 1.4 0l3.5 3.5c.4.4.4 1 0 1.4-.2.2-.4.3-.7.3m-10.5-10.5c-.3 0-.5-.1-.7-.3l-1.8-1.8c-.4-.4-.4-1 0-1.4s1-.4 1.4 0l1.8 1.8c.4.4.4 1 0 1.4-.2.2-.4.3-.7.3"/><path fill="#f4b8dd" d="M826.1 490.1 317.9 279.6"/><path fill="#f998d0" d="M826.1 491.1c-.1 0-.3 0-.4-.1l-2.3-1c-.5-.2-.8-.8-.5-1.3.2-.5.8-.8 1.3-.5l2.3 1c.5.2.8.8.5 1.3-.2.4-.6.6-.9.6m-11.5-4.8c-.1 0-.3 0-.4-.1l-4.6-1.9c-.5-.2-.8-.8-.5-1.3.2-.5.8-.8 1.3-.5l4.6 1.9c.5.2.8.8.5 1.3-.1.4-.5.6-.9.6m-13.7-5.6c-.1 0-.3 0-.4-.1l-4.6-1.9c-.5-.2-.8-.8-.5-1.3.2-.5.8-.8 1.3-.5l4.6 1.9c.5.2.8.8.5 1.3-.2.3-.6.6-.9.6m-13.8-5.7c-.1 0-.3 0-.4-.1l-4.6-1.9c-.5-.2-.8-.8-.5-1.3s.8-.8 1.3-.5l4.6 1.9c.5.2.8.8.5 1.3-.1.3-.5.6-.9.6m-13.7-5.7c-.1 0-.3 0-.4-.1l-4.6-1.9c-.5-.2-.8-.8-.5-1.3.2-.5.8-.8 1.3-.5l4.6 1.9c.5.2.8.8.5 1.3-.1.4-.5.6-.9.6m-13.7-5.7c-.1 0-.3 0-.4-.1l-4.6-1.9c-.5-.2-.8-.8-.5-1.3.2-.5.8-.8 1.3-.5l4.6 1.9c.5.2.8.8.5 1.3q-.3.6-.9.6m-13.8-5.7c-.1 0-.3 0-.4-.1l-4.6-1.9c-.5-.2-.8-.8-.5-1.3.2-.5.8-.8 1.3-.5l4.6 1.9c.5.2.8.8.5 1.3-.1.4-.5.6-.9.6m-13.7-5.7c-.1 0-.3 0-.4-.1l-4.6-1.9c-.5-.2-.8-.8-.5-1.3s.8-.8 1.3-.5l4.6 1.9c.5.2.8.8.5 1.3-.1.4-.5.6-.9.6m-13.7-5.7c-.1 0-.3 0-.4-.1l-4.6-1.9c-.5-.2-.8-.8-.5-1.3.2-.5.8-.8 1.3-.5l4.6 1.9c.5.2.8.8.5 1.3q-.3.6-.9.6m-13.8-5.7c-.1 0-.3 0-.4-.1l-4.6-1.9c-.5-.2-.8-.8-.5-1.3.2-.5.8-.8 1.3-.5l4.6 1.9c.5.2.8.8.5 1.3-.1.4-.5.6-.9.6m-13.7-5.6c-.1 0-.3 0-.4-.1l-4.6-1.9c-.5-.2-.8-.8-.5-1.3s.8-.8 1.3-.5l4.6 1.9c.5.2.8.8.5 1.3-.1.3-.5.6-.9.6m-13.7-5.7c-.1 0-.3 0-.4-.1l-4.6-1.9c-.5-.2-.8-.8-.5-1.3.2-.5.8-.8 1.3-.5l4.6 1.9c.5.2.8.8.5 1.3-.2.3-.5.6-.9.6m-13.8-5.7c-.1 0-.3 0-.4-.1l-4.6-1.9c-.5-.2-.8-.8-.5-1.3.2-.5.8-.8 1.3-.5l4.6 1.9c.5.2.8.8.5 1.3-.1.3-.5.6-.9.6m-13.7-5.7c-.1 0-.3 0-.4-.1l-4.6-1.9c-.5-.2-.8-.8-.5-1.3s.8-.8 1.3-.5l4.6 1.9c.5.2.8.8.5 1.3-.1.4-.5.6-.9.6m-13.7-5.7c-.1 0-.3 0-.4-.1l-4.6-1.9c-.5-.2-.8-.8-.5-1.3s.8-.8 1.3-.5l4.6 1.9c.5.2.8.8.5 1.3q-.3.6-.9.6m-13.8-5.7c-.1 0-.3 0-.4-.1l-4.6-1.9c-.5-.2-.8-.8-.5-1.3.2-.5.8-.8 1.3-.5l4.6 1.9c.5.2.8.8.5 1.3-.1.4-.5.6-.9.6m-13.7-5.7c-.1 0-.3 0-.4-.1l-4.6-1.9c-.5-.2-.8-.8-.5-1.3s.8-.8 1.3-.5l4.6 1.9c.5.2.8.8.5 1.3-.1.4-.5.6-.9.6m-13.7-5.7c-.1 0-.3 0-.4-.1l-4.6-1.9c-.5-.2-.8-.8-.5-1.3.2-.5.8-.8 1.3-.5l4.6 1.9c.5.2.8.8.5 1.3-.1.4-.5.6-.9.6m-13.7-5.6c-.1 0-.3 0-.4-.1l-4.6-1.9c-.5-.2-.8-.8-.5-1.3.2-.5.8-.8 1.3-.5l4.6 1.9c.5.2.8.8.5 1.3-.2.3-.6.6-.9.6m-13.8-5.7c-.1 0-.3 0-.4-.1l-4.6-1.9c-.5-.2-.8-.8-.5-1.3.2-.5.8-.8 1.3-.5l4.6 1.9c.5.2.8.8.5 1.3-.1.3-.5.6-.9.6m-13.7-5.7c-.1 0-.3 0-.4-.1l-4.6-1.9c-.5-.2-.8-.8-.5-1.3.2-.5.8-.8 1.3-.5l4.6 1.9c.5.2.8.8.5 1.3-.1.3-.5.6-.9.6m-13.7-5.7c-.1 0-.3 0-.4-.1l-4.6-1.9c-.5-.2-.8-.8-.5-1.3s.8-.8 1.3-.5l4.6 1.9c.5.2.8.8.5 1.3q-.3.6-.9.6m-13.8-5.7c-.1 0-.3 0-.4-.1l-4.6-1.9c-.5-.2-.8-.8-.5-1.3.2-.5.8-.8 1.3-.5l4.6 1.9c.5.2.8.8.5 1.3-.1.4-.5.6-.9.6m-13.7-5.7c-.1 0-.3 0-.4-.1l-4.6-1.9c-.5-.2-.8-.8-.5-1.3.2-.5.8-.8 1.3-.5l4.6 1.9c.5.2.8.8.5 1.3-.1.4-.5.6-.9.6m-13.7-5.7c-.1 0-.3 0-.4-.1l-4.6-1.9c-.5-.2-.8-.8-.5-1.3s.8-.8 1.3-.5l4.6 1.9c.5.2.8.8.5 1.3q-.3.6-.9.6m-13.8-5.7c-.1 0-.3 0-.4-.1l-4.6-1.9c-.5-.2-.8-.8-.5-1.3.2-.5.8-.8 1.3-.5l4.6 1.9c.5.2.8.8.5 1.3-.1.4-.5.6-.9.6m-13.7-5.6c-.1 0-.3 0-.4-.1l-4.6-1.9c-.5-.2-.8-.8-.5-1.3s.8-.8 1.3-.5l4.6 1.9c.5.2.8.8.5 1.3-.1.3-.5.6-.9.6m-13.7-5.7c-.1 0-.3 0-.4-.1l-4.6-1.9c-.5-.2-.8-.8-.5-1.3s.8-.8 1.3-.5l4.6 1.9c.5.2.8.8.5 1.3-.2.3-.5.6-.9.6m-13.8-5.7c-.1 0-.3 0-.4-.1l-4.6-1.9c-.5-.2-.8-.8-.5-1.3.2-.5.8-.8 1.3-.5l4.6 1.9c.5.2.8.8.5 1.3-.1.3-.5.6-.9.6m-13.7-5.7c-.1 0-.3 0-.4-.1l-4.6-1.9c-.5-.2-.8-.8-.5-1.3s.8-.8 1.3-.5l4.6 1.9c.5.2.8.8.5 1.3-.1.4-.5.6-.9.6m-13.7-5.7c-.1 0-.3 0-.4-.1l-4.6-1.9c-.5-.2-.8-.8-.5-1.3.2-.5.8-.8 1.3-.5l4.6 1.9c.5.2.8.8.5 1.3q-.3.6-.9.6m-13.8-5.7c-.1 0-.3 0-.4-.1l-4.6-1.9c-.5-.2-.8-.8-.5-1.3.2-.5.8-.8 1.3-.5l4.6 1.9c.5.2.8.8.5 1.3-.1.4-.5.6-.9.6m-13.7-5.7c-.1 0-.3 0-.4-.1l-4.6-1.9c-.5-.2-.8-.8-.5-1.3.2-.5.8-.8 1.3-.5l4.6 1.9c.5.2.8.8.5 1.3-.1.4-.5.6-.9.6m-13.7-5.7c-.1 0-.3 0-.4-.1l-4.6-1.9c-.5-.2-.8-.8-.5-1.3.2-.5.8-.8 1.3-.5l4.6 1.9c.5.2.8.8.5 1.3q-.3.6-.9.6m-13.8-5.6c-.1 0-.3 0-.4-.1l-4.6-1.9c-.5-.2-.8-.8-.5-1.3s.8-.8 1.3-.5l4.6 1.9c.5.2.8.8.5 1.3-.1.3-.5.6-.9.6m-13.7-5.7c-.1 0-.3 0-.4-.1l-4.6-1.9c-.5-.2-.8-.8-.5-1.3.2-.5.8-.8 1.3-.5l4.6 1.9c.5.2.8.8.5 1.3-.1.3-.5.6-.9.6m-13.7-5.7c-.1 0-.3 0-.4-.1l-4.6-1.9c-.5-.2-.8-.8-.5-1.3.2-.5.8-.8 1.3-.5l4.6 1.9c.5.2.8.8.5 1.3-.1.3-.5.6-.9.6m-13.7-5.7c-.1 0-.3 0-.4-.1l-2.3-1c-.5-.2-.8-.8-.5-1.3.2-.5.8-.8 1.3-.5l2.3 1c.5.2.8.8.5 1.3-.2.4-.6.6-.9.6"/><circle cx="572" cy="384.9" r="50.9" fill="#f9d2ec"/><path fill="#ff1493" d="M323.9 386.4h-6c-.8 0-1.5-.7-1.5-1.5s.7-1.5 1.5-1.5h6c.8 0 1.5.7 1.5 1.5s-.6 1.5-1.5 1.5m484.1 0h-12.1c-.8 0-1.5-.7-1.5-1.5s.7-1.5 1.5-1.5H808c.8 0 1.5.7 1.5 1.5s-.7 1.5-1.5 1.5m-24.2 0h-12.1c-.8 0-1.5-.7-1.5-1.5s.7-1.5 1.5-1.5h12.1c.8 0 1.5.7 1.5 1.5s-.7 1.5-1.5 1.5m-24.2 0h-12.1c-.8 0-1.5-.7-1.5-1.5s.7-1.5 1.5-1.5h12.1c.8 0 1.5.7 1.5 1.5s-.7 1.5-1.5 1.5m-24.2 0h-12.1c-.8 0-1.5-.7-1.5-1.5s.7-1.5 1.5-1.5h12.1c.8 0 1.5.7 1.5 1.5s-.7 1.5-1.5 1.5m-24.2 0h-12.1c-.8 0-1.5-.7-1.5-1.5s.7-1.5 1.5-1.5h12.1c.8 0 1.5.7 1.5 1.5s-.7 1.5-1.5 1.5m-24.2 0h-12.1c-.8 0-1.5-.7-1.5-1.5s.7-1.5 1.5-1.5H687c.8 0 1.5.7 1.5 1.5s-.7 1.5-1.5 1.5m-24.2 0h-12.1c-.8 0-1.5-.7-1.5-1.5s.7-1.5 1.5-1.5h12.1c.8 0 1.5.7 1.5 1.5s-.7 1.5-1.5 1.5m-24.2 0h-12.1c-.8 0-1.5-.7-1.5-1.5s.7-1.5 1.5-1.5h12.1c.8 0 1.5.7 1.5 1.5s-.7 1.5-1.5 1.5m-24.2 0h-12.1c-.8 0-1.5-.7-1.5-1.5s.7-1.5 1.5-1.5h12.1c.8 0 1.5.7 1.5 1.5s-.7 1.5-1.5 1.5m-24.2 0H578c-.8 0-1.5-.7-1.5-1.5s.7-1.5 1.5-1.5h12.1c.8 0 1.5.7 1.5 1.5.1.8-.6 1.5-1.4 1.5m-24.2 0h-12.1c-.8 0-1.5-.7-1.5-1.5s.7-1.5 1.5-1.5H566c.8 0 1.5.7 1.5 1.5s-.7 1.5-1.5 1.5m-24.2 0h-12.1c-.8 0-1.5-.7-1.5-1.5s.7-1.5 1.5-1.5h12.1c.8 0 1.5.7 1.5 1.5-.1.8-.7 1.5-1.5 1.5m-24.3 0h-12.1c-.8 0-1.5-.7-1.5-1.5s.7-1.5 1.5-1.5h12.1c.8 0 1.5.7 1.5 1.5s-.6 1.5-1.5 1.5m-24.2 0h-12.1c-.8 0-1.5-.7-1.5-1.5s.7-1.5 1.5-1.5h12.1c.8 0 1.5.7 1.5 1.5s-.6 1.5-1.5 1.5m-24.2 0H457c-.8 0-1.5-.7-1.5-1.5s.7-1.5 1.5-1.5h12.1c.8 0 1.5.7 1.5 1.5s-.6 1.5-1.5 1.5m-24.2 0h-12.1c-.8 0-1.5-.7-1.5-1.5s.7-1.5 1.5-1.5h12.1c.8 0 1.5.7 1.5 1.5s-.6 1.5-1.5 1.5m-24.2 0h-12.1c-.8 0-1.5-.7-1.5-1.5s.7-1.5 1.5-1.5h12.1c.8 0 1.5.7 1.5 1.5s-.6 1.5-1.5 1.5m-24.2 0h-12.1c-.8 0-1.5-.7-1.5-1.5s.7-1.5 1.5-1.5h12.1c.8 0 1.5.7 1.5 1.5s-.6 1.5-1.5 1.5m-24.2 0h-12.1c-.8 0-1.5-.7-1.5-1.5s.7-1.5 1.5-1.5h12.1c.8 0 1.5.7 1.5 1.5s-.6 1.5-1.5 1.5m-24.2 0H336c-.8 0-1.5-.7-1.5-1.5s.7-1.5 1.5-1.5h12.1c.8 0 1.5.7 1.5 1.5s-.6 1.5-1.5 1.5m478 0h-6c-.8 0-1.5-.7-1.5-1.5s.7-1.5 1.5-1.5h6c.8 0 1.5.7 1.5 1.5s-.7 1.5-1.5 1.5"/><path fill="#f4b8dd" d="M572 636.2V133.5"/><path fill="#ff1493" d="M572 637.7c-.8 0-1.5-.7-1.5-1.5v-6c0-.8.7-1.5 1.5-1.5s1.5.7 1.5 1.5v6c0 .8-.7 1.5-1.5 1.5m0-18c-.8 0-1.5-.7-1.5-1.5v-12c0-.8.7-1.5 1.5-1.5s1.5.7 1.5 1.5v12c0 .8-.7 1.5-1.5 1.5m0-23.9c-.8 0-1.5-.7-1.5-1.5v-12c0-.8.7-1.5 1.5-1.5s1.5.7 1.5 1.5v12c0 .8-.7 1.5-1.5 1.5m0-23.9c-.8 0-1.5-.7-1.5-1.5v-12c0-.8.7-1.5 1.5-1.5s1.5.7 1.5 1.5v12c0 .8-.7 1.5-1.5 1.5m0-24c-.8 0-1.5-.7-1.5-1.5v-12c0-.8.7-1.5 1.5-1.5s1.5.7 1.5 1.5v12c0 .8-.7 1.5-1.5 1.5m0-23.9c-.8 0-1.5-.7-1.5-1.5v-12c0-.8.7-1.5 1.5-1.5s1.5.7 1.5 1.5v12c0 .8-.7 1.5-1.5 1.5m0-24c-.8 0-1.5-.7-1.5-1.5v-12c0-.8.7-1.5 1.5-1.5s1.5.7 1.5 1.5v12c0 .9-.7 1.5-1.5 1.5m0-23.9c-.8 0-1.5-.7-1.5-1.5v-12c0-.8.7-1.5 1.5-1.5s1.5.7 1.5 1.5v12c0 .8-.7 1.5-1.5 1.5m0-23.9c-.8 0-1.5-.7-1.5-1.5v-12c0-.8.7-1.5 1.5-1.5s1.5.7 1.5 1.5v12c0 .8-.7 1.5-1.5 1.5m0-24c-.8 0-1.5-.7-1.5-1.5v-12c0-.8.7-1.5 1.5-1.5s1.5.7 1.5 1.5v12c0 .9-.7 1.5-1.5 1.5m0-23.9c-.8 0-1.5-.7-1.5-1.5v-12c0-.8.7-1.5 1.5-1.5s1.5.7 1.5 1.5v12c0 .8-.7 1.5-1.5 1.5m0-23.9c-.8 0-1.5-.7-1.5-1.5v-12c0-.8.7-1.5 1.5-1.5s1.5.7 1.5 1.5v12c0 .8-.7 1.5-1.5 1.5m0-24c-.8 0-1.5-.7-1.5-1.5v-12c0-.8.7-1.5 1.5-1.5s1.5.7 1.5 1.5v12c0 .9-.7 1.5-1.5 1.5m0-23.9c-.8 0-1.5-.7-1.5-1.5v-12c0-.8.7-1.5 1.5-1.5s1.5.7 1.5 1.5v12c0 .8-.7 1.5-1.5 1.5m0-23.9c-.8 0-1.5-.7-1.5-1.5v-12c0-.8.7-1.5 1.5-1.5s1.5.7 1.5 1.5v12c0 .8-.7 1.5-1.5 1.5m0-24c-.8 0-1.5-.7-1.5-1.5v-12c0-.8.7-1.5 1.5-1.5s1.5.7 1.5 1.5v12c0 .9-.7 1.5-1.5 1.5m0-23.9c-.8 0-1.5-.7-1.5-1.5v-12c0-.8.7-1.5 1.5-1.5s1.5.7 1.5 1.5v12c0 .8-.7 1.5-1.5 1.5m0-23.9c-.8 0-1.5-.7-1.5-1.5v-12c0-.8.7-1.5 1.5-1.5s1.5.7 1.5 1.5v12c0 .8-.7 1.5-1.5 1.5m0-24c-.8 0-1.5-.7-1.5-1.5v-12c0-.8.7-1.5 1.5-1.5s1.5.7 1.5 1.5v12c0 .9-.7 1.5-1.5 1.5m0-23.9c-.8 0-1.5-.7-1.5-1.5v-12c0-.8.7-1.5 1.5-1.5s1.5.7 1.5 1.5v12c0 .8-.7 1.5-1.5 1.5m0-23.9c-.8 0-1.5-.7-1.5-1.5v-12c0-.8.7-1.5 1.5-1.5s1.5.7 1.5 1.5v12c0 .8-.7 1.5-1.5 1.5m0-24c-.8 0-1.5-.7-1.5-1.5v-6c0-.8.7-1.5 1.5-1.5s1.5.7 1.5 1.5v6c0 .9-.7 1.5-1.5 1.5"/><path fill="#ff1493" d="M825.6 641.2H318.4c-1.4 0-2.5-1.1-2.5-2.5V131.4c0-1.4 1.1-2.5 2.5-2.5h507.3c1.4 0 2.5 1.1 2.5 2.5v507.3c-.1 1.4-1.2 2.5-2.6 2.5m-504.7-5h502.3V133.9H320.9Z"/><path fill="#cfd9ff" d="M675.6 135h-17.2l-37 26-3-26-46.2.5h-.2v72.3h.9l22.2 21.1-22.9 21.7-.2-.2v81.5l.2-.4 13.3 20.9 9.6-23v-27.9l16.9-13 29.9-72.2-15.5-23.3 27.1-4.6Z"/><path fill="#3976b2" d="M585.5 354.4c-.7 0-1.3-.3-1.7-.9l-12.6-19.7c-.8-.3-1.3-1-1.3-1.9v-81.5c0-.8.5-1.5 1.2-1.8.1-.1.3-.1.4-.1l20.6-19.5-20.1-19.1c-1.1 0-2-.9-2-2v-72.3c0-.5.2-1 .6-1.4s.9-.6 1.4-.6h.2l46.1-.5c1 0 1.9.8 2 1.8l2.6 22.7 34.2-24.1c.3-.2.7-.4 1.2-.4h17.2c.7 0 1.3.3 1.7.9s.4 1.3.2 1.9l-22.1 53.3c-.3.6-.8 1.1-1.5 1.2l-24.1 4.1 13.8 20.7c.4.6.4 1.3.2 1.9l-29.9 72.2c-.1.3-.4.6-.6.8l-16.1 12.4v26.8c0 .3-.1.5-.2.8l-9.6 23.1c-.3.7-.9 1.2-1.7 1.2ZM574 330.6l11.2 17.5 7.9-19.1v-27.4c0-.6.3-1.2.8-1.6l16.5-12.7 29.3-70.7-14.9-22.4c-.4-.6-.4-1.3-.2-1.9.3-.6.8-1.1 1.5-1.2l26-4.5 20.5-49.6H659l-36.5 25.6c-.6.4-1.3.5-2 .2-.6-.3-1.1-.9-1.2-1.6l-2.8-24.2-42.6.5v68.6c.1.1.2.1.3.2l22.2 21.1q.6.6.6 1.5c0 .9-.2 1.1-.6 1.4L574 251.7Z"/><path fill="#8198e2" d="m549.4 228.9 22.2-21.1h.4v-72.3l-45.9-.5-3 26-37-26h-17.2l22.1 53.4 27.1 4.6-15.5 23.3 29.9 72.2 16.9 13v27.9l9.5 23 13.1-20.5v-81.5Z"/><path fill="#3976b2" d="M558.9 354.4h-.2c-.7-.1-1.4-.5-1.7-1.2l-9.6-23.1c-.1-.2-.2-.5-.2-.8v-26.8l-16.1-12.4c-.3-.2-.5-.5-.6-.8l-29.9-72.2c-.3-.6-.2-1.3.2-1.9l13.8-20.7-24.1-4.1c-.7-.1-1.2-.6-1.5-1.2l-22-53.4c-.3-.6-.2-1.3.2-1.9s1-.9 1.7-.9h17.2c.4 0 .8.1 1.1.4l34.2 24.1 2.6-22.7c.1-1 1-1.8 2-1.8l45.9.5c1.1 0 2 .9 2 2v72.3c0 1-.7 1.8-1.6 2L552.1 229l21.1 20q.6.6.6 1.5V332c0 .4-.1.8-.3 1.1l-13.1 20.5c-.2.5-.8.8-1.5.8m-7.5-25.4 7.9 19.1 10.7-16.8v-80.1l-22-20.9c-.4-.4-.6-.9-.6-1.4s.2-1.1.6-1.5l22-20.9v-69l-42.1-.5-2.8 24.2c-.1.7-.5 1.3-1.2 1.6-.6.3-1.4.2-2-.2L485.5 137h-13.6l20.5 49.6 26 4.5c.7.1 1.2.6 1.5 1.2s.2 1.3-.2 1.9l-14.9 22.4 29.3 70.7 16.5 12.7c.5.4.8 1 .8 1.6Z"/><path fill="#8198e2" d="M675.6 634.4h-17.2l-37-26-3 26-46.2-.5h-.2v-72.2h.9l22.2-21.1-22.9-21.7-.2.2v-81.6l.2.4 13.3-20.9 9.6 23.1v27.8l16.9 13 29.9 72.2-15.5 23.3 27.1 4.7Z"/><path fill="#3976b2" d="M675.6 636.4h-17.2c-.4 0-.8-.1-1.2-.4L623 612l-2.6 22.7c-.1 1-1 1.8-2 1.8l-46.1-.5h-.2c-.6 0-1-.2-1.4-.6s-.6-.9-.6-1.4v-72.3c0-1.1.9-2 2-2h.1l20.1-19.1-20.6-19.5c-.1 0-.3-.1-.4-.1-.7-.3-1.2-1-1.2-1.8v-81.5c0-.8.5-1.6 1.3-1.9l12.6-19.7c.4-.6 1.1-1 1.9-.9.7.1 1.4.5 1.7 1.2l9.6 23.1c.1.2.2.5.2.8v26.8l16.1 12.4c.3.2.5.5.6.8l29.9 72.2c.3.6.2 1.3-.2 1.9L629.7 575l24.1 4.1c.7.1 1.2.6 1.5 1.2l22.1 53.3c.3.6.2 1.3-.2 1.9s-.9.9-1.6.9m-16.6-4h13.6l-20.5-49.6-26-4.5c-.7-.1-1.2-.6-1.5-1.2s-.2-1.3.2-1.9l14.9-22.4-29.3-70.7-16.5-12.7c-.5-.4-.8-1-.8-1.6v-27.4l-7.9-19.1-11.2 17.6v78.9l22.5 21.3q.6.6.6 1.5c0 .5-.2 1.1-.6 1.5l-22.2 21.1c-.1.1-.2.1-.3.2V632l42.6.5 2.8-24.2c.1-.7.5-1.3 1.2-1.6.6-.3 1.4-.2 2 .2Z"/><path fill="#cfd9ff" d="m549.4 540.6 22.2 21.1h.4v72.2l-45.9.5-3-26-37 26h-17.2l22.1-53.3 27.1-4.7-15.5-23.3 29.9-72.2 16.9-13v-27.8l9.5-23.1 13.1 20.5v81.6Z"/><path fill="#3976b2" d="M486.1 636.4h-17.2c-.7 0-1.3-.3-1.7-.9s-.4-1.3-.2-1.9l22.1-53.3c.3-.6.8-1.1 1.5-1.2l24.1-4.1-13.8-20.7c-.4-.6-.4-1.3-.2-1.9l29.9-72.2c.1-.3.4-.6.6-.8l16.1-12.4v-26.8c0-.3.1-.5.2-.8l9.6-23.1c.3-.7.9-1.2 1.7-1.2.7-.1 1.5.3 1.9.9l13.1 20.5c.2.3.3.7.3 1.1v81.5c0 .5-.2 1.1-.6 1.5l-21.1 20 20.2 19.2c.9.2 1.6 1 1.6 2v72.3c0 1.1-.9 2-2 2l-45.9.5c-1 0-1.9-.8-2-1.8l-2.6-22.7-34.2 24.1c-.6.1-1 .2-1.4.2m-14.2-4h13.6l36.5-25.6c.6-.4 1.3-.5 2-.2.6.3 1.1.9 1.2 1.6l2.8 24.2 42-.4v-69l-22-21q-.6-.6-.6-1.5c0-.5.2-1.1.6-1.5l22-20.9V438l-10.7-16.8-7.9 19.1v27.4c0 .6-.3 1.2-.8 1.6L534.1 482l-29.3 70.7 14.9 22.4c.4.6.4 1.3.2 1.9-.3.6-.8 1.1-1.5 1.2l-26 4.5Z"/><path fill="#cfd9ff" d="m468.8 135.1-12.2 12.1-7.8 44.6-20.5-16.3-32.3 33-.1.2 51 51.1.7-.7 30.6-.7-.8 31.5h-.3l57.6 57.6-.1-.4 24.2 5.4-9.5-23.1-19.7-19.7 2.7-21.1-29.9-72.2-27.4-5.5 15.9-22.5Z"/><path fill="#3976b2" d="M558.8 354.5h-.4l-22.8-5.1c-.8.3-1.6.2-2.2-.4l-57.7-57.7c-.6-.6-.7-1.4-.4-2.2.1-.1.1-.3.2-.4l.7-28.3-27.7.7-.1.1C447.6 262 446.4 262 445.6 261.2l-51.1-51.1c-.4-.4-.6-.9-.6-1.4s.2-1 .6-1.4l.2-.2 32.2-32.9c.7-.7 1.9-.8 2.7-.2l17.9 14.2 7.2-41.2c.1-.4.3-.8.6-1.1l12.2-12.2c.5-.5 1.1-.7 1.8-.5.7.1 1.2.6 1.5 1.2l22.1 53.3c.3.6.2 1.4-.2 1.9l-14.1 20 24.5 4.9c.7.1 1.2.6 1.5 1.2l29.9 72.2c.1.3.2.7.1 1l-2.6 20.2 19 19c.2.2.3.4.4.6l9.6 23.1c.3.7.2 1.5-.3 2.1-.7.3-1.3.6-1.9.6m-23.6-9.3 20.3 4.5-7.9-19.1-19.4-19.4c-.4-.4-.6-1.1-.6-1.7l2.7-20.6-29.3-70.8-26.4-5.3c-.7-.1-1.2-.6-1.5-1.2-.2-.6-.2-1.3.2-1.9l15.2-21.6-20.5-49.6-9.6 9.6-7.7 43.9c-.1.7-.6 1.3-1.3 1.5-.7.3-1.4.1-2-.3l-19.1-15.1-29.8 30.4L447 257h.3l30.6-.8c.5 0 1.1.2 1.5.6q.6.6.6 1.5l-.8 31Z"/><path fill="#8198e2" d="m445.9 290.7.8-30.6.2-.3-51-51.1-32.9 32.1 16.3 20.5-44.5 7.8-12.2 12.1 53.3 22.1 22.5-15.8 5.5 27.4 72.2 29.9 21.1-2.7 19.7 19.6 23.1 9.6-5.3-23.8-57.6-57.6Z"/><path fill="#3976b2" d="M540 373.3c-.3 0-.5 0-.8-.2l-23.1-9.6c-.2-.1-.5-.2-.6-.4l-19-19-20.2 2.6c-.3 0-.7 0-1-.1l-72.2-29.9c-.6-.3-1.1-.8-1.2-1.5l-4.9-24.4-20 14.1c-.6.4-1.3.5-1.9.2L321.8 283c-.6-.3-1.1-.8-1.2-1.5s.1-1.3.5-1.8l12.2-12.2c.3-.3.7-.5 1.1-.6l41.2-7.2-14.1-17.7c-.6-.8-.6-2 .2-2.7l32.8-32.1C395.3 206.4 396.5 206.4 397.3 207.2l51.1 51.1c.4.4.6.9.6 1.4 0 .4-.1.8-.3 1.1l-.7 27.8 29.1-.8q.9 0 1.5.6l57.7 57.7c.3.3.5.6.5 1l5.3 23.7c.2.7-.1 1.5-.7 2-.5.3-1 .5-1.4.5M518.1 360l19.1 7.9-4.3-19.4-56.6-56.6-30.3.8c-.5 0-1.1-.2-1.5-.6q-.6-.6-.6-1.5l.8-30.4-48.8-48.8-30.2 29.6 15.1 19.1c.4.6.6 1.3.3 2s-.8 1.1-1.5 1.3l-43.9 7.7-9.6 9.6 49.6 20.5 21.6-15.2c.6-.4 1.3-.5 1.9-.2s1.1.8 1.2 1.5l5.3 26.4 70.7 29.3 20.6-2.7c.6-.1 1.2.1 1.7.6Z"/><path fill="#8198e2" d="m821.9 488.2-12.2 12.2-44.5 7.8 16.2 20.5-33 32.2-.1.2-51.1-51.1.6-.6.8-30.6-31.5.8v.3l-57.7-57.7.4.1-5.3-24.1 23.1 9.5 19.6 19.7 21.2-2.8 72.2 29.9 5.5 27.5 22.4-15.9Z"/><path fill="#3976b2" d="M748.3 563.1c-.5 0-1-.2-1.4-.6l-51.1-51.1c-.8-.8-.8-2 0-2.8l.1-.1.7-27.7-28.3.7c-.1.1-.3.2-.4.2-.7.3-1.6.1-2.2-.4L608 423.7c-.6-.6-.7-1.5-.4-2.2l-5.1-22.8c-.2-.7.1-1.5.7-2s1.4-.6 2.1-.3l23.1 9.6c.2.1.5.2.6.4l19 19 20.2-2.6c.3 0 .7 0 1 .1l72.2 29.9c.6.3 1.1.8 1.2 1.5l4.9 24.5 20-14.1c.6-.4 1.3-.5 1.9-.2l53.3 22.1c.6.3 1.1.8 1.2 1.5s-.1 1.3-.5 1.8l-12.2 12.2c-.3.3-.7.5-1.1.6l-41.2 7.2 14.2 17.9c.6.8.6 2-.2 2.7l-33.1 32.4c-.5 0-1 .2-1.5.2m-48.5-53.3 48.5 48.5 30.4-29.8-15.1-19.1c-.4-.6-.6-1.3-.3-2s.8-1.1 1.5-1.3l43.9-7.7 9.6-9.6-49.6-20.5-21.6 15.2c-.6.4-1.3.5-1.9.2s-1.1-.8-1.2-1.5l-5.3-26.4-70.7-29.3-20.6 2.7c-.6.1-1.2-.1-1.7-.6l-19.4-19.4-19.1-7.9 4.5 20.3 55.8 55.8 31-.8q.9 0 1.5.6t.6 1.5l-.8 30.6Z"/><path fill="#cfd9ff" d="m666.3 511.1 30.6-.8.3-.3 51.1 51.1-32.1 32.8-20.5-16.2-7.8 44.5-12.2 12.2-22.1-53.4 15.9-22.4-27.5-5.5-29.9-72.2 2.8-21.2-19.7-19.7-9.5-23 23.7 5.2 57.7 57.7Z"/><path fill="#3976b2" d="M675.7 636.4h-.4c-.7-.1-1.2-.6-1.5-1.2l-22.1-53.3c-.3-.6-.2-1.4.2-1.9l14.1-20-24.5-4.9c-.7-.1-1.2-.6-1.5-1.2l-29.9-72.2c-.1-.3-.2-.7-.1-1l2.6-20.2-19-19c-.2-.2-.3-.4-.4-.6l-9.6-23.1c-.3-.7-.2-1.5.3-2.1s1.2-.8 2-.7l23.8 5.3c.4.1.7.3 1 .5l57.7 57.7q.6.6.6 1.5l-.8 29.1 27.8-.7c.8-.5 1.8-.4 2.5.3l51.1 51.1c.8.8.8 2 0 2.8l-32.1 32.8c-.7.7-1.9.8-2.7.2l-17.9-14.2-7.2 41.2c-.1.4-.3.8-.6 1.1l-12.2 12.2c-.1.3-.7.5-1.2.5m-19.8-55.1 20.5 49.6 9.6-9.6 7.7-43.9c.1-.7.6-1.3 1.3-1.5.7-.3 1.4-.1 2 .3l19.1 15.1 29.5-30.1-48.8-48.8-30.4.8q-.9 0-1.5-.6t-.6-1.5l.8-30.3-56.6-56.6-19.4-4.3L597 439l19.4 19.4c.4.4.6 1.1.6 1.7l-2.7 20.6 29.3 70.7 26.4 5.3c.7.1 1.2.6 1.5 1.2.2.6.2 1.3-.2 1.9Z"/><path fill="#cfd9ff" d="M322.5 281.4v17.2l26 37-26 3 .5 46.1v.3h72.3v-.9l21.1-22.2 21.7 22.8-.2.3h81.5l-.4-.3 20.9-13.3-23-9.5H489L476 345l-72.2-30-23.3 15.6-4.6-27.1Z"/><path fill="#3976b2" d="M519.4 387h-81.5c-.8 0-1.5-.5-1.8-1.2-.1-.1-.1-.3-.1-.4l-19.5-20.6-19.1 20.1v.1c0 1.1-.9 2-2 2H323c-.5 0-1-.2-1.4-.6s-.6-.9-.6-1.4v-.2l-.5-46.1c0-1 .8-1.9 1.8-2L345 334l-24.1-34.2c-.2-.3-.4-.7-.4-1.1v-17.2c0-.7.3-1.3.9-1.7s1.3-.4 1.9-.2l53.3 22.1c.6.3 1.1.8 1.2 1.5l4.1 24.1 20.7-13.8c.6-.4 1.3-.4 1.9-.2l72.2 29.9c.3.1.6.4.8.6l12.4 16.1h26.8c.3 0 .5.1.8.2l23.1 9.6c.7.3 1.2.9 1.2 1.7.1.7-.3 1.5-.9 1.9l-19.7 12.6c-.2.5-.9 1.1-1.8 1.1m-80.2-4h78.9l17.5-11.2-19.1-7.9H489c-.6 0-1.2-.3-1.6-.8l-12.7-16.5-70.7-29.3-22.4 14.9c-.6.4-1.3.4-1.9.2-.6-.3-1.1-.8-1.2-1.5l-4.5-26-49.6-20.5V298l25.6 36.5c.4.6.5 1.3.2 2-.3.6-.9 1.1-1.6 1.2l-24.2 2.8.6 42.5h68.6c.1-.1.1-.2.2-.3l21.1-22.2c.4-.4.9-.6 1.4-.6s1.1.2 1.5.6Z"/><path fill="#8198e2" d="m416.4 407.6-21.1-22.2v-.4H323l-.5 45.9 26 3-26 37v17.2l53.4-22.1 4.6-27.1 23.3 15.5 72.2-29.9 13-16.9h27.9l23-9.6-20.5-13h-81.5Z"/><path fill="#3976b2" d="M322.5 490.1c-.4 0-.8-.1-1.1-.3-.6-.4-.9-1-.9-1.7v-17.2c0-.4.1-.8.4-1.1l24.1-34.2-22.7-2.6c-1-.1-1.8-1-1.8-2l.5-45.9c0-1.1.9-2 2-2h72.3c1 0 1.8.7 2 1.6l19.2 20.2 20-21.1q.6-.6 1.5-.6h81.5c.4 0 .8.1 1.1.3l20.5 13.1c.6.4 1 1.1.9 1.9-.1.7-.5 1.4-1.2 1.7l-23.1 9.6c-.2.1-.5.2-.8.2H490l-12.4 16.1c-.2.3-.5.5-.8.6l-72.2 29.9c-.6.3-1.3.2-1.9-.2L382 442.2l-4.1 24.1c-.1.7-.6 1.2-1.2 1.5l-53.3 22.1c-.3.1-.6.2-.9.2m2-18.6v13.6l49.6-20.5 4.5-26c.1-.7.6-1.2 1.2-1.5s1.3-.2 1.9.2l22.4 14.9 70.7-29.3 12.7-16.5c.4-.5 1-.8 1.6-.8h27.4l19.1-7.9-16.8-10.7h-80.1l-20.9 22q-.6.6-1.5.6c-.5 0-1.1-.2-1.4-.6L394 387h-69l-.5 42.1 24.2 2.8c.7.1 1.3.5 1.6 1.2.3.6.2 1.4-.2 2Z"/><path fill="#8198e2" d="M821.9 281.4v17.2l-26 37 26 3-.5 46.1v.3h-72.2v-.9l-21.1-22.2-21.7 22.8.2.3h-81.5l.3-.3-20.9-13.3 23.1-9.5h27.8l13-16.9 72.2-30 23.3 15.6 4.7-27.1Z"/><path fill="#3976b2" d="M821.4 387h-72.3c-1.1 0-2-.9-2-2v-.1L728 364.8l-19.5 20.6c0 .1-.1.3-.1.4-.3.7-1 1.2-1.8 1.2h-81.5c-.8 0-1.6-.5-1.9-1.3l-19.7-12.6c-.6-.4-1-1.1-.9-1.9.1-.7.5-1.4 1.2-1.7l23.1-9.6c.2-.1.5-.2.8-.2h26.8l12.4-16.1c.2-.3.5-.5.8-.6l72.2-29.9c.6-.3 1.3-.2 1.9.2l20.7 13.8 4.1-24.1c.1-.7.6-1.2 1.2-1.5l53.3-22.1c.6-.3 1.3-.2 1.9.2s.9 1 .9 1.7v17.2c0 .4-.1.8-.4 1.1l-24 34.4 22.7 2.6c1 .1 1.8 1 1.8 2l-.5 46.1v.2c0 .5-.2 1-.6 1.4s-.9.7-1.5.7m-70.6-4h68.6l.5-42.6-24.2-2.8c-.7-.1-1.3-.5-1.6-1.2-.3-.6-.2-1.4.2-2l25.6-36.5v-13.6l-49.6 20.5-4.5 26c-.1.7-.6 1.2-1.2 1.5s-1.3.2-1.9-.2l-22.4-14.9-70.7 29.3-12.6 16.6c-.4.5-1 .8-1.6.8H628l-19.1 7.9 17.5 11.2h78.9l21.3-22.5q.6-.6 1.5-.6c.5 0 1.1.2 1.4.6l21.1 22.2c.1.1.2.2.2.3"/><path fill="#cfd9ff" d="m728.1 407.6 21.1-22.2v-.4h72.2l.5 45.9-26 3 26 37v17.2L768.6 466l-4.7-27.1-23.3 15.5-72.2-29.9-13-16.9h-27.8l-23.1-9.6 20.6-13h81.5Z"/><path fill="#3976b2" d="M821.9 490.1c-.3 0-.5 0-.8-.2l-53.3-22.1c-.6-.3-1.1-.8-1.2-1.5l-4.1-24.1-20.7 13.8c-.6.4-1.3.4-1.9.2l-72.2-29.9c-.3-.1-.6-.4-.8-.6l-12.4-16.1h-26.8c-.3 0-.5-.1-.8-.2l-23.1-9.6c-.7-.3-1.2-.9-1.2-1.7-.1-.7.3-1.5.9-1.9l20.5-13.1c.3-.2.7-.3 1.1-.3h81.5c.5 0 1.1.2 1.5.6l20 21.1 19.2-20.2c.2-.9 1-1.6 2-1.6h72.3c1.1 0 2 .9 2 2l.5 45.9c0 1-.8 1.9-1.8 2l-22.7 2.6 24.1 34.2c.2.3.4.7.4 1.1v17.2c0 .7-.3 1.3-.9 1.7-.5.6-.9.7-1.3.7m-51.5-25.5 49.6 20.5v-13.6L794.3 435c-.4-.6-.5-1.3-.2-2 .3-.6.9-1.1 1.6-1.2l24.2-2.8-.5-42.1h-69l-20.9 22c-.4.4-.9.6-1.4.6s-1.1-.2-1.5-.6l-20.9-22h-80.1l-16.8 10.7 19.1 7.9h27.4c.6 0 1.2.3 1.6.8l12.7 16.5 70.7 29.3 22.4-14.9c.6-.4 1.3-.4 1.9-.2.6.3 1.1.8 1.2 1.5Z"/><path fill="#cfd9ff" d="m322.6 488.2 12.2 12.2 44.5 7.8-16.3 20.5 33 32.2.2.2 51.1-51.1-.6-.6-.8-30.6 31.5.8v.3l57.7-57.7-.5.1 5.4-24.1-23.1 9.5-19.7 19.7-21.1-2.8-72.2 29.9-5.5 27.5-22.5-15.9Z"/><path fill="#3976b2" d="M396.2 563.1c-.5 0-1.1-.2-1.4-.6l-.2-.2-32.9-32.2c-.7-.7-.8-1.9-.2-2.7l14.2-17.9-41.2-7.2c-.4-.1-.8-.3-1.1-.6l-12.2-12.2c-.5-.5-.7-1.1-.5-1.8.1-.7.6-1.2 1.2-1.5l53.3-22.1c.6-.3 1.4-.2 1.9.2l20 14.1 4.9-24.5c.1-.7.6-1.2 1.2-1.5l72.2-29.9c.3-.1.7-.2 1-.1l20.2 2.6 19-19c.2-.2.4-.3.6-.4l23.1-9.6c.7-.3 1.5-.2 2.1.3s.8 1.2.7 2l-5.1 22.8c.3.8.2 1.6-.4 2.2L478.9 481c-.6.6-1.4.7-2.2.4-.1-.1-.3-.1-.4-.2l-28.3-.7.7 27.7.1.1c.8.8.8 2 0 2.8l-51.1 51.1c-.5.7-1 .9-1.5.9m-30.5-34.6 30.4 29.8 48.5-48.5v-.3l-.8-30.6c0-.5.2-1.1.6-1.5q.6-.6 1.5-.6l31 .8 55.8-55.8 4.5-20.3-19.1 7.9-19.4 19.4c-.4.4-1.1.6-1.7.6l-20.6-2.7-70.8 29.3-5.3 26.4c-.1.7-.6 1.2-1.2 1.5-.6.2-1.3.2-1.9-.2l-21.6-15.2L326 489l9.6 9.6 43.9 7.7c.7.1 1.3.6 1.5 1.3.3.7.1 1.4-.3 2Zm81-19.1"/><path fill="#8198e2" d="m478.2 511.1-30.6-.8-.3-.3-51.1 51.1 32.1 32.8 20.5-16.2 7.8 44.5 12.2 12.2 22.1-53.4-15.9-22.4 27.4-5.5 29.9-72.2-2.7-21.2 19.7-19.7 9.5-23-23.7 5.2-57.7 57.7Z"/><path fill="#3976b2" d="M468.8 636.4c-.5 0-1-.2-1.4-.6l-12.2-12.2c-.3-.3-.5-.7-.6-1.1l-7.2-41.2-17.9 14.2c-.8.6-2 .6-2.7-.2l-32.1-32.8c-.8-.8-.8-2 0-2.8l51.1-51.1c.7-.7 1.7-.8 2.5-.3l27.8.7-.8-29.1c0-.5.2-1.1.6-1.5l57.7-57.7c.3-.3.6-.5 1-.5l23.8-5.3c.7-.2 1.5.1 2 .7s.6 1.4.3 2.1l-9.6 23.1c-.1.2-.2.5-.4.6l-19 19 2.6 20.2c0 .3 0 .7-.1 1l-29.9 72.2c-.3.6-.8 1.1-1.5 1.2l-24.5 4.9 14.1 20c.4.6.5 1.3.2 1.9l-22.1 53.3c-.3.6-.8 1.1-1.5 1.2 0 .1-.1.1-.2.1m-10.4-15.2 9.6 9.6 20.5-49.6-15.2-21.6c-.4-.6-.5-1.3-.2-1.9s.8-1.1 1.5-1.2l26.4-5.3 29.3-70.7-2.7-20.6c-.1-.6.1-1.2.6-1.7l19.4-19.4 7.9-19.1-19.4 4.3-56.6 56.6.8 30.3c0 .5-.2 1.1-.6 1.5q-.6.6-1.5.6l-30.4-.8-48.8 48.9 29.5 30.1 19.1-15.1c.6-.4 1.3-.6 2-.3s1.1.8 1.3 1.5Z"/><path fill="#8198e2" d="m675.7 135.1 12.2 12.1 7.8 44.6 20.5-16.3 32.2 33 .2.2-51.1 51.1-.6-.7-30.6-.7.8 31.5h.3l-57.7 57.6.1-.4-24.1 5.4 9.5-23.1 19.7-19.7-2.8-21.1 29.9-72.2 27.5-5.5-15.9-22.5Z"/><path fill="#3976b2" d="M585.7 354.5c-.6 0-1.1-.3-1.5-.7-.5-.6-.6-1.4-.3-2.1l9.6-23.1c.1-.2.2-.5.4-.6l19-19-2.6-20.2c0-.3 0-.7.1-1l29.9-72.2c.3-.6.8-1.1 1.5-1.2l24.5-4.9-14.1-20c-.4-.6-.5-1.3-.2-1.9l22.1-53.3c.3-.6.8-1.1 1.5-1.2s1.3.1 1.8.5l12.2 12.2c.3.3.5.7.6 1.1l7.2 41.2 17.9-14.2c.8-.6 2-.6 2.7.2l32.4 33.1c.4.4.6.9.6 1.4s-.2 1-.6 1.4l-51.1 51.1C698.5 261.9 697.3 261.9 696.5 261.1l-.1-.1-27.7-.7.7 28.3c.1.1.2.3.2.4.3.7.1 1.6-.4 2.2l-58 57.8c-.6.6-1.5.7-2.2.4l-22.8 5.1Zm11.2-24-7.9 19.1 20.3-4.5 55.8-55.8-.8-31c0-.5.2-1.1.6-1.5s.9-.6 1.5-.6l30.6.8h.3l48.5-48.5-29.8-30.3-19.1 15.1c-.6.4-1.3.6-2 .3s-1.1-.8-1.3-1.5l-7.7-43.9-9.6-9.6-20.5 49.6 15.2 21.6c.4.6.5 1.3.2 1.9s-.8 1.1-1.5 1.2l-26.4 5.3-29.3 70.7 2.7 20.6c.1.6-.1 1.2-.6 1.7Z"/><path fill="#cfd9ff" d="m698.6 290.7-.8-30.6-.3-.3 51.1-51.1 32.8 32.1-16.2 20.5 44.5 7.8 12.2 12.1-53.4 22.1-22.4-15.8-5.5 27.4-72.2 29.9-21.2-2.7-19.6 19.6-23.1 9.6 5.2-23.8 57.7-57.6Z"/><path fill="#3976b2" d="M604.5 373.3c-.5 0-.9-.2-1.3-.5-.6-.5-.8-1.2-.7-2l5.3-23.7c.1-.4.3-.7.5-1l57.7-57.7q.6-.6 1.5-.6l29.1.8-.7-27.8c-.2-.3-.3-.7-.3-1.1 0-.5.2-1 .6-1.4l51.1-51.1C748.1 206.4 749.3 206.4 750.1 207.2l32.8 32.1c.7.7.8 1.9.2 2.7l-14.2 17.9 41.2 7.2c.4.1.8.3 1.1.6l12.2 12.2c.5.5.7 1.1.5 1.8-.1.7-.6 1.2-1.2 1.5l-53.3 22.1c-.6.3-1.4.2-1.9-.2l-20-14.1-4.9 24.4c-.1.7-.6 1.2-1.2 1.5l-72.2 29.9c-.3.1-.7.2-1 .1l-20.2-2.6-19 19c-.2.2-.4.3-.6.4l-23.1 9.6C605 373.2 604.7 373.3 604.5 373.3m7.1-24.8-4.3 19.4 19.1-7.9 19.4-19.4c.4-.4 1.1-.6 1.7-.6l20.6 2.7 70.7-29.3 5.3-26.4c.1-.7.6-1.2 1.2-1.5.6-.2 1.3-.2 1.9.2l21.6 15.2 49.6-20.5-9.6-9.6-43.9-7.7c-.7-.1-1.3-.6-1.5-1.3s-.1-1.4.3-2l15.1-19.1-30.1-29.5-48.8 48.8.8 30.4c0 .5-.2 1.1-.6 1.5q-.6.6-1.5.6l-30.3-.8Z"/><path d="m753.637 346.831 116.69-11.917.305 2.984-116.69 11.918Z"/></svg>