<svg xmlns="http://www.w3.org/2000/svg" viewBox="0 0 1366 768"><path fill="#fff" d="M0 0h1366v768H0Z"/><g data-name="artboard 3"><path fill="#cfd9ff" d="m574.92 122.88 6.75 58.52 83.29-58.52h85.54l-13.51 105.8-144.06 24.76 49.52 74.28-24.76 96.79-95.17 73.17v148.31l-52.1-81.76V383.6l52.1-49.44-50-47.53L470.25 124Z"/><path fill="#3976b2" d="M522.52 649.49a3.5 3.5 0 0 1-2.95-1.62l-52.1-81.76a3.5 3.5 0 0 1-.55-1.88V383.6a3.53 3.53 0 0 1 1.09-2.54l49.43-46.9-47.33-45a3.47 3.47 0 0 1-1.09-2.49l-2.27-162.63a3.52 3.52 0 0 1 1-2.49 3.47 3.47 0 0 1 2.46-1.06l104.67-1.12a3.5 3.5 0 0 1 3.48 3.1l6.08 52.68L663 120a3.5 3.5 0 0 1 2-.63h85.5a3.51 3.51 0 0 1 3.47 3.94l-13.51 105.8a3.49 3.49 0 0 1-2.88 3L598.83 256l46.53 69.81a3.46 3.46 0 0 1 .48 2.8l-24.76 96.8a3.44 3.44 0 0 1-1.26 1.9L526 499.4V646a3.51 3.51 0 0 1-2.52 3.36 3.7 3.7 0 0 1-.96.13m-48.6-86.28L519 634V497.68a3.48 3.48 0 0 1 1.36-2.77l94.22-72.44 24.07-94.11-48.65-73a3.49 3.49 0 0 1 2.32-5.39l141.51-24.33 12.67-99.28h-80.43l-82.38 57.89a3.5 3.5 0 0 1-5.49-2.46l-6.39-55.4-98 1.06L476 285.11l48.93 46.52a3.49 3.49 0 0 1 0 5.07l-51 48.4Z"/><path fill="#ff1493" d="M471.38 662H1006V120H689.65" opacity=".45"/><path d="M138.55 285.54h15.27v4.54h-15.27Zm18.07 0h15.27v4.54h-15.27Zm33.57 7.66a2 2 0 0 0 .65 1.67 2.94 2.94 0 0 0 1.88.53 7.4 7.4 0 0 0 2.77-.59l1.4 3.89a12 12 0 0 1-5.67 1.3 6.45 6.45 0 0 1-5.16-2 8.2 8.2 0 0 1-1.71-5.53V276h-5.77v-4h11.61Zm29.68 1.8v4.41h-16.63V295h6.17v-15.48l-5.27 3.29-2.47-4 8.25-5h5.17V295Zm9.52-16.53a3.94 3.94 0 0 1 1.42-1.42 3.7 3.7 0 0 1 1.95-.54 3.66 3.66 0 0 1 1.94.54 3.9 3.9 0 0 1 1.4 1.42 3.8 3.8 0 0 1 0 3.84 3.86 3.86 0 0 1-1.4 1.41 3.75 3.75 0 0 1-1.94.53 3.8 3.8 0 0 1-1.95-.53 3.9 3.9 0 0 1-1.42-1.41 3.74 3.74 0 0 1 0-3.84m0 12.77a3.92 3.92 0 0 1 3.37-1.92 3.85 3.85 0 0 1 3.34 1.92 3.73 3.73 0 0 1 .52 1.91 3.92 3.92 0 0 1-1.92 3.36 3.65 3.65 0 0 1-1.94.53 3.7 3.7 0 0 1-1.95-.53 3.87 3.87 0 0 1-1.42-1.42 3.75 3.75 0 0 1-.53-1.94 3.64 3.64 0 0 1 .53-1.91m-8.15 26.67a9.43 9.43 0 0 1 3.11 4.58 25.76 25.76 0 0 1 0 14.49 9.55 9.55 0 0 1-3.11 4.62 8.93 8.93 0 0 1-10.2 0 9.55 9.55 0 0 1-3.11-4.62 26 26 0 0 1 0-14.49 9.4 9.4 0 0 1 3.1-4.58 9 9 0 0 1 10.21 0m-7.24 3.56a6.2 6.2 0 0 0-1.21 2.93 28 28 0 0 0-.4 5.32 47 47 0 0 0 .22 5.13l6.24-13.05a2.3 2.3 0 0 0-1.07-1 4 4 0 0 0-1.62-.28 2.8 2.8 0 0 0-2.16.95m4.3 16.62a6.1 6.1 0 0 0 1.2-2.93 30 30 0 0 0 .39-5.44c0-1.26 0-2.45-.1-3.58l-5.89 12.16a2.4 2.4 0 0 0 1 .53 5 5 0 0 0 1.31.16 2.75 2.75 0 0 0 2.08-.9Zm48.01-11.68a6.9 6.9 0 0 1 2.58 2.92 10.2 10.2 0 0 1 .94 4.56 9.9 9.9 0 0 1-1.12 4.71 8.4 8.4 0 0 1-3.18 3.36 9.2 9.2 0 0 1-4.78 1.24 8.63 8.63 0 0 1-5.38-1.63 9.34 9.34 0 0 1-3.14-4.37 18 18 0 0 1-1-6.21 20.3 20.3 0 0 1 1.34-7.62 11.7 11.7 0 0 1 3.85-5.18 9.64 9.64 0 0 1 5.91-1.86 9.5 9.5 0 0 1 5.55 1.65l-2.21 3.54a5.66 5.66 0 0 0-3.23-1 4 4 0 0 0-2.51.84 5.86 5.86 0 0 0-1.8 2.47 11.9 11.9 0 0 0-.83 3.94 7.6 7.6 0 0 1 2.53-1.73 7.3 7.3 0 0 1 2.85-.59 6.9 6.9 0 0 1 3.63.96m-3.12 11.27a6.6 6.6 0 0 0 .81-3.46 7 7 0 0 0-.72-3.65 2.37 2.37 0 0 0-2.13-1.13 4.46 4.46 0 0 0-2 .51 6 6 0 0 0-1.82 1.45 25 25 0 0 0 .38 4.3 5.25 5.25 0 0 0 1.1 2.49 2.63 2.63 0 0 0 2.05.83 2.57 2.57 0 0 0 2.33-1.34m24.51-19.77a9.43 9.43 0 0 1 3.11 4.58 25.76 25.76 0 0 1 0 14.49 9.55 9.55 0 0 1-3.11 4.62 8.93 8.93 0 0 1-10.2 0 9.55 9.55 0 0 1-3.11-4.62 26 26 0 0 1 0-14.49 9.4 9.4 0 0 1 3.1-4.58 9 9 0 0 1 10.21 0m-7.25 3.56a6.2 6.2 0 0 0-1.21 2.93 28 28 0 0 0-.4 5.32 47 47 0 0 0 .22 5.13l6.24-13.05a2.3 2.3 0 0 0-1.07-1 4 4 0 0 0-1.62-.28 2.8 2.8 0 0 0-2.16.95m4.3 16.62a6.1 6.1 0 0 0 1.2-2.93 30 30 0 0 0 .38-5.44c0-1.26 0-2.45-.09-3.58l-5.89 12.16a2.4 2.4 0 0 0 .95.53 5 5 0 0 0 1.31.16 2.75 2.75 0 0 0 2.14-.9M301.9 317a4.7 4.7 0 0 1 1.81 2 7.8 7.8 0 0 1 0 6.1 4.66 4.66 0 0 1-1.81 2 6 6 0 0 1-5.64 0 4.56 4.56 0 0 1-1.82-2 7.55 7.55 0 0 1 0-6 4.76 4.76 0 0 1 1.83-2.06 5.3 5.3 0 0 1 2.82-.74 5.4 5.4 0 0 1 2.81.7m10.59.38-12.61 26.22-3.08-1.29 12.57-26.22Zm-14.57 2.5a6 6 0 0 0-.31 2.21 5.3 5.3 0 0 0 .34 2.16 1.29 1.29 0 0 0 2.31 0 8.14 8.14 0 0 0 0-4.45 1.33 1.33 0 0 0-2.34 0Zm15.31 12a4.7 4.7 0 0 1 1.81 2 7 7 0 0 1 .63 3.07 6.9 6.9 0 0 1-.63 3 4.7 4.7 0 0 1-1.81 2 5.37 5.37 0 0 1-2.8.71 5.5 5.5 0 0 1-2.84-.71 4.73 4.73 0 0 1-1.82-2 7.66 7.66 0 0 1 0-6 4.76 4.76 0 0 1 1.83-1.95 5.3 5.3 0 0 1 2.83-.74 5.37 5.37 0 0 1 2.8.68Zm-4 2.87A6.1 6.1 0 0 0 309 337a5.5 5.5 0 0 0 .33 2.16 1.29 1.29 0 0 0 2.32 0 8.4 8.4 0 0 0 0-4.45 1.33 1.33 0 0 0-2.35 0Zm19.77.74a3.83 3.83 0 0 1 1.44 1.44 4 4 0 0 1 .53 2 6 6 0 0 1-.33 2c-.21.65-.63 1.69-1.26 3.11l-2.68 6h-3.88l1.89-7.84a3.47 3.47 0 0 1-1.3-1.39 4.1 4.1 0 0 1-.46-1.92 3.93 3.93 0 0 1 2-3.44 4 4 0 0 1 2-.53 4.1 4.1 0 0 1 2.05.57m-105.56 28.86h-9.36v5.52a8 8 0 0 1 1.87-.62 10 10 0 0 1 1.91-.19 6.7 6.7 0 0 1 3.63 1 7.1 7.1 0 0 1 2.59 2.89 9.6 9.6 0 0 1 1 4.4 8.55 8.55 0 0 1-4.81 7.85 12.14 12.14 0 0 1-10.09.16 10.1 10.1 0 0 1-3.63-2.81l3.36-3.06a6.2 6.2 0 0 0 2.11 1.8 5.6 5.6 0 0 0 2.56.62 4.7 4.7 0 0 0 2.36-.57 3.9 3.9 0 0 0 1.57-1.57 4.8 4.8 0 0 0 .56-2.33 5 5 0 0 0-.92-3.32 3.19 3.19 0 0 0-2.54-1.06 6.5 6.5 0 0 0-3.14.85h-3.97v-13.73h15.58Zm12-4.11a4.7 4.7 0 0 1 1.81 2 7.8 7.8 0 0 1 0 6.1 4.66 4.66 0 0 1-1.81 2 6 6 0 0 1-5.64 0 4.56 4.56 0 0 1-1.82-2 7.55 7.55 0 0 1 0-6 4.76 4.76 0 0 1 1.83-2.06 5.3 5.3 0 0 1 2.82-.74 5.4 5.4 0 0 1 2.81.7m10.59.38-12.61 26.22-3.08-1.29 12.57-26.22Zm-14.57 2.5a6 6 0 0 0-.31 2.21 5.3 5.3 0 0 0 .34 2.16 1.16 1.16 0 0 0 1.14.74 1.15 1.15 0 0 0 1.17-.7 5.7 5.7 0 0 0 .31-2.2 5.8 5.8 0 0 0-.31-2.25 1.33 1.33 0 0 0-2.34 0Zm15.31 12a4.7 4.7 0 0 1 1.81 2 7 7 0 0 1 .63 3.07 6.9 6.9 0 0 1-.63 3 4.7 4.7 0 0 1-1.81 2 5.37 5.37 0 0 1-2.8.71 5.5 5.5 0 0 1-2.84-.71 4.73 4.73 0 0 1-1.82-2 7.66 7.66 0 0 1 0-6 4.76 4.76 0 0 1 1.83-2.06 5.3 5.3 0 0 1 2.83-.74 5.37 5.37 0 0 1 2.8.75Zm-4 2.87a6.1 6.1 0 0 0-.3 2.22 5.5 5.5 0 0 0 .33 2.16 1.29 1.29 0 0 0 2.32 0 8.4 8.4 0 0 0 0-4.45 1.33 1.33 0 0 0-2.35 0Zm47.13-13.64h-9.36v5.52a8 8 0 0 1 1.87-.62 10 10 0 0 1 1.91-.19 6.7 6.7 0 0 1 3.63 1 7.1 7.1 0 0 1 2.59 2.89 9.6 9.6 0 0 1 1 4.4 8.55 8.55 0 0 1-4.81 7.85 12.14 12.14 0 0 1-10.09.16 10.1 10.1 0 0 1-3.63-2.81l3.36-3.06a6.2 6.2 0 0 0 2.11 1.8 5.6 5.6 0 0 0 2.56.62 4.7 4.7 0 0 0 2.36-.57 3.9 3.9 0 0 0 1.57-1.57 4.8 4.8 0 0 0 .56-2.33 5 5 0 0 0-.92-3.32 3.19 3.19 0 0 0-2.54-1.06 6.5 6.5 0 0 0-3.14.85H275v-13.73h15.58Zm19.95-3.24a9.43 9.43 0 0 1 3.11 4.58 25.5 25.5 0 0 1 0 14.49 9.55 9.55 0 0 1-3.11 4.62 8.08 8.08 0 0 1-5.09 1.6 8.18 8.18 0 0 1-5.11-1.6 9.55 9.55 0 0 1-3.11-4.62 26 26 0 0 1 0-14.49 9.5 9.5 0 0 1 3.1-4.58 8.22 8.22 0 0 1 5.12-1.58 8.13 8.13 0 0 1 5.09 1.58m-7.24 3.56a6.1 6.1 0 0 0-1.22 2.93 28 28 0 0 0-.4 5.32 49 49 0 0 0 .22 5.13l6.24-13.05a2.3 2.3 0 0 0-1.07-1 4 4 0 0 0-1.62-.28 2.78 2.78 0 0 0-2.15.95m4.29 16.62a6.1 6.1 0 0 0 1.2-2.93 30 30 0 0 0 .39-5.44c0-1.26 0-2.45-.09-3.58l-5.89 12.16a2.34 2.34 0 0 0 .95.53 4.9 4.9 0 0 0 1.3.16 2.75 2.75 0 0 0 2.14-.9m17.15-21.05a4.65 4.65 0 0 1 1.81 2 7.7 7.7 0 0 1 0 6.1 4.6 4.6 0 0 1-1.81 2 5.4 5.4 0 0 1-2.81.71 5.45 5.45 0 0 1-2.83-.71 4.6 4.6 0 0 1-1.82-2 7.55 7.55 0 0 1 0-6 4.76 4.76 0 0 1 1.83-2.06 5.3 5.3 0 0 1 2.82-.74 5.4 5.4 0 0 1 2.81.7m10.6.38L322 386.84l-3-1.29 12.57-26.22Zm-14.58 2.5a6.1 6.1 0 0 0-.3 2.21 5.5 5.5 0 0 0 .33 2.16 1.29 1.29 0 0 0 2.32 0 6 6 0 0 0 .3-2.2 6.1 6.1 0 0 0-.3-2.25 1.34 1.34 0 0 0-2.35 0Zm15.32 12a4.74 4.74 0 0 1 1.81 2 7.2 7.2 0 0 1 .62 3.07 7.05 7.05 0 0 1-.62 3 4.77 4.77 0 0 1-1.81 2 6 6 0 0 1-5.64 0 4.67 4.67 0 0 1-1.82-2 7.55 7.55 0 0 1 0-6 4.8 4.8 0 0 1 1.82-2.06 5.33 5.33 0 0 1 2.83-.74 5.4 5.4 0 0 1 2.81.75Zm-4 2.87a5.9 5.9 0 0 0-.31 2.22 5.5 5.5 0 0 0 .33 2.16 1.18 1.18 0 0 0 1.15.74 1.16 1.16 0 0 0 1.17-.7 8.14 8.14 0 0 0 0-4.45 1.32 1.32 0 0 0-2.34 0Zm19.73.7a3.83 3.83 0 0 1 1.44 1.44 4 4 0 0 1 .53 2 6.3 6.3 0 0 1-.32 2c-.22.65-.64 1.69-1.27 3.11l-2.67 6H345l1.88-7.84a3.47 3.47 0 0 1-1.3-1.39 4.1 4.1 0 0 1-.45-1.92 3.9 3.9 0 0 1 1.95-3.44 4.21 4.21 0 0 1 4.09 0Zm-129.88 25.62a9.43 9.43 0 0 1 3.11 4.58 25.76 25.76 0 0 1 0 14.49 9.6 9.6 0 0 1-3.11 4.62 9 9 0 0 1-10.2 0 9.6 9.6 0 0 1-3.11-4.62 26 26 0 0 1 0-14.49 9.4 9.4 0 0 1 3.1-4.58 9 9 0 0 1 10.21 0m-7.24 3.56a6.2 6.2 0 0 0-1.21 2.93 28 28 0 0 0-.4 5.32 47 47 0 0 0 .22 5.13l6.24-13.05a2.3 2.3 0 0 0-1.07-1 4 4 0 0 0-1.62-.28 2.8 2.8 0 0 0-2.16.95m4.3 16.62a6.1 6.1 0 0 0 1.2-2.93 30 30 0 0 0 .39-5.44c0-1.26 0-2.45-.1-3.58l-5.89 12.16a2.4 2.4 0 0 0 1 .53 5 5 0 0 0 1.31.16 2.75 2.75 0 0 0 2.08-.9Zm51.51-.9h-2.56V429h-5.6v-5.38H251v-3.87l7.11-17 5 1.83-6 14.66h4.59l.69-6.17h4.93v6.17h2.56Zm17.89-19.28a9.43 9.43 0 0 1 3.11 4.58 25.76 25.76 0 0 1 0 14.49 9.6 9.6 0 0 1-3.11 4.62 9 9 0 0 1-10.2 0 9.6 9.6 0 0 1-3.11-4.62 26 26 0 0 1 0-14.49 9.4 9.4 0 0 1 3.1-4.58 9 9 0 0 1 10.21 0m-7.25 3.56a6.2 6.2 0 0 0-1.21 2.93 28 28 0 0 0-.4 5.32 47 47 0 0 0 .22 5.13l6.24-13.05a2.3 2.3 0 0 0-1.07-1 4 4 0 0 0-1.62-.28 2.8 2.8 0 0 0-2.16.95m4.3 16.62a6.1 6.1 0 0 0 1.2-2.93 30 30 0 0 0 .38-5.44c0-1.26 0-2.45-.09-3.58l-5.89 12.16a2.4 2.4 0 0 0 .95.53 5 5 0 0 0 1.31.16 2.75 2.75 0 0 0 2.14-.9m17.15-21.05a4.74 4.74 0 0 1 1.81 2 7.2 7.2 0 0 1 .62 3.07 7.05 7.05 0 0 1-.62 3 4.7 4.7 0 0 1-1.81 2 6 6 0 0 1-5.64 0 4.6 4.6 0 0 1-1.82-2 7.55 7.55 0 0 1 0-6 4.76 4.76 0 0 1 1.83-2.06 5.3 5.3 0 0 1 2.82-.74 5.4 5.4 0 0 1 2.81.73m10.59.38L299.88 430l-3.08-1.29 12.57-26.22Zm-14.57 2.49a6.1 6.1 0 0 0-.31 2.22 5.3 5.3 0 0 0 .34 2.16 1.29 1.29 0 0 0 2.31 0 8.14 8.14 0 0 0 0-4.45 1.32 1.32 0 0 0-2.34 0Zm15.31 12a4.7 4.7 0 0 1 1.81 2 7 7 0 0 1 .63 3.07 6.86 6.86 0 0 1-.63 3 4.7 4.7 0 0 1-1.81 2 5.37 5.37 0 0 1-2.8.71 5.5 5.5 0 0 1-2.84-.71 4.7 4.7 0 0 1-1.82-2 7.64 7.64 0 0 1 0-6 4.76 4.76 0 0 1 1.83-2.06 5.3 5.3 0 0 1 2.83-.74 5.37 5.37 0 0 1 2.8.76Zm-4 2.87a6.1 6.1 0 0 0-.3 2.22 5.5 5.5 0 0 0 .33 2.16 1.29 1.29 0 0 0 2.32 0 5.9 5.9 0 0 0 .3-2.19 6 6 0 0 0-.3-2.25 1.33 1.33 0 0 0-2.35 0Zm19.65 1.01a3.66 3.66 0 0 1 1.38 1.38 3.8 3.8 0 0 1 .51 2 5.9 5.9 0 0 1-.33 1.91q-.33 1-1.2 3l-2.57 5.82h-3.76l1.8-7.57a3.45 3.45 0 0 1-1.25-1.35 3.8 3.8 0 0 1-.44-1.84 3.7 3.7 0 0 1 1.92-3.31 4.13 4.13 0 0 1 3.94 0Zm0-12.59a4 4 0 0 1 1.4 1.42 3.8 3.8 0 0 1 0 3.84 3.86 3.86 0 0 1-1.4 1.41 3.75 3.75 0 0 1-1.94.53 3.8 3.8 0 0 1-2-.53 4 4 0 0 1-1.42-1.41 3.8 3.8 0 0 1 0-3.84 4.1 4.1 0 0 1 1.48-1.42 3.7 3.7 0 0 1 2-.53 3.65 3.65 0 0 1 1.85.53Z"/><path fill="#ff1493" d="M475 304a18 18 0 1 1 18-18 18 18 0 0 1-18 18m0-33a15 15 0 1 0 15 15 15 15 0 0 0-15-15m46 82a18 18 0 1 1 18-18 18 18 0 0 1-18 18m0-33a15 15 0 1 0 15 15 15 15 0 0 0-15-15m-51 82a18 18 0 1 1 18-18 18 18 0 0 1-18 18m0-33a15 15 0 1 0 15 15 15 15 0 0 0-15-15"/></g></svg>