<svg xmlns="http://www.w3.org/2000/svg" xmlns:xlink="http://www.w3.org/1999/xlink" viewBox="-2 -2 506 300" id="menu">
    <style>
        #menu {
            display: block;
            margin: 0 auto;
        }

        .item {
            cursor: pointer;
        }

        .item .sector {
            transition: all .1s linear;
            fill: #fff;
            stroke: #333;
            stroke-width: 1;
        }

        .item:hover .sector {
            fill: #eee;
        }

        .menu-trigger {
            fill: #00BCD4;
            stroke: #00BCD4;
        }

        .menu-trigger:hover {
            cursor: pointer;
        }

        .menu-trigger text {
            fill: #fff;
        }
    </style>
    <g id="itemsContainer" transform="" style="transform-origin: 0px 0px 0px; transform: matrix3d(1, 0, 0, 0, 0, 1, 0, 0, 0, 0, 1, 0, 0, 0, 0, 1); -webkit-user-select: none; touch-action: none;">

        <a class="item" id="item-0" xlink:href="" xlink:title="" transform="rotate(0 250 250)">
            <path fill="transparent" stroke="#111" stroke-width="1" class="sector" d="M250,250 l250,0 A250,250 0 0,0 375,33.49364905389035 z"></path>
            <circle cx="437.5" cy="141.74682452694518" r="5"></circle>
            <path d="M250,250 L437.5,141.74682452694518" stroke="orange"></path>
            <circle cx="392.8941955566406" cy="167.5" r="5"></circle>
            <use xlink:href="#your-icon-0" width="40" height="40" x="372.8941955566406" y="147.5" transform="rotate(60 392.8941955566406 167.5)"></use>
        </a>
        <a class="item" id="item-1" xlink:href="" xlink:title="" transform="rotate(-60 250 250)">
            <path fill="transparent" stroke="#111" stroke-width="1" class="sector" d="M250,250 l250,0 A250,250 0 0,0 375,33.49364905389035 z"></path>
            <circle cx="437.5" cy="141.74682452694518" r="5"></circle>
            <path d="M250,250 L437.5,141.74682452694518" stroke="orange"></path>
            <circle cx="392.8941955566406" cy="167.5" r="5"></circle>
            <use xlink:href="#your-icon-1" width="40" height="40" x="372.8941955566406" y="147.5" transform="rotate(60 392.8941955566406 167.5)"></use>
        </a>
        <a class="item" id="item-2" xlink:href="" xlink:title="" transform="rotate(-120 250 250)">
            <path fill="transparent" stroke="#111" stroke-width="1" class="sector" d="M250,250 l250,0 A250,250 0 0,0 375,33.49364905389035 z"></path>
            <circle cx="437.5" cy="141.74682452694518" r="5"></circle>
            <path d="M250,250 L437.5,141.74682452694518" stroke="orange"></path>
            <circle cx="392.8941955566406" cy="167.5" r="5"></circle>
            <use xlink:href="#your-icon-2" width="40" height="40" x="372.8941955566406" y="147.5" transform="rotate(60 392.8941955566406 167.5)"></use>
        </a>
    </g>
    <g id="trigger" class="trigger menu-trigger" xlink:href="">
        <circle cx="250" cy="250" r="40"></circle>
        <!-- menu button label or icon goes here -->
    </g>

    <symbol class="icon icon- label" id="your-icon-0" viewBox="0 0 32 32">
        <path d="M25.914 13.143c-0.437-4.563-4.236-8.143-8.914-8.143-3.619 0-6.717 2.148-8.146 5.23-0.43-0.136-0.878-0.23-1.353-0.23-2.485 0-4.5 2.016-4.5 4.5 0 0.494 0.099 0.961 0.246 1.404-1.933 1.127-3.246 3.195-3.246 5.594 0 3.59 2.91 6.5 6.5 6.5v0.002l17.999-0.002c4.143 0 7.5-3.357 7.5-7.5 0-3.656-2.621-6.693-6.086-7.355zM24.5 25.998v0.002h-17.999c-2.481-0.002-4.5-2.020-4.5-4.502 0-1.6 0.843-3.045 2.254-3.867 1.371-0.787 1.465-0.943 0.89-2.357-0.097-0.291-0.144-0.544-0.144-0.773 0-1.379 1.121-2.5 2.5-2.5 0 0 0.656-0.047 1.353 0.23 1.147 0.457 1.272 0.020 1.814-1.159 1.147-2.473 3.632-4.072 6.332-4.072 3.6 0 6.576 2.723 6.924 6.334 0.123 1.432 0.123 1.432 1.615 1.773 2.586 0.494 4.461 2.762 4.461 5.391 0 3.033-2.467 5.5-5.5 5.5z" fill="#444444"></path>
    </symbol>
    <symbol class="icon icon- label" id="your-icon-1" viewBox="0 0 32 32">
        <path d="M25.914 13.143c-0.437-4.563-4.236-8.143-8.914-8.143-3.619 0-6.717 2.148-8.146 5.23-0.43-0.136-0.878-0.23-1.353-0.23-2.485 0-4.5 2.016-4.5 4.5 0 0.494 0.099 0.961 0.246 1.404-1.933 1.127-3.246 3.195-3.246 5.594 0 3.59 2.91 6.5 6.5 6.5v0.002l17.999-0.002c4.143 0 7.5-3.357 7.5-7.5 0-3.656-2.621-6.693-6.086-7.355zM24.5 25.998v0.002h-17.999c-2.481-0.002-4.5-2.020-4.5-4.502 0-1.6 0.843-3.045 2.254-3.867 1.371-0.787 1.465-0.943 0.89-2.357-0.097-0.291-0.144-0.544-0.144-0.773 0-1.379 1.121-2.5 2.5-2.5 0 0 0.656-0.047 1.353 0.23 1.147 0.457 1.272 0.020 1.814-1.159 1.147-2.473 3.632-4.072 6.332-4.072 3.6 0 6.576 2.723 6.924 6.334 0.123 1.432 0.123 1.432 1.615 1.773 2.586 0.494 4.461 2.762 4.461 5.391 0 3.033-2.467 5.5-5.5 5.5z" fill="#444444"></path>
    </symbol>
    <symbol class="icon icon- label" id="your-icon-2" viewBox="0 0 32 32">
        <path d="M25.914 13.143c-0.437-4.563-4.236-8.143-8.914-8.143-3.619 0-6.717 2.148-8.146 5.23-0.43-0.136-0.878-0.23-1.353-0.23-2.485 0-4.5 2.016-4.5 4.5 0 0.494 0.099 0.961 0.246 1.404-1.933 1.127-3.246 3.195-3.246 5.594 0 3.59 2.91 6.5 6.5 6.5v0.002l17.999-0.002c4.143 0 7.5-3.357 7.5-7.5 0-3.656-2.621-6.693-6.086-7.355zM24.5 25.998v0.002h-17.999c-2.481-0.002-4.5-2.020-4.5-4.502 0-1.6 0.843-3.045 2.254-3.867 1.371-0.787 1.465-0.943 0.89-2.357-0.097-0.291-0.144-0.544-0.144-0.773 0-1.379 1.121-2.5 2.5-2.5 0 0 0.656-0.047 1.353 0.23 1.147 0.457 1.272 0.020 1.814-1.159 1.147-2.473 3.632-4.072 6.332-4.072 3.6 0 6.576 2.723 6.924 6.334 0.123 1.432 0.123 1.432 1.615 1.773 2.586 0.494 4.461 2.762 4.461 5.391 0 3.033-2.467 5.5-5.5 5.5z" fill="#444444"></path>
    </symbol>
</svg>
